G04 #@! TF.GenerationSoftware,KiCad,Pcbnew,(5.1.4)-1*
G04 #@! TF.CreationDate,2021-01-14T09:01:17+01:00*
G04 #@! TF.ProjectId,daughterBoard,64617567-6874-4657-9242-6f6172642e6b,rev?*
G04 #@! TF.SameCoordinates,Original*
G04 #@! TF.FileFunction,Copper,L1,Top*
G04 #@! TF.FilePolarity,Positive*
%FSLAX46Y46*%
G04 Gerber Fmt 4.6, Leading zero omitted, Abs format (unit mm)*
G04 Created by KiCad (PCBNEW (5.1.4)-1) date 2021-01-14 09:01:17*
%MOMM*%
%LPD*%
G04 APERTURE LIST*
%ADD10C,0.100000*%
%ADD11C,1.700000*%
%ADD12O,1.950000X1.700000*%
%ADD13C,6.400000*%
%ADD14C,0.800000*%
%ADD15C,2.340000*%
%ADD16O,1.850000X3.048000*%
%ADD17C,1.600000*%
%ADD18R,1.800000X1.800000*%
%ADD19C,1.800000*%
%ADD20R,1.700000X1.700000*%
%ADD21O,1.700000X1.700000*%
%ADD22C,1.500000*%
%ADD23R,1.500000X1.500000*%
%ADD24O,1.600000X1.600000*%
%ADD25C,0.400000*%
%ADD26C,0.254000*%
G04 APERTURE END LIST*
D10*
G36*
X153149504Y-99481204D02*
G01*
X153173773Y-99484804D01*
X153197571Y-99490765D01*
X153220671Y-99499030D01*
X153242849Y-99509520D01*
X153263893Y-99522133D01*
X153283598Y-99536747D01*
X153301777Y-99553223D01*
X153318253Y-99571402D01*
X153332867Y-99591107D01*
X153345480Y-99612151D01*
X153355970Y-99634329D01*
X153364235Y-99657429D01*
X153370196Y-99681227D01*
X153373796Y-99705496D01*
X153375000Y-99730000D01*
X153375000Y-100930000D01*
X153373796Y-100954504D01*
X153370196Y-100978773D01*
X153364235Y-101002571D01*
X153355970Y-101025671D01*
X153345480Y-101047849D01*
X153332867Y-101068893D01*
X153318253Y-101088598D01*
X153301777Y-101106777D01*
X153283598Y-101123253D01*
X153263893Y-101137867D01*
X153242849Y-101150480D01*
X153220671Y-101160970D01*
X153197571Y-101169235D01*
X153173773Y-101175196D01*
X153149504Y-101178796D01*
X153125000Y-101180000D01*
X151675000Y-101180000D01*
X151650496Y-101178796D01*
X151626227Y-101175196D01*
X151602429Y-101169235D01*
X151579329Y-101160970D01*
X151557151Y-101150480D01*
X151536107Y-101137867D01*
X151516402Y-101123253D01*
X151498223Y-101106777D01*
X151481747Y-101088598D01*
X151467133Y-101068893D01*
X151454520Y-101047849D01*
X151444030Y-101025671D01*
X151435765Y-101002571D01*
X151429804Y-100978773D01*
X151426204Y-100954504D01*
X151425000Y-100930000D01*
X151425000Y-99730000D01*
X151426204Y-99705496D01*
X151429804Y-99681227D01*
X151435765Y-99657429D01*
X151444030Y-99634329D01*
X151454520Y-99612151D01*
X151467133Y-99591107D01*
X151481747Y-99571402D01*
X151498223Y-99553223D01*
X151516402Y-99536747D01*
X151536107Y-99522133D01*
X151557151Y-99509520D01*
X151579329Y-99499030D01*
X151602429Y-99490765D01*
X151626227Y-99484804D01*
X151650496Y-99481204D01*
X151675000Y-99480000D01*
X153125000Y-99480000D01*
X153149504Y-99481204D01*
X153149504Y-99481204D01*
G37*
D11*
X152400000Y-100330000D03*
D12*
X152400000Y-102830000D03*
X152400000Y-105330000D03*
X152400000Y-107830000D03*
D13*
X156210000Y-115570000D03*
D14*
X158610000Y-115570000D03*
X157907056Y-117267056D03*
X156210000Y-117970000D03*
X154512944Y-117267056D03*
X153810000Y-115570000D03*
X154512944Y-113872944D03*
X156210000Y-113170000D03*
X157907056Y-113872944D03*
X135047056Y-113872944D03*
X133350000Y-113170000D03*
X131652944Y-113872944D03*
X130950000Y-115570000D03*
X131652944Y-117267056D03*
X133350000Y-117970000D03*
X135047056Y-117267056D03*
X135750000Y-115570000D03*
D13*
X133350000Y-115570000D03*
X133350000Y-92710000D03*
D14*
X135750000Y-92710000D03*
X135047056Y-94407056D03*
X133350000Y-95110000D03*
X131652944Y-94407056D03*
X130950000Y-92710000D03*
X131652944Y-91012944D03*
X133350000Y-90310000D03*
X135047056Y-91012944D03*
X157907056Y-91012944D03*
X156210000Y-90310000D03*
X154512944Y-91012944D03*
X153810000Y-92710000D03*
X154512944Y-94407056D03*
X156210000Y-95110000D03*
X157907056Y-94407056D03*
X158610000Y-92710000D03*
D13*
X156210000Y-92710000D03*
D15*
X134620000Y-109140000D03*
X134620000Y-104140000D03*
X134620000Y-99140000D03*
D16*
X140970000Y-97990000D03*
X145970000Y-97990000D03*
X140970000Y-110490000D03*
X145970000Y-110490000D03*
D17*
X144780000Y-114300000D03*
X149780000Y-114300000D03*
D18*
X138430000Y-92710000D03*
D19*
X140970000Y-92710000D03*
X140970000Y-115570000D03*
D18*
X138430000Y-115570000D03*
D20*
X130810000Y-105410000D03*
D21*
X130810000Y-102870000D03*
D22*
X143510000Y-104140000D03*
X140970000Y-104140000D03*
D23*
X146050000Y-104140000D03*
D17*
X147320000Y-116840000D03*
D24*
X144780000Y-116840000D03*
X144780000Y-91440000D03*
D17*
X147320000Y-91440000D03*
X144780000Y-93980000D03*
D24*
X147320000Y-93980000D03*
D25*
X147320000Y-116840000D02*
X147320000Y-115570000D01*
X144780000Y-114300000D02*
X146050000Y-114300000D01*
X146050000Y-114300000D02*
X147320000Y-115570000D01*
X145970000Y-110490000D02*
X145970000Y-114220000D01*
X152400000Y-105330000D02*
X149940000Y-105330000D01*
X147295000Y-110490000D02*
X148590000Y-109195000D01*
X145970000Y-110490000D02*
X147295000Y-110490000D01*
X148590000Y-109195000D02*
X148590000Y-106680000D01*
X148590000Y-106680000D02*
X149860000Y-105410000D01*
X145970000Y-109891000D02*
X145970000Y-110490000D01*
X144029000Y-107950000D02*
X145970000Y-109891000D01*
X138430000Y-107950000D02*
X144029000Y-107950000D01*
X134620000Y-104140000D02*
X138430000Y-107950000D01*
X147320000Y-95111370D02*
X147320000Y-93980000D01*
X147320000Y-97965000D02*
X147320000Y-95111370D01*
X147295000Y-97990000D02*
X147320000Y-97965000D01*
X145970000Y-97990000D02*
X147295000Y-97990000D01*
X147295000Y-105385000D02*
X148590000Y-106680000D01*
X147295000Y-97990000D02*
X147295000Y-105385000D01*
X140970000Y-92710000D02*
X142240000Y-91440000D01*
X142240000Y-91440000D02*
X144780000Y-91440000D01*
X149900000Y-102830000D02*
X152400000Y-102830000D01*
X149860000Y-102870000D02*
X149900000Y-102830000D01*
X148590000Y-101600000D02*
X149860000Y-102870000D01*
X147320000Y-91440000D02*
X148590000Y-92710000D01*
X148590000Y-92710000D02*
X148590000Y-101600000D01*
X144780000Y-93980000D02*
X144780000Y-95250000D01*
X144780000Y-95250000D02*
X143510000Y-96520000D01*
X143510000Y-96520000D02*
X143510000Y-104140000D01*
D26*
G36*
X153688724Y-90009119D02*
G01*
X156210000Y-92530395D01*
X156224143Y-92516253D01*
X156403748Y-92695858D01*
X156389605Y-92710000D01*
X158910881Y-95231276D01*
X159360000Y-94900914D01*
X159360001Y-113379086D01*
X158910881Y-113048724D01*
X156389605Y-115570000D01*
X156403748Y-115584143D01*
X156224143Y-115763748D01*
X156210000Y-115749605D01*
X153688724Y-118270881D01*
X154019086Y-118720000D01*
X135540914Y-118720000D01*
X135871276Y-118270881D01*
X133350000Y-115749605D01*
X133335858Y-115763748D01*
X133156253Y-115584143D01*
X133170395Y-115570000D01*
X133529605Y-115570000D01*
X136050881Y-118091276D01*
X136540548Y-117731088D01*
X136900849Y-117067118D01*
X136984695Y-116796865D01*
X136999463Y-116824494D01*
X137078815Y-116921185D01*
X137175506Y-117000537D01*
X137285820Y-117059502D01*
X137405518Y-117095812D01*
X137530000Y-117108072D01*
X138144250Y-117105000D01*
X138303000Y-116946250D01*
X138303000Y-115697000D01*
X138283000Y-115697000D01*
X138283000Y-115443000D01*
X138303000Y-115443000D01*
X138303000Y-114193750D01*
X138557000Y-114193750D01*
X138557000Y-115443000D01*
X138577000Y-115443000D01*
X138577000Y-115697000D01*
X138557000Y-115697000D01*
X138557000Y-116946250D01*
X138715750Y-117105000D01*
X139330000Y-117108072D01*
X139454482Y-117095812D01*
X139574180Y-117059502D01*
X139684494Y-117000537D01*
X139781185Y-116921185D01*
X139860537Y-116824494D01*
X139919502Y-116714180D01*
X139925056Y-116695873D01*
X139991495Y-116762312D01*
X140242905Y-116930299D01*
X140522257Y-117046011D01*
X140818816Y-117105000D01*
X141121184Y-117105000D01*
X141417743Y-117046011D01*
X141697095Y-116930299D01*
X141948505Y-116762312D01*
X142162312Y-116548505D01*
X142330299Y-116297095D01*
X142446011Y-116017743D01*
X142505000Y-115721184D01*
X142505000Y-115418816D01*
X142446011Y-115122257D01*
X142330299Y-114842905D01*
X142162312Y-114591495D01*
X141948505Y-114377688D01*
X141697095Y-114209701D01*
X141417743Y-114093989D01*
X141121184Y-114035000D01*
X140818816Y-114035000D01*
X140522257Y-114093989D01*
X140242905Y-114209701D01*
X139991495Y-114377688D01*
X139925056Y-114444127D01*
X139919502Y-114425820D01*
X139860537Y-114315506D01*
X139781185Y-114218815D01*
X139684494Y-114139463D01*
X139574180Y-114080498D01*
X139454482Y-114044188D01*
X139330000Y-114031928D01*
X138715750Y-114035000D01*
X138557000Y-114193750D01*
X138303000Y-114193750D01*
X138144250Y-114035000D01*
X137530000Y-114031928D01*
X137405518Y-114044188D01*
X137285820Y-114080498D01*
X137175506Y-114139463D01*
X137078815Y-114218815D01*
X136999463Y-114315506D01*
X136985702Y-114341251D01*
X136919452Y-114117792D01*
X136567555Y-113449330D01*
X136540548Y-113408912D01*
X136050881Y-113048724D01*
X133529605Y-115570000D01*
X133170395Y-115570000D01*
X130649119Y-113048724D01*
X130200000Y-113379086D01*
X130200000Y-112869119D01*
X130828724Y-112869119D01*
X133350000Y-115390395D01*
X135871276Y-112869119D01*
X135511088Y-112379452D01*
X134847118Y-112019151D01*
X134125615Y-111795306D01*
X133374305Y-111716520D01*
X132622062Y-111785822D01*
X131897792Y-112000548D01*
X131229330Y-112352445D01*
X131188912Y-112379452D01*
X130828724Y-112869119D01*
X130200000Y-112869119D01*
X130200000Y-110396602D01*
X133543003Y-110396602D01*
X133659275Y-110678389D01*
X133977860Y-110836257D01*
X134321122Y-110928938D01*
X134675869Y-110952873D01*
X135028470Y-110907139D01*
X135365373Y-110793495D01*
X135580725Y-110678389D01*
X135606055Y-110617000D01*
X139410000Y-110617000D01*
X139410000Y-111216000D01*
X139464751Y-111517901D01*
X139577348Y-111803319D01*
X139743464Y-112061286D01*
X139956715Y-112281889D01*
X140208906Y-112456650D01*
X140490345Y-112578853D01*
X140601336Y-112604812D01*
X140843000Y-112484483D01*
X140843000Y-110617000D01*
X141097000Y-110617000D01*
X141097000Y-112484483D01*
X141338664Y-112604812D01*
X141449655Y-112578853D01*
X141731094Y-112456650D01*
X141983285Y-112281889D01*
X142196536Y-112061286D01*
X142362652Y-111803319D01*
X142475249Y-111517901D01*
X142530000Y-111216000D01*
X142530000Y-110617000D01*
X141097000Y-110617000D01*
X140843000Y-110617000D01*
X139410000Y-110617000D01*
X135606055Y-110617000D01*
X135696997Y-110396602D01*
X134620000Y-109319605D01*
X133543003Y-110396602D01*
X130200000Y-110396602D01*
X130200000Y-109195869D01*
X132807127Y-109195869D01*
X132852861Y-109548470D01*
X132966505Y-109885373D01*
X133081611Y-110100725D01*
X133363398Y-110216997D01*
X134440395Y-109140000D01*
X134799605Y-109140000D01*
X135876602Y-110216997D01*
X136158389Y-110100725D01*
X136316257Y-109782140D01*
X136408938Y-109438878D01*
X136432873Y-109084131D01*
X136387139Y-108731530D01*
X136273495Y-108394627D01*
X136158389Y-108179275D01*
X135876602Y-108063003D01*
X134799605Y-109140000D01*
X134440395Y-109140000D01*
X133363398Y-108063003D01*
X133081611Y-108179275D01*
X132923743Y-108497860D01*
X132831062Y-108841122D01*
X132807127Y-109195869D01*
X130200000Y-109195869D01*
X130200000Y-107883398D01*
X133543003Y-107883398D01*
X134620000Y-108960395D01*
X135696997Y-107883398D01*
X135580725Y-107601611D01*
X135262140Y-107443743D01*
X134918878Y-107351062D01*
X134564131Y-107327127D01*
X134211530Y-107372861D01*
X133874627Y-107486505D01*
X133659275Y-107601611D01*
X133543003Y-107883398D01*
X130200000Y-107883398D01*
X130200000Y-106898072D01*
X131660000Y-106898072D01*
X131784482Y-106885812D01*
X131904180Y-106849502D01*
X132014494Y-106790537D01*
X132111185Y-106711185D01*
X132190537Y-106614494D01*
X132249502Y-106504180D01*
X132285812Y-106384482D01*
X132298072Y-106260000D01*
X132298072Y-104560000D01*
X132285812Y-104435518D01*
X132249502Y-104315820D01*
X132190537Y-104205506D01*
X132111185Y-104108815D01*
X132014494Y-104029463D01*
X131904180Y-103970498D01*
X131876902Y-103962223D01*
X132815000Y-103962223D01*
X132815000Y-104317777D01*
X132884365Y-104666499D01*
X133020429Y-104994988D01*
X133217965Y-105290621D01*
X133469379Y-105542035D01*
X133765012Y-105739571D01*
X134093501Y-105875635D01*
X134442223Y-105945000D01*
X134797777Y-105945000D01*
X135146499Y-105875635D01*
X135166488Y-105867355D01*
X137810563Y-108511432D01*
X137836709Y-108543291D01*
X137868568Y-108569437D01*
X137868570Y-108569439D01*
X137963854Y-108647636D01*
X138108913Y-108725172D01*
X138266311Y-108772918D01*
X138388981Y-108785000D01*
X138388982Y-108785000D01*
X138430000Y-108789040D01*
X138471018Y-108785000D01*
X139872722Y-108785000D01*
X139743464Y-108918714D01*
X139577348Y-109176681D01*
X139464751Y-109462099D01*
X139410000Y-109764000D01*
X139410000Y-110363000D01*
X140843000Y-110363000D01*
X140843000Y-110343000D01*
X141097000Y-110343000D01*
X141097000Y-110363000D01*
X142530000Y-110363000D01*
X142530000Y-109764000D01*
X142475249Y-109462099D01*
X142362652Y-109176681D01*
X142196536Y-108918714D01*
X142067278Y-108785000D01*
X143683133Y-108785000D01*
X144444383Y-109546251D01*
X144432572Y-109585188D01*
X144410000Y-109814365D01*
X144410000Y-111165636D01*
X144432572Y-111394813D01*
X144521774Y-111688875D01*
X144666632Y-111959883D01*
X144861577Y-112197424D01*
X145099118Y-112392369D01*
X145135001Y-112411549D01*
X145135001Y-112907501D01*
X144921335Y-112865000D01*
X144638665Y-112865000D01*
X144361426Y-112920147D01*
X144100273Y-113028320D01*
X143865241Y-113185363D01*
X143665363Y-113385241D01*
X143508320Y-113620273D01*
X143400147Y-113881426D01*
X143345000Y-114158665D01*
X143345000Y-114441335D01*
X143400147Y-114718574D01*
X143508320Y-114979727D01*
X143665363Y-115214759D01*
X143865241Y-115414637D01*
X144100273Y-115571680D01*
X144105029Y-115573650D01*
X143978899Y-115641068D01*
X143760392Y-115820392D01*
X143581068Y-116038899D01*
X143447818Y-116288192D01*
X143365764Y-116558691D01*
X143338057Y-116840000D01*
X143365764Y-117121309D01*
X143447818Y-117391808D01*
X143581068Y-117641101D01*
X143760392Y-117859608D01*
X143978899Y-118038932D01*
X144228192Y-118172182D01*
X144498691Y-118254236D01*
X144709508Y-118275000D01*
X144850492Y-118275000D01*
X145061309Y-118254236D01*
X145331808Y-118172182D01*
X145581101Y-118038932D01*
X145799608Y-117859608D01*
X145978932Y-117641101D01*
X146046350Y-117514971D01*
X146048320Y-117519727D01*
X146205363Y-117754759D01*
X146405241Y-117954637D01*
X146640273Y-118111680D01*
X146901426Y-118219853D01*
X147178665Y-118275000D01*
X147461335Y-118275000D01*
X147738574Y-118219853D01*
X147999727Y-118111680D01*
X148234759Y-117954637D01*
X148434637Y-117754759D01*
X148591680Y-117519727D01*
X148699853Y-117258574D01*
X148755000Y-116981335D01*
X148755000Y-116698665D01*
X148699853Y-116421426D01*
X148591680Y-116160273D01*
X148434637Y-115925241D01*
X148234759Y-115725363D01*
X148155000Y-115672070D01*
X148155000Y-115611015D01*
X148159040Y-115569999D01*
X148154865Y-115527610D01*
X148142918Y-115406311D01*
X148108456Y-115292702D01*
X148966903Y-115292702D01*
X149038486Y-115536671D01*
X149293996Y-115657571D01*
X149568184Y-115726300D01*
X149850512Y-115740217D01*
X150130130Y-115698787D01*
X150396292Y-115603603D01*
X150504631Y-115545695D01*
X152356520Y-115545695D01*
X152425822Y-116297938D01*
X152640548Y-117022208D01*
X152992445Y-117690670D01*
X153019452Y-117731088D01*
X153509119Y-118091276D01*
X156030395Y-115570000D01*
X153509119Y-113048724D01*
X153019452Y-113408912D01*
X152659151Y-114072882D01*
X152435306Y-114794385D01*
X152356520Y-115545695D01*
X150504631Y-115545695D01*
X150521514Y-115536671D01*
X150593097Y-115292702D01*
X149780000Y-114479605D01*
X148966903Y-115292702D01*
X148108456Y-115292702D01*
X148095172Y-115248913D01*
X148017636Y-115103854D01*
X147913291Y-114976709D01*
X147881426Y-114950558D01*
X147301380Y-114370512D01*
X148339783Y-114370512D01*
X148381213Y-114650130D01*
X148476397Y-114916292D01*
X148543329Y-115041514D01*
X148787298Y-115113097D01*
X149600395Y-114300000D01*
X149959605Y-114300000D01*
X150772702Y-115113097D01*
X151016671Y-115041514D01*
X151137571Y-114786004D01*
X151206300Y-114511816D01*
X151220217Y-114229488D01*
X151178787Y-113949870D01*
X151083603Y-113683708D01*
X151016671Y-113558486D01*
X150772702Y-113486903D01*
X149959605Y-114300000D01*
X149600395Y-114300000D01*
X148787298Y-113486903D01*
X148543329Y-113558486D01*
X148422429Y-113813996D01*
X148353700Y-114088184D01*
X148339783Y-114370512D01*
X147301380Y-114370512D01*
X146805000Y-113874133D01*
X146805000Y-113307298D01*
X148966903Y-113307298D01*
X149780000Y-114120395D01*
X150593097Y-113307298D01*
X150521514Y-113063329D01*
X150266004Y-112942429D01*
X149991816Y-112873700D01*
X149898884Y-112869119D01*
X153688724Y-112869119D01*
X156210000Y-115390395D01*
X158731276Y-112869119D01*
X158371088Y-112379452D01*
X157707118Y-112019151D01*
X156985615Y-111795306D01*
X156234305Y-111716520D01*
X155482062Y-111785822D01*
X154757792Y-112000548D01*
X154089330Y-112352445D01*
X154048912Y-112379452D01*
X153688724Y-112869119D01*
X149898884Y-112869119D01*
X149709488Y-112859783D01*
X149429870Y-112901213D01*
X149163708Y-112996397D01*
X149038486Y-113063329D01*
X148966903Y-113307298D01*
X146805000Y-113307298D01*
X146805000Y-112411549D01*
X146840883Y-112392369D01*
X147078424Y-112197424D01*
X147273369Y-111959883D01*
X147418226Y-111688875D01*
X147507428Y-111394813D01*
X147517243Y-111295156D01*
X147616087Y-111265172D01*
X147761146Y-111187636D01*
X147888291Y-111083291D01*
X147914446Y-111051422D01*
X149151433Y-109814436D01*
X149183291Y-109788291D01*
X149287636Y-109661146D01*
X149365172Y-109516087D01*
X149412918Y-109358689D01*
X149425000Y-109236019D01*
X149425000Y-109236018D01*
X149429040Y-109195000D01*
X149425000Y-109153982D01*
X149425000Y-107025867D01*
X150285868Y-106165000D01*
X151039207Y-106165000D01*
X151219866Y-106385134D01*
X151445986Y-106570706D01*
X151463374Y-106580000D01*
X151445986Y-106589294D01*
X151219866Y-106774866D01*
X151034294Y-107000986D01*
X150896401Y-107258966D01*
X150811487Y-107538889D01*
X150782815Y-107830000D01*
X150811487Y-108121111D01*
X150896401Y-108401034D01*
X151034294Y-108659014D01*
X151219866Y-108885134D01*
X151445986Y-109070706D01*
X151703966Y-109208599D01*
X151983889Y-109293513D01*
X152202050Y-109315000D01*
X152597950Y-109315000D01*
X152816111Y-109293513D01*
X153096034Y-109208599D01*
X153354014Y-109070706D01*
X153580134Y-108885134D01*
X153765706Y-108659014D01*
X153903599Y-108401034D01*
X153988513Y-108121111D01*
X154017185Y-107830000D01*
X153988513Y-107538889D01*
X153903599Y-107258966D01*
X153765706Y-107000986D01*
X153580134Y-106774866D01*
X153354014Y-106589294D01*
X153336626Y-106580000D01*
X153354014Y-106570706D01*
X153580134Y-106385134D01*
X153765706Y-106159014D01*
X153903599Y-105901034D01*
X153988513Y-105621111D01*
X154017185Y-105330000D01*
X153988513Y-105038889D01*
X153903599Y-104758966D01*
X153765706Y-104500986D01*
X153580134Y-104274866D01*
X153354014Y-104089294D01*
X153336626Y-104080000D01*
X153354014Y-104070706D01*
X153580134Y-103885134D01*
X153765706Y-103659014D01*
X153903599Y-103401034D01*
X153988513Y-103121111D01*
X154017185Y-102830000D01*
X153988513Y-102538889D01*
X153903599Y-102258966D01*
X153765706Y-102000986D01*
X153584392Y-101780055D01*
X153619180Y-101769502D01*
X153729494Y-101710537D01*
X153826185Y-101631185D01*
X153905537Y-101534494D01*
X153964502Y-101424180D01*
X154000812Y-101304482D01*
X154013072Y-101180000D01*
X154010000Y-100615750D01*
X153851250Y-100457000D01*
X152527000Y-100457000D01*
X152527000Y-100477000D01*
X152273000Y-100477000D01*
X152273000Y-100457000D01*
X150948750Y-100457000D01*
X150790000Y-100615750D01*
X150786928Y-101180000D01*
X150799188Y-101304482D01*
X150835498Y-101424180D01*
X150894463Y-101534494D01*
X150973815Y-101631185D01*
X151070506Y-101710537D01*
X151180820Y-101769502D01*
X151215608Y-101780055D01*
X151039207Y-101995000D01*
X150165868Y-101995000D01*
X149425000Y-101254133D01*
X149425000Y-99480000D01*
X150786928Y-99480000D01*
X150790000Y-100044250D01*
X150948750Y-100203000D01*
X152273000Y-100203000D01*
X152273000Y-99003750D01*
X152527000Y-99003750D01*
X152527000Y-100203000D01*
X153851250Y-100203000D01*
X154010000Y-100044250D01*
X154013072Y-99480000D01*
X154000812Y-99355518D01*
X153964502Y-99235820D01*
X153905537Y-99125506D01*
X153826185Y-99028815D01*
X153729494Y-98949463D01*
X153619180Y-98890498D01*
X153499482Y-98854188D01*
X153375000Y-98841928D01*
X152685750Y-98845000D01*
X152527000Y-99003750D01*
X152273000Y-99003750D01*
X152114250Y-98845000D01*
X151425000Y-98841928D01*
X151300518Y-98854188D01*
X151180820Y-98890498D01*
X151070506Y-98949463D01*
X150973815Y-99028815D01*
X150894463Y-99125506D01*
X150835498Y-99235820D01*
X150799188Y-99355518D01*
X150786928Y-99480000D01*
X149425000Y-99480000D01*
X149425000Y-95410881D01*
X153688724Y-95410881D01*
X154048912Y-95900548D01*
X154712882Y-96260849D01*
X155434385Y-96484694D01*
X156185695Y-96563480D01*
X156937938Y-96494178D01*
X157662208Y-96279452D01*
X158330670Y-95927555D01*
X158371088Y-95900548D01*
X158731276Y-95410881D01*
X156210000Y-92889605D01*
X153688724Y-95410881D01*
X149425000Y-95410881D01*
X149425000Y-92751015D01*
X149429040Y-92709999D01*
X149426647Y-92685695D01*
X152356520Y-92685695D01*
X152425822Y-93437938D01*
X152640548Y-94162208D01*
X152992445Y-94830670D01*
X153019452Y-94871088D01*
X153509119Y-95231276D01*
X156030395Y-92710000D01*
X153509119Y-90188724D01*
X153019452Y-90548912D01*
X152659151Y-91212882D01*
X152435306Y-91934385D01*
X152356520Y-92685695D01*
X149426647Y-92685695D01*
X149425000Y-92668981D01*
X149412918Y-92546311D01*
X149365172Y-92388913D01*
X149287636Y-92243854D01*
X149183291Y-92116709D01*
X149151428Y-92090560D01*
X148736286Y-91675418D01*
X148755000Y-91581335D01*
X148755000Y-91298665D01*
X148699853Y-91021426D01*
X148591680Y-90760273D01*
X148434637Y-90525241D01*
X148234759Y-90325363D01*
X147999727Y-90168320D01*
X147738574Y-90060147D01*
X147461335Y-90005000D01*
X147178665Y-90005000D01*
X146901426Y-90060147D01*
X146640273Y-90168320D01*
X146405241Y-90325363D01*
X146205363Y-90525241D01*
X146048320Y-90760273D01*
X146046350Y-90765029D01*
X145978932Y-90638899D01*
X145799608Y-90420392D01*
X145581101Y-90241068D01*
X145331808Y-90107818D01*
X145061309Y-90025764D01*
X144850492Y-90005000D01*
X144709508Y-90005000D01*
X144498691Y-90025764D01*
X144228192Y-90107818D01*
X143978899Y-90241068D01*
X143760392Y-90420392D01*
X143608888Y-90605000D01*
X142281015Y-90605000D01*
X142239999Y-90600960D01*
X142198983Y-90605000D01*
X142198981Y-90605000D01*
X142076311Y-90617082D01*
X141918913Y-90664828D01*
X141773854Y-90742364D01*
X141646709Y-90846709D01*
X141620558Y-90878574D01*
X141290461Y-91208671D01*
X141121184Y-91175000D01*
X140818816Y-91175000D01*
X140522257Y-91233989D01*
X140242905Y-91349701D01*
X139991495Y-91517688D01*
X139925056Y-91584127D01*
X139919502Y-91565820D01*
X139860537Y-91455506D01*
X139781185Y-91358815D01*
X139684494Y-91279463D01*
X139574180Y-91220498D01*
X139454482Y-91184188D01*
X139330000Y-91171928D01*
X138715750Y-91175000D01*
X138557000Y-91333750D01*
X138557000Y-92583000D01*
X138577000Y-92583000D01*
X138577000Y-92837000D01*
X138557000Y-92837000D01*
X138557000Y-94086250D01*
X138715750Y-94245000D01*
X139330000Y-94248072D01*
X139454482Y-94235812D01*
X139574180Y-94199502D01*
X139684494Y-94140537D01*
X139781185Y-94061185D01*
X139860537Y-93964494D01*
X139919502Y-93854180D01*
X139925056Y-93835873D01*
X139991495Y-93902312D01*
X140242905Y-94070299D01*
X140522257Y-94186011D01*
X140818816Y-94245000D01*
X141121184Y-94245000D01*
X141417743Y-94186011D01*
X141697095Y-94070299D01*
X141948505Y-93902312D01*
X142162312Y-93688505D01*
X142330299Y-93437095D01*
X142446011Y-93157743D01*
X142505000Y-92861184D01*
X142505000Y-92558816D01*
X142471329Y-92389539D01*
X142585868Y-92275000D01*
X143608888Y-92275000D01*
X143760392Y-92459608D01*
X143978899Y-92638932D01*
X144105029Y-92706350D01*
X144100273Y-92708320D01*
X143865241Y-92865363D01*
X143665363Y-93065241D01*
X143508320Y-93300273D01*
X143400147Y-93561426D01*
X143345000Y-93838665D01*
X143345000Y-94121335D01*
X143400147Y-94398574D01*
X143508320Y-94659727D01*
X143665363Y-94894759D01*
X143809868Y-95039264D01*
X142948579Y-95900554D01*
X142916709Y-95926709D01*
X142828276Y-96034466D01*
X142812364Y-96053855D01*
X142734828Y-96198914D01*
X142687082Y-96356312D01*
X142670960Y-96520000D01*
X142675000Y-96561019D01*
X142675001Y-103032204D01*
X142627114Y-103064201D01*
X142434201Y-103257114D01*
X142282629Y-103483957D01*
X142240000Y-103586873D01*
X142197371Y-103483957D01*
X142045799Y-103257114D01*
X141852886Y-103064201D01*
X141626043Y-102912629D01*
X141373989Y-102808225D01*
X141106411Y-102755000D01*
X140833589Y-102755000D01*
X140566011Y-102808225D01*
X140313957Y-102912629D01*
X140087114Y-103064201D01*
X139894201Y-103257114D01*
X139742629Y-103483957D01*
X139638225Y-103736011D01*
X139585000Y-104003589D01*
X139585000Y-104276411D01*
X139638225Y-104543989D01*
X139742629Y-104796043D01*
X139894201Y-105022886D01*
X140087114Y-105215799D01*
X140313957Y-105367371D01*
X140566011Y-105471775D01*
X140833589Y-105525000D01*
X141106411Y-105525000D01*
X141373989Y-105471775D01*
X141626043Y-105367371D01*
X141852886Y-105215799D01*
X142045799Y-105022886D01*
X142197371Y-104796043D01*
X142240000Y-104693127D01*
X142282629Y-104796043D01*
X142434201Y-105022886D01*
X142627114Y-105215799D01*
X142853957Y-105367371D01*
X143106011Y-105471775D01*
X143373589Y-105525000D01*
X143646411Y-105525000D01*
X143913989Y-105471775D01*
X144166043Y-105367371D01*
X144392886Y-105215799D01*
X144585799Y-105022886D01*
X144663555Y-104906517D01*
X144674188Y-105014482D01*
X144710498Y-105134180D01*
X144769463Y-105244494D01*
X144848815Y-105341185D01*
X144945506Y-105420537D01*
X145055820Y-105479502D01*
X145175518Y-105515812D01*
X145300000Y-105528072D01*
X145764250Y-105525000D01*
X145923000Y-105366250D01*
X145923000Y-104267000D01*
X145903000Y-104267000D01*
X145903000Y-104013000D01*
X145923000Y-104013000D01*
X145923000Y-102913750D01*
X145764250Y-102755000D01*
X145300000Y-102751928D01*
X145175518Y-102764188D01*
X145055820Y-102800498D01*
X144945506Y-102859463D01*
X144848815Y-102938815D01*
X144769463Y-103035506D01*
X144710498Y-103145820D01*
X144674188Y-103265518D01*
X144663555Y-103373483D01*
X144585799Y-103257114D01*
X144392886Y-103064201D01*
X144345000Y-103032205D01*
X144345000Y-96865867D01*
X144638936Y-96571931D01*
X144521774Y-96791126D01*
X144432572Y-97085188D01*
X144410000Y-97314365D01*
X144410000Y-98665636D01*
X144432572Y-98894813D01*
X144521774Y-99188875D01*
X144666632Y-99459883D01*
X144861577Y-99697424D01*
X145099118Y-99892369D01*
X145370126Y-100037226D01*
X145664188Y-100126428D01*
X145970000Y-100156548D01*
X146275813Y-100126428D01*
X146460000Y-100070556D01*
X146460001Y-102754178D01*
X146335750Y-102755000D01*
X146177000Y-102913750D01*
X146177000Y-104013000D01*
X146197000Y-104013000D01*
X146197000Y-104267000D01*
X146177000Y-104267000D01*
X146177000Y-105366250D01*
X146335750Y-105525000D01*
X146469836Y-105525887D01*
X146472082Y-105548688D01*
X146519828Y-105706086D01*
X146597364Y-105851145D01*
X146617463Y-105875635D01*
X146701710Y-105978291D01*
X146733574Y-106004441D01*
X147755001Y-107025869D01*
X147755000Y-108849131D01*
X147381575Y-109222557D01*
X147273369Y-109020117D01*
X147078424Y-108782576D01*
X146840882Y-108587631D01*
X146569874Y-108442774D01*
X146275812Y-108353572D01*
X145970000Y-108323452D01*
X145664187Y-108353572D01*
X145625251Y-108365383D01*
X144648446Y-107388579D01*
X144622291Y-107356709D01*
X144495146Y-107252364D01*
X144350087Y-107174828D01*
X144192689Y-107127082D01*
X144070019Y-107115000D01*
X144070018Y-107115000D01*
X144029000Y-107110960D01*
X143987982Y-107115000D01*
X138775869Y-107115000D01*
X136347355Y-104686488D01*
X136355635Y-104666499D01*
X136425000Y-104317777D01*
X136425000Y-103962223D01*
X136355635Y-103613501D01*
X136219571Y-103285012D01*
X136022035Y-102989379D01*
X135770621Y-102737965D01*
X135474988Y-102540429D01*
X135146499Y-102404365D01*
X134797777Y-102335000D01*
X134442223Y-102335000D01*
X134093501Y-102404365D01*
X133765012Y-102540429D01*
X133469379Y-102737965D01*
X133217965Y-102989379D01*
X133020429Y-103285012D01*
X132884365Y-103613501D01*
X132815000Y-103962223D01*
X131876902Y-103962223D01*
X131835313Y-103949607D01*
X131865134Y-103925134D01*
X132050706Y-103699014D01*
X132188599Y-103441034D01*
X132273513Y-103161111D01*
X132302185Y-102870000D01*
X132273513Y-102578889D01*
X132188599Y-102298966D01*
X132050706Y-102040986D01*
X131865134Y-101814866D01*
X131639014Y-101629294D01*
X131381034Y-101491401D01*
X131101111Y-101406487D01*
X130882950Y-101385000D01*
X130737050Y-101385000D01*
X130518889Y-101406487D01*
X130238966Y-101491401D01*
X130200000Y-101512229D01*
X130200000Y-98962223D01*
X132815000Y-98962223D01*
X132815000Y-99317777D01*
X132884365Y-99666499D01*
X133020429Y-99994988D01*
X133217965Y-100290621D01*
X133469379Y-100542035D01*
X133765012Y-100739571D01*
X134093501Y-100875635D01*
X134442223Y-100945000D01*
X134797777Y-100945000D01*
X135146499Y-100875635D01*
X135474988Y-100739571D01*
X135770621Y-100542035D01*
X136022035Y-100290621D01*
X136219571Y-99994988D01*
X136355635Y-99666499D01*
X136425000Y-99317777D01*
X136425000Y-98962223D01*
X136355635Y-98613501D01*
X136219571Y-98285012D01*
X136107309Y-98117000D01*
X139410000Y-98117000D01*
X139410000Y-98716000D01*
X139464751Y-99017901D01*
X139577348Y-99303319D01*
X139743464Y-99561286D01*
X139956715Y-99781889D01*
X140208906Y-99956650D01*
X140490345Y-100078853D01*
X140601336Y-100104812D01*
X140843000Y-99984483D01*
X140843000Y-98117000D01*
X141097000Y-98117000D01*
X141097000Y-99984483D01*
X141338664Y-100104812D01*
X141449655Y-100078853D01*
X141731094Y-99956650D01*
X141983285Y-99781889D01*
X142196536Y-99561286D01*
X142362652Y-99303319D01*
X142475249Y-99017901D01*
X142530000Y-98716000D01*
X142530000Y-98117000D01*
X141097000Y-98117000D01*
X140843000Y-98117000D01*
X139410000Y-98117000D01*
X136107309Y-98117000D01*
X136022035Y-97989379D01*
X135770621Y-97737965D01*
X135474988Y-97540429D01*
X135146499Y-97404365D01*
X134797777Y-97335000D01*
X134442223Y-97335000D01*
X134093501Y-97404365D01*
X133765012Y-97540429D01*
X133469379Y-97737965D01*
X133217965Y-97989379D01*
X133020429Y-98285012D01*
X132884365Y-98613501D01*
X132815000Y-98962223D01*
X130200000Y-98962223D01*
X130200000Y-97264000D01*
X139410000Y-97264000D01*
X139410000Y-97863000D01*
X140843000Y-97863000D01*
X140843000Y-95995517D01*
X141097000Y-95995517D01*
X141097000Y-97863000D01*
X142530000Y-97863000D01*
X142530000Y-97264000D01*
X142475249Y-96962099D01*
X142362652Y-96676681D01*
X142196536Y-96418714D01*
X141983285Y-96198111D01*
X141731094Y-96023350D01*
X141449655Y-95901147D01*
X141338664Y-95875188D01*
X141097000Y-95995517D01*
X140843000Y-95995517D01*
X140601336Y-95875188D01*
X140490345Y-95901147D01*
X140208906Y-96023350D01*
X139956715Y-96198111D01*
X139743464Y-96418714D01*
X139577348Y-96676681D01*
X139464751Y-96962099D01*
X139410000Y-97264000D01*
X130200000Y-97264000D01*
X130200000Y-95410881D01*
X130828724Y-95410881D01*
X131188912Y-95900548D01*
X131852882Y-96260849D01*
X132574385Y-96484694D01*
X133325695Y-96563480D01*
X134077938Y-96494178D01*
X134802208Y-96279452D01*
X135470670Y-95927555D01*
X135511088Y-95900548D01*
X135871276Y-95410881D01*
X133350000Y-92889605D01*
X130828724Y-95410881D01*
X130200000Y-95410881D01*
X130200000Y-94900914D01*
X130649119Y-95231276D01*
X133170395Y-92710000D01*
X133529605Y-92710000D01*
X136050881Y-95231276D01*
X136540548Y-94871088D01*
X136900849Y-94207118D01*
X136984695Y-93936865D01*
X136999463Y-93964494D01*
X137078815Y-94061185D01*
X137175506Y-94140537D01*
X137285820Y-94199502D01*
X137405518Y-94235812D01*
X137530000Y-94248072D01*
X138144250Y-94245000D01*
X138303000Y-94086250D01*
X138303000Y-92837000D01*
X138283000Y-92837000D01*
X138283000Y-92583000D01*
X138303000Y-92583000D01*
X138303000Y-91333750D01*
X138144250Y-91175000D01*
X137530000Y-91171928D01*
X137405518Y-91184188D01*
X137285820Y-91220498D01*
X137175506Y-91279463D01*
X137078815Y-91358815D01*
X136999463Y-91455506D01*
X136985702Y-91481251D01*
X136919452Y-91257792D01*
X136567555Y-90589330D01*
X136540548Y-90548912D01*
X136050881Y-90188724D01*
X133529605Y-92710000D01*
X133170395Y-92710000D01*
X133156253Y-92695858D01*
X133335858Y-92516253D01*
X133350000Y-92530395D01*
X135871276Y-90009119D01*
X135540914Y-89560000D01*
X154019086Y-89560000D01*
X153688724Y-90009119D01*
X153688724Y-90009119D01*
G37*
X153688724Y-90009119D02*
X156210000Y-92530395D01*
X156224143Y-92516253D01*
X156403748Y-92695858D01*
X156389605Y-92710000D01*
X158910881Y-95231276D01*
X159360000Y-94900914D01*
X159360001Y-113379086D01*
X158910881Y-113048724D01*
X156389605Y-115570000D01*
X156403748Y-115584143D01*
X156224143Y-115763748D01*
X156210000Y-115749605D01*
X153688724Y-118270881D01*
X154019086Y-118720000D01*
X135540914Y-118720000D01*
X135871276Y-118270881D01*
X133350000Y-115749605D01*
X133335858Y-115763748D01*
X133156253Y-115584143D01*
X133170395Y-115570000D01*
X133529605Y-115570000D01*
X136050881Y-118091276D01*
X136540548Y-117731088D01*
X136900849Y-117067118D01*
X136984695Y-116796865D01*
X136999463Y-116824494D01*
X137078815Y-116921185D01*
X137175506Y-117000537D01*
X137285820Y-117059502D01*
X137405518Y-117095812D01*
X137530000Y-117108072D01*
X138144250Y-117105000D01*
X138303000Y-116946250D01*
X138303000Y-115697000D01*
X138283000Y-115697000D01*
X138283000Y-115443000D01*
X138303000Y-115443000D01*
X138303000Y-114193750D01*
X138557000Y-114193750D01*
X138557000Y-115443000D01*
X138577000Y-115443000D01*
X138577000Y-115697000D01*
X138557000Y-115697000D01*
X138557000Y-116946250D01*
X138715750Y-117105000D01*
X139330000Y-117108072D01*
X139454482Y-117095812D01*
X139574180Y-117059502D01*
X139684494Y-117000537D01*
X139781185Y-116921185D01*
X139860537Y-116824494D01*
X139919502Y-116714180D01*
X139925056Y-116695873D01*
X139991495Y-116762312D01*
X140242905Y-116930299D01*
X140522257Y-117046011D01*
X140818816Y-117105000D01*
X141121184Y-117105000D01*
X141417743Y-117046011D01*
X141697095Y-116930299D01*
X141948505Y-116762312D01*
X142162312Y-116548505D01*
X142330299Y-116297095D01*
X142446011Y-116017743D01*
X142505000Y-115721184D01*
X142505000Y-115418816D01*
X142446011Y-115122257D01*
X142330299Y-114842905D01*
X142162312Y-114591495D01*
X141948505Y-114377688D01*
X141697095Y-114209701D01*
X141417743Y-114093989D01*
X141121184Y-114035000D01*
X140818816Y-114035000D01*
X140522257Y-114093989D01*
X140242905Y-114209701D01*
X139991495Y-114377688D01*
X139925056Y-114444127D01*
X139919502Y-114425820D01*
X139860537Y-114315506D01*
X139781185Y-114218815D01*
X139684494Y-114139463D01*
X139574180Y-114080498D01*
X139454482Y-114044188D01*
X139330000Y-114031928D01*
X138715750Y-114035000D01*
X138557000Y-114193750D01*
X138303000Y-114193750D01*
X138144250Y-114035000D01*
X137530000Y-114031928D01*
X137405518Y-114044188D01*
X137285820Y-114080498D01*
X137175506Y-114139463D01*
X137078815Y-114218815D01*
X136999463Y-114315506D01*
X136985702Y-114341251D01*
X136919452Y-114117792D01*
X136567555Y-113449330D01*
X136540548Y-113408912D01*
X136050881Y-113048724D01*
X133529605Y-115570000D01*
X133170395Y-115570000D01*
X130649119Y-113048724D01*
X130200000Y-113379086D01*
X130200000Y-112869119D01*
X130828724Y-112869119D01*
X133350000Y-115390395D01*
X135871276Y-112869119D01*
X135511088Y-112379452D01*
X134847118Y-112019151D01*
X134125615Y-111795306D01*
X133374305Y-111716520D01*
X132622062Y-111785822D01*
X131897792Y-112000548D01*
X131229330Y-112352445D01*
X131188912Y-112379452D01*
X130828724Y-112869119D01*
X130200000Y-112869119D01*
X130200000Y-110396602D01*
X133543003Y-110396602D01*
X133659275Y-110678389D01*
X133977860Y-110836257D01*
X134321122Y-110928938D01*
X134675869Y-110952873D01*
X135028470Y-110907139D01*
X135365373Y-110793495D01*
X135580725Y-110678389D01*
X135606055Y-110617000D01*
X139410000Y-110617000D01*
X139410000Y-111216000D01*
X139464751Y-111517901D01*
X139577348Y-111803319D01*
X139743464Y-112061286D01*
X139956715Y-112281889D01*
X140208906Y-112456650D01*
X140490345Y-112578853D01*
X140601336Y-112604812D01*
X140843000Y-112484483D01*
X140843000Y-110617000D01*
X141097000Y-110617000D01*
X141097000Y-112484483D01*
X141338664Y-112604812D01*
X141449655Y-112578853D01*
X141731094Y-112456650D01*
X141983285Y-112281889D01*
X142196536Y-112061286D01*
X142362652Y-111803319D01*
X142475249Y-111517901D01*
X142530000Y-111216000D01*
X142530000Y-110617000D01*
X141097000Y-110617000D01*
X140843000Y-110617000D01*
X139410000Y-110617000D01*
X135606055Y-110617000D01*
X135696997Y-110396602D01*
X134620000Y-109319605D01*
X133543003Y-110396602D01*
X130200000Y-110396602D01*
X130200000Y-109195869D01*
X132807127Y-109195869D01*
X132852861Y-109548470D01*
X132966505Y-109885373D01*
X133081611Y-110100725D01*
X133363398Y-110216997D01*
X134440395Y-109140000D01*
X134799605Y-109140000D01*
X135876602Y-110216997D01*
X136158389Y-110100725D01*
X136316257Y-109782140D01*
X136408938Y-109438878D01*
X136432873Y-109084131D01*
X136387139Y-108731530D01*
X136273495Y-108394627D01*
X136158389Y-108179275D01*
X135876602Y-108063003D01*
X134799605Y-109140000D01*
X134440395Y-109140000D01*
X133363398Y-108063003D01*
X133081611Y-108179275D01*
X132923743Y-108497860D01*
X132831062Y-108841122D01*
X132807127Y-109195869D01*
X130200000Y-109195869D01*
X130200000Y-107883398D01*
X133543003Y-107883398D01*
X134620000Y-108960395D01*
X135696997Y-107883398D01*
X135580725Y-107601611D01*
X135262140Y-107443743D01*
X134918878Y-107351062D01*
X134564131Y-107327127D01*
X134211530Y-107372861D01*
X133874627Y-107486505D01*
X133659275Y-107601611D01*
X133543003Y-107883398D01*
X130200000Y-107883398D01*
X130200000Y-106898072D01*
X131660000Y-106898072D01*
X131784482Y-106885812D01*
X131904180Y-106849502D01*
X132014494Y-106790537D01*
X132111185Y-106711185D01*
X132190537Y-106614494D01*
X132249502Y-106504180D01*
X132285812Y-106384482D01*
X132298072Y-106260000D01*
X132298072Y-104560000D01*
X132285812Y-104435518D01*
X132249502Y-104315820D01*
X132190537Y-104205506D01*
X132111185Y-104108815D01*
X132014494Y-104029463D01*
X131904180Y-103970498D01*
X131876902Y-103962223D01*
X132815000Y-103962223D01*
X132815000Y-104317777D01*
X132884365Y-104666499D01*
X133020429Y-104994988D01*
X133217965Y-105290621D01*
X133469379Y-105542035D01*
X133765012Y-105739571D01*
X134093501Y-105875635D01*
X134442223Y-105945000D01*
X134797777Y-105945000D01*
X135146499Y-105875635D01*
X135166488Y-105867355D01*
X137810563Y-108511432D01*
X137836709Y-108543291D01*
X137868568Y-108569437D01*
X137868570Y-108569439D01*
X137963854Y-108647636D01*
X138108913Y-108725172D01*
X138266311Y-108772918D01*
X138388981Y-108785000D01*
X138388982Y-108785000D01*
X138430000Y-108789040D01*
X138471018Y-108785000D01*
X139872722Y-108785000D01*
X139743464Y-108918714D01*
X139577348Y-109176681D01*
X139464751Y-109462099D01*
X139410000Y-109764000D01*
X139410000Y-110363000D01*
X140843000Y-110363000D01*
X140843000Y-110343000D01*
X141097000Y-110343000D01*
X141097000Y-110363000D01*
X142530000Y-110363000D01*
X142530000Y-109764000D01*
X142475249Y-109462099D01*
X142362652Y-109176681D01*
X142196536Y-108918714D01*
X142067278Y-108785000D01*
X143683133Y-108785000D01*
X144444383Y-109546251D01*
X144432572Y-109585188D01*
X144410000Y-109814365D01*
X144410000Y-111165636D01*
X144432572Y-111394813D01*
X144521774Y-111688875D01*
X144666632Y-111959883D01*
X144861577Y-112197424D01*
X145099118Y-112392369D01*
X145135001Y-112411549D01*
X145135001Y-112907501D01*
X144921335Y-112865000D01*
X144638665Y-112865000D01*
X144361426Y-112920147D01*
X144100273Y-113028320D01*
X143865241Y-113185363D01*
X143665363Y-113385241D01*
X143508320Y-113620273D01*
X143400147Y-113881426D01*
X143345000Y-114158665D01*
X143345000Y-114441335D01*
X143400147Y-114718574D01*
X143508320Y-114979727D01*
X143665363Y-115214759D01*
X143865241Y-115414637D01*
X144100273Y-115571680D01*
X144105029Y-115573650D01*
X143978899Y-115641068D01*
X143760392Y-115820392D01*
X143581068Y-116038899D01*
X143447818Y-116288192D01*
X143365764Y-116558691D01*
X143338057Y-116840000D01*
X143365764Y-117121309D01*
X143447818Y-117391808D01*
X143581068Y-117641101D01*
X143760392Y-117859608D01*
X143978899Y-118038932D01*
X144228192Y-118172182D01*
X144498691Y-118254236D01*
X144709508Y-118275000D01*
X144850492Y-118275000D01*
X145061309Y-118254236D01*
X145331808Y-118172182D01*
X145581101Y-118038932D01*
X145799608Y-117859608D01*
X145978932Y-117641101D01*
X146046350Y-117514971D01*
X146048320Y-117519727D01*
X146205363Y-117754759D01*
X146405241Y-117954637D01*
X146640273Y-118111680D01*
X146901426Y-118219853D01*
X147178665Y-118275000D01*
X147461335Y-118275000D01*
X147738574Y-118219853D01*
X147999727Y-118111680D01*
X148234759Y-117954637D01*
X148434637Y-117754759D01*
X148591680Y-117519727D01*
X148699853Y-117258574D01*
X148755000Y-116981335D01*
X148755000Y-116698665D01*
X148699853Y-116421426D01*
X148591680Y-116160273D01*
X148434637Y-115925241D01*
X148234759Y-115725363D01*
X148155000Y-115672070D01*
X148155000Y-115611015D01*
X148159040Y-115569999D01*
X148154865Y-115527610D01*
X148142918Y-115406311D01*
X148108456Y-115292702D01*
X148966903Y-115292702D01*
X149038486Y-115536671D01*
X149293996Y-115657571D01*
X149568184Y-115726300D01*
X149850512Y-115740217D01*
X150130130Y-115698787D01*
X150396292Y-115603603D01*
X150504631Y-115545695D01*
X152356520Y-115545695D01*
X152425822Y-116297938D01*
X152640548Y-117022208D01*
X152992445Y-117690670D01*
X153019452Y-117731088D01*
X153509119Y-118091276D01*
X156030395Y-115570000D01*
X153509119Y-113048724D01*
X153019452Y-113408912D01*
X152659151Y-114072882D01*
X152435306Y-114794385D01*
X152356520Y-115545695D01*
X150504631Y-115545695D01*
X150521514Y-115536671D01*
X150593097Y-115292702D01*
X149780000Y-114479605D01*
X148966903Y-115292702D01*
X148108456Y-115292702D01*
X148095172Y-115248913D01*
X148017636Y-115103854D01*
X147913291Y-114976709D01*
X147881426Y-114950558D01*
X147301380Y-114370512D01*
X148339783Y-114370512D01*
X148381213Y-114650130D01*
X148476397Y-114916292D01*
X148543329Y-115041514D01*
X148787298Y-115113097D01*
X149600395Y-114300000D01*
X149959605Y-114300000D01*
X150772702Y-115113097D01*
X151016671Y-115041514D01*
X151137571Y-114786004D01*
X151206300Y-114511816D01*
X151220217Y-114229488D01*
X151178787Y-113949870D01*
X151083603Y-113683708D01*
X151016671Y-113558486D01*
X150772702Y-113486903D01*
X149959605Y-114300000D01*
X149600395Y-114300000D01*
X148787298Y-113486903D01*
X148543329Y-113558486D01*
X148422429Y-113813996D01*
X148353700Y-114088184D01*
X148339783Y-114370512D01*
X147301380Y-114370512D01*
X146805000Y-113874133D01*
X146805000Y-113307298D01*
X148966903Y-113307298D01*
X149780000Y-114120395D01*
X150593097Y-113307298D01*
X150521514Y-113063329D01*
X150266004Y-112942429D01*
X149991816Y-112873700D01*
X149898884Y-112869119D01*
X153688724Y-112869119D01*
X156210000Y-115390395D01*
X158731276Y-112869119D01*
X158371088Y-112379452D01*
X157707118Y-112019151D01*
X156985615Y-111795306D01*
X156234305Y-111716520D01*
X155482062Y-111785822D01*
X154757792Y-112000548D01*
X154089330Y-112352445D01*
X154048912Y-112379452D01*
X153688724Y-112869119D01*
X149898884Y-112869119D01*
X149709488Y-112859783D01*
X149429870Y-112901213D01*
X149163708Y-112996397D01*
X149038486Y-113063329D01*
X148966903Y-113307298D01*
X146805000Y-113307298D01*
X146805000Y-112411549D01*
X146840883Y-112392369D01*
X147078424Y-112197424D01*
X147273369Y-111959883D01*
X147418226Y-111688875D01*
X147507428Y-111394813D01*
X147517243Y-111295156D01*
X147616087Y-111265172D01*
X147761146Y-111187636D01*
X147888291Y-111083291D01*
X147914446Y-111051422D01*
X149151433Y-109814436D01*
X149183291Y-109788291D01*
X149287636Y-109661146D01*
X149365172Y-109516087D01*
X149412918Y-109358689D01*
X149425000Y-109236019D01*
X149425000Y-109236018D01*
X149429040Y-109195000D01*
X149425000Y-109153982D01*
X149425000Y-107025867D01*
X150285868Y-106165000D01*
X151039207Y-106165000D01*
X151219866Y-106385134D01*
X151445986Y-106570706D01*
X151463374Y-106580000D01*
X151445986Y-106589294D01*
X151219866Y-106774866D01*
X151034294Y-107000986D01*
X150896401Y-107258966D01*
X150811487Y-107538889D01*
X150782815Y-107830000D01*
X150811487Y-108121111D01*
X150896401Y-108401034D01*
X151034294Y-108659014D01*
X151219866Y-108885134D01*
X151445986Y-109070706D01*
X151703966Y-109208599D01*
X151983889Y-109293513D01*
X152202050Y-109315000D01*
X152597950Y-109315000D01*
X152816111Y-109293513D01*
X153096034Y-109208599D01*
X153354014Y-109070706D01*
X153580134Y-108885134D01*
X153765706Y-108659014D01*
X153903599Y-108401034D01*
X153988513Y-108121111D01*
X154017185Y-107830000D01*
X153988513Y-107538889D01*
X153903599Y-107258966D01*
X153765706Y-107000986D01*
X153580134Y-106774866D01*
X153354014Y-106589294D01*
X153336626Y-106580000D01*
X153354014Y-106570706D01*
X153580134Y-106385134D01*
X153765706Y-106159014D01*
X153903599Y-105901034D01*
X153988513Y-105621111D01*
X154017185Y-105330000D01*
X153988513Y-105038889D01*
X153903599Y-104758966D01*
X153765706Y-104500986D01*
X153580134Y-104274866D01*
X153354014Y-104089294D01*
X153336626Y-104080000D01*
X153354014Y-104070706D01*
X153580134Y-103885134D01*
X153765706Y-103659014D01*
X153903599Y-103401034D01*
X153988513Y-103121111D01*
X154017185Y-102830000D01*
X153988513Y-102538889D01*
X153903599Y-102258966D01*
X153765706Y-102000986D01*
X153584392Y-101780055D01*
X153619180Y-101769502D01*
X153729494Y-101710537D01*
X153826185Y-101631185D01*
X153905537Y-101534494D01*
X153964502Y-101424180D01*
X154000812Y-101304482D01*
X154013072Y-101180000D01*
X154010000Y-100615750D01*
X153851250Y-100457000D01*
X152527000Y-100457000D01*
X152527000Y-100477000D01*
X152273000Y-100477000D01*
X152273000Y-100457000D01*
X150948750Y-100457000D01*
X150790000Y-100615750D01*
X150786928Y-101180000D01*
X150799188Y-101304482D01*
X150835498Y-101424180D01*
X150894463Y-101534494D01*
X150973815Y-101631185D01*
X151070506Y-101710537D01*
X151180820Y-101769502D01*
X151215608Y-101780055D01*
X151039207Y-101995000D01*
X150165868Y-101995000D01*
X149425000Y-101254133D01*
X149425000Y-99480000D01*
X150786928Y-99480000D01*
X150790000Y-100044250D01*
X150948750Y-100203000D01*
X152273000Y-100203000D01*
X152273000Y-99003750D01*
X152527000Y-99003750D01*
X152527000Y-100203000D01*
X153851250Y-100203000D01*
X154010000Y-100044250D01*
X154013072Y-99480000D01*
X154000812Y-99355518D01*
X153964502Y-99235820D01*
X153905537Y-99125506D01*
X153826185Y-99028815D01*
X153729494Y-98949463D01*
X153619180Y-98890498D01*
X153499482Y-98854188D01*
X153375000Y-98841928D01*
X152685750Y-98845000D01*
X152527000Y-99003750D01*
X152273000Y-99003750D01*
X152114250Y-98845000D01*
X151425000Y-98841928D01*
X151300518Y-98854188D01*
X151180820Y-98890498D01*
X151070506Y-98949463D01*
X150973815Y-99028815D01*
X150894463Y-99125506D01*
X150835498Y-99235820D01*
X150799188Y-99355518D01*
X150786928Y-99480000D01*
X149425000Y-99480000D01*
X149425000Y-95410881D01*
X153688724Y-95410881D01*
X154048912Y-95900548D01*
X154712882Y-96260849D01*
X155434385Y-96484694D01*
X156185695Y-96563480D01*
X156937938Y-96494178D01*
X157662208Y-96279452D01*
X158330670Y-95927555D01*
X158371088Y-95900548D01*
X158731276Y-95410881D01*
X156210000Y-92889605D01*
X153688724Y-95410881D01*
X149425000Y-95410881D01*
X149425000Y-92751015D01*
X149429040Y-92709999D01*
X149426647Y-92685695D01*
X152356520Y-92685695D01*
X152425822Y-93437938D01*
X152640548Y-94162208D01*
X152992445Y-94830670D01*
X153019452Y-94871088D01*
X153509119Y-95231276D01*
X156030395Y-92710000D01*
X153509119Y-90188724D01*
X153019452Y-90548912D01*
X152659151Y-91212882D01*
X152435306Y-91934385D01*
X152356520Y-92685695D01*
X149426647Y-92685695D01*
X149425000Y-92668981D01*
X149412918Y-92546311D01*
X149365172Y-92388913D01*
X149287636Y-92243854D01*
X149183291Y-92116709D01*
X149151428Y-92090560D01*
X148736286Y-91675418D01*
X148755000Y-91581335D01*
X148755000Y-91298665D01*
X148699853Y-91021426D01*
X148591680Y-90760273D01*
X148434637Y-90525241D01*
X148234759Y-90325363D01*
X147999727Y-90168320D01*
X147738574Y-90060147D01*
X147461335Y-90005000D01*
X147178665Y-90005000D01*
X146901426Y-90060147D01*
X146640273Y-90168320D01*
X146405241Y-90325363D01*
X146205363Y-90525241D01*
X146048320Y-90760273D01*
X146046350Y-90765029D01*
X145978932Y-90638899D01*
X145799608Y-90420392D01*
X145581101Y-90241068D01*
X145331808Y-90107818D01*
X145061309Y-90025764D01*
X144850492Y-90005000D01*
X144709508Y-90005000D01*
X144498691Y-90025764D01*
X144228192Y-90107818D01*
X143978899Y-90241068D01*
X143760392Y-90420392D01*
X143608888Y-90605000D01*
X142281015Y-90605000D01*
X142239999Y-90600960D01*
X142198983Y-90605000D01*
X142198981Y-90605000D01*
X142076311Y-90617082D01*
X141918913Y-90664828D01*
X141773854Y-90742364D01*
X141646709Y-90846709D01*
X141620558Y-90878574D01*
X141290461Y-91208671D01*
X141121184Y-91175000D01*
X140818816Y-91175000D01*
X140522257Y-91233989D01*
X140242905Y-91349701D01*
X139991495Y-91517688D01*
X139925056Y-91584127D01*
X139919502Y-91565820D01*
X139860537Y-91455506D01*
X139781185Y-91358815D01*
X139684494Y-91279463D01*
X139574180Y-91220498D01*
X139454482Y-91184188D01*
X139330000Y-91171928D01*
X138715750Y-91175000D01*
X138557000Y-91333750D01*
X138557000Y-92583000D01*
X138577000Y-92583000D01*
X138577000Y-92837000D01*
X138557000Y-92837000D01*
X138557000Y-94086250D01*
X138715750Y-94245000D01*
X139330000Y-94248072D01*
X139454482Y-94235812D01*
X139574180Y-94199502D01*
X139684494Y-94140537D01*
X139781185Y-94061185D01*
X139860537Y-93964494D01*
X139919502Y-93854180D01*
X139925056Y-93835873D01*
X139991495Y-93902312D01*
X140242905Y-94070299D01*
X140522257Y-94186011D01*
X140818816Y-94245000D01*
X141121184Y-94245000D01*
X141417743Y-94186011D01*
X141697095Y-94070299D01*
X141948505Y-93902312D01*
X142162312Y-93688505D01*
X142330299Y-93437095D01*
X142446011Y-93157743D01*
X142505000Y-92861184D01*
X142505000Y-92558816D01*
X142471329Y-92389539D01*
X142585868Y-92275000D01*
X143608888Y-92275000D01*
X143760392Y-92459608D01*
X143978899Y-92638932D01*
X144105029Y-92706350D01*
X144100273Y-92708320D01*
X143865241Y-92865363D01*
X143665363Y-93065241D01*
X143508320Y-93300273D01*
X143400147Y-93561426D01*
X143345000Y-93838665D01*
X143345000Y-94121335D01*
X143400147Y-94398574D01*
X143508320Y-94659727D01*
X143665363Y-94894759D01*
X143809868Y-95039264D01*
X142948579Y-95900554D01*
X142916709Y-95926709D01*
X142828276Y-96034466D01*
X142812364Y-96053855D01*
X142734828Y-96198914D01*
X142687082Y-96356312D01*
X142670960Y-96520000D01*
X142675000Y-96561019D01*
X142675001Y-103032204D01*
X142627114Y-103064201D01*
X142434201Y-103257114D01*
X142282629Y-103483957D01*
X142240000Y-103586873D01*
X142197371Y-103483957D01*
X142045799Y-103257114D01*
X141852886Y-103064201D01*
X141626043Y-102912629D01*
X141373989Y-102808225D01*
X141106411Y-102755000D01*
X140833589Y-102755000D01*
X140566011Y-102808225D01*
X140313957Y-102912629D01*
X140087114Y-103064201D01*
X139894201Y-103257114D01*
X139742629Y-103483957D01*
X139638225Y-103736011D01*
X139585000Y-104003589D01*
X139585000Y-104276411D01*
X139638225Y-104543989D01*
X139742629Y-104796043D01*
X139894201Y-105022886D01*
X140087114Y-105215799D01*
X140313957Y-105367371D01*
X140566011Y-105471775D01*
X140833589Y-105525000D01*
X141106411Y-105525000D01*
X141373989Y-105471775D01*
X141626043Y-105367371D01*
X141852886Y-105215799D01*
X142045799Y-105022886D01*
X142197371Y-104796043D01*
X142240000Y-104693127D01*
X142282629Y-104796043D01*
X142434201Y-105022886D01*
X142627114Y-105215799D01*
X142853957Y-105367371D01*
X143106011Y-105471775D01*
X143373589Y-105525000D01*
X143646411Y-105525000D01*
X143913989Y-105471775D01*
X144166043Y-105367371D01*
X144392886Y-105215799D01*
X144585799Y-105022886D01*
X144663555Y-104906517D01*
X144674188Y-105014482D01*
X144710498Y-105134180D01*
X144769463Y-105244494D01*
X144848815Y-105341185D01*
X144945506Y-105420537D01*
X145055820Y-105479502D01*
X145175518Y-105515812D01*
X145300000Y-105528072D01*
X145764250Y-105525000D01*
X145923000Y-105366250D01*
X145923000Y-104267000D01*
X145903000Y-104267000D01*
X145903000Y-104013000D01*
X145923000Y-104013000D01*
X145923000Y-102913750D01*
X145764250Y-102755000D01*
X145300000Y-102751928D01*
X145175518Y-102764188D01*
X145055820Y-102800498D01*
X144945506Y-102859463D01*
X144848815Y-102938815D01*
X144769463Y-103035506D01*
X144710498Y-103145820D01*
X144674188Y-103265518D01*
X144663555Y-103373483D01*
X144585799Y-103257114D01*
X144392886Y-103064201D01*
X144345000Y-103032205D01*
X144345000Y-96865867D01*
X144638936Y-96571931D01*
X144521774Y-96791126D01*
X144432572Y-97085188D01*
X144410000Y-97314365D01*
X144410000Y-98665636D01*
X144432572Y-98894813D01*
X144521774Y-99188875D01*
X144666632Y-99459883D01*
X144861577Y-99697424D01*
X145099118Y-99892369D01*
X145370126Y-100037226D01*
X145664188Y-100126428D01*
X145970000Y-100156548D01*
X146275813Y-100126428D01*
X146460000Y-100070556D01*
X146460001Y-102754178D01*
X146335750Y-102755000D01*
X146177000Y-102913750D01*
X146177000Y-104013000D01*
X146197000Y-104013000D01*
X146197000Y-104267000D01*
X146177000Y-104267000D01*
X146177000Y-105366250D01*
X146335750Y-105525000D01*
X146469836Y-105525887D01*
X146472082Y-105548688D01*
X146519828Y-105706086D01*
X146597364Y-105851145D01*
X146617463Y-105875635D01*
X146701710Y-105978291D01*
X146733574Y-106004441D01*
X147755001Y-107025869D01*
X147755000Y-108849131D01*
X147381575Y-109222557D01*
X147273369Y-109020117D01*
X147078424Y-108782576D01*
X146840882Y-108587631D01*
X146569874Y-108442774D01*
X146275812Y-108353572D01*
X145970000Y-108323452D01*
X145664187Y-108353572D01*
X145625251Y-108365383D01*
X144648446Y-107388579D01*
X144622291Y-107356709D01*
X144495146Y-107252364D01*
X144350087Y-107174828D01*
X144192689Y-107127082D01*
X144070019Y-107115000D01*
X144070018Y-107115000D01*
X144029000Y-107110960D01*
X143987982Y-107115000D01*
X138775869Y-107115000D01*
X136347355Y-104686488D01*
X136355635Y-104666499D01*
X136425000Y-104317777D01*
X136425000Y-103962223D01*
X136355635Y-103613501D01*
X136219571Y-103285012D01*
X136022035Y-102989379D01*
X135770621Y-102737965D01*
X135474988Y-102540429D01*
X135146499Y-102404365D01*
X134797777Y-102335000D01*
X134442223Y-102335000D01*
X134093501Y-102404365D01*
X133765012Y-102540429D01*
X133469379Y-102737965D01*
X133217965Y-102989379D01*
X133020429Y-103285012D01*
X132884365Y-103613501D01*
X132815000Y-103962223D01*
X131876902Y-103962223D01*
X131835313Y-103949607D01*
X131865134Y-103925134D01*
X132050706Y-103699014D01*
X132188599Y-103441034D01*
X132273513Y-103161111D01*
X132302185Y-102870000D01*
X132273513Y-102578889D01*
X132188599Y-102298966D01*
X132050706Y-102040986D01*
X131865134Y-101814866D01*
X131639014Y-101629294D01*
X131381034Y-101491401D01*
X131101111Y-101406487D01*
X130882950Y-101385000D01*
X130737050Y-101385000D01*
X130518889Y-101406487D01*
X130238966Y-101491401D01*
X130200000Y-101512229D01*
X130200000Y-98962223D01*
X132815000Y-98962223D01*
X132815000Y-99317777D01*
X132884365Y-99666499D01*
X133020429Y-99994988D01*
X133217965Y-100290621D01*
X133469379Y-100542035D01*
X133765012Y-100739571D01*
X134093501Y-100875635D01*
X134442223Y-100945000D01*
X134797777Y-100945000D01*
X135146499Y-100875635D01*
X135474988Y-100739571D01*
X135770621Y-100542035D01*
X136022035Y-100290621D01*
X136219571Y-99994988D01*
X136355635Y-99666499D01*
X136425000Y-99317777D01*
X136425000Y-98962223D01*
X136355635Y-98613501D01*
X136219571Y-98285012D01*
X136107309Y-98117000D01*
X139410000Y-98117000D01*
X139410000Y-98716000D01*
X139464751Y-99017901D01*
X139577348Y-99303319D01*
X139743464Y-99561286D01*
X139956715Y-99781889D01*
X140208906Y-99956650D01*
X140490345Y-100078853D01*
X140601336Y-100104812D01*
X140843000Y-99984483D01*
X140843000Y-98117000D01*
X141097000Y-98117000D01*
X141097000Y-99984483D01*
X141338664Y-100104812D01*
X141449655Y-100078853D01*
X141731094Y-99956650D01*
X141983285Y-99781889D01*
X142196536Y-99561286D01*
X142362652Y-99303319D01*
X142475249Y-99017901D01*
X142530000Y-98716000D01*
X142530000Y-98117000D01*
X141097000Y-98117000D01*
X140843000Y-98117000D01*
X139410000Y-98117000D01*
X136107309Y-98117000D01*
X136022035Y-97989379D01*
X135770621Y-97737965D01*
X135474988Y-97540429D01*
X135146499Y-97404365D01*
X134797777Y-97335000D01*
X134442223Y-97335000D01*
X134093501Y-97404365D01*
X133765012Y-97540429D01*
X133469379Y-97737965D01*
X133217965Y-97989379D01*
X133020429Y-98285012D01*
X132884365Y-98613501D01*
X132815000Y-98962223D01*
X130200000Y-98962223D01*
X130200000Y-97264000D01*
X139410000Y-97264000D01*
X139410000Y-97863000D01*
X140843000Y-97863000D01*
X140843000Y-95995517D01*
X141097000Y-95995517D01*
X141097000Y-97863000D01*
X142530000Y-97863000D01*
X142530000Y-97264000D01*
X142475249Y-96962099D01*
X142362652Y-96676681D01*
X142196536Y-96418714D01*
X141983285Y-96198111D01*
X141731094Y-96023350D01*
X141449655Y-95901147D01*
X141338664Y-95875188D01*
X141097000Y-95995517D01*
X140843000Y-95995517D01*
X140601336Y-95875188D01*
X140490345Y-95901147D01*
X140208906Y-96023350D01*
X139956715Y-96198111D01*
X139743464Y-96418714D01*
X139577348Y-96676681D01*
X139464751Y-96962099D01*
X139410000Y-97264000D01*
X130200000Y-97264000D01*
X130200000Y-95410881D01*
X130828724Y-95410881D01*
X131188912Y-95900548D01*
X131852882Y-96260849D01*
X132574385Y-96484694D01*
X133325695Y-96563480D01*
X134077938Y-96494178D01*
X134802208Y-96279452D01*
X135470670Y-95927555D01*
X135511088Y-95900548D01*
X135871276Y-95410881D01*
X133350000Y-92889605D01*
X130828724Y-95410881D01*
X130200000Y-95410881D01*
X130200000Y-94900914D01*
X130649119Y-95231276D01*
X133170395Y-92710000D01*
X133529605Y-92710000D01*
X136050881Y-95231276D01*
X136540548Y-94871088D01*
X136900849Y-94207118D01*
X136984695Y-93936865D01*
X136999463Y-93964494D01*
X137078815Y-94061185D01*
X137175506Y-94140537D01*
X137285820Y-94199502D01*
X137405518Y-94235812D01*
X137530000Y-94248072D01*
X138144250Y-94245000D01*
X138303000Y-94086250D01*
X138303000Y-92837000D01*
X138283000Y-92837000D01*
X138283000Y-92583000D01*
X138303000Y-92583000D01*
X138303000Y-91333750D01*
X138144250Y-91175000D01*
X137530000Y-91171928D01*
X137405518Y-91184188D01*
X137285820Y-91220498D01*
X137175506Y-91279463D01*
X137078815Y-91358815D01*
X136999463Y-91455506D01*
X136985702Y-91481251D01*
X136919452Y-91257792D01*
X136567555Y-90589330D01*
X136540548Y-90548912D01*
X136050881Y-90188724D01*
X133529605Y-92710000D01*
X133170395Y-92710000D01*
X133156253Y-92695858D01*
X133335858Y-92516253D01*
X133350000Y-92530395D01*
X135871276Y-90009119D01*
X135540914Y-89560000D01*
X154019086Y-89560000D01*
X153688724Y-90009119D01*
M02*
