M48
; DRILL file {KiCad (5.1.4)-1} date 14.01.2021 9:01:15
; FORMAT={-:-/ absolute / inch / decimal}
; #@! TF.CreationDate,2021-01-14T09:01:15+01:00
; #@! TF.GenerationSoftware,Kicad,Pcbnew,(5.1.4)-1
FMAT,2
INCH
T1C0.0197
T2C0.0315
T3C0.0354
T4C0.0374
T5C0.0394
T6C0.0512
T7C0.1260
%
G90
G05
T1
X5.1555Y-3.65
X5.1832Y-3.5832
X5.1832Y-3.7168
X5.25Y-3.5555
X5.25Y-3.7445
X5.3168Y-3.5832
X5.3168Y-3.7168
X5.3445Y-3.65
X5.1555Y-4.55
X5.1832Y-4.4832
X5.1832Y-4.6168
X5.25Y-4.4555
X5.25Y-4.6445
X5.3168Y-4.4832
X5.3168Y-4.6168
X5.3445Y-4.55
X6.0555Y-3.65
X6.0832Y-3.5832
X6.0832Y-3.7168
X6.15Y-3.5555
X6.15Y-3.7445
X6.2168Y-3.5832
X6.2168Y-3.7168
X6.2445Y-3.65
X6.0555Y-4.55
X6.0832Y-4.4832
X6.0832Y-4.6168
X6.15Y-4.4555
X6.15Y-4.6445
X6.2168Y-4.4832
X6.2168Y-4.6168
X6.2445Y-4.55
T2
X5.7Y-4.5
X5.8969Y-4.5
X5.7Y-4.6
X5.8Y-4.6
X5.7Y-3.7
X5.8Y-3.7
X5.55Y-4.1
X5.65Y-4.1
X5.75Y-4.1
X5.7Y-3.6
X5.8Y-3.6
T3
X5.45Y-4.55
X5.55Y-4.55
X5.45Y-3.65
X5.55Y-3.65
T4
X6.0Y-3.95
X6.0Y-4.0484
X6.0Y-4.1469
X6.0Y-4.2453
T5
X5.15Y-4.05
X5.15Y-4.15
T6
X5.3Y-3.9031
X5.3Y-4.1
X5.3Y-4.2969
X5.55Y-3.8579
X5.55Y-4.35
X5.7469Y-3.8579
X5.7469Y-4.35
T7
X6.15Y-4.55
X5.25Y-3.65
X5.25Y-4.55
X6.15Y-3.65
T0
M30
