999
"DXF R12 Output" (www.mydxf.blogspot.com)
 0 
SECTION
 2 
HEADER
 9 
$ACADVER
 1 
AC1009
 9 
$EXTMIN
 10 
 0 
 20 
 0 
 9 
$EXTMAX
 10 
 8.5 
 20 
 11 
 0 
ENDSEC
 0 
SECTION
 2 
ENTITIES
0
LINE
8
Layer 1
10
1.563510
20
13.143100
11
3.431820
21
13.143100
0
LINE
8
Layer 1
10
3.431820
20
13.143100
11
1.868310
21
4.752690
0
LINE
8
Layer 1
10
1.868310
20
4.752690
11
0.000000
21
4.752690
0
LINE
8
Layer 1
10
0.000000
20
4.752690
11
1.563510
21
13.143100
0
LINE
8
Layer 1
10
4.109150
20
10.515700
11
5.830710
21
10.515700
0
LINE
8
Layer 1
10
5.830710
20
10.515700
11
5.703710
21
9.889167
0
LINE
8
Layer 1
10
5.703710
20
9.889167
11
6.550376
21
10.484655
0
LINE
8
Layer 1
10
6.550376
20
10.484655
11
7.470420
21
10.693499
0
LINE
8
Layer 1
10
7.470420
20
10.693499
11
8.348130
21
10.501588
0
LINE
8
Layer 1
10
8.348130
20
10.501588
11
8.791219
21
9.937144
0
LINE
8
Layer 1
10
8.791219
20
9.937144
11
9.671752
21
10.501588
0
LINE
8
Layer 1
10
9.671752
20
10.501588
11
10.628485
21
10.704788
0
LINE
8
Layer 1
10
10.628485
20
10.704788
11
11.244708
21
10.637824
0
LINE
8
Layer 1
10
11.244708
20
10.637824
11
11.785595
21
10.335077
0
LINE
8
Layer 1
10
11.785595
20
10.335077
11
12.069063
21
9.822223
0
LINE
8
Layer 1
10
12.069063
20
9.822223
11
12.135500
21
9.240020
0
LINE
8
Layer 1
10
12.135500
20
9.240020
11
12.050900
21
8.435690
0
LINE
8
Layer 1
10
12.050900
20
8.435690
11
11.365100
21
4.752690
0
LINE
8
Layer 1
10
11.365100
20
4.752690
11
9.595550
21
4.752690
0
LINE
8
Layer 1
10
9.595550
20
4.752690
11
10.219261
21
8.139350
0
LINE
8
Layer 1
10
10.219261
20
8.139350
11
10.261594
21
8.525994
0
LINE
8
Layer 1
10
10.261594
20
8.525994
11
10.128950
21
8.926749
0
LINE
8
Layer 1
10
10.128950
20
8.926749
11
9.714084
21
9.053749
0
LINE
8
Layer 1
10
9.714084
20
9.053749
11
9.250188
21
8.951316
0
LINE
8
Layer 1
10
9.250188
20
8.951316
11
8.867418
21
8.669927
0
LINE
8
Layer 1
10
8.867418
20
8.669927
11
8.762996
21
8.043394
0
LINE
8
Layer 1
10
8.762996
20
8.043394
11
8.144930
21
4.752690
0
LINE
8
Layer 1
10
8.144930
20
4.752690
11
6.369750
21
4.752690
0
LINE
8
Layer 1
10
6.369750
20
4.752690
11
7.013220
21
8.221200
0
LINE
8
Layer 1
10
7.013220
20
8.221200
11
7.055550
21
8.571150
0
LINE
8
Layer 1
10
7.055550
20
8.571150
11
6.934190
21
8.935220
0
LINE
8
Layer 1
10
6.934190
20
8.935220
11
6.547550
21
9.050930
0
LINE
8
Layer 1
10
6.547550
20
9.050930
11
6.008506
21
8.879480
0
LINE
8
Layer 1
10
6.008506
20
8.879480
11
5.480750
21
8.365131
0
LINE
8
Layer 1
10
5.480750
20
8.365131
11
4.817528
21
4.752691
0
LINE
8
Layer 1
10
4.817528
20
4.752691
11
3.031060
21
4.752690
0
LINE
8
Layer 1
10
3.031060
20
4.752690
11
4.109150
21
10.515700
0
LINE
8
Layer 1
10
13.546700
20
10.515700
11
15.341600
21
10.515700
0
LINE
8
Layer 1
10
15.341600
20
10.515700
11
15.225889
21
9.951256
0
LINE
8
Layer 1
10
15.225889
20
9.951256
11
16.126454
21
10.513742
0
LINE
8
Layer 1
10
16.126454
20
10.513742
11
17.170399
21
10.707611
0
LINE
8
Layer 1
10
17.170399
20
10.707611
11
18.026971
21
10.558463
0
LINE
8
Layer 1
10
18.026971
20
10.558463
11
18.748019
21
10.072612
0
LINE
8
Layer 1
10
18.748019
20
10.072612
11
19.219110
21
9.286041
0
LINE
8
Layer 1
10
19.219110
20
9.286041
11
19.354796
21
8.379282
0
LINE
8
Layer 1
10
19.354796
20
8.379282
11
19.292707
21
7.670905
0
LINE
8
Layer 1
10
19.292707
20
7.670905
11
18.909781
21
6.464227
0
LINE
8
Layer 1
10
18.909781
20
6.464227
11
18.183577
21
5.427245
0
LINE
8
Layer 1
10
18.183577
20
5.427245
11
17.186556
21
4.789848
0
LINE
8
Layer 1
10
17.186556
20
4.789848
11
16.018937
21
4.597512
0
LINE
8
Layer 1
10
16.018937
20
4.597512
11
15.087604
21
4.766845
0
LINE
8
Layer 1
10
15.087604
20
4.766845
11
14.413093
21
5.246622
0
LINE
8
Layer 1
10
14.413093
20
5.246622
11
13.831716
21
2.142182
0
LINE
8
Layer 1
10
13.831716
20
2.142182
11
11.988800
21
2.142130
0
LINE
8
Layer 1
10
11.988800
20
2.142130
11
13.546700
21
10.515700
0
LINE
8
Layer 1
10
16.837410
20
6.601280
11
17.206709
21
7.076321
0
LINE
8
Layer 1
10
17.206709
20
7.076321
11
17.401854
21
7.645500
0
LINE
8
Layer 1
10
17.401854
20
7.645500
11
17.444187
21
8.088589
0
LINE
8
Layer 1
10
17.444187
20
8.088589
11
17.392777
21
8.479034
0
LINE
8
Layer 1
10
17.392777
20
8.479034
11
17.190100
21
8.816690
0
LINE
8
Layer 1
10
17.190100
20
8.816690
11
16.817503
21
9.016655
0
LINE
8
Layer 1
10
16.817503
20
9.016655
11
16.397100
21
9.062220
0
LINE
8
Layer 1
10
16.397100
20
9.062220
11
15.589900
21
8.816690
0
LINE
8
Layer 1
10
15.589900
20
8.816690
11
14.957800
21
8.150640
0
LINE
8
Layer 1
10
14.957800
20
8.150640
11
14.768711
21
7.129000
0
LINE
8
Layer 1
10
14.768711
20
7.129000
11
15.121489
21
6.462956
0
LINE
8
Layer 1
10
15.121489
20
6.462956
11
15.835511
21
6.217423
0
LINE
8
Layer 1
10
15.835511
20
6.217423
11
16.373952
21
6.311458
0
LINE
8
Layer 1
10
16.373952
20
6.311458
11
16.837401
21
6.601245
0
LINE
8
Layer 1
10
16.837401
20
6.601245
11
16.837410
21
6.601280
0
LINE
8
Layer 1
10
20.181700
20
5.057490
11
19.844807
21
5.668955
0
LINE
8
Layer 1
10
19.844807
20
5.668955
11
19.755500
21
6.361350
0
LINE
8
Layer 1
10
19.755500
20
6.361350
11
19.806300
21
6.982240
0
LINE
8
Layer 1
10
19.806300
20
6.982240
11
20.469522
21
10.524130
0
LINE
8
Layer 1
10
20.469522
20
10.524130
11
22.329400
21
10.524100
0
LINE
8
Layer 1
10
22.329400
20
10.524100
11
21.705689
21
7.222100
0
LINE
8
Layer 1
10
21.705689
20
7.222100
11
21.674645
21
6.874967
0
LINE
8
Layer 1
10
21.674645
20
6.874967
11
21.828375
21
6.390203
0
LINE
8
Layer 1
10
21.828375
20
6.390203
11
22.309644
21
6.225856
0
LINE
8
Layer 1
10
22.309644
20
6.225856
11
23.001100
21
6.417800
0
LINE
8
Layer 1
10
23.001100
20
6.417800
11
23.596600
21
6.982240
0
LINE
8
Layer 1
10
23.596600
20
6.982240
11
24.271100
21
10.515700
0
LINE
8
Layer 1
10
24.271100
20
10.515700
11
26.130900
21
10.515700
0
LINE
8
Layer 1
10
26.130900
20
10.515700
11
25.044400
21
4.752690
0
LINE
8
Layer 1
10
25.044400
20
4.752690
11
23.249400
21
4.752690
0
LINE
8
Layer 1
10
23.249400
20
4.752690
11
23.365111
21
5.376401
0
LINE
8
Layer 1
10
23.365111
20
5.376401
11
22.450712
21
4.778090
0
LINE
8
Layer 1
10
22.450712
20
4.778090
11
21.443182
21
4.572068
0
LINE
8
Layer 1
10
21.443182
20
4.572068
11
20.759164
21
4.676384
0
LINE
8
Layer 1
10
20.759164
20
4.676384
11
20.181652
21
5.057490
0
LINE
8
Layer 1
10
20.181652
20
5.057490
11
20.181700
21
5.057490
0
LINE
8
Layer 1
10
27.863800
20
13.622900
11
29.723600
21
13.622900
0
LINE
8
Layer 1
10
29.723600
20
13.622900
11
28.067000
21
4.752690
0
LINE
8
Layer 1
10
28.067000
20
4.752690
11
26.207100
21
4.752690
0
LINE
8
Layer 1
10
26.207100
20
4.752690
11
27.863800
21
13.622900
0
LINE
8
Layer 1
10
30.118700
20
4.710350
11
29.142212
21
5.099816
0
LINE
8
Layer 1
10
29.142212
20
5.099816
11
29.424434
21
6.649216
0
LINE
8
Layer 1
10
29.424434
20
6.649216
11
30.375522
21
6.175083
0
LINE
8
Layer 1
10
30.375522
20
6.175083
11
31.453612
21
5.988816
0
LINE
8
Layer 1
10
31.453612
20
5.988816
11
32.018056
21
6.048083
0
LINE
8
Layer 1
10
32.018056
20
6.048083
11
32.238189
21
6.287972
0
LINE
8
Layer 1
10
32.238189
20
6.287972
11
32.164811
21
6.522216
0
LINE
8
Layer 1
10
32.164811
20
6.522216
11
31.800745
21
6.714127
0
LINE
8
Layer 1
10
31.800745
20
6.714127
11
31.171390
21
6.937082
0
LINE
8
Layer 1
10
31.171390
20
6.937082
11
30.079190
21
7.526926
0
LINE
8
Layer 1
10
30.079190
20
7.526926
11
29.821362
21
7.914340
0
LINE
8
Layer 1
10
29.821362
20
7.914340
11
29.746168
21
8.373592
0
LINE
8
Layer 1
10
29.746168
20
8.373592
11
29.788502
21
8.827969
0
LINE
8
Layer 1
10
29.788502
20
8.827969
11
30.092243
21
9.642710
0
LINE
8
Layer 1
10
30.092243
20
9.642710
11
30.656333
21
10.224264
0
LINE
8
Layer 1
10
30.656333
20
10.224264
11
31.480773
21
10.572630
0
LINE
8
Layer 1
10
31.480773
20
10.572630
11
32.565562
21
10.687809
0
LINE
8
Layer 1
10
32.565562
20
10.687809
11
33.694452
21
10.557987
0
LINE
8
Layer 1
10
33.694452
20
10.557987
11
34.541118
21
10.208032
0
LINE
8
Layer 1
10
34.541118
20
10.208032
11
34.258896
21
8.684032
0
LINE
8
Layer 1
10
34.258896
20
8.684032
11
33.494074
21
9.079143
0
LINE
8
Layer 1
10
33.494074
20
9.079143
11
32.548630
21
9.237187
0
LINE
8
Layer 1
10
32.548630
20
9.237187
11
31.984186
21
9.158164
0
LINE
8
Layer 1
10
31.984186
20
9.158164
11
31.730186
21
8.875942
0
LINE
8
Layer 1
10
31.730186
20
8.875942
11
31.882586
21
8.593720
0
LINE
8
Layer 1
10
31.882586
20
8.593720
11
32.554274
21
8.353831
0
LINE
8
Layer 1
10
32.554274
20
8.353831
11
32.675629
21
8.317142
0
LINE
8
Layer 1
10
32.675629
20
8.317142
11
32.816740
21
8.269165
0
LINE
8
Layer 1
10
32.816740
20
8.269165
11
33.914580
21
7.704721
0
LINE
8
Layer 1
10
33.914580
20
7.704721
11
34.160444
21
7.313935
0
LINE
8
Layer 1
10
34.160444
20
7.313935
11
34.233491
21
6.858055
0
LINE
8
Layer 1
10
34.233491
20
6.858055
11
34.179868
21
6.352878
0
LINE
8
Layer 1
10
34.179868
20
6.352878
11
33.889950
21
5.606956
0
LINE
8
Layer 1
10
33.889950
20
5.606956
11
33.333202
21
5.032078
0
LINE
8
Layer 1
10
33.333202
20
5.032078
11
32.394509
21
4.644309
0
LINE
8
Layer 1
10
32.394509
20
4.644309
11
31.383052
21
4.552301
0
LINE
8
Layer 1
10
31.383052
20
4.552301
11
30.118702
21
4.710345
0
LINE
8
Layer 1
10
30.118702
20
4.710345
11
30.118700
21
4.710350
0
LINE
8
Layer 1
10
35.797000
20
5.190130
11
35.233253
21
5.974197
0
LINE
8
Layer 1
10
35.233253
20
5.974197
11
35.068867
21
6.925800
0
LINE
8
Layer 1
10
35.068867
20
6.925800
11
35.130956
21
7.608777
0
LINE
8
Layer 1
10
35.130956
20
7.608777
11
35.526268
21
8.831579
0
LINE
8
Layer 1
10
35.526268
20
8.831579
11
36.288066
21
9.866557
0
LINE
8
Layer 1
10
36.288066
20
9.866557
11
37.395344
21
10.512429
0
LINE
8
Layer 1
10
37.395344
20
10.512429
11
38.664376
21
10.693467
0
LINE
8
Layer 1
10
38.664376
20
10.693467
11
39.318546
21
10.622248
0
LINE
8
Layer 1
10
39.318546
20
10.622248
11
39.931556
21
10.383023
0
LINE
8
Layer 1
10
39.931556
20
10.383023
11
40.403293
21
10.017791
0
LINE
8
Layer 1
10
40.403293
20
10.017791
11
40.755644
21
9.536357
0
LINE
8
Layer 1
10
40.755644
20
9.536357
11
40.971294
21
8.946917
0
LINE
8
Layer 1
10
40.971294
20
8.946917
11
41.037866
21
8.322807
0
LINE
8
Layer 1
10
41.037866
20
8.322807
11
40.972955
21
7.710385
0
LINE
8
Layer 1
10
40.972955
20
7.710385
11
40.826200
21
6.931452
0
LINE
8
Layer 1
10
40.826200
20
6.931452
11
36.770700
21
6.931440
0
LINE
8
Layer 1
10
36.770700
20
6.931440
11
36.876048
21
6.531831
0
LINE
8
Layer 1
10
36.876048
20
6.531831
11
37.162636
21
6.247051
0
LINE
8
Layer 1
10
37.162636
20
6.247051
11
38.280590
21
6.019863
0
LINE
8
Layer 1
10
38.280590
20
6.019863
11
39.316340
21
6.115818
0
LINE
8
Layer 1
10
39.316340
20
6.115818
11
40.264606
21
6.378284
0
LINE
8
Layer 1
10
40.264606
20
6.378284
11
40.013428
21
4.986934
0
LINE
8
Layer 1
10
40.013428
20
4.986934
11
38.977678
21
4.704712
0
LINE
8
Layer 1
10
38.977678
20
4.704712
11
37.752838
21
4.589001
0
LINE
8
Layer 1
10
37.752838
20
4.589001
11
36.720581
21
4.712718
0
LINE
8
Layer 1
10
36.720581
20
4.712718
11
35.797038
21
5.190135
0
LINE
8
Layer 1
10
35.797038
20
5.190135
11
35.797000
21
5.190130
0
LINE
8
Layer 1
10
39.305020
20
8.246590
11
39.305020
21
8.438501
0
LINE
8
Layer 1
10
39.305020
20
8.438501
11
39.082065
21
9.036812
0
LINE
8
Layer 1
10
39.082065
20
9.036812
11
38.331354
21
9.242834
0
LINE
8
Layer 1
10
38.331354
20
9.242834
11
37.881626
21
9.183475
0
LINE
8
Layer 1
10
37.881626
20
9.183475
11
37.489028
21
8.981802
0
LINE
8
Layer 1
10
37.489028
20
8.981802
11
37.185276
21
8.661583
0
LINE
8
Layer 1
10
37.185276
20
8.661583
11
37.002084
21
8.246590
0
LINE
8
Layer 1
10
37.002084
20
8.246590
11
39.305020
21
8.246590
0
LINE
8
Layer 1
10
46.165900
20
4.981290
11
45.859177
21
5.520450
0
LINE
8
Layer 1
10
45.859177
20
5.520450
11
45.779256
21
6.135580
0
LINE
8
Layer 1
10
45.779256
20
6.135580
11
45.844167
21
6.795979
0
LINE
8
Layer 1
10
45.844167
20
6.795979
11
46.264678
21
9.053759
0
LINE
8
Layer 1
10
46.264678
20
9.053759
11
45.547800
21
9.053750
0
LINE
8
Layer 1
10
45.547800
20
9.053750
11
45.830022
21
10.518480
0
LINE
8
Layer 1
10
45.830022
20
10.518480
11
46.549700
21
10.518500
0
LINE
8
Layer 1
10
46.549700
20
10.518500
11
46.848900
21
12.242900
0
LINE
8
Layer 1
10
46.848900
20
12.242900
11
48.708700
21
12.242900
0
LINE
8
Layer 1
10
48.708700
20
12.242900
11
48.389789
21
10.515700
0
LINE
8
Layer 1
10
48.389789
20
10.515700
11
49.552500
21
10.515700
0
LINE
8
Layer 1
10
49.552500
20
10.515700
11
49.270278
21
9.050970
0
LINE
8
Layer 1
10
49.270278
20
9.050970
11
48.107600
21
9.050930
0
LINE
8
Layer 1
10
48.107600
20
9.050930
11
47.737889
21
7.075380
0
LINE
8
Layer 1
10
47.737889
20
7.075380
11
47.695556
21
6.691558
0
LINE
8
Layer 1
10
47.695556
20
6.691558
11
47.822556
21
6.319025
0
LINE
8
Layer 1
10
47.822556
20
6.319025
11
48.245889
21
6.200492
0
LINE
8
Layer 1
10
48.245889
20
6.200492
11
49.022000
21
6.417803
0
LINE
8
Layer 1
10
49.022000
20
6.417803
11
48.739778
21
4.845823
0
LINE
8
Layer 1
10
48.739778
20
4.845823
11
48.116067
21
4.636979
0
LINE
8
Layer 1
10
48.116067
20
4.636979
11
47.337134
21
4.569246
0
LINE
8
Layer 1
10
47.337134
20
4.569246
11
46.707572
21
4.650336
0
LINE
8
Layer 1
10
46.707572
20
4.650336
11
46.165914
21
4.981290
0
LINE
8
Layer 1
10
46.165914
20
4.981290
11
46.165900
21
4.981290
0
LINE
8
Layer 1
10
50.359700
20
5.215530
11
49.826588
21
6.006922
0
LINE
8
Layer 1
10
49.826588
20
6.006922
11
49.671078
21
6.948370
0
LINE
8
Layer 1
10
49.671078
20
6.948370
11
49.735989
21
7.634169
0
LINE
8
Layer 1
10
49.735989
20
7.634169
11
50.147615
21
8.853889
0
LINE
8
Layer 1
10
50.147615
20
8.853889
11
50.949539
21
9.860899
0
LINE
8
Layer 1
10
50.949539
20
9.860899
11
52.113037
21
10.513845
0
LINE
8
Layer 1
10
52.113037
20
10.513845
11
53.433089
21
10.707565
0
LINE
8
Layer 1
10
53.433089
20
10.707565
11
54.460623
21
10.570072
0
LINE
8
Layer 1
10
54.460623
20
10.570072
11
55.360669
21
10.055632
0
LINE
8
Layer 1
10
55.360669
20
10.055632
11
55.893145
21
9.256074
0
LINE
8
Layer 1
10
55.893145
20
9.256074
11
56.052113
21
8.308682
0
LINE
8
Layer 1
10
56.052113
20
8.308682
11
55.990024
21
7.648283
0
LINE
8
Layer 1
10
55.990024
20
7.648283
11
55.566126
21
6.419730
0
LINE
8
Layer 1
10
55.566126
20
6.419730
11
54.751074
21
5.407443
0
LINE
8
Layer 1
10
54.751074
20
5.407443
11
53.590226
21
4.755517
0
LINE
8
Layer 1
10
53.590226
20
4.755517
11
52.273164
21
4.560777
0
LINE
8
Layer 1
10
52.273164
20
4.560777
11
51.252760
21
4.702086
0
LINE
8
Layer 1
10
51.252760
20
4.702086
11
50.359694
21
5.215532
0
LINE
8
Layer 1
10
50.359694
20
5.215532
11
50.359700
21
5.215530
0
LINE
8
Layer 1
10
53.548810
20
6.595600
11
53.899795
21
7.071603
0
LINE
8
Layer 1
10
53.899795
20
7.071603
11
54.082210
21
7.634180
0
LINE
8
Layer 1
10
54.082210
20
7.634180
11
54.124543
21
8.077269
0
LINE
8
Layer 1
10
54.124543
20
8.077269
11
54.061749
21
8.503248
0
LINE
8
Layer 1
10
54.061749
20
8.503248
11
53.873366
21
8.807518
0
LINE
8
Layer 1
10
53.873366
20
8.807518
11
53.559394
21
8.990081
0
LINE
8
Layer 1
10
53.559394
20
8.990081
11
53.119833
21
9.050935
0
LINE
8
Layer 1
10
53.119833
20
9.050935
11
52.600447
21
8.957853
0
LINE
8
Layer 1
10
52.600447
20
8.957853
11
52.154634
21
8.675580
0
LINE
8
Layer 1
10
52.154634
20
8.675580
11
51.814147
21
8.197069
0
LINE
8
Layer 1
10
51.814147
20
8.197069
11
51.646634
21
7.634180
0
LINE
8
Layer 1
10
51.646634
20
7.634180
11
51.593012
21
7.165691
0
LINE
8
Layer 1
10
51.593012
20
7.165691
11
51.655630
21
6.750825
0
LINE
8
Layer 1
10
51.655630
20
6.750825
11
51.843485
21
6.454492
0
LINE
8
Layer 1
10
51.843485
20
6.454492
11
52.156575
21
6.276692
0
LINE
8
Layer 1
10
52.156575
20
6.276692
11
52.594902
21
6.217425
0
LINE
8
Layer 1
10
52.594902
20
6.217425
11
53.108474
21
6.314152
0
LINE
8
Layer 1
10
53.108474
20
6.314152
11
53.548812
21
6.595602
0
LINE
8
Layer 1
10
53.548812
20
6.595602
11
53.548810
21
6.595600
0
LINE
8
Layer 1
10
61.126500
20
5.173200
11
60.590465
21
5.953964
0
LINE
8
Layer 1
10
60.590465
20
5.953964
11
60.440701
21
6.889110
0
LINE
8
Layer 1
10
60.440701
20
6.889110
11
60.514079
21
7.622887
0
LINE
8
Layer 1
10
60.514079
20
7.622887
11
60.927065
21
8.870183
0
LINE
8
Layer 1
10
60.927065
20
8.870183
11
61.738919
21
9.903237
0
LINE
8
Layer 1
10
61.738919
20
9.903237
11
62.861133
21
10.514638
0
LINE
8
Layer 1
10
62.861133
20
10.514638
11
64.126519
21
10.693459
0
LINE
8
Layer 1
10
64.126519
20
10.693459
11
65.272339
21
10.555170
0
LINE
8
Layer 1
10
65.272339
20
10.555170
11
66.093605
21
10.165704
0
LINE
8
Layer 1
10
66.093605
20
10.165704
11
65.785983
21
8.523174
0
LINE
8
Layer 1
10
65.785983
20
8.523174
11
65.094539
21
8.918285
0
LINE
8
Layer 1
10
65.094539
20
8.918285
11
64.191429
21
9.050929
0
LINE
8
Layer 1
10
64.191429
20
9.050929
11
63.586188
21
8.968673
0
LINE
8
Layer 1
10
63.586188
20
8.968673
11
63.039959
21
8.695329
0
LINE
8
Layer 1
10
63.039959
20
8.695329
11
62.629887
21
8.218419
0
LINE
8
Layer 1
10
62.629887
20
8.218419
11
62.427537
21
7.622889
0
LINE
8
Layer 1
10
62.427537
20
7.622889
11
62.385203
21
7.188267
0
LINE
8
Layer 1
10
62.385203
20
7.188267
11
62.448691
21
6.776245
0
LINE
8
Layer 1
10
62.448691
20
6.776245
11
62.695647
21
6.440379
0
LINE
8
Layer 1
10
62.695647
20
6.440379
11
63.149556
21
6.247322
0
LINE
8
Layer 1
10
63.149556
20
6.247322
11
63.641091
21
6.206135
0
LINE
8
Layer 1
10
63.641091
20
6.206135
11
64.622135
21
6.351016
0
LINE
8
Layer 1
10
64.622135
20
6.351016
11
65.520691
21
6.770579
0
LINE
8
Layer 1
10
65.520691
20
6.770579
11
65.215891
21
5.139339
0
LINE
8
Layer 1
10
65.215891
20
5.139339
11
64.126360
21
4.699683
0
LINE
8
Layer 1
10
64.126360
20
4.699683
11
62.958111
21
4.574895
0
LINE
8
Layer 1
10
62.958111
20
4.574895
11
61.987130
21
4.705154
0
LINE
8
Layer 1
10
61.987130
20
4.705154
11
61.126491
21
5.173206
0
LINE
8
Layer 1
10
61.126491
20
5.173206
11
61.126500
21
5.173200
0
LINE
8
Layer 1
10
67.168800
20
10.515700
11
68.963800
21
10.515700
0
LINE
8
Layer 1
10
68.963800
20
10.515700
11
68.839600
21
9.804460
0
LINE
8
Layer 1
10
68.839600
20
9.804460
11
69.785044
21
10.399948
0
LINE
8
Layer 1
10
69.785044
20
10.399948
11
71.015534
21
10.608792
0
LINE
8
Layer 1
10
71.015534
20
10.608792
11
70.707912
21
8.988842
0
LINE
8
Layer 1
10
70.707912
20
8.988842
11
69.429442
21
8.760242
0
LINE
8
Layer 1
10
69.429442
20
8.760242
11
68.948866
21
8.489716
0
LINE
8
Layer 1
10
68.948866
20
8.489716
11
68.582776
21
8.077265
0
LINE
8
Layer 1
10
68.582776
20
8.077265
11
67.961888
21
4.752685
0
LINE
8
Layer 1
10
67.961888
20
4.752685
11
66.102000
21
4.752690
0
LINE
8
Layer 1
10
66.102000
20
4.752690
11
67.168800
21
10.515700
0
LINE
8
Layer 1
10
71.647700
20
5.190130
11
71.083953
21
5.974197
0
LINE
8
Layer 1
10
71.083953
20
5.974197
11
70.919567
21
6.925800
0
LINE
8
Layer 1
10
70.919567
20
6.925800
11
70.981656
21
7.608777
0
LINE
8
Layer 1
10
70.981656
20
7.608777
11
71.376968
21
8.831579
0
LINE
8
Layer 1
10
71.376968
20
8.831579
11
72.138766
21
9.866557
0
LINE
8
Layer 1
10
72.138766
20
9.866557
11
73.241939
21
10.511229
0
LINE
8
Layer 1
10
73.241939
20
10.511229
11
74.506606
21
10.693467
0
LINE
8
Layer 1
10
74.506606
20
10.693467
11
75.160776
21
10.622248
0
LINE
8
Layer 1
10
75.160776
20
10.622248
11
75.773786
21
10.383023
0
LINE
8
Layer 1
10
75.773786
20
10.383023
11
76.245523
21
10.017791
0
LINE
8
Layer 1
10
76.245523
20
10.017791
11
76.597874
21
9.536357
0
LINE
8
Layer 1
10
76.597874
20
9.536357
11
76.813524
21
8.946917
0
LINE
8
Layer 1
10
76.813524
20
8.946917
11
76.880096
21
8.322807
0
LINE
8
Layer 1
10
76.880096
20
8.322807
11
76.815185
21
7.710385
0
LINE
8
Layer 1
10
76.815185
20
7.710385
11
76.668430
21
6.931452
0
LINE
8
Layer 1
10
76.668430
20
6.931452
11
72.618500
21
6.931440
0
LINE
8
Layer 1
10
72.618500
20
6.931440
11
72.725480
21
6.531831
0
LINE
8
Layer 1
10
72.725480
20
6.531831
11
73.012905
21
6.247051
0
LINE
8
Layer 1
10
73.012905
20
6.247051
11
74.131210
21
6.019863
0
LINE
8
Layer 1
10
74.131210
20
6.019863
11
75.164140
21
6.115818
0
LINE
8
Layer 1
10
75.164140
20
6.115818
11
76.115228
21
6.378285
0
LINE
8
Layer 1
10
76.115228
20
6.378285
11
75.864050
21
4.986934
0
LINE
8
Layer 1
10
75.864050
20
4.986934
11
74.828300
21
4.704712
0
LINE
8
Layer 1
10
74.828300
20
4.704712
11
73.603460
21
4.589002
0
LINE
8
Layer 1
10
73.603460
20
4.589002
11
72.571203
21
4.712718
0
LINE
8
Layer 1
10
72.571203
20
4.712718
11
71.647660
21
5.190135
0
LINE
8
Layer 1
10
71.647660
20
5.190135
11
71.647700
21
5.190130
0
LINE
8
Layer 1
10
75.155700
20
8.246600
11
75.155700
21
8.438511
0
LINE
8
Layer 1
10
75.155700
20
8.438511
11
74.935567
21
9.036822
0
LINE
8
Layer 1
10
74.935567
20
9.036822
11
74.184856
21
9.242844
0
LINE
8
Layer 1
10
74.184856
20
9.242844
11
73.735128
21
9.183485
0
LINE
8
Layer 1
10
73.735128
20
9.183485
11
73.342530
21
8.981812
0
LINE
8
Layer 1
10
73.342530
20
8.981812
11
73.038778
21
8.661593
0
LINE
8
Layer 1
10
73.038778
20
8.661593
11
72.855586
21
8.246600
0
LINE
8
Layer 1
10
72.855586
20
8.246600
11
75.155700
21
8.246600
0
LINE
8
Layer 1
10
78.065400
20
5.195780
11
77.598393
21
5.983137
0
LINE
8
Layer 1
10
77.598393
20
5.983137
11
77.467089
21
6.889110
0
LINE
8
Layer 1
10
77.467089
20
6.889110
11
77.543289
21
7.622887
0
LINE
8
Layer 1
10
77.543289
20
7.622887
11
77.777224
21
8.455442
0
LINE
8
Layer 1
10
77.777224
20
8.455442
11
78.175466
21
9.223087
0
LINE
8
Layer 1
10
78.175466
20
9.223087
11
78.686092
21
9.835361
0
LINE
8
Layer 1
10
78.686092
20
9.835361
11
79.326936
21
10.309637
0
LINE
8
Layer 1
10
79.326936
20
10.309637
11
80.043926
21
10.599225
0
LINE
8
Layer 1
10
80.043926
20
10.599225
11
80.811426
21
10.693459
0
LINE
8
Layer 1
10
80.811426
20
10.693459
11
81.751225
21
10.526948
0
LINE
8
Layer 1
10
81.751225
20
10.526948
11
82.417269
21
10.047171
0
LINE
8
Layer 1
10
82.417269
20
10.047171
11
82.510402
21
10.515660
0
LINE
8
Layer 1
10
82.510402
20
10.515660
11
84.384400
21
10.515700
0
LINE
8
Layer 1
10
84.384400
20
10.515700
11
83.297850
21
4.752730
0
LINE
8
Layer 1
10
83.297850
20
4.752730
11
81.502900
21
4.752690
0
LINE
8
Layer 1
10
81.502900
20
4.752690
11
81.610144
21
5.317134
0
LINE
8
Layer 1
10
81.610144
20
5.317134
11
80.709049
21
4.756011
0
LINE
8
Layer 1
10
80.709049
20
4.756011
11
79.665634
21
4.560779
0
LINE
8
Layer 1
10
79.665634
20
4.560779
11
78.797960
21
4.707992
0
LINE
8
Layer 1
10
78.797960
20
4.707992
11
78.065434
21
5.195778
0
LINE
8
Layer 1
10
78.065434
20
5.195778
11
78.065400
21
5.195780
0
LINE
8
Layer 1
10
81.279900
20
6.451660
11
81.886677
21
7.117704
0
LINE
8
Layer 1
10
81.886677
20
7.117704
11
82.075766
21
8.136524
0
LINE
8
Layer 1
10
82.075766
20
8.136524
11
81.722989
21
8.802568
0
LINE
8
Layer 1
10
81.722989
20
8.802568
11
81.008967
21
9.050923
0
LINE
8
Layer 1
10
81.008967
20
9.050923
11
80.470112
21
8.960943
0
LINE
8
Layer 1
10
80.470112
20
8.960943
11
80.004257
21
8.675568
0
LINE
8
Layer 1
10
80.004257
20
8.675568
11
79.635382
21
8.200298
0
LINE
8
Layer 1
10
79.635382
20
8.200298
11
79.439813
21
7.631348
0
LINE
8
Layer 1
10
79.439813
20
7.631348
11
79.397480
21
7.185437
0
LINE
8
Layer 1
10
79.397480
20
7.185437
11
79.462920
21
6.761751
0
LINE
8
Layer 1
10
79.462920
20
6.761751
11
79.659240
21
6.458715
0
LINE
8
Layer 1
10
79.659240
20
6.458715
11
79.986440
21
6.276329
0
LINE
8
Layer 1
10
79.986440
20
6.276329
11
80.444520
21
6.214593
0
LINE
8
Layer 1
10
80.444520
20
6.214593
11
81.279900
21
6.451660
0
LINE
8
Layer 1
10
81.279900
20
6.451660
11
81.279900
21
6.451660
0
LINE
8
Layer 1
10
85.143600
20
4.981290
11
84.836011
21
5.520160
0
LINE
8
Layer 1
10
84.836011
20
5.520160
11
84.756956
21
6.135580
0
LINE
8
Layer 1
10
84.756956
20
6.135580
11
84.819045
21
6.795979
0
LINE
8
Layer 1
10
84.819045
20
6.795979
11
85.242378
21
9.053759
0
LINE
8
Layer 1
10
85.242378
20
9.053759
11
84.525500
21
9.053750
0
LINE
8
Layer 1
10
84.525500
20
9.053750
11
84.807722
21
10.518480
0
LINE
8
Layer 1
10
84.807722
20
10.518480
11
85.513300
21
10.518500
0
LINE
8
Layer 1
10
85.513300
20
10.518500
11
85.832211
21
12.245700
0
LINE
8
Layer 1
10
85.832211
20
12.245700
11
87.689200
21
12.245700
0
LINE
8
Layer 1
10
87.689200
20
12.245700
11
87.373111
21
10.518500
0
LINE
8
Layer 1
10
87.373111
20
10.518500
11
88.535900
21
10.518500
0
LINE
8
Layer 1
10
88.535900
20
10.518500
11
88.253678
21
9.053770
0
LINE
8
Layer 1
10
88.253678
20
9.053770
11
87.090900
21
9.053750
0
LINE
8
Layer 1
10
87.090900
20
9.053750
11
86.721189
21
7.078200
0
LINE
8
Layer 1
10
86.721189
20
7.078200
11
86.678856
21
6.694378
0
LINE
8
Layer 1
10
86.678856
20
6.694378
11
86.805856
21
6.321845
0
LINE
8
Layer 1
10
86.805856
20
6.321845
11
87.226367
21
6.203312
0
LINE
8
Layer 1
10
87.226367
20
6.203312
11
87.988366
21
6.417801
0
LINE
8
Layer 1
10
87.988366
20
6.417801
11
87.692033
21
4.845821
0
LINE
8
Layer 1
10
87.692033
20
4.845821
11
87.068322
21
4.636977
0
LINE
8
Layer 1
10
87.068322
20
4.636977
11
86.286567
21
4.569244
0
LINE
8
Layer 1
10
86.286567
20
4.569244
11
85.672055
21
4.655952
0
LINE
8
Layer 1
10
85.672055
20
4.655952
11
85.143567
21
4.981288
0
LINE
8
Layer 1
10
85.143567
20
4.981288
11
85.143600
21
4.981290
0
LINE
8
Layer 1
10
89.413600
20
5.190130
11
88.849853
21
5.974197
0
LINE
8
Layer 1
10
88.849853
20
5.974197
11
88.685467
21
6.925800
0
LINE
8
Layer 1
10
88.685467
20
6.925800
11
88.750378
21
7.608777
0
LINE
8
Layer 1
10
88.750378
20
7.608777
11
89.144243
21
8.831369
0
LINE
8
Layer 1
10
89.144243
20
8.831369
11
89.904668
21
9.866557
0
LINE
8
Layer 1
10
89.904668
20
9.866557
11
91.006722
21
10.503301
0
LINE
8
Layer 1
10
91.006722
20
10.503301
11
92.266868
21
10.682179
0
LINE
8
Layer 1
10
92.266868
20
10.682179
11
92.921038
21
10.610960
0
LINE
8
Layer 1
10
92.921038
20
10.610960
11
93.534048
21
10.371735
0
LINE
8
Layer 1
10
93.534048
20
10.371735
11
94.006365
21
10.007068
0
LINE
8
Layer 1
10
94.006365
20
10.007068
11
94.358136
21
9.525069
0
LINE
8
Layer 1
10
94.358136
20
9.525069
11
94.573786
21
8.935629
0
LINE
8
Layer 1
10
94.573786
20
8.935629
11
94.640358
21
8.311519
0
LINE
8
Layer 1
10
94.640358
20
8.311519
11
94.578269
21
7.699097
0
LINE
8
Layer 1
10
94.578269
20
7.699097
11
94.428691
21
6.920164
0
LINE
8
Layer 1
10
94.428691
20
6.920164
11
90.387200
21
6.920150
0
LINE
8
Layer 1
10
90.387200
20
6.920150
11
90.492945
21
6.520541
0
LINE
8
Layer 1
10
90.492945
20
6.520541
11
90.780194
21
6.235761
0
LINE
8
Layer 1
10
90.780194
20
6.235761
11
91.897090
21
6.008573
0
LINE
8
Layer 1
10
91.897090
20
6.008573
11
92.932840
21
6.104529
0
LINE
8
Layer 1
10
92.932840
20
6.104529
11
93.883928
21
6.366995
0
LINE
8
Layer 1
10
93.883928
20
6.366995
11
93.629928
21
4.975644
0
LINE
8
Layer 1
10
93.629928
20
4.975644
11
92.594178
21
4.693422
0
LINE
8
Layer 1
10
92.594178
20
4.693422
11
91.369338
21
4.577711
0
LINE
8
Layer 1
10
91.369338
20
4.577711
11
90.336078
21
4.707128
0
LINE
8
Layer 1
10
90.336078
20
4.707128
11
89.413538
21
5.190133
0
LINE
8
Layer 1
10
89.413538
20
5.190133
11
89.413600
21
5.190130
0
LINE
8
Layer 1
10
92.921620
20
8.246590
11
92.921620
21
8.438501
0
LINE
8
Layer 1
10
92.921620
20
8.438501
11
92.698665
21
9.036812
0
LINE
8
Layer 1
10
92.698665
20
9.036812
11
91.947954
21
9.242834
0
LINE
8
Layer 1
10
91.947954
20
9.242834
11
91.498226
21
9.183475
0
LINE
8
Layer 1
10
91.498226
20
9.183475
11
91.105628
21
8.981802
0
LINE
8
Layer 1
10
91.105628
20
8.981802
11
90.801876
21
8.661583
0
LINE
8
Layer 1
10
90.801876
20
8.661583
11
90.618684
21
8.246590
0
LINE
8
Layer 1
10
90.618684
20
8.246590
11
92.921620
21
8.246590
0
LINE
8
Layer 1
10
43.984300
20
25.419800
11
43.984300
21
18.773500
0
LINE
8
Layer 1
10
43.984300
20
18.773500
11
41.458400
21
18.773500
0
LINE
8
Layer 1
10
41.458400
20
18.773500
11
41.458400
21
25.419800
0
LINE
8
Layer 1
10
41.458400
20
25.419800
11
41.231564
21
27.016120
0
LINE
8
Layer 1
10
41.231564
20
27.016120
11
40.615261
21
28.326687
0
LINE
8
Layer 1
10
40.615261
20
28.326687
11
39.705800
21
29.213922
0
LINE
8
Layer 1
10
39.705800
20
29.213922
11
39.171232
21
29.455794
0
LINE
8
Layer 1
10
39.171232
20
29.455794
11
38.599490
21
29.540240
0
LINE
8
Layer 1
10
38.599490
20
29.540240
11
38.027627
21
29.455678
0
LINE
8
Layer 1
10
38.027627
20
29.455678
11
37.492739
21
29.213524
0
LINE
8
Layer 1
10
37.492739
20
29.213524
11
36.582309
21
28.325626
0
LINE
8
Layer 1
10
36.582309
20
28.325626
11
35.965037
21
27.014926
0
LINE
8
Layer 1
10
35.965037
20
27.014926
11
35.737760
21
25.419800
0
LINE
8
Layer 1
10
35.737760
20
25.419800
11
35.737800
21
18.773500
0
LINE
8
Layer 1
10
35.737800
20
18.773500
11
33.197800
21
18.773500
0
LINE
8
Layer 1
10
33.197800
20
18.773500
11
33.197800
21
25.419800
0
LINE
8
Layer 1
10
33.197800
20
25.419800
11
32.968539
21
27.016120
0
LINE
8
Layer 1
10
32.968539
20
27.016120
11
32.347960
21
28.326687
0
LINE
8
Layer 1
10
32.347960
20
28.326687
11
31.436868
21
29.213922
0
LINE
8
Layer 1
10
31.436868
20
29.213922
11
30.903882
21
29.455794
0
LINE
8
Layer 1
10
30.903882
20
29.455794
11
30.336070
21
29.540240
0
LINE
8
Layer 1
10
30.336070
20
29.540240
11
30.336000
21
32.080200
0
LINE
8
Layer 1
10
30.336000
20
32.080200
11
31.539722
21
31.915056
0
LINE
8
Layer 1
10
31.539722
20
31.915056
11
32.652693
21
31.440614
0
LINE
8
Layer 1
10
32.652693
20
31.440614
11
33.642367
21
30.688361
0
LINE
8
Layer 1
10
33.642367
20
30.688361
11
34.476200
21
29.689780
0
LINE
8
Layer 1
10
34.476200
20
29.689780
11
35.298259
21
30.688363
0
LINE
8
Layer 1
10
35.298259
20
30.688363
11
36.279597
21
31.440616
0
LINE
8
Layer 1
10
36.279597
20
31.440616
11
37.390051
21
31.915057
0
LINE
8
Layer 1
10
37.390051
20
31.915057
11
38.599460
21
32.080200
0
LINE
8
Layer 1
10
38.599460
20
32.080200
11
39.685689
21
31.945185
0
LINE
8
Layer 1
10
39.685689
20
31.945185
11
40.696942
21
31.556237
0
LINE
8
Layer 1
10
40.696942
20
31.556237
11
41.611690
21
30.940672
0
LINE
8
Layer 1
10
41.611690
20
30.940672
11
42.408400
21
30.125811
0
LINE
8
Layer 1
10
42.408400
20
30.125811
11
43.065543
21
29.138971
0
LINE
8
Layer 1
10
43.065543
20
29.138971
11
43.561588
21
28.007470
0
LINE
8
Layer 1
10
43.561588
20
28.007470
11
43.875003
21
26.758627
0
LINE
8
Layer 1
10
43.875003
20
26.758627
11
43.984260
21
25.419760
0
LINE
8
Layer 1
10
43.984260
20
25.419760
11
43.984300
21
25.419800
0
LINE
8
Layer 1
10
95.035400
20
31.998400
11
95.035400
21
29.458400
0
LINE
8
Layer 1
10
95.035400
20
29.458400
11
94.462727
21
29.373838
0
LINE
8
Layer 1
10
94.462727
20
29.373838
11
93.927459
21
29.131684
0
LINE
8
Layer 1
10
93.927459
20
29.131684
11
93.017161
21
28.243786
0
LINE
8
Layer 1
10
93.017161
20
28.243786
11
92.400550
21
26.933086
0
LINE
8
Layer 1
10
92.400550
20
26.933086
11
92.173670
21
25.337960
0
LINE
8
Layer 1
10
92.173670
20
25.337960
11
92.063107
21
23.998275
0
LINE
8
Layer 1
10
92.063107
20
23.998275
11
91.746368
21
22.749013
0
LINE
8
Layer 1
10
91.746368
20
22.749013
11
91.245876
21
21.617358
0
LINE
8
Layer 1
10
91.245876
20
21.617358
11
90.584054
21
20.630496
0
LINE
8
Layer 1
10
90.584054
20
20.630496
11
89.783326
21
19.815614
0
LINE
8
Layer 1
10
89.783326
20
19.815614
11
88.866115
21
19.199897
0
LINE
8
Layer 1
10
88.866115
20
19.199897
11
87.854845
21
18.810530
0
LINE
8
Layer 1
10
87.854845
20
18.810530
11
86.771940
21
18.674700
0
LINE
8
Layer 1
10
86.771940
20
18.674700
11
86.772000
21
21.214700
0
LINE
8
Layer 1
10
86.772000
20
21.214700
11
87.339812
21
21.299383
0
LINE
8
Layer 1
10
87.339812
20
21.299383
11
87.872798
21
21.541857
0
LINE
8
Layer 1
10
87.872798
20
21.541857
11
88.783890
21
22.430724
0
LINE
8
Layer 1
10
88.783890
20
22.430724
11
89.404469
21
23.742394
0
LINE
8
Layer 1
10
89.404469
20
23.742394
11
89.633730
21
25.337960
0
LINE
8
Layer 1
10
89.633730
20
25.337960
11
89.742904
21
26.680762
0
LINE
8
Layer 1
10
89.742904
20
26.680762
11
90.056269
21
27.931225
0
LINE
8
Layer 1
10
90.056269
20
27.931225
11
90.552594
21
29.062627
0
LINE
8
Layer 1
10
90.552594
20
29.062627
11
91.210645
21
30.048244
0
LINE
8
Layer 1
10
91.210645
20
30.048244
11
92.009190
21
30.861352
0
LINE
8
Layer 1
10
92.009190
20
30.861352
11
92.926996
21
31.475230
0
LINE
8
Layer 1
10
92.926996
20
31.475230
11
93.942830
21
31.863154
0
LINE
8
Layer 1
10
93.942830
20
31.863154
11
95.035460
21
31.998400
0
LINE
8
Layer 1
10
95.035460
20
31.998400
11
95.035400
21
31.998400
0
LINE
8
Layer 1
10
68.077600
20
25.284300
11
68.077600
21
18.671900
0
LINE
8
Layer 1
10
68.077600
20
18.671900
11
65.554500
21
18.671900
0
LINE
8
Layer 1
10
65.554500
20
18.671900
11
65.554500
21
25.284300
0
LINE
8
Layer 1
10
65.554500
20
25.284300
11
65.327620
21
26.881060
0
LINE
8
Layer 1
10
65.327620
20
26.881060
11
64.711009
21
28.192598
0
LINE
8
Layer 1
10
64.711009
20
28.192598
11
63.800711
21
29.080801
0
LINE
8
Layer 1
10
63.800711
20
29.080801
11
63.265443
21
29.322993
0
LINE
8
Layer 1
10
63.265443
20
29.322993
11
62.692770
21
29.407560
0
LINE
8
Layer 1
10
62.692770
20
29.407560
11
62.692800
21
31.947600
0
LINE
8
Layer 1
10
62.692800
20
31.947600
11
63.779839
21
31.811769
0
LINE
8
Layer 1
10
63.779839
20
31.811769
11
64.791472
21
31.422402
0
LINE
8
Layer 1
10
64.791472
20
31.422402
11
65.706269
21
30.806683
0
LINE
8
Layer 1
10
65.706269
20
30.806683
11
66.502797
21
29.991800
0
LINE
8
Layer 1
10
66.502797
20
29.991800
11
67.159626
21
29.004938
0
LINE
8
Layer 1
10
67.159626
20
29.004938
11
67.655324
21
27.873283
0
LINE
8
Layer 1
10
67.655324
20
27.873283
11
67.968459
21
26.624022
0
LINE
8
Layer 1
10
67.968459
20
26.624022
11
68.077600
21
25.284340
0
LINE
8
Layer 1
10
68.077600
20
25.284340
11
68.077600
21
25.284300
0
LINE
8
Layer 1
10
60.152800
20
31.947600
11
60.152800
21
29.407600
0
LINE
8
Layer 1
10
60.152800
20
29.407600
11
59.581058
21
29.306176
0
LINE
8
Layer 1
10
59.581058
20
29.306176
11
59.046490
21
29.019544
0
LINE
8
Layer 1
10
59.046490
20
29.019544
11
58.137029
21
27.996489
0
LINE
8
Layer 1
10
58.137029
20
27.996489
11
57.520726
21
26.550101
0
LINE
8
Layer 1
10
57.520726
20
26.550101
11
57.293890
21
24.892050
0
LINE
8
Layer 1
10
57.293890
20
24.892050
11
57.112343
21
23.175874
0
LINE
8
Layer 1
10
57.112343
20
23.175874
11
56.599272
21
21.627445
0
LINE
8
Layer 1
10
56.599272
20
21.627445
11
55.802039
21
20.306558
0
LINE
8
Layer 1
10
55.802039
20
20.306558
11
54.768000
21
19.273010
0
LINE
8
Layer 1
10
54.768000
20
19.273010
11
54.260000
21
18.914588
0
LINE
8
Layer 1
10
54.260000
20
18.914588
11
53.345600
21
18.662832
0
LINE
8
Layer 1
10
53.345600
20
18.662832
11
52.431200
21
18.914588
0
LINE
8
Layer 1
10
52.431200
20
18.914588
11
51.909089
21
19.284299
0
LINE
8
Layer 1
10
51.909089
20
19.284299
11
50.872850
21
20.317847
0
LINE
8
Layer 1
10
50.872850
20
20.317847
11
50.070765
21
21.638734
0
LINE
8
Layer 1
10
50.070765
20
21.638734
11
49.552843
21
23.187163
0
LINE
8
Layer 1
10
49.552843
20
23.187163
11
49.369089
21
24.903339
0
LINE
8
Layer 1
10
49.369089
20
24.903339
11
49.144458
21
26.559190
0
LINE
8
Layer 1
10
49.144458
20
26.559190
11
48.533005
21
28.000726
0
LINE
8
Layer 1
10
48.533005
20
28.000726
11
47.628395
21
29.018929
0
LINE
8
Layer 1
10
47.628395
20
29.018929
11
47.095425
21
29.303962
0
LINE
8
Layer 1
10
47.095425
20
29.303962
11
46.524289
21
29.404779
0
LINE
8
Layer 1
10
46.524289
20
29.404779
11
46.524300
21
31.944800
0
LINE
8
Layer 1
10
46.524300
20
31.944800
11
47.610529
21
31.792114
0
LINE
8
Layer 1
10
47.610529
20
31.792114
11
48.621782
21
31.358308
0
LINE
8
Layer 1
10
48.621782
20
31.358308
11
49.536530
21
30.679763
0
LINE
8
Layer 1
10
49.536530
20
30.679763
11
50.333240
21
29.792859
0
LINE
8
Layer 1
10
50.333240
20
29.792859
11
50.990383
21
28.733975
0
LINE
8
Layer 1
10
50.990383
20
28.733975
11
51.486427
21
27.539493
0
LINE
8
Layer 1
10
51.486427
20
27.539493
11
51.799843
21
26.245791
0
LINE
8
Layer 1
10
51.799843
20
26.245791
11
51.909100
21
24.889250
0
LINE
8
Layer 1
10
51.909100
20
24.889250
11
51.962243
21
24.019014
0
LINE
8
Layer 1
10
51.962243
20
24.019014
11
52.168422
21
23.178967
0
LINE
8
Layer 1
10
52.168422
20
23.178967
11
52.520813
21
22.389023
0
LINE
8
Layer 1
10
52.520813
20
22.389023
11
53.012590
21
21.669100
0
LINE
8
Layer 1
10
53.012590
20
21.669100
11
53.349846
21
21.520592
0
LINE
8
Layer 1
10
53.349846
20
21.520592
11
53.687101
21
21.669100
0
LINE
8
Layer 1
10
53.687101
20
21.669100
11
54.505251
21
23.178496
0
LINE
8
Layer 1
10
54.505251
20
23.178496
11
54.768011
21
24.875140
0
LINE
8
Layer 1
10
54.768011
20
24.875140
11
54.877267
21
26.241320
0
LINE
8
Layer 1
10
54.877267
20
26.241320
11
55.190682
21
27.541123
0
LINE
8
Layer 1
10
55.190682
20
27.541123
11
55.686726
21
28.738863
0
LINE
8
Layer 1
10
55.686726
20
28.738863
11
56.343867
21
29.798854
0
LINE
8
Layer 1
10
56.343867
20
29.798854
11
57.140577
21
30.685411
0
LINE
8
Layer 1
10
57.140577
20
30.685411
11
58.055324
21
31.362848
0
LINE
8
Layer 1
10
58.055324
20
31.362848
11
59.066579
21
31.795479
0
LINE
8
Layer 1
10
59.066579
20
31.795479
11
60.152811
21
31.947620
0
LINE
8
Layer 1
10
60.152811
20
31.947620
11
60.152800
21
31.947600
0
LINE
8
Layer 1
10
81.387200
20
25.518600
11
81.353333
21
26.023777
0
LINE
8
Layer 1
10
81.353333
20
26.023777
11
81.305356
21
26.545888
0
LINE
8
Layer 1
10
81.305356
20
26.545888
11
81.370267
21
25.981444
0
LINE
8
Layer 1
10
81.370267
20
25.981444
11
81.387200
21
25.518600
0
LINE
8
Layer 1
10
81.387200
20
25.518600
11
81.387200
21
25.518600
0
LINE
8
Layer 1
10
81.387200
20
25.352100
11
81.387200
21
25.518600
0
LINE
8
Layer 1
10
81.387200
20
25.518600
11
81.353333
21
26.023777
0
LINE
8
Layer 1
10
81.353333
20
26.023777
11
81.305356
21
26.545888
0
LINE
8
Layer 1
10
81.305356
20
26.545888
11
81.288422
21
26.613621
0
LINE
8
Layer 1
10
81.288422
20
26.613621
11
81.254556
21
26.830932
0
LINE
8
Layer 1
10
81.254556
20
26.830932
11
81.186822
21
27.135732
0
LINE
8
Layer 1
10
81.186822
20
27.135732
11
81.102156
21
27.505443
0
LINE
8
Layer 1
10
81.102156
20
27.505443
11
80.702178
21
28.622145
0
LINE
8
Layer 1
10
80.702178
20
28.622145
11
80.125668
21
29.658793
0
LINE
8
Layer 1
10
80.125668
20
29.658793
11
79.199980
21
30.719943
0
LINE
8
Layer 1
10
79.199980
20
30.719943
11
78.864136
21
30.988054
0
LINE
8
Layer 1
10
78.864136
20
30.988054
11
78.864100
21
31.005000
0
LINE
8
Layer 1
10
78.864100
20
31.005000
11
77.517110
21
31.747685
0
LINE
8
Layer 1
10
77.517110
20
31.747685
11
76.002400
21
32.015300
0
LINE
8
Layer 1
10
76.002400
20
32.015300
11
74.781527
21
31.850421
0
LINE
8
Layer 1
10
74.781527
20
31.850421
11
73.673365
21
31.377831
0
LINE
8
Layer 1
10
73.673365
20
31.377831
11
72.699611
21
30.630603
0
LINE
8
Layer 1
10
72.699611
20
30.630603
11
71.881960
21
29.641810
0
LINE
8
Layer 1
10
71.881960
20
29.641810
11
71.872041
21
29.617863
0
LINE
8
Layer 1
10
71.872041
20
29.617863
11
71.848093
21
29.607943
0
LINE
8
Layer 1
10
71.848093
20
29.607943
11
71.307394
21
28.620249
0
LINE
8
Layer 1
10
71.307394
20
28.620249
11
70.916440
21
27.570456
0
LINE
8
Layer 1
10
70.916440
20
27.570456
11
70.680163
21
26.475429
0
LINE
8
Layer 1
10
70.680163
20
26.475429
11
70.603493
21
25.352033
0
LINE
8
Layer 1
10
70.603493
20
25.352033
11
70.679664
21
24.216179
0
LINE
8
Layer 1
10
70.679664
20
24.216179
11
70.921707
21
23.110123
0
LINE
8
Layer 1
10
70.921707
20
23.110123
11
71.324261
21
22.051873
0
LINE
8
Layer 1
10
71.324261
20
22.051873
11
71.881963
21
21.059433
0
LINE
8
Layer 1
10
71.881963
20
21.059433
11
72.719059
21
20.082062
0
LINE
8
Layer 1
10
72.719059
20
20.082062
11
73.701940
21
19.340701
0
LINE
8
Layer 1
10
73.701940
20
19.340701
11
74.804943
21
18.870273
0
LINE
8
Layer 1
10
74.804943
20
18.870273
11
76.002403
21
18.705703
0
LINE
8
Layer 1
10
76.002403
20
18.705703
11
77.202289
21
18.870539
0
LINE
8
Layer 1
10
77.202289
20
18.870539
11
78.309568
21
19.342819
0
LINE
8
Layer 1
10
78.309568
20
19.342819
11
79.294080
21
20.089207
0
LINE
8
Layer 1
10
79.294080
20
20.089207
11
80.125663
21
21.076363
0
LINE
8
Layer 1
10
80.125663
20
21.076363
11
80.142597
21
21.110230
0
LINE
8
Layer 1
10
80.142597
20
21.110230
11
80.707041
21
20.353875
0
LINE
8
Layer 1
10
80.707041
20
20.353875
11
81.442235
21
19.664151
0
LINE
8
Layer 1
10
81.442235
20
19.664151
11
82.296611
21
19.150027
0
LINE
8
Layer 1
10
82.296611
20
19.150027
11
83.239556
21
18.825782
0
LINE
8
Layer 1
10
83.239556
20
18.825782
11
84.240461
21
18.705695
0
LINE
8
Layer 1
10
84.240461
20
18.705695
11
84.240400
21
21.228800
0
LINE
8
Layer 1
10
84.240400
20
21.228800
11
83.672954
21
21.313483
0
LINE
8
Layer 1
10
83.672954
20
21.313483
11
83.140934
21
21.555956
0
LINE
8
Layer 1
10
83.140934
20
21.555956
11
82.232775
21
22.444825
0
LINE
8
Layer 1
10
82.232775
20
22.444825
11
81.615128
21
23.756506
0
LINE
8
Layer 1
10
81.615128
20
23.756506
11
81.387200
21
25.352100
0
LINE
8
Layer 1
10
81.387200
20
25.352100
11
81.387200
21
25.352100
0
LINE
8
Layer 1
10
76.002400
20
21.228800
11
75.436213
21
21.311962
0
LINE
8
Layer 1
10
75.436213
20
21.311962
11
74.905613
21
21.550136
0
LINE
8
Layer 1
10
74.905613
20
21.550136
11
73.999326
21
22.423656
0
LINE
8
Layer 1
10
73.999326
20
22.423656
11
73.379849
21
23.713631
0
LINE
8
Layer 1
10
73.379849
20
23.713631
11
73.143490
21
25.284330
0
LINE
8
Layer 1
10
73.143490
20
25.284330
11
73.143500
21
25.436700
0
LINE
8
Layer 1
10
73.143500
20
25.436700
11
73.379861
21
27.006958
0
LINE
8
Layer 1
10
73.379861
20
27.006958
11
73.999337
21
28.295964
0
LINE
8
Layer 1
10
73.999337
20
28.295964
11
74.905623
21
29.168515
0
LINE
8
Layer 1
10
74.905623
20
29.168515
11
75.436223
21
29.406370
0
LINE
8
Layer 1
10
75.436223
20
29.406370
11
76.002410
21
29.489410
0
LINE
8
Layer 1
10
76.002410
20
29.489410
11
76.567792
21
29.406370
0
LINE
8
Layer 1
10
76.567792
20
29.406370
11
77.096463
21
29.168515
0
LINE
8
Layer 1
10
77.096463
20
29.168515
11
77.998426
21
28.295964
0
LINE
8
Layer 1
10
77.998426
20
28.295964
11
78.617814
21
27.006958
0
LINE
8
Layer 1
10
78.617814
20
27.006958
11
78.864140
21
25.436700
0
LINE
8
Layer 1
10
78.864140
20
25.436700
11
78.864100
21
25.199700
0
LINE
8
Layer 1
10
78.864100
20
25.199700
11
78.601501
21
23.656520
0
LINE
8
Layer 1
10
78.601501
20
23.656520
11
77.976159
21
22.394063
0
LINE
8
Layer 1
10
77.976159
20
22.394063
11
77.079355
21
21.541709
0
LINE
8
Layer 1
10
77.079355
20
21.541709
11
76.557680
21
21.309753
0
LINE
8
Layer 1
10
76.557680
20
21.309753
11
76.002370
21
21.228840
0
LINE
8
Layer 1
10
76.002370
20
21.228840
11
76.002400
21
21.228800
0
LINE
8
Layer 1
10
81.387200
20
25.518600
11
81.353333
21
26.023777
0
LINE
8
Layer 1
10
81.353333
20
26.023777
11
81.370267
21
25.972977
0
LINE
8
Layer 1
10
81.370267
20
25.972977
11
81.387200
21
25.518600
0
LINE
8
Layer 1
10
81.387200
20
25.518600
11
81.387200
21
25.518600
0
LINE
8
Layer 1
10
80.151000
20
21.110300
11
80.715444
21
20.353945
0
LINE
8
Layer 1
10
80.715444
20
20.353945
11
80.125600
21
21.076433
0
LINE
8
Layer 1
10
80.125600
20
21.076433
11
80.151000
21
21.110300
0
LINE
8
Layer 1
10
80.151000
20
21.110300
11
80.151000
21
21.110300
0
LINE
8
Layer 1
10
27.550500
20
32.100000
11
27.550500
21
29.359600
0
LINE
8
Layer 1
10
27.550500
20
29.359600
11
26.930935
21
29.267751
0
LINE
8
Layer 1
10
26.930935
20
29.267751
11
26.351058
21
29.004750
0
LINE
8
Layer 1
10
26.351058
20
29.004750
11
25.363281
21
28.040566
0
LINE
8
Layer 1
10
25.363281
20
28.040566
11
24.693004
21
26.617594
0
LINE
8
Layer 1
10
24.693004
20
26.617594
11
24.446060
21
24.886380
0
LINE
8
Layer 1
10
24.446060
20
24.886380
11
24.327312
21
23.436228
0
LINE
8
Layer 1
10
24.327312
20
23.436228
11
23.986611
21
22.083608
0
LINE
8
Layer 1
10
23.986611
20
22.083608
11
23.447275
21
20.858053
0
LINE
8
Layer 1
10
23.447275
20
20.858053
11
22.732619
21
19.789098
0
LINE
8
Layer 1
10
22.732619
20
19.789098
11
21.865960
21
18.906276
0
LINE
8
Layer 1
10
21.865960
20
18.906276
11
20.870615
21
18.239123
0
LINE
8
Layer 1
10
20.870615
20
18.239123
11
19.769899
21
17.817173
0
LINE
8
Layer 1
10
19.769899
20
17.817173
11
18.587130
21
17.669960
0
LINE
8
Layer 1
10
18.587130
20
17.669960
11
17.404967
21
17.817173
0
LINE
8
Layer 1
10
17.404967
20
17.817173
11
16.305850
21
18.239122
0
LINE
8
Layer 1
10
16.305850
20
18.239122
11
15.312765
21
18.906274
0
LINE
8
Layer 1
10
15.312765
20
18.906274
11
14.448696
21
19.789094
0
LINE
8
Layer 1
10
14.448696
20
19.789094
11
13.736631
21
20.858048
0
LINE
8
Layer 1
10
13.736631
20
20.858048
11
13.199554
21
22.083604
0
LINE
8
Layer 1
10
13.199554
20
22.083604
11
12.860452
21
23.436225
0
LINE
8
Layer 1
10
12.860452
20
23.436225
11
12.742310
21
24.886380
0
LINE
8
Layer 1
10
12.742310
20
24.886380
11
12.497350
21
26.617590
0
LINE
8
Layer 1
10
12.497350
20
26.617590
11
11.830380
21
28.040563
0
LINE
8
Layer 1
10
11.830380
20
28.040563
11
10.843265
21
29.004749
0
LINE
8
Layer 1
10
10.843265
20
29.004749
11
10.261486
21
29.267751
0
LINE
8
Layer 1
10
10.261486
20
29.267751
11
9.637870
21
29.359600
0
LINE
8
Layer 1
10
9.637870
20
29.359600
11
9.014254
21
29.267751
0
LINE
8
Layer 1
10
9.014254
20
29.267751
11
8.432475
21
29.004750
0
LINE
8
Layer 1
10
8.432475
20
29.004750
11
7.445360
21
28.040566
0
LINE
8
Layer 1
10
7.445360
20
28.040566
11
6.778390
21
26.617594
0
LINE
8
Layer 1
10
6.778390
20
26.617594
11
6.533430
21
24.886380
0
LINE
8
Layer 1
10
6.533430
20
24.886380
11
6.416010
21
23.436228
0
LINE
8
Layer 1
10
6.416010
20
23.436228
11
6.078788
21
22.083608
0
LINE
8
Layer 1
10
6.078788
20
22.083608
11
5.544320
21
20.858053
0
LINE
8
Layer 1
10
5.544320
20
20.858053
11
4.835160
21
19.789098
0
LINE
8
Layer 1
10
4.835160
20
19.789098
11
3.973865
21
18.906276
0
LINE
8
Layer 1
10
3.973865
20
18.906276
11
2.982989
21
18.239123
0
LINE
8
Layer 1
10
2.982989
20
18.239123
11
1.885089
21
17.817173
0
LINE
8
Layer 1
10
1.885089
20
17.817173
11
0.702720
21
17.669960
0
LINE
8
Layer 1
10
0.702720
20
17.669960
11
0.702733
21
20.396300
0
LINE
8
Layer 1
10
0.702733
20
20.396300
11
1.322298
21
20.488877
0
LINE
8
Layer 1
10
1.322298
20
20.488877
11
1.902175
21
20.753796
0
LINE
8
Layer 1
10
1.902175
20
20.753796
11
2.889952
21
21.723802
0
LINE
8
Layer 1
10
2.889952
20
21.723802
11
3.560229
21
23.152595
0
LINE
8
Layer 1
10
3.560229
20
23.152595
11
3.807173
21
24.886450
0
LINE
8
Layer 1
10
3.807173
20
24.886450
11
3.926444
21
26.340524
0
LINE
8
Layer 1
10
3.926444
20
26.340524
11
4.268163
21
27.694718
0
LINE
8
Layer 1
10
4.268163
20
27.694718
11
4.808188
21
28.920061
0
LINE
8
Layer 1
10
4.808188
20
28.920061
11
5.522375
21
29.987581
0
LINE
8
Layer 1
10
5.522375
20
29.987581
11
6.386581
21
30.868307
0
LINE
8
Layer 1
10
6.386581
20
30.868307
11
7.376663
21
31.533266
0
LINE
8
Layer 1
10
7.376663
20
31.533266
11
8.468477
21
31.953488
0
LINE
8
Layer 1
10
8.468477
20
31.953488
11
9.637880
21
32.100000
0
LINE
8
Layer 1
10
9.637880
20
32.100000
11
10.820852
21
31.953487
0
LINE
8
Layer 1
10
10.820852
20
31.953487
11
11.920350
21
31.533263
0
LINE
8
Layer 1
10
11.920350
20
31.533263
11
12.913485
21
30.868300
0
LINE
8
Layer 1
10
12.913485
20
30.868300
11
13.777371
21
29.987569
0
LINE
8
Layer 1
10
13.777371
20
29.987569
11
14.489123
21
28.920042
0
LINE
8
Layer 1
10
14.489123
20
28.920042
11
15.025852
21
27.694693
0
LINE
8
Layer 1
10
15.025852
20
27.694693
11
15.364674
21
26.340491
0
LINE
8
Layer 1
10
15.364674
20
26.340491
11
15.482700
21
24.886410
0
LINE
8
Layer 1
10
15.482700
20
24.886410
11
15.729644
21
23.152555
0
LINE
8
Layer 1
10
15.729644
20
23.152555
11
16.399921
21
21.723762
0
LINE
8
Layer 1
10
16.399921
20
21.723762
11
17.387698
21
20.753756
0
LINE
8
Layer 1
10
17.387698
20
20.753756
11
17.967575
21
20.488837
0
LINE
8
Layer 1
10
17.967575
20
20.488837
11
18.587140
21
20.396260
0
LINE
8
Layer 1
10
18.587140
20
20.396260
11
19.206705
21
20.488837
0
LINE
8
Layer 1
10
19.206705
20
20.488837
11
19.786582
21
20.753756
0
LINE
8
Layer 1
10
19.786582
20
20.753756
11
20.774359
21
21.723762
0
LINE
8
Layer 1
10
20.774359
20
21.723762
11
21.444636
21
23.152555
0
LINE
8
Layer 1
10
21.444636
20
23.152555
11
21.691580
21
24.886410
0
LINE
8
Layer 1
10
21.691580
20
24.886410
11
21.810798
21
26.340497
0
LINE
8
Layer 1
10
21.810798
20
26.340497
11
22.152629
21
27.694701
0
LINE
8
Layer 1
10
22.152629
20
27.694701
11
22.693358
21
28.920051
0
LINE
8
Layer 1
10
22.693358
20
28.920051
11
23.409273
21
29.987576
0
LINE
8
Layer 1
10
23.409273
20
29.987576
11
24.276658
21
30.868305
0
LINE
8
Layer 1
10
24.276658
20
30.868305
11
25.271800
21
31.533266
0
LINE
8
Layer 1
10
25.271800
20
31.533266
11
26.370985
21
31.953488
0
LINE
8
Layer 1
10
26.370985
20
31.953488
11
27.550500
21
32.100000
0
LINE
8
Layer 1
10
27.550500
20
32.100000
11
27.550500
21
32.100000
 0 
ENDSEC
 0 
EOF