999
"DXF R12 Output" (www.mydxf.blogspot.com)
 0 
SECTION
 2 
HEADER
 9 
$ACADVER
 1 
AC1009
 9 
$EXTMIN
 10 
 0 
 20 
 0 
 9 
$EXTMAX
 10 
 8.5 
 20 
 11 
 0 
ENDSEC
 0 
SECTION
 2 
ENTITIES
0
LINE
8
Layer 1
10
3.791370
20
3.792480
11
3.791370
21
12.865400
0
LINE
8
Layer 1
10
3.791370
20
12.865400
11
5.688750
21
12.865400
0
LINE
8
Layer 1
10
5.688750
20
12.865400
11
5.688750
21
3.792480
0
LINE
8
Layer 1
10
5.688750
20
3.792480
11
3.791370
21
3.792480
0
LINE
8
Layer 1
10
3.791370
20
3.792480
11
3.791370
21
3.792480
0
LINE
8
Layer 1
10
9.711820
20
3.667170
11
8.941989
21
3.729964
0
LINE
8
Layer 1
10
8.941989
20
3.729964
11
8.341910
21
3.918065
0
LINE
8
Layer 1
10
8.341910
20
3.918065
11
7.887744
21
4.218420
0
LINE
8
Layer 1
10
7.887744
20
4.218420
11
7.556768
21
4.615718
0
LINE
8
Layer 1
10
7.556768
20
4.615718
11
7.204555
21
5.683368
0
LINE
8
Layer 1
10
7.204555
20
5.683368
11
7.123275
21
7.047348
0
LINE
8
Layer 1
10
7.123275
20
7.047348
11
7.198346
21
8.285178
0
LINE
8
Layer 1
10
7.198346
20
8.285178
11
7.537859
21
9.308518
0
LINE
8
Layer 1
10
7.537859
20
9.308518
11
7.864743
21
9.702853
0
LINE
8
Layer 1
10
7.864743
20
9.702853
11
8.317356
21
10.006171
0
LINE
8
Layer 1
10
8.317356
20
10.006171
11
8.923498
21
10.198964
0
LINE
8
Layer 1
10
8.923498
20
10.198964
11
9.712096
21
10.263275
0
LINE
8
Layer 1
10
9.712096
20
10.263275
11
10.500622
21
10.198964
0
LINE
8
Layer 1
10
10.500622
20
10.198964
11
11.107116
21
10.006171
0
LINE
8
Layer 1
10
11.107116
20
10.006171
11
11.559447
21
9.702853
0
LINE
8
Layer 1
10
11.559447
20
9.702853
11
11.886049
21
9.308518
0
LINE
8
Layer 1
10
11.886049
20
9.308518
11
12.224998
21
8.285178
0
LINE
8
Layer 1
10
12.224998
20
8.285178
11
12.300916
21
7.047348
0
LINE
8
Layer 1
10
12.300916
20
7.047348
11
12.218789
21
5.683368
0
LINE
8
Layer 1
10
12.218789
20
5.683368
11
11.867140
21
4.615718
0
LINE
8
Layer 1
10
11.867140
20
4.615718
11
11.535388
21
4.218420
0
LINE
8
Layer 1
10
11.535388
20
4.218420
11
11.081716
21
3.918065
0
LINE
8
Layer 1
10
11.081716
20
3.918065
11
10.481542
21
3.729964
0
LINE
8
Layer 1
10
10.481542
20
3.729964
11
9.711820
21
3.667170
0
LINE
8
Layer 1
10
9.711820
20
3.667170
11
9.711820
21
3.667170
0
LINE
8
Layer 1
10
9.711820
20
4.797750
11
10.113422
21
4.891730
0
LINE
8
Layer 1
10
10.113422
20
4.891730
11
10.365164
21
5.243379
0
LINE
8
Layer 1
10
10.365164
20
5.243379
11
10.491035
21
5.960223
0
LINE
8
Layer 1
10
10.491035
20
5.960223
11
10.528288
21
7.147813
0
LINE
8
Layer 1
10
10.528288
20
7.147813
11
10.510226
21
8.015081
0
LINE
8
Layer 1
10
10.510226
20
8.015081
11
10.403264
21
8.636534
0
LINE
8
Layer 1
10
10.403264
20
8.636534
11
10.151240
21
9.007938
0
LINE
8
Layer 1
10
10.151240
20
9.007938
11
9.711538
21
9.132680
0
LINE
8
Layer 1
10
9.711538
20
9.132680
11
9.265627
21
9.007938
0
LINE
8
Layer 1
10
9.265627
20
9.007938
11
9.020376
21
8.636534
0
LINE
8
Layer 1
10
9.020376
20
8.636534
11
8.913414
21
8.015081
0
LINE
8
Layer 1
10
8.913414
20
8.015081
11
8.895352
21
7.147813
0
LINE
8
Layer 1
10
8.895352
20
7.147813
11
8.932323
21
5.960223
0
LINE
8
Layer 1
10
8.932323
20
5.960223
11
9.058194
21
5.243379
0
LINE
8
Layer 1
10
9.058194
20
5.243379
11
9.303163
21
4.891730
0
LINE
8
Layer 1
10
9.303163
20
4.891730
11
9.711820
21
4.797750
0
LINE
8
Layer 1
10
9.711820
20
4.797750
11
9.711820
21
4.797750
0
LINE
8
Layer 1
10
17.735400
20
12.865400
11
17.735400
21
11.356900
0
LINE
8
Layer 1
10
17.735400
20
11.356900
11
15.624100
21
11.356900
0
LINE
8
Layer 1
10
15.624100
20
11.356900
11
15.624100
21
3.792480
0
LINE
8
Layer 1
10
15.624100
20
3.792480
11
13.726400
21
3.792480
0
LINE
8
Layer 1
10
13.726400
20
3.792480
11
13.726400
21
11.356900
0
LINE
8
Layer 1
10
13.726400
20
11.356900
11
11.615100
21
11.356900
0
LINE
8
Layer 1
10
11.615100
20
11.356900
11
11.615100
21
12.865400
0
LINE
8
Layer 1
10
11.615100
20
12.865400
11
17.735400
21
12.865400
0
LINE
8
Layer 1
10
17.735400
20
12.865400
11
17.735400
21
12.865400
0
LINE
8
Layer 1
10
23.311500
20
7.367100
11
23.550542
21
8.349797
0
LINE
8
Layer 1
10
23.550542
20
8.349797
11
23.524300
21
8.349800
0
LINE
8
Layer 1
10
23.524300
20
8.349800
11
22.828058
21
7.609532
0
LINE
8
Layer 1
10
22.828058
20
7.609532
11
21.838023
21
7.366257
0
LINE
8
Layer 1
10
21.838023
20
7.366257
11
21.039617
21
7.532768
0
LINE
8
Layer 1
10
21.039617
20
7.532768
11
20.509886
21
7.973881
0
LINE
8
Layer 1
10
20.509886
20
7.973881
11
20.216657
21
8.624120
0
LINE
8
Layer 1
10
20.216657
20
8.624120
11
20.127193
21
9.422526
0
LINE
8
Layer 1
10
20.127193
20
9.422526
11
20.197466
21
10.138629
0
LINE
8
Layer 1
10
20.197466
20
10.138629
11
20.408286
21
10.675026
0
LINE
8
Layer 1
10
20.408286
20
10.675026
11
21.155045
21
11.333168
0
LINE
8
Layer 1
10
21.155045
20
11.333168
11
22.221275
21
11.587732
0
LINE
8
Layer 1
10
22.221275
20
11.587732
11
23.446965
21
11.619905
0
LINE
8
Layer 1
10
23.446965
20
11.619905
11
23.447000
21
12.117700
0
LINE
8
Layer 1
10
23.447000
20
12.117700
11
23.428091
21
12.494749
0
LINE
8
Layer 1
10
23.428091
20
12.494749
11
23.332700
21
12.795315
0
LINE
8
Layer 1
10
23.332700
20
12.795315
11
23.109180
21
12.993153
0
LINE
8
Layer 1
10
23.109180
20
12.993153
11
22.719431
21
13.063708
0
LINE
8
Layer 1
10
22.719431
20
13.063708
11
22.349156
21
12.980453
0
LINE
8
Layer 1
10
22.349156
20
12.980453
11
22.145674
21
12.763142
0
LINE
8
Layer 1
10
22.145674
20
12.763142
11
22.062701
21
12.450722
0
LINE
8
Layer 1
10
22.062701
20
12.450722
11
22.043228
21
12.079318
0
LINE
8
Layer 1
10
22.043228
20
12.079318
11
20.281000
21
12.079400
0
LINE
8
Layer 1
10
20.281000
20
12.079400
11
20.452309
21
13.050244
0
LINE
8
Layer 1
10
20.452309
20
13.050244
11
20.944504
21
13.650812
0
LINE
8
Layer 1
10
20.944504
20
13.650812
11
21.679128
21
13.976214
0
LINE
8
Layer 1
10
21.679128
20
13.976214
11
22.630216
21
14.071887
0
LINE
8
Layer 1
10
22.630216
20
14.071887
11
23.997296
21
13.899449
0
LINE
8
Layer 1
10
23.997296
20
13.899449
11
24.775946
21
13.433783
0
LINE
8
Layer 1
10
24.775946
20
13.433783
11
25.127030
21
12.744032
0
LINE
8
Layer 1
10
25.127030
20
12.744032
11
25.210003
21
11.914299
0
LINE
8
Layer 1
10
25.210003
20
11.914299
11
25.210000
21
7.367380
0
LINE
8
Layer 1
10
25.210000
20
7.367380
11
23.311500
21
7.367380
0
LINE
8
Layer 1
10
23.311500
20
7.367380
11
23.311500
21
7.367100
0
LINE
8
Layer 1
10
23.447300
20
10.610400
11
22.828105
21
10.585282
0
LINE
8
Layer 1
10
22.828105
20
10.585282
11
22.331112
21
10.476344
0
LINE
8
Layer 1
10
22.331112
20
10.476344
11
22.004581
21
10.157151
0
LINE
8
Layer 1
10
22.004581
20
10.157151
11
21.890563
21
9.499574
0
LINE
8
Layer 1
10
21.890563
20
9.499574
11
21.908625
21
9.141999
0
LINE
8
Layer 1
10
21.908625
20
9.141999
11
21.998090
21
8.816315
0
LINE
8
Layer 1
10
21.998090
20
8.816315
11
22.202137
21
8.573322
0
LINE
8
Layer 1
10
22.202137
20
8.573322
11
22.553221
21
8.477931
0
LINE
8
Layer 1
10
22.553221
20
8.477931
11
23.141936
21
8.714715
0
LINE
8
Layer 1
10
23.141936
20
8.714715
11
23.397629
21
9.281981
0
LINE
8
Layer 1
10
23.397629
20
9.281981
11
23.454920
21
9.978505
0
LINE
8
Layer 1
10
23.454920
20
9.978505
11
23.447300
21
10.610400
0
LINE
8
Layer 1
10
23.447300
20
10.610400
11
23.447300
21
10.610400
0
LINE
8
Layer 1
10
29.394800
20
7.047630
11
29.124714
21
7.737945
0
LINE
8
Layer 1
10
29.124714
20
7.737945
11
28.602886
21
8.228729
0
LINE
8
Layer 1
10
28.602886
20
8.228729
11
27.773718
21
8.492607
0
LINE
8
Layer 1
10
27.773718
20
8.492607
11
27.773700
21
8.517160
0
LINE
8
Layer 1
10
27.773700
20
8.517160
11
28.453749
21
8.762658
0
LINE
8
Layer 1
10
28.453749
20
8.762658
11
28.935890
21
9.195904
0
LINE
8
Layer 1
10
28.935890
20
9.195904
11
29.222945
21
9.789876
0
LINE
8
Layer 1
10
29.222945
20
9.789876
11
29.318019
21
10.515294
0
LINE
8
Layer 1
10
29.318019
20
10.515294
11
29.112279
21
11.702324
0
LINE
8
Layer 1
10
29.112279
20
11.702324
11
28.545577
21
12.419450
0
LINE
8
Layer 1
10
28.545577
20
12.419450
11
27.704838
21
12.771381
0
LINE
8
Layer 1
10
27.704838
20
12.771381
11
26.680088
21
12.865361
0
LINE
8
Layer 1
10
26.680088
20
12.865361
11
26.475200
21
12.865400
0
LINE
8
Layer 1
10
26.475200
20
12.865400
11
26.475200
21
11.466100
0
LINE
8
Layer 1
10
26.475200
20
11.466100
11
27.164668
21
11.142674
0
LINE
8
Layer 1
10
27.164668
20
11.142674
11
27.395032
21
10.772328
0
LINE
8
Layer 1
10
27.395032
20
10.772328
11
27.471726
21
10.313506
0
LINE
8
Layer 1
10
27.471726
20
10.313506
11
27.378028
21
9.760915
0
LINE
8
Layer 1
10
27.378028
20
9.760915
11
27.132213
21
9.403340
0
LINE
8
Layer 1
10
27.132213
20
9.403340
11
26.806247
21
9.213687
0
LINE
8
Layer 1
10
26.806247
20
9.213687
11
26.479998
21
9.157525
0
LINE
8
Layer 1
10
26.479998
20
9.157525
11
26.475200
21
9.157520
0
LINE
8
Layer 1
10
26.475200
20
9.157520
11
26.475200
21
7.365970
0
LINE
8
Layer 1
10
26.475200
20
7.365970
11
26.975967
21
7.286172
0
LINE
8
Layer 1
10
26.975967
20
7.286172
11
27.302110
21
7.071330
0
LINE
8
Layer 1
10
27.302110
20
7.071330
11
27.504781
21
6.777008
0
LINE
8
Layer 1
10
27.504781
20
6.777008
11
27.572196
21
6.352511
0
LINE
8
Layer 1
10
27.572196
20
6.352511
11
27.422054
21
5.732469
0
LINE
8
Layer 1
10
27.422054
20
5.732469
11
27.063350
21
5.350340
0
LINE
8
Layer 1
10
27.063350
20
5.350340
11
26.636913
21
5.204996
0
LINE
8
Layer 1
10
26.636913
20
5.204996
11
26.265791
21
5.186369
0
LINE
8
Layer 1
10
26.265791
20
5.186369
11
25.210000
21
5.186370
0
LINE
8
Layer 1
10
25.210000
20
5.186370
11
25.210000
21
6.267560
0
LINE
8
Layer 1
10
25.210000
20
6.267560
11
23.311500
21
6.267560
0
LINE
8
Layer 1
10
23.311500
20
6.267560
11
23.311500
21
3.791630
0
LINE
8
Layer 1
10
23.311500
20
3.791630
11
26.668000
21
3.791630
0
LINE
8
Layer 1
10
26.668000
20
3.791630
11
27.150882
21
3.809692
0
LINE
8
Layer 1
10
27.150882
20
3.809692
11
27.747782
21
3.905083
0
LINE
8
Layer 1
10
27.747782
20
3.905083
11
28.369517
21
4.130861
0
LINE
8
Layer 1
10
28.369517
20
4.130861
11
28.923801
21
4.545445
0
LINE
8
Layer 1
10
28.923801
20
4.545445
11
29.318065
21
5.212053
0
LINE
8
Layer 1
10
29.318065
20
5.212053
11
29.469900
21
6.191363
0
LINE
8
Layer 1
10
29.469900
20
6.191363
11
29.394800
21
7.047630
0
LINE
8
Layer 1
10
29.394800
20
7.047630
11
29.394800
21
7.047630
0
LINE
8
Layer 1
10
31.109300
20
7.979810
11
30.476900
21
7.979810
0
LINE
8
Layer 1
10
30.476900
20
7.979810
11
30.476900
21
8.678310
0
LINE
8
Layer 1
10
30.476900
20
8.678310
11
31.109300
21
8.678310
0
LINE
8
Layer 1
10
31.109300
20
8.678310
11
31.109300
21
7.979810
0
LINE
8
Layer 1
10
31.109300
20
7.979810
11
31.109300
21
7.979810
0
LINE
8
Layer 1
10
34.668200
20
10.135700
11
32.270440
21
6.441980
0
LINE
8
Layer 1
10
32.270440
20
6.441980
11
34.722600
21
6.441980
0
LINE
8
Layer 1
10
34.722600
20
6.441980
11
34.722600
21
5.904630
0
LINE
8
Layer 1
10
34.722600
20
5.904630
11
31.700300
21
5.904630
0
LINE
8
Layer 1
10
31.700300
20
5.904630
11
31.700300
21
6.603130
0
LINE
8
Layer 1
10
31.700300
20
6.603130
11
34.050360
21
10.203150
0
LINE
8
Layer 1
10
34.050360
20
10.203150
11
34.050400
21
10.216400
0
LINE
8
Layer 1
10
34.050400
20
10.216400
11
31.780500
21
10.216400
0
LINE
8
Layer 1
10
31.780500
20
10.216400
11
31.780500
21
10.753500
0
LINE
8
Layer 1
10
31.780500
20
10.753500
11
34.667900
21
10.753500
0
LINE
8
Layer 1
10
34.667900
20
10.753500
11
34.667900
21
10.135700
0
LINE
8
Layer 1
10
34.667900
20
10.135700
11
34.668200
21
10.135700
0
LINE
8
Layer 1
10
37.577300
20
9.416880
11
37.556698
21
9.816789
0
LINE
8
Layer 1
10
37.556698
20
9.816789
11
37.435907
21
10.122718
0
LINE
8
Layer 1
10
37.435907
20
10.122718
11
37.314552
21
10.219802
0
LINE
8
Layer 1
10
37.314552
20
10.219802
11
37.163563
21
10.283867
0
LINE
8
Layer 1
10
37.163563
20
10.283867
11
37.012574
21
10.320556
0
LINE
8
Layer 1
10
37.012574
20
10.320556
11
36.891783
21
10.330998
0
LINE
8
Layer 1
10
36.891783
20
10.330998
11
36.562430
21
10.280480
0
LINE
8
Layer 1
10
36.562430
20
10.280480
11
36.341168
21
10.166180
0
LINE
8
Layer 1
10
36.341168
20
10.166180
11
36.209653
21
10.042002
0
LINE
8
Layer 1
10
36.209653
20
10.042002
11
36.159417
21
9.954796
0
LINE
8
Layer 1
10
36.159417
20
9.954796
11
36.128937
21
9.890731
0
LINE
8
Layer 1
10
36.128937
20
9.890731
11
36.082653
21
9.742847
0
LINE
8
Layer 1
10
36.082653
20
9.742847
11
36.038909
21
9.447643
0
LINE
8
Layer 1
10
36.038909
20
9.447643
11
36.018306
21
8.947263
0
LINE
8
Layer 1
10
36.018306
20
8.947263
11
36.018300
21
7.651020
0
LINE
8
Layer 1
10
36.018300
20
7.651020
11
36.085187
21
6.942078
0
LINE
8
Layer 1
10
36.085187
20
6.942078
11
36.270889
21
6.539629
0
LINE
8
Layer 1
10
36.270889
20
6.539629
11
36.546055
21
6.361265
0
LINE
8
Layer 1
10
36.546055
20
6.361265
11
36.884439
21
6.321190
0
LINE
8
Layer 1
10
36.884439
20
6.321190
11
37.079172
21
6.348001
0
LINE
8
Layer 1
10
37.079172
20
6.348001
11
37.335147
21
6.475565
0
LINE
8
Layer 1
10
37.335147
20
6.475565
11
37.556409
21
6.777825
0
LINE
8
Layer 1
10
37.556409
20
6.777825
11
37.650388
21
7.335778
0
LINE
8
Layer 1
10
37.650388
20
7.335778
11
38.287900
21
7.335770
0
LINE
8
Layer 1
10
38.287900
20
7.335770
11
38.217909
21
6.690328
0
LINE
8
Layer 1
10
38.217909
20
6.690328
11
38.016402
21
6.257117
0
LINE
8
Layer 1
10
38.016402
20
6.257117
11
37.734744
21
5.995497
0
LINE
8
Layer 1
10
37.734744
20
5.995497
11
37.422042
21
5.860877
0
LINE
8
Layer 1
10
37.422042
20
5.860877
11
37.133893
21
5.810924
0
LINE
8
Layer 1
10
37.133893
20
5.810924
11
36.918275
21
5.803868
0
LINE
8
Layer 1
10
36.918275
20
5.803868
11
36.424387
21
5.840839
0
LINE
8
Layer 1
10
36.424387
20
5.840839
11
35.927394
21
6.059279
0
LINE
8
Layer 1
10
35.927394
20
6.059279
11
35.541879
21
6.629932
0
LINE
8
Layer 1
10
35.541879
20
6.629932
11
35.387221
21
7.724392
0
LINE
8
Layer 1
10
35.387221
20
7.724392
11
35.387300
21
9.095150
0
LINE
8
Layer 1
10
35.387300
20
9.095150
11
35.499060
21
9.944356
0
LINE
8
Layer 1
10
35.499060
20
9.944356
11
35.810351
21
10.484811
0
LINE
8
Layer 1
10
35.810351
20
10.484811
11
36.300853
21
10.770420
0
LINE
8
Layer 1
10
36.300853
20
10.770420
11
36.945730
21
10.854522
0
LINE
8
Layer 1
10
36.945730
20
10.854522
11
37.558963
21
10.762941
0
LINE
8
Layer 1
10
37.558963
20
10.762941
11
37.962860
21
10.488480
0
LINE
8
Layer 1
10
37.962860
20
10.488480
11
38.175550
21
10.037596
0
LINE
8
Layer 1
10
38.175550
20
10.037596
11
38.214884
21
9.417170
0
LINE
8
Layer 1
10
38.214884
20
9.417170
11
37.577300
21
9.417160
0
LINE
8
Layer 1
10
37.577300
20
9.417160
11
37.577300
21
9.416880
0
LINE
8
Layer 1
10
39.154400
20
10.753200
11
39.772700
21
10.753200
0
LINE
8
Layer 1
10
39.772700
20
10.753200
11
39.772700
21
7.650730
0
LINE
8
Layer 1
10
39.772700
20
7.650730
11
39.833095
21
6.995975
0
LINE
8
Layer 1
10
39.833095
20
6.995975
11
40.008074
21
6.585906
0
LINE
8
Layer 1
10
40.008074
20
6.585906
11
40.289732
21
6.377908
0
LINE
8
Layer 1
10
40.289732
20
6.377908
11
40.679481
21
6.320899
0
LINE
8
Layer 1
10
40.679481
20
6.320899
11
41.069230
21
6.377908
0
LINE
8
Layer 1
10
41.069230
20
6.377908
11
41.351452
21
6.585906
0
LINE
8
Layer 1
10
41.351452
20
6.585906
11
41.525865
21
6.995975
0
LINE
8
Layer 1
10
41.525865
20
6.995975
11
41.585978
21
7.650730
0
LINE
8
Layer 1
10
41.585978
20
7.650730
11
41.586000
21
10.753200
0
LINE
8
Layer 1
10
41.586000
20
10.753200
11
42.204300
21
10.753200
0
LINE
8
Layer 1
10
42.204300
20
10.753200
11
42.204300
21
7.677550
0
LINE
8
Layer 1
10
42.204300
20
7.677550
11
42.110249
21
6.813703
0
LINE
8
Layer 1
10
42.110249
20
6.813703
11
41.827816
21
6.237090
0
LINE
8
Layer 1
10
41.827816
20
6.237090
11
41.352590
21
5.911970
0
LINE
8
Layer 1
10
41.352590
20
5.911970
11
40.679456
21
5.803597
0
LINE
8
Layer 1
10
40.679456
20
5.803597
11
40.006391
21
5.911970
0
LINE
8
Layer 1
10
40.006391
20
5.911970
11
39.531656
21
6.237090
0
LINE
8
Layer 1
10
39.531656
20
6.237090
11
39.248905
21
6.813705
0
LINE
8
Layer 1
10
39.248905
20
6.813705
11
39.154325
21
7.677550
0
LINE
8
Layer 1
10
39.154325
20
7.677550
11
39.154400
21
10.753200
0
LINE
8
Layer 1
10
39.154400
20
10.753200
11
39.154400
21
10.753200
0
LINE
8
Layer 1
10
43.796600
20
7.979810
11
43.164200
21
7.979810
0
LINE
8
Layer 1
10
43.164200
20
7.979810
11
43.164200
21
8.678310
0
LINE
8
Layer 1
10
43.164200
20
8.678310
11
43.796600
21
8.678310
0
LINE
8
Layer 1
10
43.796600
20
8.678310
11
43.796600
21
7.979810
0
LINE
8
Layer 1
10
43.796600
20
7.979810
11
43.796600
21
7.979810
0
LINE
8
Layer 1
10
46.905300
20
9.416880
11
46.885544
21
9.816789
0
LINE
8
Layer 1
10
46.885544
20
9.816789
11
46.764189
21
10.122718
0
LINE
8
Layer 1
10
46.764189
20
10.122718
11
46.643680
21
10.219802
0
LINE
8
Layer 1
10
46.643680
20
10.219802
11
46.492409
21
10.283867
0
LINE
8
Layer 1
10
46.492409
20
10.283867
11
46.341420
21
10.320556
0
LINE
8
Layer 1
10
46.341420
20
10.320556
11
46.220911
21
10.330998
0
LINE
8
Layer 1
10
46.220911
20
10.330998
11
45.890429
21
10.280480
0
LINE
8
Layer 1
10
45.890429
20
10.280480
11
45.669167
21
10.166180
0
LINE
8
Layer 1
10
45.669167
20
10.166180
11
45.538780
21
10.042002
0
LINE
8
Layer 1
10
45.538780
20
10.042002
11
45.488263
21
9.954796
0
LINE
8
Layer 1
10
45.488263
20
9.954796
11
45.457783
21
9.890731
0
LINE
8
Layer 1
10
45.457783
20
9.890731
11
45.410934
21
9.742847
0
LINE
8
Layer 1
10
45.410934
20
9.742847
11
45.367189
21
9.447643
0
LINE
8
Layer 1
10
45.367189
20
9.447643
11
45.347434
21
8.947263
0
LINE
8
Layer 1
10
45.347434
20
8.947263
11
45.347400
21
7.651020
0
LINE
8
Layer 1
10
45.347400
20
7.651020
11
45.415133
21
6.942078
0
LINE
8
Layer 1
10
45.415133
20
6.942078
11
45.599142
21
6.539629
0
LINE
8
Layer 1
10
45.599142
20
6.539629
11
45.874026
21
6.361265
0
LINE
8
Layer 1
10
45.874026
20
6.361265
11
46.213539
21
6.321190
0
LINE
8
Layer 1
10
46.213539
20
6.321190
11
46.409119
21
6.348001
0
LINE
8
Layer 1
10
46.409119
20
6.348001
11
46.663401
21
6.475565
0
LINE
8
Layer 1
10
46.663401
20
6.475565
11
46.885227
21
6.777825
0
LINE
8
Layer 1
10
46.885227
20
6.777825
11
46.978643
21
7.335778
0
LINE
8
Layer 1
10
46.978643
20
7.335778
11
47.617100
21
7.335770
0
LINE
8
Layer 1
10
47.617100
20
7.335770
11
47.546827
21
6.690328
0
LINE
8
Layer 1
10
47.546827
20
6.690328
11
47.345320
21
6.257117
0
LINE
8
Layer 1
10
47.345320
20
6.257117
11
47.063945
21
5.995497
0
LINE
8
Layer 1
10
47.063945
20
5.995497
11
46.750961
21
5.860877
0
LINE
8
Layer 1
10
46.750961
20
5.860877
11
46.462248
21
5.810924
0
LINE
8
Layer 1
10
46.462248
20
5.810924
11
46.247477
21
5.803868
0
LINE
8
Layer 1
10
46.247477
20
5.803868
11
45.753588
21
5.840839
0
LINE
8
Layer 1
10
45.753588
20
5.840839
11
45.256313
21
6.059279
0
LINE
8
Layer 1
10
45.256313
20
6.059279
11
44.869951
21
6.629932
0
LINE
8
Layer 1
10
44.869951
20
6.629932
11
44.716422
21
7.724392
0
LINE
8
Layer 1
10
44.716422
20
7.724392
11
44.716400
21
9.095150
0
LINE
8
Layer 1
10
44.716400
20
9.095150
11
44.827031
21
9.944356
0
LINE
8
Layer 1
10
44.827031
20
9.944356
11
45.139169
21
10.484811
0
LINE
8
Layer 1
10
45.139169
20
10.484811
11
45.629671
21
10.770420
0
LINE
8
Layer 1
10
45.629671
20
10.770420
11
46.273419
21
10.854522
0
LINE
8
Layer 1
10
46.273419
20
10.854522
11
46.887710
21
10.762941
0
LINE
8
Layer 1
10
46.887710
20
10.762941
11
47.291389
21
10.488480
0
LINE
8
Layer 1
10
47.291389
20
10.488480
11
47.503444
21
10.037596
0
LINE
8
Layer 1
10
47.503444
20
10.037596
11
47.542567
21
9.417170
0
LINE
8
Layer 1
10
47.542567
20
9.417170
11
46.905300
21
9.417160
0
LINE
8
Layer 1
10
46.905300
20
9.417160
11
46.905300
21
9.416880
0
LINE
8
Layer 1
10
51.089200
20
10.135700
11
48.691440
21
6.441980
0
LINE
8
Layer 1
10
48.691440
20
6.441980
11
51.143700
21
6.441980
0
LINE
8
Layer 1
10
51.143700
20
6.441980
11
51.143700
21
5.904630
0
LINE
8
Layer 1
10
51.143700
20
5.904630
11
48.120500
21
5.904630
0
LINE
8
Layer 1
10
48.120500
20
5.904630
11
48.120500
21
6.603130
0
LINE
8
Layer 1
10
48.120500
20
6.603130
11
50.471410
21
10.203150
0
LINE
8
Layer 1
10
50.471410
20
10.203150
11
50.471500
21
10.216400
0
LINE
8
Layer 1
10
50.471500
20
10.216400
11
48.201500
21
10.216400
0
LINE
8
Layer 1
10
48.201500
20
10.216400
11
48.201500
21
10.753500
0
LINE
8
Layer 1
10
48.201500
20
10.753500
11
51.089000
21
10.753500
0
LINE
8
Layer 1
10
51.089000
20
10.753500
11
51.089000
21
10.135700
0
LINE
8
Layer 1
10
51.089000
20
10.135700
11
51.089200
21
10.135700
 0 
ENDSEC
 0 
EOF