  0
SECTION
  2
HEADER
  9
$ACADVER
  1
AC1014
  9
$HANDSEED
  5
FFFF
  9
$MEASUREMENT
 70
     1
  0
ENDSEC
  0
SECTION
  2
TABLES
  0
TABLE
  2
VPORT
  5
8
330
0
100
AcDbSymbolTable
 70
     4
  0
VPORT
  5
2E
330
8
100
AcDbSymbolTableRecord
100
AcDbViewportTableRecord
  2
*ACTIVE
 70
     0
 10
0.0
 20
0.0
 11
1.0
 21
1.0
 12
210.0
 22
148.5
 13
0.0
 23
0.0
 14
10.0
 24
10.0
 15
10.0
 25
10.0
 16
0.0
 26
0.0
 36
1.0
 17
0.0
 27
0.0
 37
0.0
 40
341.0
 41
1.24
 42
50.0
 43
0.0
 44
0.0
 50
0.0
 51
0.0
 71
     0
 72
   100
 73
     1
 74
     3
 75
     0
 76
     0
 77
     0
 78
     0
  0
ENDTAB
  0
TABLE
  2
LTYPE
  5
5
330
0
100
AcDbSymbolTable
 70
     1
  0
LTYPE
  5
14
330
5
100
AcDbSymbolTableRecord
100
AcDbLinetypeTableRecord
  2
BYBLOCK
 70
     0
  3

 72
    65
 73
     0
 40
0.0
  0
LTYPE
  5
15
330
5
100
AcDbSymbolTableRecord
100
AcDbLinetypeTableRecord
  2
BYLAYER
 70
     0
  3

 72
    65
 73
     0
 40
0.0
  0
LTYPE
  5
16
330
5
100
AcDbSymbolTableRecord
100
AcDbLinetypeTableRecord
  2
CONTINUOUS
 70
     0
  3
Solid line
 72
    65
 73
     0
 40
0.0
  0
ENDTAB
  0
TABLE
  2
LAYER
  5
2
100
AcDbSymbolTable
 70
1
  0
LAYER
  5
50
100
AcDbSymbolTableRecord
100
AcDbLayerTableRecord
  2
0
 70
0
  6
CONTINUOUS
  0
ENDTAB
  0
TABLE
  2
STYLE
  5
3
330
0
100
AcDbSymbolTable
 70
     1
  0
STYLE
  5
11
330
3
100
AcDbSymbolTableRecord
100
AcDbTextStyleTableRecord
  2
STANDARD
 70
     0
 40
0.0
 41
1.0
 50
0.0
 71
     0
 42
2.5
  3
txt
  4

  0
ENDTAB
  0
TABLE
  2
VIEW
  5
6
330
0
100
AcDbSymbolTable
 70
     0
  0
ENDTAB
  0
TABLE
  2
UCS
  5
7
330
0
100
AcDbSymbolTable
 70
     0
  0
ENDTAB
  0
TABLE
  2
APPID
  5
9
330
0
100
AcDbSymbolTable
 70
     2
  0
APPID
  5
12
330
9
100
AcDbSymbolTableRecord
100
AcDbRegAppTableRecord
  2
ACAD
 70
     0
  0
ENDTAB
  0
TABLE
  2
DIMSTYLE
  5
A
330
0
100
AcDbSymbolTable
 70
     1
  0
DIMSTYLE
105
27
330
A
100
AcDbSymbolTableRecord
100
AcDbDimStyleTableRecord
  2
ISO-25
 70
     0
  3

  4

  5

  6

  7

 40
1.0
 41
2.5
 42
0.625
 43
3.75
 44
1.25
 45
0.0
 46
0.0
 47
0.0
 48
0.0
140
2.5
141
2.5
142
0.0
143
0.03937007874016
144
1.0
145
0.0
146
1.0
147
0.625
 71
     0
 72
     0
 73
     0
 74
     0
 75
     0
 76
     0
 77
     1
 78
     8
170
     0
171
     3
172
     1
173
     0
174
     0
175
     0
176
     0
177
     0
178
     0
270
     2
271
     2
272
     2
273
     2
274
     3
340
11
275
     0
280
     0
281
     0
282
     0
283
     0
284
     8
285
     0
286
     0
287
     3
288
     0
  0
ENDTAB
  0
TABLE
  2
BLOCK_RECORD
  5
1
330
0
100
AcDbSymbolTable
 70
     1
  0
BLOCK_RECORD
  5
1F
330
1
100
AcDbSymbolTableRecord
100
AcDbBlockTableRecord
  2
*MODEL_SPACE
  0
BLOCK_RECORD
  5
1B
330
1
100
AcDbSymbolTableRecord
100
AcDbBlockTableRecord
  2
*PAPER_SPACE
  0
ENDTAB
  0
ENDSEC
  0
SECTION
  2
BLOCKS
  0
BLOCK
  5
20
330
1F
100
AcDbEntity
  8
0
100
AcDbBlockBegin
  2
*MODEL_SPACE
 70
     0
 10
0.0
 20
0.0
 30
0.0
  3
*MODEL_SPACE
  1

  0
ENDBLK
  5
21
330
1F
100
AcDbEntity
  8
0
100
AcDbBlockEnd
  0
BLOCK
  5
1C
330
1B
100
AcDbEntity
 67
     1
  8
0
100
AcDbBlockBegin
  2
*PAPER_SPACE
  1

  0
ENDBLK
  5
1D
330
1B
100
AcDbEntity
 67
     1
  8
0
100
AcDbBlockEnd
  0
ENDSEC
  0
SECTION
  2
ENTITIES
  0
LINE
  5
100
100
AcDbEntity
  8
0
 62
7
100
AcDbLine
 10
0.000000
 20
16.752094
 30
0.0
 11
36.239979
 21
16.752094
 31
0.0
  0
LINE
  5
101
100
AcDbEntity
  8
0
 62
7
100
AcDbLine
 10
36.239979
 20
16.752094
 30
0.0
 11
36.239979
 21
0.000000
 31
0.0
  0
LINE
  5
102
100
AcDbEntity
  8
0
 62
7
100
AcDbLine
 10
36.239979
 20
0.000000
 30
0.0
 11
0.000000
 21
0.000000
 31
0.0
  0
LINE
  5
103
100
AcDbEntity
  8
0
 62
7
100
AcDbLine
 10
0.000000
 20
0.000000
 30
0.0
 11
0.000000
 21
16.752094
 31
0.0
  0
LINE
  5
104
100
AcDbEntity
  8
0
 62
7
100
AcDbLine
 10
3.557587
 20
3.560763
 30
0.0
 11
3.557587
 21
12.066852
 31
0.0
  0
LINE
  5
105
100
AcDbEntity
  8
0
 62
7
100
AcDbLine
 10
3.557587
 20
12.066852
 30
0.0
 11
5.336381
 21
12.066852
 31
0.0
  0
LINE
  5
106
100
AcDbEntity
  8
0
 62
7
100
AcDbLine
 10
5.336381
 20
12.066852
 30
0.0
 11
5.336381
 21
3.560763
 31
0.0
  0
LINE
  5
107
100
AcDbEntity
  8
0
 62
7
100
AcDbLine
 10
5.336381
 20
3.560763
 30
0.0
 11
3.557587
 21
3.560763
 31
0.0
  0
LINE
  5
108
100
AcDbEntity
  8
0
 62
7
100
AcDbLine
 10
3.557587
 20
3.560763
 30
0.0
 11
3.557587
 21
3.560763
 31
0.0
  0
SPLINE
  5
109
100
AcDbEntity
  8
0
 62
7
100
AcDbSpline
 70
8
 71
3
 72
8
 73
4
 74
0
 40
0
 40
0
 40
0
 40
0
 40
1
 40
1
 40
1
 40
1
 10
9.108281
 20
3.443023
 30
0.0
 10
8.574087
 20
3.443023
 30
0.0
 10
8.145992
 20
3.522133
 30
0.0
 10
7.823994
 20
3.679296
 30
0.0
  0
SPLINE
  5
10a
100
AcDbEntity
  8
0
 62
7
100
AcDbSpline
 70
8
 71
3
 72
8
 73
4
 74
0
 40
0
 40
0
 40
0
 40
0
 40
1
 40
1
 40
1
 40
1
 10
7.823994
 20
3.679296
 30
0.0
 10
7.501467
 20
3.836458
 30
0.0
 10
7.256462
 20
4.053946
 30
0.0
 10
7.087923
 20
4.332817
 30
0.0
  0
SPLINE
  5
10b
100
AcDbEntity
  8
0
 62
7
100
AcDbSpline
 70
8
 71
3
 72
8
 73
4
 74
0
 40
0
 40
0
 40
0
 40
0
 40
1
 40
1
 40
1
 40
1
 10
7.087923
 20
4.332817
 30
0.0
 10
6.918590
 20
4.612217
 30
0.0
 10
6.809317
 20
4.945856
 30
0.0
 10
6.757723
 20
5.333735
 30
0.0
  0
SPLINE
  5
10c
100
AcDbEntity
  8
0
 62
7
100
AcDbSpline
 70
8
 71
3
 72
8
 73
4
 74
0
 40
0
 40
0
 40
0
 40
0
 40
1
 40
1
 40
1
 40
1
 10
6.757723
 20
5.333735
 30
0.0
 10
6.706658
 20
5.723202
 30
0.0
 10
6.681523
 20
6.148652
 30
0.0
 10
6.681523
 20
6.612467
 30
0.0
  0
SPLINE
  5
10d
100
AcDbEntity
  8
0
 62
7
100
AcDbSpline
 70
8
 71
3
 72
8
 73
4
 74
0
 40
0
 40
0
 40
0
 40
0
 40
1
 40
1
 40
1
 40
1
 10
6.681523
 20
6.612467
 30
0.0
 10
6.681523
 20
7.020454
 30
0.0
 10
6.704806
 20
7.407540
 30
0.0
 10
6.751902
 20
7.772929
 30
0.0
  0
SPLINE
  5
10e
100
AcDbEntity
  8
0
 62
7
100
AcDbSpline
 70
8
 71
3
 72
8
 73
4
 74
0
 40
0
 40
0
 40
0
 40
0
 40
1
 40
1
 40
1
 40
1
 10
6.751902
 20
7.772929
 30
0.0
 10
6.799262
 20
8.138319
 30
0.0
 10
6.905360
 20
8.458729
 30
0.0
 10
7.070196
 20
8.732838
 30
0.0
  0
SPLINE
  5
10f
100
AcDbEntity
  8
0
 62
7
100
AcDbSpline
 70
8
 71
3
 72
8
 73
4
 74
0
 40
0
 40
0
 40
0
 40
0
 40
1
 40
1
 40
1
 40
1
 10
7.070196
 20
8.732838
 30
0.0
 10
7.235031
 20
9.007740
 30
0.0
 10
7.478977
 20
9.225492
 30
0.0
 10
7.800975
 20
9.386623
 30
0.0
  0
SPLINE
  5
110
100
AcDbEntity
  8
0
 62
7
100
AcDbSpline
 70
8
 71
3
 72
8
 73
4
 74
0
 40
0
 40
0
 40
0
 40
0
 40
1
 40
1
 40
1
 40
1
 10
7.800975
 20
9.386623
 30
0.0
 10
8.122708
 20
9.547490
 30
0.0
 10
8.558742
 20
9.628188
 30
0.0
 10
9.108546
 20
9.628188
 30
0.0
  0
SPLINE
  5
111
100
AcDbEntity
  8
0
 62
7
100
AcDbSpline
 70
8
 71
3
 72
8
 73
4
 74
0
 40
0
 40
0
 40
0
 40
0
 40
1
 40
1
 40
1
 40
1
 10
9.108546
 20
9.628188
 30
0.0
 10
9.658615
 20
9.628188
 30
0.0
 10
10.093854
 20
9.547490
 30
0.0
 10
10.416381
 20
9.386623
 30
0.0
  0
SPLINE
  5
112
100
AcDbEntity
  8
0
 62
7
100
AcDbSpline
 70
8
 71
3
 72
8
 73
4
 74
0
 40
0
 40
0
 40
0
 40
0
 40
1
 40
1
 40
1
 40
1
 10
10.416381
 20
9.386623
 30
0.0
 10
10.738379
 20
9.225756
 30
0.0
 10
10.981796
 20
9.007740
 30
0.0
 10
11.146631
 20
8.732838
 30
0.0
  0
SPLINE
  5
113
100
AcDbEntity
  8
0
 62
7
100
AcDbSpline
 70
8
 71
3
 72
8
 73
4
 74
0
 40
0
 40
0
 40
0
 40
0
 40
1
 40
1
 40
1
 40
1
 10
11.146631
 20
8.732838
 30
0.0
 10
11.311996
 20
8.458729
 30
0.0
 10
11.418094
 20
8.138319
 30
0.0
 10
11.464396
 20
7.772929
 30
0.0
  0
SPLINE
  5
114
100
AcDbEntity
  8
0
 62
7
100
AcDbSpline
 70
8
 71
3
 72
8
 73
4
 74
0
 40
0
 40
0
 40
0
 40
0
 40
1
 40
1
 40
1
 40
1
 10
11.464396
 20
7.772929
 30
0.0
 10
11.512021
 20
7.407540
 30
0.0
 10
11.535569
 20
7.020454
 30
0.0
 10
11.535569
 20
6.612467
 30
0.0
  0
SPLINE
  5
115
100
AcDbEntity
  8
0
 62
7
100
AcDbSpline
 70
8
 71
3
 72
8
 73
4
 74
0
 40
0
 40
0
 40
0
 40
0
 40
1
 40
1
 40
1
 40
1
 10
11.535569
 20
6.612467
 30
0.0
 10
11.535569
 20
6.148652
 30
0.0
 10
11.509640
 20
5.723202
 30
0.0
 10
11.458575
 20
5.333735
 30
0.0
  0
SPLINE
  5
116
100
AcDbEntity
  8
0
 62
7
100
AcDbSpline
 70
8
 71
3
 72
8
 73
4
 74
0
 40
0
 40
0
 40
0
 40
0
 40
1
 40
1
 40
1
 40
1
 10
11.458575
 20
5.333735
 30
0.0
 10
11.407510
 20
4.945856
 30
0.0
 10
11.297708
 20
4.611952
 30
0.0
 10
11.128904
 20
4.332817
 30
0.0
  0
SPLINE
  5
117
100
AcDbEntity
  8
0
 62
7
100
AcDbSpline
 70
8
 71
3
 72
8
 73
4
 74
0
 40
0
 40
0
 40
0
 40
0
 40
1
 40
1
 40
1
 40
1
 10
11.128904
 20
4.332817
 30
0.0
 10
10.959571
 20
4.053946
 30
0.0
 10
10.714302
 20
3.836458
 30
0.0
 10
10.392569
 20
3.679296
 30
0.0
  0
SPLINE
  5
118
100
AcDbEntity
  8
0
 62
7
100
AcDbSpline
 70
8
 71
3
 72
8
 73
4
 74
0
 40
0
 40
0
 40
0
 40
0
 40
1
 40
1
 40
1
 40
1
 10
10.392569
 20
3.679296
 30
0.0
 10
10.070835
 20
3.522133
 30
0.0
 10
9.641946
 20
3.443023
 30
0.0
 10
9.108281
 20
3.443023
 30
0.0
  0
LINE
  5
119
100
AcDbEntity
  8
0
 62
7
100
AcDbLine
 10
9.108281
 20
3.443023
 30
0.0
 11
9.108281
 21
3.443023
 31
0.0
  0
SPLINE
  5
11a
100
AcDbEntity
  8
0
 62
7
100
AcDbSpline
 70
8
 71
3
 72
8
 73
4
 74
0
 40
0
 40
0
 40
0
 40
0
 40
1
 40
1
 40
1
 40
1
 10
9.108281
 20
4.503737
 30
0.0
 10
9.257506
 20
4.503737
 30
0.0
 10
9.383183
 20
4.533106
 30
0.0
 10
9.484783
 20
4.591844
 30
0.0
  0
SPLINE
  5
11b
100
AcDbEntity
  8
0
 62
7
100
AcDbSpline
 70
8
 71
3
 72
8
 73
4
 74
0
 40
0
 40
0
 40
0
 40
0
 40
1
 40
1
 40
1
 40
1
 10
9.484783
 20
4.591844
 30
0.0
 10
9.587442
 20
4.651640
 30
0.0
 10
9.665494
 20
4.760912
 30
0.0
 10
9.720792
 20
4.921779
 30
0.0
  0
SPLINE
  5
11c
100
AcDbEntity
  8
0
 62
7
100
AcDbSpline
 70
8
 71
3
 72
8
 73
4
 74
0
 40
0
 40
0
 40
0
 40
0
 40
1
 40
1
 40
1
 40
1
 10
9.720792
 20
4.921779
 30
0.0
 10
9.775560
 20
5.082646
 30
0.0
 10
9.815248
 20
5.307277
 30
0.0
 10
9.838796
 20
5.593556
 30
0.0
  0
SPLINE
  5
11d
100
AcDbEntity
  8
0
 62
7
100
AcDbSpline
 70
8
 71
3
 72
8
 73
4
 74
0
 40
0
 40
0
 40
0
 40
0
 40
1
 40
1
 40
1
 40
1
 10
9.838796
 20
5.593556
 30
0.0
 10
9.862079
 20
5.880100
 30
0.0
 10
9.873721
 20
6.251575
 30
0.0
 10
9.873721
 20
6.706923
 30
0.0
  0
SPLINE
  5
11e
100
AcDbEntity
  8
0
 62
7
100
AcDbSpline
 70
8
 71
3
 72
8
 73
4
 74
0
 40
0
 40
0
 40
0
 40
0
 40
1
 40
1
 40
1
 40
1
 10
9.873721
 20
6.706923
 30
0.0
 10
9.873721
 20
7.012517
 30
0.0
 10
9.867900
 20
7.283979
 30
0.0
 10
9.856787
 20
7.519458
 30
0.0
  0
SPLINE
  5
11f
100
AcDbEntity
  8
0
 62
7
100
AcDbSpline
 70
8
 71
3
 72
8
 73
4
 74
0
 40
0
 40
0
 40
0
 40
0
 40
1
 40
1
 40
1
 40
1
 10
9.856787
 20
7.519458
 30
0.0
 10
9.844352
 20
7.755731
 30
0.0
 10
9.811015
 20
7.949142
 30
0.0
 10
9.756510
 20
8.102600
 30
0.0
  0
SPLINE
  5
120
100
AcDbEntity
  8
0
 62
7
100
AcDbSpline
 70
8
 71
3
 72
8
 73
4
 74
0
 40
0
 40
0
 40
0
 40
0
 40
1
 40
1
 40
1
 40
1
 10
9.756510
 20
8.102600
 30
0.0
 10
9.701212
 20
8.255794
 30
0.0
 10
9.622631
 20
8.372475
 30
0.0
 10
9.520238
 20
8.450792
 30
0.0
  0
SPLINE
  5
121
100
AcDbEntity
  8
0
 62
7
100
AcDbSpline
 70
8
 71
3
 72
8
 73
4
 74
0
 40
0
 40
0
 40
0
 40
0
 40
1
 40
1
 40
1
 40
1
 10
9.520238
 20
8.450792
 30
0.0
 10
9.418108
 20
8.528050
 30
0.0
 10
9.280790
 20
8.567208
 30
0.0
 10
9.108017
 20
8.567208
 30
0.0
  0
SPLINE
  5
122
100
AcDbEntity
  8
0
 62
7
100
AcDbSpline
 70
8
 71
3
 72
8
 73
4
 74
0
 40
0
 40
0
 40
0
 40
0
 40
1
 40
1
 40
1
 40
1
 10
9.108017
 20
8.567208
 30
0.0
 10
8.927306
 20
8.567208
 30
0.0
 10
8.787871
 20
8.528050
 30
0.0
 10
8.689975
 20
8.450792
 30
0.0
  0
SPLINE
  5
123
100
AcDbEntity
  8
0
 62
7
100
AcDbSpline
 70
8
 71
3
 72
8
 73
4
 74
0
 40
0
 40
0
 40
0
 40
0
 40
1
 40
1
 40
1
 40
1
 10
8.689975
 20
8.450792
 30
0.0
 10
8.591285
 20
8.372210
 30
0.0
 10
8.515350
 20
8.255794
 30
0.0
 10
8.460052
 20
8.102600
 30
0.0
  0
SPLINE
  5
124
100
AcDbEntity
  8
0
 62
7
100
AcDbSpline
 70
8
 71
3
 72
8
 73
4
 74
0
 40
0
 40
0
 40
0
 40
0
 40
1
 40
1
 40
1
 40
1
 10
8.460052
 20
8.102600
 30
0.0
 10
8.405548
 20
7.949142
 30
0.0
 10
8.371946
 20
7.755731
 30
0.0
 10
8.359775
 20
7.519458
 30
0.0
  0
SPLINE
  5
125
100
AcDbEntity
  8
0
 62
7
100
AcDbSpline
 70
8
 71
3
 72
8
 73
4
 74
0
 40
0
 40
0
 40
0
 40
0
 40
1
 40
1
 40
1
 40
1
 10
8.359775
 20
7.519458
 30
0.0
 10
8.348398
 20
7.283715
 30
0.0
 10
8.342842
 20
7.012517
 30
0.0
 10
8.342842
 20
6.706923
 30
0.0
  0
SPLINE
  5
126
100
AcDbEntity
  8
0
 62
7
100
AcDbSpline
 70
8
 71
3
 72
8
 73
4
 74
0
 40
0
 40
0
 40
0
 40
0
 40
1
 40
1
 40
1
 40
1
 10
8.342842
 20
6.706923
 30
0.0
 10
8.342842
 20
6.251575
 30
0.0
 10
8.353954
 20
5.880100
 30
0.0
 10
8.377502
 20
5.593556
 30
0.0
  0
SPLINE
  5
127
100
AcDbEntity
  8
0
 62
7
100
AcDbSpline
 70
8
 71
3
 72
8
 73
4
 74
0
 40
0
 40
0
 40
0
 40
0
 40
1
 40
1
 40
1
 40
1
 10
8.377502
 20
5.593556
 30
0.0
 10
8.400785
 20
5.307277
 30
0.0
 10
8.440208
 20
5.082646
 30
0.0
 10
8.495506
 20
4.921779
 30
0.0
  0
SPLINE
  5
128
100
AcDbEntity
  8
0
 62
7
100
AcDbSpline
 70
8
 71
3
 72
8
 73
4
 74
0
 40
0
 40
0
 40
0
 40
0
 40
1
 40
1
 40
1
 40
1
 10
8.495506
 20
4.921779
 30
0.0
 10
8.550010
 20
4.760912
 30
0.0
 10
8.626740
 20
4.651640
 30
0.0
 10
8.725165
 20
4.591844
 30
0.0
  0
SPLINE
  5
129
100
AcDbEntity
  8
0
 62
7
100
AcDbSpline
 70
8
 71
3
 72
8
 73
4
 74
0
 40
0
 40
0
 40
0
 40
0
 40
1
 40
1
 40
1
 40
1
 10
8.725165
 20
4.591844
 30
0.0
 10
8.823325
 20
4.533106
 30
0.0
 10
8.951119
 20
4.503737
 30
0.0
 10
9.108281
 20
4.503737
 30
0.0
  0
LINE
  5
12a
100
AcDbEntity
  8
0
 62
7
100
AcDbLine
 10
9.108281
 20
4.503737
 30
0.0
 11
9.108281
 21
4.503737
 31
0.0
  0
LINE
  5
12b
100
AcDbEntity
  8
0
 62
7
100
AcDbLine
 10
16.630385
 20
12.066852
 30
0.0
 11
16.630385
 21
10.652654
 31
0.0
  0
LINE
  5
12c
100
AcDbEntity
  8
0
 62
7
100
AcDbLine
 10
16.630385
 20
10.652654
 30
0.0
 11
14.651037
 21
10.652654
 31
0.0
  0
LINE
  5
12d
100
AcDbEntity
  8
0
 62
7
100
AcDbLine
 10
14.651037
 20
10.652654
 30
0.0
 11
14.651037
 21
3.560763
 31
0.0
  0
LINE
  5
12e
100
AcDbEntity
  8
0
 62
7
100
AcDbLine
 10
14.651037
 20
3.560763
 30
0.0
 11
12.871979
 21
3.560763
 31
0.0
  0
LINE
  5
12f
100
AcDbEntity
  8
0
 62
7
100
AcDbLine
 10
12.871979
 20
3.560763
 30
0.0
 11
12.871979
 21
10.652654
 31
0.0
  0
LINE
  5
130
100
AcDbEntity
  8
0
 62
7
100
AcDbLine
 10
12.871979
 20
10.652654
 30
0.0
 11
10.892631
 21
10.652654
 31
0.0
  0
LINE
  5
131
100
AcDbEntity
  8
0
 62
7
100
AcDbLine
 10
10.892631
 20
10.652654
 30
0.0
 11
10.892631
 21
12.066852
 31
0.0
  0
LINE
  5
132
100
AcDbEntity
  8
0
 62
7
100
AcDbLine
 10
10.892631
 20
12.066852
 30
0.0
 11
16.630385
 21
12.066852
 31
0.0
  0
LINE
  5
133
100
AcDbEntity
  8
0
 62
7
100
AcDbLine
 10
16.630385
 20
12.066852
 30
0.0
 11
16.630385
 21
12.066852
 31
0.0
  0
LINE
  5
134
100
AcDbEntity
  8
0
 62
7
100
AcDbLine
 10
21.858023
 20
6.911710
 30
0.0
 11
22.081860
 21
7.832990
 31
0.0
  0
LINE
  5
135
100
AcDbEntity
  8
0
 62
7
100
AcDbLine
 10
22.081860
 20
7.832990
 30
0.0
 11
22.057254
 21
7.832990
 31
0.0
  0
SPLINE
  5
136
100
AcDbEntity
  8
0
 62
7
100
AcDbSpline
 70
8
 71
3
 72
8
 73
4
 74
0
 40
0
 40
0
 40
0
 40
0
 40
1
 40
1
 40
1
 40
1
 10
22.057254
 20
7.832990
 30
0.0
 10
21.874163
 20
7.522369
 30
0.0
 10
21.656410
 20
7.290065
 30
0.0
 10
21.404527
 20
7.139252
 30
0.0
  0
SPLINE
  5
137
100
AcDbEntity
  8
0
 62
7
100
AcDbSpline
 70
8
 71
3
 72
8
 73
4
 74
0
 40
0
 40
0
 40
0
 40
0
 40
1
 40
1
 40
1
 40
1
 10
21.404527
 20
7.139252
 30
0.0
 10
21.153173
 20
6.987646
 30
0.0
 10
20.844140
 20
6.910917
 30
0.0
 10
20.476369
 20
6.910917
 30
0.0
  0
SPLINE
  5
138
100
AcDbEntity
  8
0
 62
7
100
AcDbSpline
 70
8
 71
3
 72
8
 73
4
 74
0
 40
0
 40
0
 40
0
 40
0
 40
1
 40
1
 40
1
 40
1
 10
20.476369
 20
6.910917
 30
0.0
 10
20.181623
 20
6.910917
 30
0.0
 10
19.932385
 20
6.962775
 30
0.0
 10
19.727863
 20
7.067550
 30
0.0
  0
SPLINE
  5
139
100
AcDbEntity
  8
0
 62
7
100
AcDbSpline
 70
8
 71
3
 72
8
 73
4
 74
0
 40
0
 40
0
 40
0
 40
0
 40
1
 40
1
 40
1
 40
1
 10
19.727863
 20
7.067550
 30
0.0
 10
19.525192
 20
7.171002
 30
0.0
 10
19.359827
 20
7.308850
 30
0.0
 10
19.231240
 20
7.480565
 30
0.0
  0
SPLINE
  5
13a
100
AcDbEntity
  8
0
 62
7
100
AcDbSpline
 70
8
 71
3
 72
8
 73
4
 74
0
 40
0
 40
0
 40
0
 40
0
 40
1
 40
1
 40
1
 40
1
 10
19.231240
 20
7.480565
 30
0.0
 10
19.104240
 20
7.652015
 30
0.0
 10
19.011635
 20
7.855744
 30
0.0
 10
18.956338
 20
8.090694
 30
0.0
  0
SPLINE
  5
13b
100
AcDbEntity
  8
0
 62
7
100
AcDbSpline
 70
8
 71
3
 72
8
 73
4
 74
0
 40
0
 40
0
 40
0
 40
0
 40
1
 40
1
 40
1
 40
1
 10
18.956338
 20
8.090694
 30
0.0
 10
18.899981
 20
8.326437
 30
0.0
 10
18.872729
 20
8.576469
 30
0.0
 10
18.872729
 20
8.839200
 30
0.0
  0
SPLINE
  5
13c
100
AcDbEntity
  8
0
 62
7
100
AcDbSpline
 70
8
 71
3
 72
8
 73
4
 74
0
 40
0
 40
0
 40
0
 40
0
 40
1
 40
1
 40
1
 40
1
 10
18.872729
 20
8.839200
 30
0.0
 10
18.872729
 20
9.342702
 30
0.0
 10
18.960571
 20
9.733756
 30
0.0
 10
19.136254
 20
10.013421
 30
0.0
  0
SPLINE
  5
13d
100
AcDbEntity
  8
0
 62
7
100
AcDbSpline
 70
8
 71
3
 72
8
 73
4
 74
0
 40
0
 40
0
 40
0
 40
0
 40
1
 40
1
 40
1
 40
1
 10
19.136254
 20
10.013421
 30
0.0
 10
19.310879
 20
10.292027
 30
0.0
 10
19.545300
 20
10.497608
 30
0.0
 10
19.836342
 20
10.629900
 30
0.0
  0
SPLINE
  5
13e
100
AcDbEntity
  8
0
 62
7
100
AcDbSpline
 70
8
 71
3
 72
8
 73
4
 74
0
 40
0
 40
0
 40
0
 40
0
 40
1
 40
1
 40
1
 40
1
 10
19.836342
 20
10.629900
 30
0.0
 10
20.127913
 20
10.761662
 30
0.0
 10
20.460758
 20
10.841567
 30
0.0
 10
20.835673
 20
10.868819
 30
0.0
  0
SPLINE
  5
13f
100
AcDbEntity
  8
0
 62
7
100
AcDbSpline
 70
8
 71
3
 72
8
 73
4
 74
0
 40
0
 40
0
 40
0
 40
0
 40
1
 40
1
 40
1
 40
1
 10
20.835673
 20
10.868819
 30
0.0
 10
21.210852
 20
10.896865
 30
0.0
 10
21.594233
 20
10.906654
 30
0.0
 10
21.985023
 20
10.898981
 30
0.0
  0
LINE
  5
140
100
AcDbEntity
  8
0
 62
7
100
AcDbLine
 10
21.985023
 20
10.898981
 30
0.0
 11
21.985023
 21
11.366235
 31
0.0
  0
SPLINE
  5
141
100
AcDbEntity
  8
0
 62
7
100
AcDbSpline
 70
8
 71
3
 72
8
 73
4
 74
0
 40
0
 40
0
 40
0
 40
0
 40
1
 40
1
 40
1
 40
1
 10
21.985023
 20
11.366235
 30
0.0
 10
21.985023
 20
11.493500
 30
0.0
 10
21.979467
 20
11.611504
 30
0.0
 10
21.967296
 20
11.719454
 30
0.0
  0
SPLINE
  5
142
100
AcDbEntity
  8
0
 62
7
100
AcDbSpline
 70
8
 71
3
 72
8
 73
4
 74
0
 40
0
 40
0
 40
0
 40
0
 40
1
 40
1
 40
1
 40
1
 10
21.967296
 20
11.719454
 30
0.0
 10
21.955654
 20
11.826610
 30
0.0
 10
21.926021
 20
11.921596
 30
0.0
 10
21.877867
 20
12.001235
 30
0.0
  0
SPLINE
  5
143
100
AcDbEntity
  8
0
 62
7
100
AcDbSpline
 70
8
 71
3
 72
8
 73
4
 74
0
 40
0
 40
0
 40
0
 40
0
 40
1
 40
1
 40
1
 40
1
 10
21.877867
 20
12.001235
 30
0.0
 10
21.830242
 20
12.080081
 30
0.0
 10
21.760392
 20
12.142523
 30
0.0
 10
21.668317
 20
12.186179
 30
0.0
  0
SPLINE
  5
144
100
AcDbEntity
  8
0
 62
7
100
AcDbSpline
 70
8
 71
3
 72
8
 73
4
 74
0
 40
0
 40
0
 40
0
 40
0
 40
1
 40
1
 40
1
 40
1
 10
21.668317
 20
12.186179
 30
0.0
 10
21.576242
 20
12.230100
 30
0.0
 10
21.455327
 20
12.252325
 30
0.0
 10
21.302663
 20
12.252325
 30
0.0
  0
SPLINE
  5
145
100
AcDbEntity
  8
0
 62
7
100
AcDbSpline
 70
8
 71
3
 72
8
 73
4
 74
0
 40
0
 40
0
 40
0
 40
0
 40
1
 40
1
 40
1
 40
1
 10
21.302663
 20
12.252325
 30
0.0
 10
21.159523
 20
12.252325
 30
0.0
 10
21.043635
 20
12.226396
 30
0.0
 10
20.955529
 20
12.174537
 30
0.0
  0
SPLINE
  5
146
100
AcDbEntity
  8
0
 62
7
100
AcDbSpline
 70
8
 71
3
 72
8
 73
4
 74
0
 40
0
 40
0
 40
0
 40
0
 40
1
 40
1
 40
1
 40
1
 10
20.955529
 20
12.174537
 30
0.0
 10
20.868217
 20
12.121885
 30
0.0
 10
20.803658
 20
12.054946
 30
0.0
 10
20.764500
 20
11.970808
 30
0.0
  0
SPLINE
  5
147
100
AcDbEntity
  8
0
 62
7
100
AcDbSpline
 70
8
 71
3
 72
8
 73
4
 74
0
 40
0
 40
0
 40
0
 40
0
 40
1
 40
1
 40
1
 40
1
 10
20.764500
 20
11.970808
 30
0.0
 10
20.723490
 20
11.886935
 30
0.0
 10
20.698354
 20
11.788510
 30
0.0
 10
20.686713
 20
11.677385
 30
0.0
  0
SPLINE
  5
148
100
AcDbEntity
  8
0
 62
7
100
AcDbSpline
 70
8
 71
3
 72
8
 73
4
 74
0
 40
0
 40
0
 40
0
 40
0
 40
1
 40
1
 40
1
 40
1
 10
20.686713
 20
11.677385
 30
0.0
 10
20.674277
 20
11.565731
 30
0.0
 10
20.668721
 20
11.449579
 30
0.0
 10
20.668721
 20
11.329458
 30
0.0
  0
LINE
  5
149
100
AcDbEntity
  8
0
 62
7
100
AcDbLine
 10
20.668721
 20
11.329458
 30
0.0
 11
19.016663
 21
11.329458
 31
0.0
  0
SPLINE
  5
14a
100
AcDbEntity
  8
0
 62
7
100
AcDbSpline
 70
8
 71
3
 72
8
 73
4
 74
0
 40
0
 40
0
 40
0
 40
0
 40
1
 40
1
 40
1
 40
1
 10
19.016663
 20
11.329458
 30
0.0
 10
19.016663
 20
11.696700
 30
0.0
 10
19.068785
 20
12.000971
 30
0.0
 10
19.177265
 20
12.239890
 30
0.0
  0
SPLINE
  5
14b
100
AcDbEntity
  8
0
 62
7
100
AcDbSpline
 70
8
 71
3
 72
8
 73
4
 74
0
 40
0
 40
0
 40
0
 40
0
 40
1
 40
1
 40
1
 40
1
 10
19.177265
 20
12.239890
 30
0.0
 10
19.285215
 20
12.479337
 30
0.0
 10
19.439202
 20
12.666662
 30
0.0
 10
19.638698
 20
12.802923
 30
0.0
  0
SPLINE
  5
14c
100
AcDbEntity
  8
0
 62
7
100
AcDbSpline
 70
8
 71
3
 72
8
 73
4
 74
0
 40
0
 40
0
 40
0
 40
0
 40
1
 40
1
 40
1
 40
1
 10
19.638698
 20
12.802923
 30
0.0
 10
19.830256
 20
12.946063
 30
0.0
 10
20.058856
 20
13.048721
 30
0.0
 10
20.327144
 20
13.107723
 30
0.0
  0
SPLINE
  5
14d
100
AcDbEntity
  8
0
 62
7
100
AcDbSpline
 70
8
 71
3
 72
8
 73
4
 74
0
 40
0
 40
0
 40
0
 40
0
 40
1
 40
1
 40
1
 40
1
 10
20.327144
 20
13.107723
 30
0.0
 10
20.594373
 20
13.168312
 30
0.0
 10
20.891500
 20
13.197681
 30
0.0
 10
21.219054
 20
13.197681
 30
0.0
  0
SPLINE
  5
14e
100
AcDbEntity
  8
0
 62
7
100
AcDbSpline
 70
8
 71
3
 72
8
 73
4
 74
0
 40
0
 40
0
 40
0
 40
0
 40
1
 40
1
 40
1
 40
1
 10
21.219054
 20
13.197681
 30
0.0
 10
21.754306
 20
13.197681
 30
0.0
 10
22.181608
 20
13.144235
 30
0.0
 10
22.500696
 20
13.035756
 30
0.0
  0
SPLINE
  5
14f
100
AcDbEntity
  8
0
 62
7
100
AcDbSpline
 70
8
 71
3
 72
8
 73
4
 74
0
 40
0
 40
0
 40
0
 40
0
 40
1
 40
1
 40
1
 40
1
 10
22.500696
 20
13.035756
 30
0.0
 10
22.818990
 20
12.928600
 30
0.0
 10
23.062406
 20
12.782285
 30
0.0
 10
23.230417
 20
12.599194
 30
0.0
  0
SPLINE
  5
150
100
AcDbEntity
  8
0
 62
7
100
AcDbSpline
 70
8
 71
3
 72
8
 73
4
 74
0
 40
0
 40
0
 40
0
 40
0
 40
1
 40
1
 40
1
 40
1
 10
23.230417
 20
12.599194
 30
0.0
 10
23.398427
 20
12.415044
 30
0.0
 10
23.507965
 20
12.199408
 30
0.0
 10
23.559558
 20
11.952023
 30
0.0
  0
SPLINE
  5
151
100
AcDbEntity
  8
0
 62
7
100
AcDbSpline
 70
8
 71
3
 72
8
 73
4
 74
0
 40
0
 40
0
 40
0
 40
0
 40
1
 40
1
 40
1
 40
1
 10
23.559558
 20
11.952023
 30
0.0
 10
23.612210
 20
11.704373
 30
0.0
 10
23.637346
 20
11.445346
 30
0.0
 10
23.637346
 20
11.174677
 30
0.0
  0
LINE
  5
152
100
AcDbEntity
  8
0
 62
7
100
AcDbLine
 10
23.637346
 20
11.174677
 30
0.0
 11
23.637346
 21
6.911446
 31
0.0
  0
LINE
  5
153
100
AcDbEntity
  8
0
 62
7
100
AcDbLine
 10
23.637346
 20
6.911446
 30
0.0
 11
21.858023
 21
6.911446
 31
0.0
  0
LINE
  5
154
100
AcDbEntity
  8
0
 62
7
100
AcDbLine
 10
21.858023
 20
6.911446
 30
0.0
 11
21.858023
 21
6.911710
 31
0.0
  0
SPLINE
  5
155
100
AcDbEntity
  8
0
 62
7
100
AcDbSpline
 70
8
 71
3
 72
8
 73
4
 74
0
 40
0
 40
0
 40
0
 40
0
 40
1
 40
1
 40
1
 40
1
 10
21.985023
 20
9.952831
 30
0.0
 10
21.778383
 20
9.945158
 30
0.0
 10
21.584444
 20
9.937221
 30
0.0
 10
21.404527
 20
9.929283
 30
0.0
  0
SPLINE
  5
156
100
AcDbEntity
  8
0
 62
7
100
AcDbSpline
 70
8
 71
3
 72
8
 73
4
 74
0
 40
0
 40
0
 40
0
 40
0
 40
1
 40
1
 40
1
 40
1
 10
21.404527
 20
9.929283
 30
0.0
 10
21.224875
 20
9.920817
 30
0.0
 10
21.068771
 20
9.887479
 30
0.0
 10
20.938596
 20
9.827154
 30
0.0
  0
SPLINE
  5
157
100
AcDbEntity
  8
0
 62
7
100
AcDbSpline
 70
8
 71
3
 72
8
 73
4
 74
0
 40
0
 40
0
 40
0
 40
0
 40
1
 40
1
 40
1
 40
1
 10
20.938596
 20
9.827154
 30
0.0
 10
20.806304
 20
9.767358
 30
0.0
 10
20.704704
 20
9.667346
 30
0.0
 10
20.632208
 20
9.527910
 30
0.0
  0
SPLINE
  5
158
100
AcDbEntity
  8
0
 62
7
100
AcDbSpline
 70
8
 71
3
 72
8
 73
4
 74
0
 40
0
 40
0
 40
0
 40
0
 40
1
 40
1
 40
1
 40
1
 10
20.632208
 20
9.527910
 30
0.0
 10
20.560506
 20
9.388475
 30
0.0
 10
20.525581
 20
9.182894
 30
0.0
 10
20.525581
 20
8.910902
 30
0.0
  0
SPLINE
  5
159
100
AcDbEntity
  8
0
 62
7
100
AcDbSpline
 70
8
 71
3
 72
8
 73
4
 74
0
 40
0
 40
0
 40
0
 40
0
 40
1
 40
1
 40
1
 40
1
 10
20.525581
 20
8.910902
 30
0.0
 10
20.525581
 20
8.798983
 30
0.0
 10
20.531137
 20
8.687858
 30
0.0
 10
20.542515
 20
8.576204
 30
0.0
  0
SPLINE
  5
15a
100
AcDbEntity
  8
0
 62
7
100
AcDbSpline
 70
8
 71
3
 72
8
 73
4
 74
0
 40
0
 40
0
 40
0
 40
0
 40
1
 40
1
 40
1
 40
1
 10
20.542515
 20
8.576204
 30
0.0
 10
20.554685
 20
8.464021
 30
0.0
 10
20.582731
 20
8.362421
 30
0.0
 10
20.626387
 20
8.270875
 30
0.0
  0
SPLINE
  5
15b
100
AcDbEntity
  8
0
 62
7
100
AcDbSpline
 70
8
 71
3
 72
8
 73
4
 74
0
 40
0
 40
0
 40
0
 40
0
 40
1
 40
1
 40
1
 40
1
 10
20.626387
 20
8.270875
 30
0.0
 10
20.670308
 20
8.179594
 30
0.0
 10
20.733544
 20
8.103129
 30
0.0
 10
20.817681
 20
8.043069
 30
0.0
  0
SPLINE
  5
15c
100
AcDbEntity
  8
0
 62
7
100
AcDbSpline
 70
8
 71
3
 72
8
 73
4
 74
0
 40
0
 40
0
 40
0
 40
0
 40
1
 40
1
 40
1
 40
1
 10
20.817681
 20
8.043069
 30
0.0
 10
20.901819
 20
7.983273
 30
0.0
 10
21.011356
 20
7.953110
 30
0.0
 10
21.146823
 20
7.953110
 30
0.0
  0
SPLINE
  5
15d
100
AcDbEntity
  8
0
 62
7
100
AcDbSpline
 70
8
 71
3
 72
8
 73
4
 74
0
 40
0
 40
0
 40
0
 40
0
 40
1
 40
1
 40
1
 40
1
 10
21.146823
 20
7.953110
 30
0.0
 10
21.395002
 20
7.953110
 30
0.0
 10
21.578887
 20
8.026929
 30
0.0
 10
21.698744
 20
8.175360
 30
0.0
  0
SPLINE
  5
15e
100
AcDbEntity
  8
0
 62
7
100
AcDbSpline
 70
8
 71
3
 72
8
 73
4
 74
0
 40
0
 40
0
 40
0
 40
0
 40
1
 40
1
 40
1
 40
1
 10
21.698744
 20
8.175360
 30
0.0
 10
21.817542
 20
8.322469
 30
0.0
 10
21.897710
 20
8.500004
 30
0.0
 10
21.938192
 20
8.707173
 30
0.0
  0
SPLINE
  5
15f
100
AcDbEntity
  8
0
 62
7
100
AcDbSpline
 70
8
 71
3
 72
8
 73
4
 74
0
 40
0
 40
0
 40
0
 40
0
 40
1
 40
1
 40
1
 40
1
 10
21.938192
 20
8.707173
 30
0.0
 10
21.976821
 20
8.915135
 30
0.0
 10
21.995871
 20
9.133417
 30
0.0
 10
21.991902
 20
9.360429
 30
0.0
  0
SPLINE
  5
160
100
AcDbEntity
  8
0
 62
7
100
AcDbSpline
 70
8
 71
3
 72
8
 73
4
 74
0
 40
0
 40
0
 40
0
 40
0
 40
1
 40
1
 40
1
 40
1
 10
21.991902
 20
9.360429
 30
0.0
 10
21.986610
 20
9.587442
 30
0.0
 10
21.985023
 20
9.785350
 30
0.0
 10
21.985023
 20
9.952831
 30
0.0
  0
LINE
  5
161
100
AcDbEntity
  8
0
 62
7
100
AcDbLine
 10
21.985023
 20
9.952831
 30
0.0
 11
21.985023
 21
9.952831
 31
0.0
  0
SPLINE
  5
162
100
AcDbEntity
  8
0
 62
7
100
AcDbSpline
 70
8
 71
3
 72
8
 73
4
 74
0
 40
0
 40
0
 40
0
 40
0
 40
1
 40
1
 40
1
 40
1
 10
27.560852
 20
6.612202
 30
0.0
 10
27.513492
 20
6.855354
 30
0.0
 10
27.428825
 20
7.071519
 30
0.0
 10
27.307646
 20
7.259638
 30
0.0
  0
SPLINE
  5
163
100
AcDbEntity
  8
0
 62
7
100
AcDbSpline
 70
8
 71
3
 72
8
 73
4
 74
0
 40
0
 40
0
 40
0
 40
0
 40
1
 40
1
 40
1
 40
1
 10
27.307646
 20
7.259638
 30
0.0
 10
27.185938
 20
7.448550
 30
0.0
 10
27.022954
 20
7.602273
 30
0.0
 10
26.818431
 20
7.719748
 30
0.0
  0
SPLINE
  5
164
100
AcDbEntity
  8
0
 62
7
100
AcDbSpline
 70
8
 71
3
 72
8
 73
4
 74
0
 40
0
 40
0
 40
0
 40
0
 40
1
 40
1
 40
1
 40
1
 10
26.818431
 20
7.719748
 30
0.0
 10
26.614173
 20
7.837487
 30
0.0
 10
26.354088
 20
7.920302
 30
0.0
 10
26.041085
 20
7.967133
 30
0.0
  0
LINE
  5
165
100
AcDbEntity
  8
0
 62
7
100
AcDbLine
 10
26.041085
 20
7.967133
 30
0.0
 11
26.041085
 21
7.990152
 31
0.0
  0
SPLINE
  5
166
100
AcDbEntity
  8
0
 62
7
100
AcDbSpline
 70
8
 71
3
 72
8
 73
4
 74
0
 40
0
 40
0
 40
0
 40
0
 40
1
 40
1
 40
1
 40
1
 10
26.041085
 20
7.990152
 30
0.0
 10
26.527654
 20
8.085138
 30
0.0
 10
26.891456
 20
8.297069
 30
0.0
 10
27.130640
 20
8.626740
 30
0.0
  0
SPLINE
  5
167
100
AcDbEntity
  8
0
 62
7
100
AcDbSpline
 70
8
 71
3
 72
8
 73
4
 74
0
 40
0
 40
0
 40
0
 40
0
 40
1
 40
1
 40
1
 40
1
 10
27.130640
 20
8.626740
 30
0.0
 10
27.370617
 20
8.956940
 30
0.0
 10
27.488885
 20
9.369160
 30
0.0
 10
27.488885
 20
9.863402
 30
0.0
  0
SPLINE
  5
168
100
AcDbEntity
  8
0
 62
7
100
AcDbSpline
 70
8
 71
3
 72
8
 73
4
 74
0
 40
0
 40
0
 40
0
 40
0
 40
1
 40
1
 40
1
 40
1
 10
27.488885
 20
9.863402
 30
0.0
 10
27.488885
 20
10.319015
 30
0.0
 10
27.425121
 20
10.690225
 30
0.0
 10
27.296004
 20
10.976769
 30
0.0
  0
SPLINE
  5
169
100
AcDbEntity
  8
0
 62
7
100
AcDbSpline
 70
8
 71
3
 72
8
 73
4
 74
0
 40
0
 40
0
 40
0
 40
0
 40
1
 40
1
 40
1
 40
1
 10
27.296004
 20
10.976769
 30
0.0
 10
27.165035
 20
11.263577
 30
0.0
 10
26.989352
 20
11.487944
 30
0.0
 10
26.764721
 20
11.649075
 30
0.0
  0
SPLINE
  5
16a
100
AcDbEntity
  8
0
 62
7
100
AcDbSpline
 70
8
 71
3
 72
8
 73
4
 74
0
 40
0
 40
0
 40
0
 40
0
 40
1
 40
1
 40
1
 40
1
 10
26.764721
 20
11.649075
 30
0.0
 10
26.540883
 20
11.809942
 30
0.0
 10
26.277358
 20
11.919215
 30
0.0
 10
25.976527
 20
11.978746
 30
0.0
  0
SPLINE
  5
16b
100
AcDbEntity
  8
0
 62
7
100
AcDbSpline
 70
8
 71
3
 72
8
 73
4
 74
0
 40
0
 40
0
 40
0
 40
0
 40
1
 40
1
 40
1
 40
1
 10
25.976527
 20
11.978746
 30
0.0
 10
25.673315
 20
12.037219
 30
0.0
 10
25.353433
 20
12.066852
 30
0.0
 10
25.015825
 20
12.066852
 30
0.0
  0
LINE
  5
16c
100
AcDbEntity
  8
0
 62
7
100
AcDbLine
 10
25.015825
 20
12.066852
 30
0.0
 11
24.823208
 21
12.066852
 31
0.0
  0
LINE
  5
16d
100
AcDbEntity
  8
0
 62
7
100
AcDbLine
 10
24.823208
 20
12.066852
 30
0.0
 11
24.823208
 21
10.755048
 31
0.0
  0
SPLINE
  5
16e
100
AcDbEntity
  8
0
 62
7
100
AcDbSpline
 70
8
 71
3
 72
8
 73
4
 74
0
 40
0
 40
0
 40
0
 40
0
 40
1
 40
1
 40
1
 40
1
 10
24.823208
 20
10.755048
 30
0.0
 10
25.080648
 20
10.735998
 30
0.0
 10
25.296283
 20
10.635456
 30
0.0
 10
25.469585
 20
10.451835
 30
0.0
  0
SPLINE
  5
16f
100
AcDbEntity
  8
0
 62
7
100
AcDbSpline
 70
8
 71
3
 72
8
 73
4
 74
0
 40
0
 40
0
 40
0
 40
0
 40
1
 40
1
 40
1
 40
1
 10
25.469585
 20
10.451835
 30
0.0
 10
25.661673
 20
10.247842
 30
0.0
 10
25.757452
 20
9.988815
 30
0.0
 10
25.757452
 20
9.674490
 30
0.0
  0
SPLINE
  5
170
100
AcDbEntity
  8
0
 62
7
100
AcDbSpline
 70
8
 71
3
 72
8
 73
4
 74
0
 40
0
 40
0
 40
0
 40
0
 40
1
 40
1
 40
1
 40
1
 10
25.757452
 20
9.674490
 30
0.0
 10
25.757452
 20
9.470231
 30
0.0
 10
25.729142
 20
9.297458
 30
0.0
 10
25.669610
 20
9.156700
 30
0.0
  0
SPLINE
  5
171
100
AcDbEntity
  8
0
 62
7
100
AcDbSpline
 70
8
 71
3
 72
8
 73
4
 74
0
 40
0
 40
0
 40
0
 40
0
 40
1
 40
1
 40
1
 40
1
 10
25.669610
 20
9.156700
 30
0.0
 10
25.609550
 20
9.014883
 30
0.0
 10
25.533350
 20
8.903494
 30
0.0
 10
25.439423
 20
8.820944
 30
0.0
  0
SPLINE
  5
172
100
AcDbEntity
  8
0
 62
7
100
AcDbSpline
 70
8
 71
3
 72
8
 73
4
 74
0
 40
0
 40
0
 40
0
 40
0
 40
1
 40
1
 40
1
 40
1
 10
25.439423
 20
8.820944
 30
0.0
 10
25.345760
 20
8.738394
 30
0.0
 10
25.243896
 20
8.678863
 30
0.0
 10
25.133829
 20
8.643673
 30
0.0
  0
SPLINE
  5
173
100
AcDbEntity
  8
0
 62
7
100
AcDbSpline
 70
8
 71
3
 72
8
 73
4
 74
0
 40
0
 40
0
 40
0
 40
0
 40
1
 40
1
 40
1
 40
1
 10
25.133829
 20
8.643673
 30
0.0
 10
25.023763
 20
8.607954
 30
0.0
 10
24.921898
 20
8.591021
 30
0.0
 10
24.827971
 20
8.591021
 30
0.0
  0
LINE
  5
174
100
AcDbEntity
  8
0
 62
7
100
AcDbLine
 10
24.827971
 20
8.591021
 30
0.0
 11
24.823208
 21
8.591021
 31
0.0
  0
LINE
  5
175
100
AcDbEntity
  8
0
 62
7
100
AcDbLine
 10
24.823208
 20
8.591021
 30
0.0
 11
24.823208
 21
6.911181
 31
0.0
  0
SPLINE
  5
176
100
AcDbEntity
  8
0
 62
7
100
AcDbSpline
 70
8
 71
3
 72
8
 73
4
 74
0
 40
0
 40
0
 40
0
 40
0
 40
1
 40
1
 40
1
 40
1
 10
24.823208
 20
6.911181
 30
0.0
 10
25.190715
 20
6.889750
 30
0.0
 10
25.449477
 20
6.826250
 30
0.0
 10
25.598702
 20
6.634956
 30
0.0
  0
SPLINE
  5
177
100
AcDbEntity
  8
0
 62
7
100
AcDbSpline
 70
8
 71
3
 72
8
 73
4
 74
0
 40
0
 40
0
 40
0
 40
0
 40
1
 40
1
 40
1
 40
1
 10
25.598702
 20
6.634956
 30
0.0
 10
25.768035
 20
6.419850
 30
0.0
 10
25.851644
 20
6.339152
 30
0.0
 10
25.851644
 20
5.961327
 30
0.0
  0
SPLINE
  5
178
100
AcDbEntity
  8
0
 62
7
100
AcDbSpline
 70
8
 71
3
 72
8
 73
4
 74
0
 40
0
 40
0
 40
0
 40
0
 40
1
 40
1
 40
1
 40
1
 10
25.851644
 20
5.961327
 30
0.0
 10
25.851644
 20
5.663406
 30
0.0
 10
25.805077
 20
5.541169
 30
0.0
 10
25.711150
 20
5.380038
 30
0.0
  0
SPLINE
  5
179
100
AcDbEntity
  8
0
 62
7
100
AcDbSpline
 70
8
 71
3
 72
8
 73
4
 74
0
 40
0
 40
0
 40
0
 40
0
 40
1
 40
1
 40
1
 40
1
 10
25.711150
 20
5.380038
 30
0.0
 10
25.615900
 20
5.219171
 30
0.0
 10
25.504775
 20
5.100637
 30
0.0
 10
25.374865
 20
5.021792
 30
0.0
  0
SPLINE
  5
17a
100
AcDbEntity
  8
0
 62
7
100
AcDbSpline
 70
8
 71
3
 72
8
 73
4
 74
0
 40
0
 40
0
 40
0
 40
0
 40
1
 40
1
 40
1
 40
1
 10
25.374865
 20
5.021792
 30
0.0
 10
25.245748
 20
4.942946
 30
0.0
 10
25.111869
 20
4.897967
 30
0.0
 10
24.974815
 20
4.885531
 30
0.0
  0
SPLINE
  5
17b
100
AcDbEntity
  8
0
 62
7
100
AcDbSpline
 70
8
 71
3
 72
8
 73
4
 74
0
 40
0
 40
0
 40
0
 40
0
 40
1
 40
1
 40
1
 40
1
 10
24.974815
 20
4.885531
 30
0.0
 10
24.837231
 20
4.873890
 30
0.0
 10
24.720550
 20
4.868598
 30
0.0
 10
24.627152
 20
4.868598
 30
0.0
  0
LINE
  5
17c
100
AcDbEntity
  8
0
 62
7
100
AcDbLine
 10
24.627152
 20
4.868598
 30
0.0
 11
23.637346
 21
4.868598
 31
0.0
  0
LINE
  5
17d
100
AcDbEntity
  8
0
 62
7
100
AcDbLine
 10
23.637346
 20
4.868598
 30
0.0
 11
23.637346
 21
5.881952
 31
0.0
  0
LINE
  5
17e
100
AcDbEntity
  8
0
 62
7
100
AcDbLine
 10
23.637346
 20
5.881952
 30
0.0
 11
21.857758
 21
5.881952
 31
0.0
  0
LINE
  5
17f
100
AcDbEntity
  8
0
 62
7
100
AcDbLine
 10
21.857758
 20
5.881952
 30
0.0
 11
21.857758
 21
3.560498
 31
0.0
  0
LINE
  5
180
100
AcDbEntity
  8
0
 62
7
100
AcDbLine
 10
21.857758
 20
3.560498
 30
0.0
 11
25.004448
 21
3.560498
 31
0.0
  0
SPLINE
  5
181
100
AcDbEntity
  8
0
 62
7
100
AcDbSpline
 70
8
 71
3
 72
8
 73
4
 74
0
 40
0
 40
0
 40
0
 40
0
 40
1
 40
1
 40
1
 40
1
 10
25.004448
 20
3.560498
 30
0.0
 10
25.129596
 20
3.560498
 30
0.0
 10
25.280937
 20
3.566583
 30
0.0
 10
25.457150
 20
3.577431
 30
0.0
  0
SPLINE
  5
182
100
AcDbEntity
  8
0
 62
7
100
AcDbSpline
 70
8
 71
3
 72
8
 73
4
 74
0
 40
0
 40
0
 40
0
 40
0
 40
1
 40
1
 40
1
 40
1
 10
25.457150
 20
3.577431
 30
0.0
 10
25.634421
 20
3.590660
 30
0.0
 10
25.821481
 20
3.619235
 30
0.0
 10
26.016744
 20
3.667125
 30
0.0
  0
SPLINE
  5
183
100
AcDbEntity
  8
0
 62
7
100
AcDbSpline
 70
8
 71
3
 72
8
 73
4
 74
0
 40
0
 40
0
 40
0
 40
0
 40
1
 40
1
 40
1
 40
1
 10
26.016744
 20
3.667125
 30
0.0
 10
26.213065
 20
3.714485
 30
0.0
 10
26.408062
 20
3.784071
 30
0.0
 10
26.599621
 20
3.879321
 30
0.0
  0
SPLINE
  5
184
100
AcDbEntity
  8
0
 62
7
100
AcDbSpline
 70
8
 71
3
 72
8
 73
4
 74
0
 40
0
 40
0
 40
0
 40
0
 40
1
 40
1
 40
1
 40
1
 10
26.599621
 20
3.879321
 30
0.0
 10
26.793560
 20
3.972983
 30
0.0
 10
26.966069
 20
4.102365
 30
0.0
 10
27.119527
 20
4.267200
 30
0.0
  0
SPLINE
  5
185
100
AcDbEntity
  8
0
 62
7
100
AcDbSpline
 70
8
 71
3
 72
8
 73
4
 74
0
 40
0
 40
0
 40
0
 40
0
 40
1
 40
1
 40
1
 40
1
 10
27.119527
 20
4.267200
 30
0.0
 10
27.271662
 20
4.432035
 30
0.0
 10
27.395752
 20
4.640262
 30
0.0
 10
27.489150
 20
4.892675
 30
0.0
  0
SPLINE
  5
186
100
AcDbEntity
  8
0
 62
7
100
AcDbSpline
 70
8
 71
3
 72
8
 73
4
 74
0
 40
0
 40
0
 40
0
 40
0
 40
1
 40
1
 40
1
 40
1
 10
27.489150
 20
4.892675
 30
0.0
 10
27.583606
 20
5.143500
 30
0.0
 10
27.631496
 20
5.449358
 30
0.0
 10
27.631496
 20
5.810779
 30
0.0
  0
SPLINE
  5
187
100
AcDbEntity
  8
0
 62
7
100
AcDbSpline
 70
8
 71
3
 72
8
 73
4
 74
0
 40
0
 40
0
 40
0
 40
0
 40
1
 40
1
 40
1
 40
1
 10
27.631496
 20
5.810779
 30
0.0
 10
27.631760
 20
6.101556
 30
0.0
 10
27.608477
 20
6.369050
 30
0.0
 10
27.560852
 20
6.612202
 30
0.0
  0
LINE
  5
188
100
AcDbEntity
  8
0
 62
7
100
AcDbLine
 10
27.560852
 20
6.612202
 30
0.0
 11
27.560852
 21
6.612202
 31
0.0
  0
ENDSEC
  0
SECTION
  2
OBJECTS
  0
DICTIONARY
  5
C
330
0
100
AcDbDictionary
  3
ACAD_GROUP
350
D
  3
ACAD_MLINESTYLE
350
17
  0
DICTIONARY
  5
D
330
C
100
AcDbDictionary
  0
DICTIONARY
  5
1A
330
C
100
AcDbDictionary
  0
DICTIONARY
  5
17
330
C
100
AcDbDictionary
  3
STANDARD
350
18
  0
DICTIONARY
  5
19
330
C
100
AcDbDictionary
  0
ENDSEC
  0
EOF
