G04 #@! TF.GenerationSoftware,KiCad,Pcbnew,(5.1.4)-1*
G04 #@! TF.CreationDate,2021-03-18T17:14:36+01:00*
G04 #@! TF.ProjectId,ESPCraft,45535043-7261-4667-942e-6b696361645f,rev?*
G04 #@! TF.SameCoordinates,Original*
G04 #@! TF.FileFunction,Soldermask,Bot*
G04 #@! TF.FilePolarity,Negative*
%FSLAX46Y46*%
G04 Gerber Fmt 4.6, Leading zero omitted, Abs format (unit mm)*
G04 Created by KiCad (PCBNEW (5.1.4)-1) date 2021-03-18 17:14:36*
%MOMM*%
%LPD*%
G04 APERTURE LIST*
%ADD10C,0.100000*%
G04 APERTURE END LIST*
D10*
G36*
X147928212Y-129616249D02*
G01*
X148022651Y-129644897D01*
X148109687Y-129691418D01*
X148185975Y-129754025D01*
X148248582Y-129830313D01*
X148295103Y-129917348D01*
X148323751Y-130011787D01*
X148331000Y-130085388D01*
X148331000Y-130934612D01*
X148323751Y-131008213D01*
X148295103Y-131102652D01*
X148248582Y-131189687D01*
X148185975Y-131265975D01*
X148109687Y-131328582D01*
X148022652Y-131375103D01*
X147928213Y-131403751D01*
X147830000Y-131413424D01*
X147731788Y-131403751D01*
X147637349Y-131375103D01*
X147550314Y-131328582D01*
X147474026Y-131265975D01*
X147411419Y-131189687D01*
X147364898Y-131102652D01*
X147336250Y-131008213D01*
X147332561Y-130970753D01*
X147329000Y-130934602D01*
X147329000Y-130085389D01*
X147336249Y-130011788D01*
X147364897Y-129917349D01*
X147411418Y-129830313D01*
X147474025Y-129754025D01*
X147550313Y-129691418D01*
X147637348Y-129644897D01*
X147731787Y-129616249D01*
X147830000Y-129606576D01*
X147928212Y-129616249D01*
X147928212Y-129616249D01*
G37*
G36*
X139288212Y-129616249D02*
G01*
X139382651Y-129644897D01*
X139469687Y-129691418D01*
X139545975Y-129754025D01*
X139608582Y-129830313D01*
X139655103Y-129917348D01*
X139683751Y-130011787D01*
X139691000Y-130085388D01*
X139691000Y-130934612D01*
X139683751Y-131008213D01*
X139655103Y-131102652D01*
X139608582Y-131189687D01*
X139545975Y-131265975D01*
X139469687Y-131328582D01*
X139382652Y-131375103D01*
X139288213Y-131403751D01*
X139190000Y-131413424D01*
X139091788Y-131403751D01*
X138997349Y-131375103D01*
X138910314Y-131328582D01*
X138834026Y-131265975D01*
X138771419Y-131189687D01*
X138724898Y-131102652D01*
X138696250Y-131008213D01*
X138692561Y-130970753D01*
X138689000Y-130934602D01*
X138689000Y-130085389D01*
X138696249Y-130011788D01*
X138724897Y-129917349D01*
X138771418Y-129830313D01*
X138834025Y-129754025D01*
X138910313Y-129691418D01*
X138997348Y-129644897D01*
X139091787Y-129616249D01*
X139190000Y-129606576D01*
X139288212Y-129616249D01*
X139288212Y-129616249D01*
G37*
G36*
X155307999Y-129755737D02*
G01*
X155317608Y-129758652D01*
X155326472Y-129763390D01*
X155334237Y-129769763D01*
X155344448Y-129782206D01*
X155351378Y-129792575D01*
X155368705Y-129809902D01*
X155389080Y-129823515D01*
X155411720Y-129832891D01*
X155435753Y-129837671D01*
X155460257Y-129837670D01*
X155484290Y-129832888D01*
X155506929Y-129823510D01*
X155527302Y-129809895D01*
X155544629Y-129792568D01*
X155551558Y-129782198D01*
X155561763Y-129769763D01*
X155569528Y-129763390D01*
X155578392Y-129758652D01*
X155588001Y-129755737D01*
X155604140Y-129754148D01*
X156091861Y-129754148D01*
X156110199Y-129755954D01*
X156122450Y-129756556D01*
X156140869Y-129756556D01*
X156163149Y-129758750D01*
X156247233Y-129775476D01*
X156268660Y-129781976D01*
X156347858Y-129814780D01*
X156353303Y-129817691D01*
X156353309Y-129817693D01*
X156362169Y-129822429D01*
X156362173Y-129822432D01*
X156367614Y-129825340D01*
X156438899Y-129872971D01*
X156456204Y-129887172D01*
X156516828Y-129947796D01*
X156531029Y-129965101D01*
X156578660Y-130036386D01*
X156581568Y-130041827D01*
X156581571Y-130041831D01*
X156586307Y-130050691D01*
X156586309Y-130050697D01*
X156589220Y-130056142D01*
X156622024Y-130135340D01*
X156628524Y-130156767D01*
X156645250Y-130240851D01*
X156647444Y-130263131D01*
X156647444Y-130281550D01*
X156648046Y-130293801D01*
X156649852Y-130312139D01*
X156649852Y-130799862D01*
X156648046Y-130818199D01*
X156647444Y-130830450D01*
X156647444Y-130848869D01*
X156645250Y-130871149D01*
X156628524Y-130955233D01*
X156622024Y-130976660D01*
X156589220Y-131055858D01*
X156586309Y-131061303D01*
X156586307Y-131061309D01*
X156581571Y-131070169D01*
X156581568Y-131070173D01*
X156578660Y-131075614D01*
X156531029Y-131146899D01*
X156516828Y-131164204D01*
X156456204Y-131224828D01*
X156438899Y-131239029D01*
X156367614Y-131286660D01*
X156362173Y-131289568D01*
X156362169Y-131289571D01*
X156353309Y-131294307D01*
X156353303Y-131294309D01*
X156347858Y-131297220D01*
X156268660Y-131330024D01*
X156247233Y-131336524D01*
X156163149Y-131353250D01*
X156140869Y-131355444D01*
X156122450Y-131355444D01*
X156110199Y-131356046D01*
X156091862Y-131357852D01*
X155604140Y-131357852D01*
X155588001Y-131356263D01*
X155578392Y-131353348D01*
X155569528Y-131348610D01*
X155561763Y-131342237D01*
X155551552Y-131329794D01*
X155544622Y-131319425D01*
X155527295Y-131302098D01*
X155506920Y-131288485D01*
X155484280Y-131279109D01*
X155460247Y-131274329D01*
X155435743Y-131274330D01*
X155411710Y-131279112D01*
X155389071Y-131288490D01*
X155368698Y-131302105D01*
X155351371Y-131319432D01*
X155344442Y-131329802D01*
X155334237Y-131342237D01*
X155326472Y-131348610D01*
X155317608Y-131353348D01*
X155307999Y-131356263D01*
X155291860Y-131357852D01*
X154804138Y-131357852D01*
X154785801Y-131356046D01*
X154773550Y-131355444D01*
X154755131Y-131355444D01*
X154732851Y-131353250D01*
X154648767Y-131336524D01*
X154627340Y-131330024D01*
X154548142Y-131297220D01*
X154542697Y-131294309D01*
X154542691Y-131294307D01*
X154533831Y-131289571D01*
X154533827Y-131289568D01*
X154528386Y-131286660D01*
X154457101Y-131239029D01*
X154439796Y-131224828D01*
X154379172Y-131164204D01*
X154364971Y-131146899D01*
X154317340Y-131075614D01*
X154314432Y-131070173D01*
X154314429Y-131070169D01*
X154309693Y-131061309D01*
X154309691Y-131061303D01*
X154306780Y-131055858D01*
X154273976Y-130976660D01*
X154267476Y-130955233D01*
X154250750Y-130871149D01*
X154248556Y-130848869D01*
X154248556Y-130830450D01*
X154247954Y-130818199D01*
X154246148Y-130799862D01*
X154246148Y-130312139D01*
X154247954Y-130293801D01*
X154248556Y-130281550D01*
X154248556Y-130263131D01*
X154250750Y-130240851D01*
X154267476Y-130156767D01*
X154273976Y-130135340D01*
X154306780Y-130056142D01*
X154309691Y-130050697D01*
X154309693Y-130050691D01*
X154314429Y-130041831D01*
X154314432Y-130041827D01*
X154317340Y-130036386D01*
X154364971Y-129965101D01*
X154379172Y-129947796D01*
X154439796Y-129887172D01*
X154457101Y-129872971D01*
X154528386Y-129825340D01*
X154533827Y-129822432D01*
X154533831Y-129822429D01*
X154542691Y-129817693D01*
X154542697Y-129817691D01*
X154548142Y-129814780D01*
X154627340Y-129781976D01*
X154648767Y-129775476D01*
X154732851Y-129758750D01*
X154755131Y-129756556D01*
X154773550Y-129756556D01*
X154785801Y-129755954D01*
X154804139Y-129754148D01*
X155291860Y-129754148D01*
X155307999Y-129755737D01*
X155307999Y-129755737D01*
G37*
G36*
X168909239Y-124446467D02*
G01*
X169223282Y-124508934D01*
X169814926Y-124754001D01*
X170347392Y-125109784D01*
X170800216Y-125562608D01*
X171155999Y-126095074D01*
X171401066Y-126686718D01*
X171401066Y-126686719D01*
X171526000Y-127314803D01*
X171526000Y-127955197D01*
X171463533Y-128269239D01*
X171401066Y-128583282D01*
X171155999Y-129174926D01*
X170908265Y-129545685D01*
X170810888Y-129691421D01*
X170800216Y-129707392D01*
X170347392Y-130160216D01*
X169814926Y-130515999D01*
X169223282Y-130761066D01*
X169028241Y-130799862D01*
X168595197Y-130886000D01*
X167954803Y-130886000D01*
X167521759Y-130799862D01*
X167326718Y-130761066D01*
X166735074Y-130515999D01*
X166202608Y-130160216D01*
X165749784Y-129707392D01*
X165739113Y-129691421D01*
X165641735Y-129545685D01*
X165394001Y-129174926D01*
X165148934Y-128583282D01*
X165086467Y-128269239D01*
X165024000Y-127955197D01*
X165024000Y-127314803D01*
X165148934Y-126686719D01*
X165148934Y-126686718D01*
X165394001Y-126095074D01*
X165749784Y-125562608D01*
X166202608Y-125109784D01*
X166735074Y-124754001D01*
X167326718Y-124508934D01*
X167640761Y-124446467D01*
X167954803Y-124384000D01*
X168595197Y-124384000D01*
X168909239Y-124446467D01*
X168909239Y-124446467D01*
G37*
G36*
X119379239Y-124446467D02*
G01*
X119693282Y-124508934D01*
X120284926Y-124754001D01*
X120817392Y-125109784D01*
X121270216Y-125562608D01*
X121625999Y-126095074D01*
X121871066Y-126686718D01*
X121871066Y-126686719D01*
X121996000Y-127314803D01*
X121996000Y-127955197D01*
X121933533Y-128269239D01*
X121871066Y-128583282D01*
X121625999Y-129174926D01*
X121378265Y-129545685D01*
X121280888Y-129691421D01*
X121270216Y-129707392D01*
X120817392Y-130160216D01*
X120284926Y-130515999D01*
X119693282Y-130761066D01*
X119498241Y-130799862D01*
X119065197Y-130886000D01*
X118424803Y-130886000D01*
X117991759Y-130799862D01*
X117796718Y-130761066D01*
X117205074Y-130515999D01*
X116672608Y-130160216D01*
X116219784Y-129707392D01*
X116209113Y-129691421D01*
X116111735Y-129545685D01*
X115864001Y-129174926D01*
X115618934Y-128583282D01*
X115556467Y-128269239D01*
X115494000Y-127955197D01*
X115494000Y-127314803D01*
X115618934Y-126686719D01*
X115618934Y-126686718D01*
X115864001Y-126095074D01*
X116219784Y-125562608D01*
X116672608Y-125109784D01*
X117205074Y-124754001D01*
X117796718Y-124508934D01*
X118110761Y-124446467D01*
X118424803Y-124384000D01*
X119065197Y-124384000D01*
X119379239Y-124446467D01*
X119379239Y-124446467D01*
G37*
G36*
X147928212Y-125296249D02*
G01*
X148022651Y-125324897D01*
X148109687Y-125371418D01*
X148185975Y-125434025D01*
X148248582Y-125510313D01*
X148295103Y-125597348D01*
X148323751Y-125691787D01*
X148331000Y-125765388D01*
X148331000Y-126914612D01*
X148323751Y-126988213D01*
X148295103Y-127082652D01*
X148248582Y-127169687D01*
X148185975Y-127245975D01*
X148109687Y-127308582D01*
X148022652Y-127355103D01*
X147928213Y-127383751D01*
X147830000Y-127393424D01*
X147731788Y-127383751D01*
X147637349Y-127355103D01*
X147550314Y-127308582D01*
X147474026Y-127245975D01*
X147411419Y-127169687D01*
X147364898Y-127082652D01*
X147336250Y-126988213D01*
X147329001Y-126914612D01*
X147329000Y-125765389D01*
X147336249Y-125691788D01*
X147364897Y-125597349D01*
X147411418Y-125510313D01*
X147474025Y-125434025D01*
X147550313Y-125371418D01*
X147637348Y-125324897D01*
X147731787Y-125296249D01*
X147830000Y-125286576D01*
X147928212Y-125296249D01*
X147928212Y-125296249D01*
G37*
G36*
X139288212Y-125296249D02*
G01*
X139382651Y-125324897D01*
X139469687Y-125371418D01*
X139545975Y-125434025D01*
X139608582Y-125510313D01*
X139655103Y-125597348D01*
X139683751Y-125691787D01*
X139691000Y-125765388D01*
X139691000Y-126914612D01*
X139683751Y-126988213D01*
X139655103Y-127082652D01*
X139608582Y-127169687D01*
X139545975Y-127245975D01*
X139469687Y-127308582D01*
X139382652Y-127355103D01*
X139288213Y-127383751D01*
X139190000Y-127393424D01*
X139091788Y-127383751D01*
X138997349Y-127355103D01*
X138910314Y-127308582D01*
X138834026Y-127245975D01*
X138771419Y-127169687D01*
X138724898Y-127082652D01*
X138696250Y-126988213D01*
X138689001Y-126914612D01*
X138689000Y-125765389D01*
X138696249Y-125691788D01*
X138724897Y-125597349D01*
X138771418Y-125510313D01*
X138834025Y-125434025D01*
X138910313Y-125371418D01*
X138997348Y-125324897D01*
X139091787Y-125296249D01*
X139190000Y-125286576D01*
X139288212Y-125296249D01*
X139288212Y-125296249D01*
G37*
G36*
X146502383Y-126482489D02*
G01*
X146502386Y-126482490D01*
X146502385Y-126482490D01*
X146566258Y-126508946D01*
X146623748Y-126547360D01*
X146672640Y-126596252D01*
X146711054Y-126653742D01*
X146724713Y-126686719D01*
X146737511Y-126717617D01*
X146751000Y-126785430D01*
X146751000Y-126854570D01*
X146737511Y-126922383D01*
X146737510Y-126922385D01*
X146711054Y-126986258D01*
X146672640Y-127043748D01*
X146623748Y-127092640D01*
X146566258Y-127131054D01*
X146514182Y-127152624D01*
X146502383Y-127157511D01*
X146434570Y-127171000D01*
X146365430Y-127171000D01*
X146297617Y-127157511D01*
X146285818Y-127152624D01*
X146233742Y-127131054D01*
X146176252Y-127092640D01*
X146127360Y-127043748D01*
X146088946Y-126986258D01*
X146062490Y-126922385D01*
X146062489Y-126922383D01*
X146049000Y-126854570D01*
X146049000Y-126785430D01*
X146062489Y-126717617D01*
X146075287Y-126686719D01*
X146088946Y-126653742D01*
X146127360Y-126596252D01*
X146176252Y-126547360D01*
X146233742Y-126508946D01*
X146297615Y-126482490D01*
X146297614Y-126482490D01*
X146297617Y-126482489D01*
X146365430Y-126469000D01*
X146434570Y-126469000D01*
X146502383Y-126482489D01*
X146502383Y-126482489D01*
G37*
G36*
X140722383Y-126482489D02*
G01*
X140722386Y-126482490D01*
X140722385Y-126482490D01*
X140786258Y-126508946D01*
X140843748Y-126547360D01*
X140892640Y-126596252D01*
X140931054Y-126653742D01*
X140944713Y-126686719D01*
X140957511Y-126717617D01*
X140971000Y-126785430D01*
X140971000Y-126854570D01*
X140957511Y-126922383D01*
X140957510Y-126922385D01*
X140931054Y-126986258D01*
X140892640Y-127043748D01*
X140843748Y-127092640D01*
X140786258Y-127131054D01*
X140734182Y-127152624D01*
X140722383Y-127157511D01*
X140654570Y-127171000D01*
X140585430Y-127171000D01*
X140517617Y-127157511D01*
X140505818Y-127152624D01*
X140453742Y-127131054D01*
X140396252Y-127092640D01*
X140347360Y-127043748D01*
X140308946Y-126986258D01*
X140282490Y-126922385D01*
X140282489Y-126922383D01*
X140269000Y-126854570D01*
X140269000Y-126785430D01*
X140282489Y-126717617D01*
X140295287Y-126686719D01*
X140308946Y-126653742D01*
X140347360Y-126596252D01*
X140396252Y-126547360D01*
X140453742Y-126508946D01*
X140517615Y-126482490D01*
X140517614Y-126482490D01*
X140517617Y-126482489D01*
X140585430Y-126469000D01*
X140654570Y-126469000D01*
X140722383Y-126482489D01*
X140722383Y-126482489D01*
G37*
G36*
X169150999Y-121373737D02*
G01*
X169160608Y-121376652D01*
X169169472Y-121381390D01*
X169177237Y-121387763D01*
X169187448Y-121400206D01*
X169194378Y-121410575D01*
X169211705Y-121427902D01*
X169232080Y-121441515D01*
X169254720Y-121450891D01*
X169278753Y-121455671D01*
X169303257Y-121455670D01*
X169327290Y-121450888D01*
X169349929Y-121441510D01*
X169370302Y-121427895D01*
X169387629Y-121410568D01*
X169394558Y-121400198D01*
X169404763Y-121387763D01*
X169412528Y-121381390D01*
X169421392Y-121376652D01*
X169431001Y-121373737D01*
X169447140Y-121372148D01*
X169934861Y-121372148D01*
X169953199Y-121373954D01*
X169965450Y-121374556D01*
X169983869Y-121374556D01*
X170006149Y-121376750D01*
X170090233Y-121393476D01*
X170111660Y-121399976D01*
X170190858Y-121432780D01*
X170196303Y-121435691D01*
X170196309Y-121435693D01*
X170205169Y-121440429D01*
X170205173Y-121440432D01*
X170210614Y-121443340D01*
X170281899Y-121490971D01*
X170299204Y-121505172D01*
X170359828Y-121565796D01*
X170374029Y-121583101D01*
X170421660Y-121654386D01*
X170424568Y-121659827D01*
X170424571Y-121659831D01*
X170429307Y-121668691D01*
X170429309Y-121668697D01*
X170432220Y-121674142D01*
X170465024Y-121753340D01*
X170471524Y-121774767D01*
X170488250Y-121858851D01*
X170490444Y-121881131D01*
X170490444Y-121899550D01*
X170491046Y-121911801D01*
X170492852Y-121930139D01*
X170492852Y-122417862D01*
X170491046Y-122436199D01*
X170490444Y-122448450D01*
X170490444Y-122466869D01*
X170488250Y-122489149D01*
X170471524Y-122573233D01*
X170465024Y-122594660D01*
X170432220Y-122673858D01*
X170429309Y-122679303D01*
X170429307Y-122679309D01*
X170424571Y-122688169D01*
X170424568Y-122688173D01*
X170421660Y-122693614D01*
X170374029Y-122764899D01*
X170359828Y-122782204D01*
X170299204Y-122842828D01*
X170281899Y-122857029D01*
X170210614Y-122904660D01*
X170205173Y-122907568D01*
X170205169Y-122907571D01*
X170196309Y-122912307D01*
X170196303Y-122912309D01*
X170190858Y-122915220D01*
X170111660Y-122948024D01*
X170090233Y-122954524D01*
X170006149Y-122971250D01*
X169983869Y-122973444D01*
X169965450Y-122973444D01*
X169953199Y-122974046D01*
X169934862Y-122975852D01*
X169447140Y-122975852D01*
X169431001Y-122974263D01*
X169421392Y-122971348D01*
X169412528Y-122966610D01*
X169404763Y-122960237D01*
X169394552Y-122947794D01*
X169387622Y-122937425D01*
X169370295Y-122920098D01*
X169349920Y-122906485D01*
X169327280Y-122897109D01*
X169303247Y-122892329D01*
X169278743Y-122892330D01*
X169254710Y-122897112D01*
X169232071Y-122906490D01*
X169211698Y-122920105D01*
X169194371Y-122937432D01*
X169187442Y-122947802D01*
X169177237Y-122960237D01*
X169169472Y-122966610D01*
X169160608Y-122971348D01*
X169150999Y-122974263D01*
X169134860Y-122975852D01*
X168647138Y-122975852D01*
X168628801Y-122974046D01*
X168616550Y-122973444D01*
X168598131Y-122973444D01*
X168575851Y-122971250D01*
X168491767Y-122954524D01*
X168470340Y-122948024D01*
X168391142Y-122915220D01*
X168385697Y-122912309D01*
X168385691Y-122912307D01*
X168376831Y-122907571D01*
X168376827Y-122907568D01*
X168371386Y-122904660D01*
X168300101Y-122857029D01*
X168282796Y-122842828D01*
X168222172Y-122782204D01*
X168207971Y-122764899D01*
X168160340Y-122693614D01*
X168157432Y-122688173D01*
X168157429Y-122688169D01*
X168152693Y-122679309D01*
X168152691Y-122679303D01*
X168149780Y-122673858D01*
X168116976Y-122594660D01*
X168110476Y-122573233D01*
X168093750Y-122489149D01*
X168091556Y-122466869D01*
X168091556Y-122448450D01*
X168090954Y-122436199D01*
X168089148Y-122417862D01*
X168089148Y-121930139D01*
X168090954Y-121911801D01*
X168091556Y-121899550D01*
X168091556Y-121881131D01*
X168093750Y-121858851D01*
X168110476Y-121774767D01*
X168116976Y-121753340D01*
X168149780Y-121674142D01*
X168152691Y-121668697D01*
X168152693Y-121668691D01*
X168157429Y-121659831D01*
X168157432Y-121659827D01*
X168160340Y-121654386D01*
X168207971Y-121583101D01*
X168222172Y-121565796D01*
X168282796Y-121505172D01*
X168300101Y-121490971D01*
X168371386Y-121443340D01*
X168376827Y-121440432D01*
X168376831Y-121440429D01*
X168385691Y-121435693D01*
X168385697Y-121435691D01*
X168391142Y-121432780D01*
X168470340Y-121399976D01*
X168491767Y-121393476D01*
X168575851Y-121376750D01*
X168598131Y-121374556D01*
X168616550Y-121374556D01*
X168628801Y-121373954D01*
X168647139Y-121372148D01*
X169134860Y-121372148D01*
X169150999Y-121373737D01*
X169150999Y-121373737D01*
G37*
G36*
X169150999Y-118960737D02*
G01*
X169160608Y-118963652D01*
X169169472Y-118968390D01*
X169177237Y-118974763D01*
X169187448Y-118987206D01*
X169194378Y-118997575D01*
X169211705Y-119014902D01*
X169232080Y-119028515D01*
X169254720Y-119037891D01*
X169278753Y-119042671D01*
X169303257Y-119042670D01*
X169327290Y-119037888D01*
X169349929Y-119028510D01*
X169370302Y-119014895D01*
X169387629Y-118997568D01*
X169394558Y-118987198D01*
X169404763Y-118974763D01*
X169412528Y-118968390D01*
X169421392Y-118963652D01*
X169431001Y-118960737D01*
X169447140Y-118959148D01*
X169934861Y-118959148D01*
X169953199Y-118960954D01*
X169965450Y-118961556D01*
X169983869Y-118961556D01*
X170006149Y-118963750D01*
X170090233Y-118980476D01*
X170111660Y-118986976D01*
X170190858Y-119019780D01*
X170196303Y-119022691D01*
X170196309Y-119022693D01*
X170205169Y-119027429D01*
X170205173Y-119027432D01*
X170210614Y-119030340D01*
X170281899Y-119077971D01*
X170299204Y-119092172D01*
X170359828Y-119152796D01*
X170374029Y-119170101D01*
X170421660Y-119241386D01*
X170424568Y-119246827D01*
X170424571Y-119246831D01*
X170429307Y-119255691D01*
X170429309Y-119255697D01*
X170432220Y-119261142D01*
X170465024Y-119340340D01*
X170471524Y-119361767D01*
X170488250Y-119445851D01*
X170490444Y-119468131D01*
X170490444Y-119486550D01*
X170491046Y-119498801D01*
X170492852Y-119517139D01*
X170492852Y-120004862D01*
X170491046Y-120023199D01*
X170490444Y-120035450D01*
X170490444Y-120053869D01*
X170488250Y-120076149D01*
X170471524Y-120160233D01*
X170465024Y-120181660D01*
X170432220Y-120260858D01*
X170429309Y-120266303D01*
X170429307Y-120266309D01*
X170424571Y-120275169D01*
X170424568Y-120275173D01*
X170421660Y-120280614D01*
X170374029Y-120351899D01*
X170359828Y-120369204D01*
X170299204Y-120429828D01*
X170281899Y-120444029D01*
X170210614Y-120491660D01*
X170205173Y-120494568D01*
X170205169Y-120494571D01*
X170196309Y-120499307D01*
X170196303Y-120499309D01*
X170190858Y-120502220D01*
X170111660Y-120535024D01*
X170090233Y-120541524D01*
X170006149Y-120558250D01*
X169983869Y-120560444D01*
X169965450Y-120560444D01*
X169953199Y-120561046D01*
X169934862Y-120562852D01*
X169447140Y-120562852D01*
X169431001Y-120561263D01*
X169421392Y-120558348D01*
X169412528Y-120553610D01*
X169404763Y-120547237D01*
X169394552Y-120534794D01*
X169387622Y-120524425D01*
X169370295Y-120507098D01*
X169349920Y-120493485D01*
X169327280Y-120484109D01*
X169303247Y-120479329D01*
X169278743Y-120479330D01*
X169254710Y-120484112D01*
X169232071Y-120493490D01*
X169211698Y-120507105D01*
X169194371Y-120524432D01*
X169187442Y-120534802D01*
X169177237Y-120547237D01*
X169169472Y-120553610D01*
X169160608Y-120558348D01*
X169150999Y-120561263D01*
X169134860Y-120562852D01*
X168647138Y-120562852D01*
X168628801Y-120561046D01*
X168616550Y-120560444D01*
X168598131Y-120560444D01*
X168575851Y-120558250D01*
X168491767Y-120541524D01*
X168470340Y-120535024D01*
X168391142Y-120502220D01*
X168385697Y-120499309D01*
X168385691Y-120499307D01*
X168376831Y-120494571D01*
X168376827Y-120494568D01*
X168371386Y-120491660D01*
X168300101Y-120444029D01*
X168282796Y-120429828D01*
X168222172Y-120369204D01*
X168207971Y-120351899D01*
X168160340Y-120280614D01*
X168157432Y-120275173D01*
X168157429Y-120275169D01*
X168152693Y-120266309D01*
X168152691Y-120266303D01*
X168149780Y-120260858D01*
X168116976Y-120181660D01*
X168110476Y-120160233D01*
X168093750Y-120076149D01*
X168091556Y-120053869D01*
X168091556Y-120035450D01*
X168090954Y-120023199D01*
X168089148Y-120004862D01*
X168089148Y-119517139D01*
X168090954Y-119498801D01*
X168091556Y-119486550D01*
X168091556Y-119468131D01*
X168093750Y-119445851D01*
X168110476Y-119361767D01*
X168116976Y-119340340D01*
X168149780Y-119261142D01*
X168152691Y-119255697D01*
X168152693Y-119255691D01*
X168157429Y-119246831D01*
X168157432Y-119246827D01*
X168160340Y-119241386D01*
X168207971Y-119170101D01*
X168222172Y-119152796D01*
X168282796Y-119092172D01*
X168300101Y-119077971D01*
X168371386Y-119030340D01*
X168376827Y-119027432D01*
X168376831Y-119027429D01*
X168385691Y-119022693D01*
X168385697Y-119022691D01*
X168391142Y-119019780D01*
X168470340Y-118986976D01*
X168491767Y-118980476D01*
X168575851Y-118963750D01*
X168598131Y-118961556D01*
X168616550Y-118961556D01*
X168628801Y-118960954D01*
X168647139Y-118959148D01*
X169134860Y-118959148D01*
X169150999Y-118960737D01*
X169150999Y-118960737D01*
G37*
G36*
X121533600Y-105782989D02*
G01*
X121566652Y-105793015D01*
X121597103Y-105809292D01*
X121623799Y-105831201D01*
X121645708Y-105857897D01*
X121661985Y-105888348D01*
X121672011Y-105921400D01*
X121676000Y-105961903D01*
X121676000Y-107398097D01*
X121672011Y-107438600D01*
X121661985Y-107471652D01*
X121645708Y-107502103D01*
X121623799Y-107528799D01*
X121597103Y-107550708D01*
X121566652Y-107566985D01*
X121533600Y-107577011D01*
X121493097Y-107581000D01*
X119806903Y-107581000D01*
X119766400Y-107577011D01*
X119733348Y-107566985D01*
X119702897Y-107550708D01*
X119676201Y-107528799D01*
X119654292Y-107502103D01*
X119638015Y-107471652D01*
X119627989Y-107438600D01*
X119624000Y-107398097D01*
X119624000Y-105961903D01*
X119627989Y-105921400D01*
X119638015Y-105888348D01*
X119654292Y-105857897D01*
X119676201Y-105831201D01*
X119702897Y-105809292D01*
X119733348Y-105793015D01*
X119766400Y-105782989D01*
X119806903Y-105779000D01*
X121493097Y-105779000D01*
X121533600Y-105782989D01*
X121533600Y-105782989D01*
G37*
G36*
X166605442Y-105665518D02*
G01*
X166671627Y-105672037D01*
X166841466Y-105723557D01*
X166997991Y-105807222D01*
X167027209Y-105831201D01*
X167135186Y-105919814D01*
X167218448Y-106021271D01*
X167247778Y-106057009D01*
X167331443Y-106213534D01*
X167382963Y-106383373D01*
X167400359Y-106560000D01*
X167382963Y-106736627D01*
X167331443Y-106906466D01*
X167247778Y-107062991D01*
X167218448Y-107098729D01*
X167135186Y-107200186D01*
X167033729Y-107283448D01*
X166997991Y-107312778D01*
X166841466Y-107396443D01*
X166671627Y-107447963D01*
X166605443Y-107454481D01*
X166539260Y-107461000D01*
X166200740Y-107461000D01*
X166134557Y-107454481D01*
X166068373Y-107447963D01*
X165898534Y-107396443D01*
X165742009Y-107312778D01*
X165706271Y-107283448D01*
X165604814Y-107200186D01*
X165521552Y-107098729D01*
X165492222Y-107062991D01*
X165408557Y-106906466D01*
X165357037Y-106736627D01*
X165339641Y-106560000D01*
X165357037Y-106383373D01*
X165408557Y-106213534D01*
X165492222Y-106057009D01*
X165521552Y-106021271D01*
X165604814Y-105919814D01*
X165712791Y-105831201D01*
X165742009Y-105807222D01*
X165898534Y-105723557D01*
X166068373Y-105672037D01*
X166134558Y-105665518D01*
X166200740Y-105659000D01*
X166539260Y-105659000D01*
X166605442Y-105665518D01*
X166605442Y-105665518D01*
G37*
G36*
X120885443Y-103285519D02*
G01*
X120951627Y-103292037D01*
X121121466Y-103343557D01*
X121277991Y-103427222D01*
X121313729Y-103456552D01*
X121415186Y-103539814D01*
X121498448Y-103641271D01*
X121527778Y-103677009D01*
X121611443Y-103833534D01*
X121662963Y-104003373D01*
X121680359Y-104180000D01*
X121662963Y-104356627D01*
X121611443Y-104526466D01*
X121527778Y-104682991D01*
X121513667Y-104700185D01*
X121415186Y-104820186D01*
X121322266Y-104896442D01*
X121277991Y-104932778D01*
X121121466Y-105016443D01*
X120951627Y-105067963D01*
X120885443Y-105074481D01*
X120819260Y-105081000D01*
X120480740Y-105081000D01*
X120414557Y-105074481D01*
X120348373Y-105067963D01*
X120178534Y-105016443D01*
X120022009Y-104932778D01*
X119977734Y-104896442D01*
X119884814Y-104820186D01*
X119786333Y-104700185D01*
X119772222Y-104682991D01*
X119688557Y-104526466D01*
X119637037Y-104356627D01*
X119619641Y-104180000D01*
X119637037Y-104003373D01*
X119688557Y-103833534D01*
X119772222Y-103677009D01*
X119801552Y-103641271D01*
X119884814Y-103539814D01*
X119986271Y-103456552D01*
X120022009Y-103427222D01*
X120178534Y-103343557D01*
X120348373Y-103292037D01*
X120414557Y-103285519D01*
X120480740Y-103279000D01*
X120819260Y-103279000D01*
X120885443Y-103285519D01*
X120885443Y-103285519D01*
G37*
G36*
X166605442Y-103165518D02*
G01*
X166671627Y-103172037D01*
X166841466Y-103223557D01*
X166997991Y-103307222D01*
X167033729Y-103336552D01*
X167135186Y-103419814D01*
X167218448Y-103521271D01*
X167247778Y-103557009D01*
X167331443Y-103713534D01*
X167382963Y-103883373D01*
X167400359Y-104060000D01*
X167382963Y-104236627D01*
X167331443Y-104406466D01*
X167247778Y-104562991D01*
X167218448Y-104598729D01*
X167135186Y-104700186D01*
X167033729Y-104783448D01*
X166997991Y-104812778D01*
X166841466Y-104896443D01*
X166671627Y-104947963D01*
X166605443Y-104954481D01*
X166539260Y-104961000D01*
X166200740Y-104961000D01*
X166134557Y-104954481D01*
X166068373Y-104947963D01*
X165898534Y-104896443D01*
X165742009Y-104812778D01*
X165706271Y-104783448D01*
X165604814Y-104700186D01*
X165521552Y-104598729D01*
X165492222Y-104562991D01*
X165408557Y-104406466D01*
X165357037Y-104236627D01*
X165339641Y-104060000D01*
X165357037Y-103883373D01*
X165408557Y-103713534D01*
X165492222Y-103557009D01*
X165521552Y-103521271D01*
X165604814Y-103419814D01*
X165706271Y-103336552D01*
X165742009Y-103307222D01*
X165898534Y-103223557D01*
X166068373Y-103172037D01*
X166134558Y-103165518D01*
X166200740Y-103159000D01*
X166539260Y-103159000D01*
X166605442Y-103165518D01*
X166605442Y-103165518D01*
G37*
G36*
X120885442Y-100785518D02*
G01*
X120951627Y-100792037D01*
X121121466Y-100843557D01*
X121277991Y-100927222D01*
X121313729Y-100956552D01*
X121415186Y-101039814D01*
X121498448Y-101141271D01*
X121527778Y-101177009D01*
X121611443Y-101333534D01*
X121662963Y-101503373D01*
X121680359Y-101680000D01*
X121662963Y-101856627D01*
X121611443Y-102026466D01*
X121527778Y-102182991D01*
X121513667Y-102200185D01*
X121415186Y-102320186D01*
X121322266Y-102396442D01*
X121277991Y-102432778D01*
X121121466Y-102516443D01*
X120951627Y-102567963D01*
X120885443Y-102574481D01*
X120819260Y-102581000D01*
X120480740Y-102581000D01*
X120414557Y-102574481D01*
X120348373Y-102567963D01*
X120178534Y-102516443D01*
X120022009Y-102432778D01*
X119977734Y-102396442D01*
X119884814Y-102320186D01*
X119786333Y-102200185D01*
X119772222Y-102182991D01*
X119688557Y-102026466D01*
X119637037Y-101856627D01*
X119619641Y-101680000D01*
X119637037Y-101503373D01*
X119688557Y-101333534D01*
X119772222Y-101177009D01*
X119801552Y-101141271D01*
X119884814Y-101039814D01*
X119986271Y-100956552D01*
X120022009Y-100927222D01*
X120178534Y-100843557D01*
X120348373Y-100792037D01*
X120414558Y-100785518D01*
X120480740Y-100779000D01*
X120819260Y-100779000D01*
X120885442Y-100785518D01*
X120885442Y-100785518D01*
G37*
G36*
X166605442Y-100665518D02*
G01*
X166671627Y-100672037D01*
X166841466Y-100723557D01*
X166997991Y-100807222D01*
X167033729Y-100836552D01*
X167135186Y-100919814D01*
X167218448Y-101021271D01*
X167247778Y-101057009D01*
X167331443Y-101213534D01*
X167382963Y-101383373D01*
X167400359Y-101560000D01*
X167382963Y-101736627D01*
X167331443Y-101906466D01*
X167247778Y-102062991D01*
X167218448Y-102098729D01*
X167135186Y-102200186D01*
X167033729Y-102283448D01*
X166997991Y-102312778D01*
X166841466Y-102396443D01*
X166671627Y-102447963D01*
X166605443Y-102454481D01*
X166539260Y-102461000D01*
X166200740Y-102461000D01*
X166134557Y-102454481D01*
X166068373Y-102447963D01*
X165898534Y-102396443D01*
X165742009Y-102312778D01*
X165706271Y-102283448D01*
X165604814Y-102200186D01*
X165521552Y-102098729D01*
X165492222Y-102062991D01*
X165408557Y-101906466D01*
X165357037Y-101736627D01*
X165339641Y-101560000D01*
X165357037Y-101383373D01*
X165408557Y-101213534D01*
X165492222Y-101057009D01*
X165521552Y-101021271D01*
X165604814Y-100919814D01*
X165706271Y-100836552D01*
X165742009Y-100807222D01*
X165898534Y-100723557D01*
X166068373Y-100672037D01*
X166134558Y-100665518D01*
X166200740Y-100659000D01*
X166539260Y-100659000D01*
X166605442Y-100665518D01*
X166605442Y-100665518D01*
G37*
G36*
X120885442Y-98285518D02*
G01*
X120951627Y-98292037D01*
X121121466Y-98343557D01*
X121277991Y-98427222D01*
X121313729Y-98456552D01*
X121415186Y-98539814D01*
X121498448Y-98641271D01*
X121527778Y-98677009D01*
X121611443Y-98833534D01*
X121662963Y-99003373D01*
X121680359Y-99180000D01*
X121662963Y-99356627D01*
X121611443Y-99526466D01*
X121527778Y-99682991D01*
X121498448Y-99718729D01*
X121415186Y-99820186D01*
X121338179Y-99883383D01*
X121277991Y-99932778D01*
X121121466Y-100016443D01*
X120951627Y-100067963D01*
X120885443Y-100074481D01*
X120819260Y-100081000D01*
X120480740Y-100081000D01*
X120414557Y-100074481D01*
X120348373Y-100067963D01*
X120178534Y-100016443D01*
X120022009Y-99932778D01*
X119961821Y-99883383D01*
X119884814Y-99820186D01*
X119801552Y-99718729D01*
X119772222Y-99682991D01*
X119688557Y-99526466D01*
X119637037Y-99356627D01*
X119619641Y-99180000D01*
X119637037Y-99003373D01*
X119688557Y-98833534D01*
X119772222Y-98677009D01*
X119801552Y-98641271D01*
X119884814Y-98539814D01*
X119986271Y-98456552D01*
X120022009Y-98427222D01*
X120178534Y-98343557D01*
X120348373Y-98292037D01*
X120414558Y-98285518D01*
X120480740Y-98279000D01*
X120819260Y-98279000D01*
X120885442Y-98285518D01*
X120885442Y-98285518D01*
G37*
G36*
X167253600Y-98162989D02*
G01*
X167286652Y-98173015D01*
X167317103Y-98189292D01*
X167343799Y-98211201D01*
X167365708Y-98237897D01*
X167381985Y-98268348D01*
X167392011Y-98301400D01*
X167396000Y-98341903D01*
X167396000Y-99778097D01*
X167392011Y-99818600D01*
X167381985Y-99851652D01*
X167365708Y-99882103D01*
X167343799Y-99908799D01*
X167317103Y-99930708D01*
X167286652Y-99946985D01*
X167253600Y-99957011D01*
X167213097Y-99961000D01*
X165526903Y-99961000D01*
X165486400Y-99957011D01*
X165453348Y-99946985D01*
X165422897Y-99930708D01*
X165396201Y-99908799D01*
X165374292Y-99882103D01*
X165358015Y-99851652D01*
X165347989Y-99818600D01*
X165344000Y-99778097D01*
X165344000Y-98341903D01*
X165347989Y-98301400D01*
X165358015Y-98268348D01*
X165374292Y-98237897D01*
X165396201Y-98211201D01*
X165422897Y-98189292D01*
X165453348Y-98173015D01*
X165486400Y-98162989D01*
X165526903Y-98159000D01*
X167213097Y-98159000D01*
X167253600Y-98162989D01*
X167253600Y-98162989D01*
G37*
G36*
X164575443Y-90545519D02*
G01*
X164641627Y-90552037D01*
X164811466Y-90603557D01*
X164967991Y-90687222D01*
X165003729Y-90716552D01*
X165105186Y-90799814D01*
X165188448Y-90901271D01*
X165217778Y-90937009D01*
X165301443Y-91093534D01*
X165352963Y-91263373D01*
X165370359Y-91440000D01*
X165352963Y-91616627D01*
X165301443Y-91786466D01*
X165217778Y-91942991D01*
X165188448Y-91978729D01*
X165105186Y-92080186D01*
X165003729Y-92163448D01*
X164967991Y-92192778D01*
X164811466Y-92276443D01*
X164641627Y-92327963D01*
X164575443Y-92334481D01*
X164509260Y-92341000D01*
X164420740Y-92341000D01*
X164354557Y-92334481D01*
X164288373Y-92327963D01*
X164118534Y-92276443D01*
X163962009Y-92192778D01*
X163926271Y-92163448D01*
X163824814Y-92080186D01*
X163741552Y-91978729D01*
X163712222Y-91942991D01*
X163628557Y-91786466D01*
X163577037Y-91616627D01*
X163559641Y-91440000D01*
X163577037Y-91263373D01*
X163628557Y-91093534D01*
X163712222Y-90937009D01*
X163741552Y-90901271D01*
X163824814Y-90799814D01*
X163926271Y-90716552D01*
X163962009Y-90687222D01*
X164118534Y-90603557D01*
X164288373Y-90552037D01*
X164354558Y-90545518D01*
X164420740Y-90539000D01*
X164509260Y-90539000D01*
X164575443Y-90545519D01*
X164575443Y-90545519D01*
G37*
G36*
X164575443Y-88005519D02*
G01*
X164641627Y-88012037D01*
X164811466Y-88063557D01*
X164967991Y-88147222D01*
X165003729Y-88176552D01*
X165105186Y-88259814D01*
X165188448Y-88361271D01*
X165217778Y-88397009D01*
X165301443Y-88553534D01*
X165352963Y-88723373D01*
X165370359Y-88900000D01*
X165352963Y-89076627D01*
X165301443Y-89246466D01*
X165217778Y-89402991D01*
X165188448Y-89438729D01*
X165105186Y-89540186D01*
X165003729Y-89623448D01*
X164967991Y-89652778D01*
X164811466Y-89736443D01*
X164641627Y-89787963D01*
X164575443Y-89794481D01*
X164509260Y-89801000D01*
X164420740Y-89801000D01*
X164354557Y-89794481D01*
X164288373Y-89787963D01*
X164118534Y-89736443D01*
X163962009Y-89652778D01*
X163926271Y-89623448D01*
X163824814Y-89540186D01*
X163741552Y-89438729D01*
X163712222Y-89402991D01*
X163628557Y-89246466D01*
X163577037Y-89076627D01*
X163559641Y-88900000D01*
X163577037Y-88723373D01*
X163628557Y-88553534D01*
X163712222Y-88397009D01*
X163741552Y-88361271D01*
X163824814Y-88259814D01*
X163926271Y-88176552D01*
X163962009Y-88147222D01*
X164118534Y-88063557D01*
X164288373Y-88012037D01*
X164354557Y-88005519D01*
X164420740Y-87999000D01*
X164509260Y-87999000D01*
X164575443Y-88005519D01*
X164575443Y-88005519D01*
G37*
G36*
X165366000Y-87261000D02*
G01*
X163564000Y-87261000D01*
X163564000Y-85459000D01*
X165366000Y-85459000D01*
X165366000Y-87261000D01*
X165366000Y-87261000D01*
G37*
G36*
X168909239Y-74916467D02*
G01*
X169223282Y-74978934D01*
X169814926Y-75224001D01*
X170146950Y-75445853D01*
X170347391Y-75579783D01*
X170800217Y-76032609D01*
X170858909Y-76120448D01*
X171155999Y-76565074D01*
X171336565Y-77001000D01*
X171401066Y-77156719D01*
X171526000Y-77784803D01*
X171526000Y-78425197D01*
X171463533Y-78739239D01*
X171401066Y-79053282D01*
X171155999Y-79644926D01*
X170800216Y-80177392D01*
X170347392Y-80630216D01*
X169814926Y-80985999D01*
X169223282Y-81231066D01*
X168909239Y-81293533D01*
X168595197Y-81356000D01*
X167954803Y-81356000D01*
X167640761Y-81293533D01*
X167326718Y-81231066D01*
X166735074Y-80985999D01*
X166202608Y-80630216D01*
X165749784Y-80177392D01*
X165394001Y-79644926D01*
X165148934Y-79053282D01*
X165086467Y-78739239D01*
X165024000Y-78425197D01*
X165024000Y-77784803D01*
X165148934Y-77156719D01*
X165213435Y-77001000D01*
X165394001Y-76565074D01*
X165691091Y-76120448D01*
X165749783Y-76032609D01*
X166202609Y-75579783D01*
X166403050Y-75445853D01*
X166735074Y-75224001D01*
X167326718Y-74978934D01*
X167640761Y-74916467D01*
X167954803Y-74854000D01*
X168595197Y-74854000D01*
X168909239Y-74916467D01*
X168909239Y-74916467D01*
G37*
G36*
X119379239Y-74916467D02*
G01*
X119693282Y-74978934D01*
X120284926Y-75224001D01*
X120616950Y-75445853D01*
X120817391Y-75579783D01*
X121270217Y-76032609D01*
X121328909Y-76120448D01*
X121625999Y-76565074D01*
X121806565Y-77001000D01*
X121871066Y-77156719D01*
X121996000Y-77784803D01*
X121996000Y-78425197D01*
X121933533Y-78739239D01*
X121871066Y-79053282D01*
X121625999Y-79644926D01*
X121270216Y-80177392D01*
X120817392Y-80630216D01*
X120284926Y-80985999D01*
X119693282Y-81231066D01*
X119379239Y-81293533D01*
X119065197Y-81356000D01*
X118424803Y-81356000D01*
X118110761Y-81293533D01*
X117796718Y-81231066D01*
X117205074Y-80985999D01*
X116672608Y-80630216D01*
X116219784Y-80177392D01*
X115864001Y-79644926D01*
X115618934Y-79053282D01*
X115556467Y-78739239D01*
X115494000Y-78425197D01*
X115494000Y-77784803D01*
X115618934Y-77156719D01*
X115683435Y-77001000D01*
X115864001Y-76565074D01*
X116161091Y-76120448D01*
X116219783Y-76032609D01*
X116672609Y-75579783D01*
X116873050Y-75445853D01*
X117205074Y-75224001D01*
X117796718Y-74978934D01*
X118110761Y-74916467D01*
X118424803Y-74854000D01*
X119065197Y-74854000D01*
X119379239Y-74916467D01*
X119379239Y-74916467D01*
G37*
G36*
X142376626Y-78997037D02*
G01*
X142546465Y-79048557D01*
X142546467Y-79048558D01*
X142702989Y-79132221D01*
X142840186Y-79244814D01*
X142923448Y-79346271D01*
X142952778Y-79382009D01*
X143036443Y-79538534D01*
X143087963Y-79708373D01*
X143101000Y-79840742D01*
X143101000Y-80179257D01*
X143087963Y-80311626D01*
X143036443Y-80481466D01*
X142952778Y-80637991D01*
X142923448Y-80673729D01*
X142840186Y-80775186D01*
X142745250Y-80853097D01*
X142702991Y-80887778D01*
X142546466Y-80971443D01*
X142376627Y-81022963D01*
X142200000Y-81040359D01*
X142023374Y-81022963D01*
X141853535Y-80971443D01*
X141697010Y-80887778D01*
X141559815Y-80775185D01*
X141447222Y-80637991D01*
X141363557Y-80481466D01*
X141312037Y-80311627D01*
X141299000Y-80179258D01*
X141299000Y-79840743D01*
X141312037Y-79708374D01*
X141363557Y-79538535D01*
X141447222Y-79382010D01*
X141472625Y-79351056D01*
X141559814Y-79244814D01*
X141661271Y-79161552D01*
X141697009Y-79132222D01*
X141853534Y-79048557D01*
X142023373Y-78997037D01*
X142200000Y-78979641D01*
X142376626Y-78997037D01*
X142376626Y-78997037D01*
G37*
G36*
X144876626Y-78997037D02*
G01*
X145046465Y-79048557D01*
X145046467Y-79048558D01*
X145202989Y-79132221D01*
X145340186Y-79244814D01*
X145423448Y-79346271D01*
X145452778Y-79382009D01*
X145536443Y-79538534D01*
X145587963Y-79708373D01*
X145601000Y-79840742D01*
X145601000Y-80179257D01*
X145587963Y-80311626D01*
X145536443Y-80481466D01*
X145452778Y-80637991D01*
X145423448Y-80673729D01*
X145340186Y-80775186D01*
X145245250Y-80853097D01*
X145202991Y-80887778D01*
X145046466Y-80971443D01*
X144876627Y-81022963D01*
X144700000Y-81040359D01*
X144523374Y-81022963D01*
X144353535Y-80971443D01*
X144197010Y-80887778D01*
X144059815Y-80775185D01*
X143947222Y-80637991D01*
X143863557Y-80481466D01*
X143812037Y-80311627D01*
X143799000Y-80179258D01*
X143799000Y-79840743D01*
X143812037Y-79708374D01*
X143863557Y-79538535D01*
X143947222Y-79382010D01*
X143972625Y-79351056D01*
X144059814Y-79244814D01*
X144161271Y-79161552D01*
X144197009Y-79132222D01*
X144353534Y-79048557D01*
X144523373Y-78997037D01*
X144700000Y-78979641D01*
X144876626Y-78997037D01*
X144876626Y-78997037D01*
G37*
G36*
X147376626Y-78997037D02*
G01*
X147546465Y-79048557D01*
X147546467Y-79048558D01*
X147702989Y-79132221D01*
X147840186Y-79244814D01*
X147923448Y-79346271D01*
X147952778Y-79382009D01*
X148036443Y-79538534D01*
X148087963Y-79708373D01*
X148101000Y-79840742D01*
X148101000Y-80179257D01*
X148087963Y-80311626D01*
X148036443Y-80481466D01*
X147952778Y-80637991D01*
X147923448Y-80673729D01*
X147840186Y-80775186D01*
X147745250Y-80853097D01*
X147702991Y-80887778D01*
X147546466Y-80971443D01*
X147376627Y-81022963D01*
X147200000Y-81040359D01*
X147023374Y-81022963D01*
X146853535Y-80971443D01*
X146697010Y-80887778D01*
X146559815Y-80775185D01*
X146447222Y-80637991D01*
X146363557Y-80481466D01*
X146312037Y-80311627D01*
X146299000Y-80179258D01*
X146299000Y-79840743D01*
X146312037Y-79708374D01*
X146363557Y-79538535D01*
X146447222Y-79382010D01*
X146472625Y-79351056D01*
X146559814Y-79244814D01*
X146661271Y-79161552D01*
X146697009Y-79132222D01*
X146853534Y-79048557D01*
X147023373Y-78997037D01*
X147200000Y-78979641D01*
X147376626Y-78997037D01*
X147376626Y-78997037D01*
G37*
G36*
X140458600Y-78987989D02*
G01*
X140491652Y-78998015D01*
X140522103Y-79014292D01*
X140548799Y-79036201D01*
X140570708Y-79062897D01*
X140586985Y-79093348D01*
X140597011Y-79126400D01*
X140601000Y-79166903D01*
X140601000Y-80853097D01*
X140597011Y-80893600D01*
X140586985Y-80926652D01*
X140570708Y-80957103D01*
X140548799Y-80983799D01*
X140522103Y-81005708D01*
X140491652Y-81021985D01*
X140458600Y-81032011D01*
X140418097Y-81036000D01*
X138981903Y-81036000D01*
X138941400Y-81032011D01*
X138908348Y-81021985D01*
X138877897Y-81005708D01*
X138851201Y-80983799D01*
X138829292Y-80957103D01*
X138813015Y-80926652D01*
X138802989Y-80893600D01*
X138799000Y-80853097D01*
X138799000Y-79166903D01*
X138802989Y-79126400D01*
X138813015Y-79093348D01*
X138829292Y-79062897D01*
X138851201Y-79036201D01*
X138877897Y-79014292D01*
X138908348Y-78998015D01*
X138941400Y-78987989D01*
X138981903Y-78984000D01*
X140418097Y-78984000D01*
X140458600Y-78987989D01*
X140458600Y-78987989D01*
G37*
G36*
X162633228Y-75381703D02*
G01*
X162788100Y-75445853D01*
X162927481Y-75538985D01*
X163046015Y-75657519D01*
X163139147Y-75796900D01*
X163203297Y-75951772D01*
X163236000Y-76116184D01*
X163236000Y-76283816D01*
X163203297Y-76448228D01*
X163139147Y-76603100D01*
X163046015Y-76742481D01*
X162927481Y-76861015D01*
X162788100Y-76954147D01*
X162633228Y-77018297D01*
X162468816Y-77051000D01*
X162301184Y-77051000D01*
X162136772Y-77018297D01*
X161981900Y-76954147D01*
X161842519Y-76861015D01*
X161723985Y-76742481D01*
X161630853Y-76603100D01*
X161566703Y-76448228D01*
X161534000Y-76283816D01*
X161534000Y-76116184D01*
X161566703Y-75951772D01*
X161630853Y-75796900D01*
X161723985Y-75657519D01*
X161842519Y-75538985D01*
X161981900Y-75445853D01*
X162136772Y-75381703D01*
X162301184Y-75349000D01*
X162468816Y-75349000D01*
X162633228Y-75381703D01*
X162633228Y-75381703D01*
G37*
G36*
X159633228Y-75381703D02*
G01*
X159788100Y-75445853D01*
X159927481Y-75538985D01*
X160046015Y-75657519D01*
X160139147Y-75796900D01*
X160203297Y-75951772D01*
X160236000Y-76116184D01*
X160236000Y-76283816D01*
X160203297Y-76448228D01*
X160139147Y-76603100D01*
X160046015Y-76742481D01*
X159927481Y-76861015D01*
X159788100Y-76954147D01*
X159633228Y-77018297D01*
X159468816Y-77051000D01*
X159301184Y-77051000D01*
X159136772Y-77018297D01*
X158981900Y-76954147D01*
X158842519Y-76861015D01*
X158723985Y-76742481D01*
X158630853Y-76603100D01*
X158566703Y-76448228D01*
X158534000Y-76283816D01*
X158534000Y-76116184D01*
X158566703Y-75951772D01*
X158630853Y-75796900D01*
X158723985Y-75657519D01*
X158842519Y-75538985D01*
X158981900Y-75445853D01*
X159136772Y-75381703D01*
X159301184Y-75349000D01*
X159468816Y-75349000D01*
X159633228Y-75381703D01*
X159633228Y-75381703D01*
G37*
G36*
X152566000Y-77001000D02*
G01*
X150964000Y-77001000D01*
X150964000Y-75399000D01*
X152566000Y-75399000D01*
X152566000Y-77001000D01*
X152566000Y-77001000D01*
G37*
G36*
X154538642Y-75429781D02*
G01*
X154684414Y-75490162D01*
X154684416Y-75490163D01*
X154815608Y-75577822D01*
X154927178Y-75689392D01*
X154967287Y-75749420D01*
X155014838Y-75820586D01*
X155075219Y-75966358D01*
X155106000Y-76121107D01*
X155106000Y-76278893D01*
X155075219Y-76433642D01*
X155020778Y-76565074D01*
X155014837Y-76579416D01*
X154927178Y-76710608D01*
X154815608Y-76822178D01*
X154684416Y-76909837D01*
X154684415Y-76909838D01*
X154684414Y-76909838D01*
X154538642Y-76970219D01*
X154383893Y-77001000D01*
X154226107Y-77001000D01*
X154071358Y-76970219D01*
X153925586Y-76909838D01*
X153925585Y-76909838D01*
X153925584Y-76909837D01*
X153794392Y-76822178D01*
X153682822Y-76710608D01*
X153595163Y-76579416D01*
X153589222Y-76565074D01*
X153534781Y-76433642D01*
X153504000Y-76278893D01*
X153504000Y-76121107D01*
X153534781Y-75966358D01*
X153595162Y-75820586D01*
X153642713Y-75749420D01*
X153682822Y-75689392D01*
X153794392Y-75577822D01*
X153925584Y-75490163D01*
X153925586Y-75490162D01*
X154071358Y-75429781D01*
X154226107Y-75399000D01*
X154383893Y-75399000D01*
X154538642Y-75429781D01*
X154538642Y-75429781D01*
G37*
G36*
X157078642Y-75429781D02*
G01*
X157224414Y-75490162D01*
X157224416Y-75490163D01*
X157355608Y-75577822D01*
X157467178Y-75689392D01*
X157507287Y-75749420D01*
X157554838Y-75820586D01*
X157615219Y-75966358D01*
X157646000Y-76121107D01*
X157646000Y-76278893D01*
X157615219Y-76433642D01*
X157560778Y-76565074D01*
X157554837Y-76579416D01*
X157467178Y-76710608D01*
X157355608Y-76822178D01*
X157224416Y-76909837D01*
X157224415Y-76909838D01*
X157224414Y-76909838D01*
X157078642Y-76970219D01*
X156923893Y-77001000D01*
X156766107Y-77001000D01*
X156611358Y-76970219D01*
X156465586Y-76909838D01*
X156465585Y-76909838D01*
X156465584Y-76909837D01*
X156334392Y-76822178D01*
X156222822Y-76710608D01*
X156135163Y-76579416D01*
X156129222Y-76565074D01*
X156074781Y-76433642D01*
X156044000Y-76278893D01*
X156044000Y-76121107D01*
X156074781Y-75966358D01*
X156135162Y-75820586D01*
X156182713Y-75749420D01*
X156222822Y-75689392D01*
X156334392Y-75577822D01*
X156465584Y-75490163D01*
X156465586Y-75490162D01*
X156611358Y-75429781D01*
X156766107Y-75399000D01*
X156923893Y-75399000D01*
X157078642Y-75429781D01*
X157078642Y-75429781D01*
G37*
M02*
