G04 #@! TF.GenerationSoftware,KiCad,Pcbnew,(5.1.4)-1*
G04 #@! TF.CreationDate,2021-03-18T17:14:36+01:00*
G04 #@! TF.ProjectId,ESPCraft,45535043-7261-4667-942e-6b696361645f,rev?*
G04 #@! TF.SameCoordinates,Original*
G04 #@! TF.FileFunction,Soldermask,Top*
G04 #@! TF.FilePolarity,Negative*
%FSLAX46Y46*%
G04 Gerber Fmt 4.6, Leading zero omitted, Abs format (unit mm)*
G04 Created by KiCad (PCBNEW (5.1.4)-1) date 2021-03-18 17:14:36*
%MOMM*%
%LPD*%
G04 APERTURE LIST*
%ADD10C,0.100000*%
G04 APERTURE END LIST*
D10*
G36*
X136656000Y-132291000D02*
G01*
X135454000Y-132291000D01*
X135454000Y-130889000D01*
X136656000Y-130889000D01*
X136656000Y-132291000D01*
X136656000Y-132291000D01*
G37*
G36*
X151566000Y-132291000D02*
G01*
X150364000Y-132291000D01*
X150364000Y-130889000D01*
X151566000Y-130889000D01*
X151566000Y-132291000D01*
X151566000Y-132291000D01*
G37*
G36*
X153166000Y-132291000D02*
G01*
X151964000Y-132291000D01*
X151964000Y-130889000D01*
X153166000Y-130889000D01*
X153166000Y-132291000D01*
X153166000Y-132291000D01*
G37*
G36*
X135056000Y-132291000D02*
G01*
X133854000Y-132291000D01*
X133854000Y-130889000D01*
X135056000Y-130889000D01*
X135056000Y-132291000D01*
X135056000Y-132291000D01*
G37*
G36*
X161019499Y-131113445D02*
G01*
X161056995Y-131124820D01*
X161091554Y-131143292D01*
X161121847Y-131168153D01*
X161146708Y-131198446D01*
X161165180Y-131233005D01*
X161176555Y-131270501D01*
X161181000Y-131315638D01*
X161181000Y-132054362D01*
X161176555Y-132099499D01*
X161165180Y-132136995D01*
X161146708Y-132171554D01*
X161121847Y-132201847D01*
X161091554Y-132226708D01*
X161056995Y-132245180D01*
X161019499Y-132256555D01*
X160974362Y-132261000D01*
X160335638Y-132261000D01*
X160290501Y-132256555D01*
X160253005Y-132245180D01*
X160218446Y-132226708D01*
X160188153Y-132201847D01*
X160163292Y-132171554D01*
X160144820Y-132136995D01*
X160133445Y-132099499D01*
X160129000Y-132054362D01*
X160129000Y-131315638D01*
X160133445Y-131270501D01*
X160144820Y-131233005D01*
X160163292Y-131198446D01*
X160188153Y-131168153D01*
X160218446Y-131143292D01*
X160253005Y-131124820D01*
X160290501Y-131113445D01*
X160335638Y-131109000D01*
X160974362Y-131109000D01*
X161019499Y-131113445D01*
X161019499Y-131113445D01*
G37*
G36*
X159114499Y-131113445D02*
G01*
X159151995Y-131124820D01*
X159186554Y-131143292D01*
X159216847Y-131168153D01*
X159241708Y-131198446D01*
X159260180Y-131233005D01*
X159271555Y-131270501D01*
X159276000Y-131315638D01*
X159276000Y-132054362D01*
X159271555Y-132099499D01*
X159260180Y-132136995D01*
X159241708Y-132171554D01*
X159216847Y-132201847D01*
X159186554Y-132226708D01*
X159151995Y-132245180D01*
X159114499Y-132256555D01*
X159069362Y-132261000D01*
X158430638Y-132261000D01*
X158385501Y-132256555D01*
X158348005Y-132245180D01*
X158313446Y-132226708D01*
X158283153Y-132201847D01*
X158258292Y-132171554D01*
X158239820Y-132136995D01*
X158228445Y-132099499D01*
X158224000Y-132054362D01*
X158224000Y-131315638D01*
X158228445Y-131270501D01*
X158239820Y-131233005D01*
X158258292Y-131198446D01*
X158283153Y-131168153D01*
X158313446Y-131143292D01*
X158348005Y-131124820D01*
X158385501Y-131113445D01*
X158430638Y-131109000D01*
X159069362Y-131109000D01*
X159114499Y-131113445D01*
X159114499Y-131113445D01*
G37*
G36*
X162924499Y-131113445D02*
G01*
X162961995Y-131124820D01*
X162996554Y-131143292D01*
X163026847Y-131168153D01*
X163051708Y-131198446D01*
X163070180Y-131233005D01*
X163081555Y-131270501D01*
X163086000Y-131315638D01*
X163086000Y-132054362D01*
X163081555Y-132099499D01*
X163070180Y-132136995D01*
X163051708Y-132171554D01*
X163026847Y-132201847D01*
X162996554Y-132226708D01*
X162961995Y-132245180D01*
X162924499Y-132256555D01*
X162879362Y-132261000D01*
X162240638Y-132261000D01*
X162195501Y-132256555D01*
X162158005Y-132245180D01*
X162123446Y-132226708D01*
X162093153Y-132201847D01*
X162068292Y-132171554D01*
X162049820Y-132136995D01*
X162038445Y-132099499D01*
X162034000Y-132054362D01*
X162034000Y-131315638D01*
X162038445Y-131270501D01*
X162049820Y-131233005D01*
X162068292Y-131198446D01*
X162093153Y-131168153D01*
X162123446Y-131143292D01*
X162158005Y-131124820D01*
X162195501Y-131113445D01*
X162240638Y-131109000D01*
X162879362Y-131109000D01*
X162924499Y-131113445D01*
X162924499Y-131113445D01*
G37*
G36*
X132444499Y-131113445D02*
G01*
X132481995Y-131124820D01*
X132516554Y-131143292D01*
X132546847Y-131168153D01*
X132571708Y-131198446D01*
X132590180Y-131233005D01*
X132601555Y-131270501D01*
X132606000Y-131315638D01*
X132606000Y-132054362D01*
X132601555Y-132099499D01*
X132590180Y-132136995D01*
X132571708Y-132171554D01*
X132546847Y-132201847D01*
X132516554Y-132226708D01*
X132481995Y-132245180D01*
X132444499Y-132256555D01*
X132399362Y-132261000D01*
X131760638Y-132261000D01*
X131715501Y-132256555D01*
X131678005Y-132245180D01*
X131643446Y-132226708D01*
X131613153Y-132201847D01*
X131588292Y-132171554D01*
X131569820Y-132136995D01*
X131558445Y-132099499D01*
X131554000Y-132054362D01*
X131554000Y-131315638D01*
X131558445Y-131270501D01*
X131569820Y-131233005D01*
X131588292Y-131198446D01*
X131613153Y-131168153D01*
X131643446Y-131143292D01*
X131678005Y-131124820D01*
X131715501Y-131113445D01*
X131760638Y-131109000D01*
X132399362Y-131109000D01*
X132444499Y-131113445D01*
X132444499Y-131113445D01*
G37*
G36*
X128701000Y-131701000D02*
G01*
X125299000Y-131701000D01*
X125299000Y-129099000D01*
X128701000Y-129099000D01*
X128701000Y-131701000D01*
X128701000Y-131701000D01*
G37*
G36*
X139288212Y-129616249D02*
G01*
X139382651Y-129644897D01*
X139469687Y-129691418D01*
X139545975Y-129754025D01*
X139608582Y-129830313D01*
X139655103Y-129917348D01*
X139683751Y-130011787D01*
X139691000Y-130085388D01*
X139691000Y-130934612D01*
X139683751Y-131008213D01*
X139655103Y-131102652D01*
X139608582Y-131189687D01*
X139545975Y-131265975D01*
X139469687Y-131328582D01*
X139382652Y-131375103D01*
X139288213Y-131403751D01*
X139190000Y-131413424D01*
X139091788Y-131403751D01*
X138997349Y-131375103D01*
X138910314Y-131328582D01*
X138834026Y-131265975D01*
X138771419Y-131189687D01*
X138724898Y-131102652D01*
X138696250Y-131008213D01*
X138689001Y-130934612D01*
X138689000Y-130934602D01*
X138689000Y-130085389D01*
X138696249Y-130011788D01*
X138724897Y-129917349D01*
X138771418Y-129830313D01*
X138834025Y-129754025D01*
X138910313Y-129691418D01*
X138997348Y-129644897D01*
X139091787Y-129616249D01*
X139190000Y-129606576D01*
X139288212Y-129616249D01*
X139288212Y-129616249D01*
G37*
G36*
X147928212Y-129616249D02*
G01*
X148022651Y-129644897D01*
X148109687Y-129691418D01*
X148185975Y-129754025D01*
X148248582Y-129830313D01*
X148295103Y-129917348D01*
X148323751Y-130011787D01*
X148331000Y-130085388D01*
X148331000Y-130934612D01*
X148323751Y-131008213D01*
X148295103Y-131102652D01*
X148248582Y-131189687D01*
X148185975Y-131265975D01*
X148109687Y-131328582D01*
X148022652Y-131375103D01*
X147928213Y-131403751D01*
X147830000Y-131413424D01*
X147731788Y-131403751D01*
X147637349Y-131375103D01*
X147550314Y-131328582D01*
X147474026Y-131265975D01*
X147411419Y-131189687D01*
X147364898Y-131102652D01*
X147336250Y-131008213D01*
X147329001Y-130934612D01*
X147329000Y-130934602D01*
X147329000Y-130085389D01*
X147336249Y-130011788D01*
X147364897Y-129917349D01*
X147411418Y-129830313D01*
X147474025Y-129754025D01*
X147550313Y-129691418D01*
X147637348Y-129644897D01*
X147731787Y-129616249D01*
X147830000Y-129606576D01*
X147928212Y-129616249D01*
X147928212Y-129616249D01*
G37*
G36*
X168909239Y-124446467D02*
G01*
X169223282Y-124508934D01*
X169814926Y-124754001D01*
X170347392Y-125109784D01*
X170800216Y-125562608D01*
X171155999Y-126095074D01*
X171401066Y-126686718D01*
X171426583Y-126815000D01*
X171526000Y-127314803D01*
X171526000Y-127955197D01*
X171490434Y-128134000D01*
X171401066Y-128583282D01*
X171155999Y-129174926D01*
X170925093Y-129520501D01*
X170810888Y-129691421D01*
X170800216Y-129707392D01*
X170347392Y-130160216D01*
X169814926Y-130515999D01*
X169223282Y-130761066D01*
X168909239Y-130823533D01*
X168595197Y-130886000D01*
X167954803Y-130886000D01*
X167640761Y-130823533D01*
X167326718Y-130761066D01*
X166735074Y-130515999D01*
X166202608Y-130160216D01*
X165749784Y-129707392D01*
X165739113Y-129691421D01*
X165624907Y-129520501D01*
X165394001Y-129174926D01*
X165148934Y-128583282D01*
X165059566Y-128134000D01*
X165024000Y-127955197D01*
X165024000Y-127314803D01*
X165123417Y-126815000D01*
X165148934Y-126686718D01*
X165394001Y-126095074D01*
X165749784Y-125562608D01*
X166202608Y-125109784D01*
X166735074Y-124754001D01*
X167326718Y-124508934D01*
X167640761Y-124446467D01*
X167954803Y-124384000D01*
X168595197Y-124384000D01*
X168909239Y-124446467D01*
X168909239Y-124446467D01*
G37*
G36*
X119379239Y-124446467D02*
G01*
X119693282Y-124508934D01*
X120284926Y-124754001D01*
X120817392Y-125109784D01*
X121270216Y-125562608D01*
X121625999Y-126095074D01*
X121871066Y-126686718D01*
X121896583Y-126815000D01*
X121996000Y-127314803D01*
X121996000Y-127955197D01*
X121960434Y-128134000D01*
X121871066Y-128583282D01*
X121625999Y-129174926D01*
X121395093Y-129520501D01*
X121280888Y-129691421D01*
X121270216Y-129707392D01*
X120817392Y-130160216D01*
X120284926Y-130515999D01*
X119693282Y-130761066D01*
X119379239Y-130823533D01*
X119065197Y-130886000D01*
X118424803Y-130886000D01*
X118110761Y-130823533D01*
X117796718Y-130761066D01*
X117205074Y-130515999D01*
X116672608Y-130160216D01*
X116219784Y-129707392D01*
X116209113Y-129691421D01*
X116094907Y-129520501D01*
X115864001Y-129174926D01*
X115618934Y-128583282D01*
X115529566Y-128134000D01*
X115494000Y-127955197D01*
X115494000Y-127314803D01*
X115593417Y-126815000D01*
X115618934Y-126686718D01*
X115864001Y-126095074D01*
X116219784Y-125562608D01*
X116672608Y-125109784D01*
X117205074Y-124754001D01*
X117796718Y-124508934D01*
X118110761Y-124446467D01*
X118424803Y-124384000D01*
X119065197Y-124384000D01*
X119379239Y-124446467D01*
X119379239Y-124446467D01*
G37*
G36*
X159114499Y-129363445D02*
G01*
X159151995Y-129374820D01*
X159186554Y-129393292D01*
X159216847Y-129418153D01*
X159241708Y-129448446D01*
X159260180Y-129483005D01*
X159271555Y-129520501D01*
X159276000Y-129565638D01*
X159276000Y-130304362D01*
X159271555Y-130349499D01*
X159260180Y-130386995D01*
X159241708Y-130421554D01*
X159216847Y-130451847D01*
X159186554Y-130476708D01*
X159151995Y-130495180D01*
X159114499Y-130506555D01*
X159069362Y-130511000D01*
X158430638Y-130511000D01*
X158385501Y-130506555D01*
X158348005Y-130495180D01*
X158313446Y-130476708D01*
X158283153Y-130451847D01*
X158258292Y-130421554D01*
X158239820Y-130386995D01*
X158228445Y-130349499D01*
X158224000Y-130304362D01*
X158224000Y-129565638D01*
X158228445Y-129520501D01*
X158239820Y-129483005D01*
X158258292Y-129448446D01*
X158283153Y-129418153D01*
X158313446Y-129393292D01*
X158348005Y-129374820D01*
X158385501Y-129363445D01*
X158430638Y-129359000D01*
X159069362Y-129359000D01*
X159114499Y-129363445D01*
X159114499Y-129363445D01*
G37*
G36*
X161019499Y-129363445D02*
G01*
X161056995Y-129374820D01*
X161091554Y-129393292D01*
X161121847Y-129418153D01*
X161146708Y-129448446D01*
X161165180Y-129483005D01*
X161176555Y-129520501D01*
X161181000Y-129565638D01*
X161181000Y-130304362D01*
X161176555Y-130349499D01*
X161165180Y-130386995D01*
X161146708Y-130421554D01*
X161121847Y-130451847D01*
X161091554Y-130476708D01*
X161056995Y-130495180D01*
X161019499Y-130506555D01*
X160974362Y-130511000D01*
X160335638Y-130511000D01*
X160290501Y-130506555D01*
X160253005Y-130495180D01*
X160218446Y-130476708D01*
X160188153Y-130451847D01*
X160163292Y-130421554D01*
X160144820Y-130386995D01*
X160133445Y-130349499D01*
X160129000Y-130304362D01*
X160129000Y-129565638D01*
X160133445Y-129520501D01*
X160144820Y-129483005D01*
X160163292Y-129448446D01*
X160188153Y-129418153D01*
X160218446Y-129393292D01*
X160253005Y-129374820D01*
X160290501Y-129363445D01*
X160335638Y-129359000D01*
X160974362Y-129359000D01*
X161019499Y-129363445D01*
X161019499Y-129363445D01*
G37*
G36*
X132444499Y-129363445D02*
G01*
X132481995Y-129374820D01*
X132516554Y-129393292D01*
X132546847Y-129418153D01*
X132571708Y-129448446D01*
X132590180Y-129483005D01*
X132601555Y-129520501D01*
X132606000Y-129565638D01*
X132606000Y-130304362D01*
X132601555Y-130349499D01*
X132590180Y-130386995D01*
X132571708Y-130421554D01*
X132546847Y-130451847D01*
X132516554Y-130476708D01*
X132481995Y-130495180D01*
X132444499Y-130506555D01*
X132399362Y-130511000D01*
X131760638Y-130511000D01*
X131715501Y-130506555D01*
X131678005Y-130495180D01*
X131643446Y-130476708D01*
X131613153Y-130451847D01*
X131588292Y-130421554D01*
X131569820Y-130386995D01*
X131558445Y-130349499D01*
X131554000Y-130304362D01*
X131554000Y-129565638D01*
X131558445Y-129520501D01*
X131569820Y-129483005D01*
X131588292Y-129448446D01*
X131613153Y-129418153D01*
X131643446Y-129393292D01*
X131678005Y-129374820D01*
X131715501Y-129363445D01*
X131760638Y-129359000D01*
X132399362Y-129359000D01*
X132444499Y-129363445D01*
X132444499Y-129363445D01*
G37*
G36*
X162924499Y-129363445D02*
G01*
X162961995Y-129374820D01*
X162996554Y-129393292D01*
X163026847Y-129418153D01*
X163051708Y-129448446D01*
X163070180Y-129483005D01*
X163081555Y-129520501D01*
X163086000Y-129565638D01*
X163086000Y-130304362D01*
X163081555Y-130349499D01*
X163070180Y-130386995D01*
X163051708Y-130421554D01*
X163026847Y-130451847D01*
X162996554Y-130476708D01*
X162961995Y-130495180D01*
X162924499Y-130506555D01*
X162879362Y-130511000D01*
X162240638Y-130511000D01*
X162195501Y-130506555D01*
X162158005Y-130495180D01*
X162123446Y-130476708D01*
X162093153Y-130451847D01*
X162068292Y-130421554D01*
X162049820Y-130386995D01*
X162038445Y-130349499D01*
X162034000Y-130304362D01*
X162034000Y-129565638D01*
X162038445Y-129520501D01*
X162049820Y-129483005D01*
X162068292Y-129448446D01*
X162093153Y-129418153D01*
X162123446Y-129393292D01*
X162158005Y-129374820D01*
X162195501Y-129363445D01*
X162240638Y-129359000D01*
X162879362Y-129359000D01*
X162924499Y-129363445D01*
X162924499Y-129363445D01*
G37*
G36*
X156026000Y-129136000D02*
G01*
X155124000Y-129136000D01*
X155124000Y-128134000D01*
X156026000Y-128134000D01*
X156026000Y-129136000D01*
X156026000Y-129136000D01*
G37*
G36*
X159031938Y-128157716D02*
G01*
X159052557Y-128163971D01*
X159071553Y-128174124D01*
X159088208Y-128187792D01*
X159101876Y-128204447D01*
X159112029Y-128223443D01*
X159118284Y-128244062D01*
X159121000Y-128271640D01*
X159121000Y-128730360D01*
X159118284Y-128757938D01*
X159112029Y-128778557D01*
X159101876Y-128797553D01*
X159088208Y-128814208D01*
X159071553Y-128827876D01*
X159052557Y-128838029D01*
X159031938Y-128844284D01*
X159004360Y-128847000D01*
X158495640Y-128847000D01*
X158468062Y-128844284D01*
X158447443Y-128838029D01*
X158428447Y-128827876D01*
X158411792Y-128814208D01*
X158398124Y-128797553D01*
X158387971Y-128778557D01*
X158381716Y-128757938D01*
X158379000Y-128730360D01*
X158379000Y-128271640D01*
X158381716Y-128244062D01*
X158387971Y-128223443D01*
X158398124Y-128204447D01*
X158411792Y-128187792D01*
X158428447Y-128174124D01*
X158447443Y-128163971D01*
X158468062Y-128157716D01*
X158495640Y-128155000D01*
X159004360Y-128155000D01*
X159031938Y-128157716D01*
X159031938Y-128157716D01*
G37*
G36*
X132361938Y-128157716D02*
G01*
X132382557Y-128163971D01*
X132401553Y-128174124D01*
X132418208Y-128187792D01*
X132431876Y-128204447D01*
X132442029Y-128223443D01*
X132448284Y-128244062D01*
X132451000Y-128271640D01*
X132451000Y-128730360D01*
X132448284Y-128757938D01*
X132442029Y-128778557D01*
X132431876Y-128797553D01*
X132418208Y-128814208D01*
X132401553Y-128827876D01*
X132382557Y-128838029D01*
X132361938Y-128844284D01*
X132334360Y-128847000D01*
X131825640Y-128847000D01*
X131798062Y-128844284D01*
X131777443Y-128838029D01*
X131758447Y-128827876D01*
X131741792Y-128814208D01*
X131728124Y-128797553D01*
X131717971Y-128778557D01*
X131711716Y-128757938D01*
X131709000Y-128730360D01*
X131709000Y-128271640D01*
X131711716Y-128244062D01*
X131717971Y-128223443D01*
X131728124Y-128204447D01*
X131741792Y-128187792D01*
X131758447Y-128174124D01*
X131777443Y-128163971D01*
X131798062Y-128157716D01*
X131825640Y-128155000D01*
X132334360Y-128155000D01*
X132361938Y-128157716D01*
X132361938Y-128157716D01*
G37*
G36*
X160936938Y-128157716D02*
G01*
X160957557Y-128163971D01*
X160976553Y-128174124D01*
X160993208Y-128187792D01*
X161006876Y-128204447D01*
X161017029Y-128223443D01*
X161023284Y-128244062D01*
X161026000Y-128271640D01*
X161026000Y-128730360D01*
X161023284Y-128757938D01*
X161017029Y-128778557D01*
X161006876Y-128797553D01*
X160993208Y-128814208D01*
X160976553Y-128827876D01*
X160957557Y-128838029D01*
X160936938Y-128844284D01*
X160909360Y-128847000D01*
X160400640Y-128847000D01*
X160373062Y-128844284D01*
X160352443Y-128838029D01*
X160333447Y-128827876D01*
X160316792Y-128814208D01*
X160303124Y-128797553D01*
X160292971Y-128778557D01*
X160286716Y-128757938D01*
X160284000Y-128730360D01*
X160284000Y-128271640D01*
X160286716Y-128244062D01*
X160292971Y-128223443D01*
X160303124Y-128204447D01*
X160316792Y-128187792D01*
X160333447Y-128174124D01*
X160352443Y-128163971D01*
X160373062Y-128157716D01*
X160400640Y-128155000D01*
X160909360Y-128155000D01*
X160936938Y-128157716D01*
X160936938Y-128157716D01*
G37*
G36*
X162841938Y-128157716D02*
G01*
X162862557Y-128163971D01*
X162881553Y-128174124D01*
X162898208Y-128187792D01*
X162911876Y-128204447D01*
X162922029Y-128223443D01*
X162928284Y-128244062D01*
X162931000Y-128271640D01*
X162931000Y-128730360D01*
X162928284Y-128757938D01*
X162922029Y-128778557D01*
X162911876Y-128797553D01*
X162898208Y-128814208D01*
X162881553Y-128827876D01*
X162862557Y-128838029D01*
X162841938Y-128844284D01*
X162814360Y-128847000D01*
X162305640Y-128847000D01*
X162278062Y-128844284D01*
X162257443Y-128838029D01*
X162238447Y-128827876D01*
X162221792Y-128814208D01*
X162208124Y-128797553D01*
X162197971Y-128778557D01*
X162191716Y-128757938D01*
X162189000Y-128730360D01*
X162189000Y-128271640D01*
X162191716Y-128244062D01*
X162197971Y-128223443D01*
X162208124Y-128204447D01*
X162221792Y-128187792D01*
X162238447Y-128174124D01*
X162257443Y-128163971D01*
X162278062Y-128157716D01*
X162305640Y-128155000D01*
X162814360Y-128155000D01*
X162841938Y-128157716D01*
X162841938Y-128157716D01*
G37*
G36*
X151566000Y-128191000D02*
G01*
X150364000Y-128191000D01*
X150364000Y-126789000D01*
X151566000Y-126789000D01*
X151566000Y-128191000D01*
X151566000Y-128191000D01*
G37*
G36*
X153166000Y-128191000D02*
G01*
X151964000Y-128191000D01*
X151964000Y-126789000D01*
X153166000Y-126789000D01*
X153166000Y-128191000D01*
X153166000Y-128191000D01*
G37*
G36*
X136656000Y-128191000D02*
G01*
X135454000Y-128191000D01*
X135454000Y-126789000D01*
X136656000Y-126789000D01*
X136656000Y-128191000D01*
X136656000Y-128191000D01*
G37*
G36*
X135056000Y-128191000D02*
G01*
X133854000Y-128191000D01*
X133854000Y-126789000D01*
X135056000Y-126789000D01*
X135056000Y-128191000D01*
X135056000Y-128191000D01*
G37*
G36*
X160936938Y-127187716D02*
G01*
X160957557Y-127193971D01*
X160976553Y-127204124D01*
X160993208Y-127217792D01*
X161006876Y-127234447D01*
X161017029Y-127253443D01*
X161023284Y-127274062D01*
X161026000Y-127301640D01*
X161026000Y-127760360D01*
X161023284Y-127787938D01*
X161017029Y-127808557D01*
X161006876Y-127827553D01*
X160993208Y-127844208D01*
X160976553Y-127857876D01*
X160957557Y-127868029D01*
X160936938Y-127874284D01*
X160909360Y-127877000D01*
X160400640Y-127877000D01*
X160373062Y-127874284D01*
X160352443Y-127868029D01*
X160333447Y-127857876D01*
X160316792Y-127844208D01*
X160303124Y-127827553D01*
X160292971Y-127808557D01*
X160286716Y-127787938D01*
X160284000Y-127760360D01*
X160284000Y-127301640D01*
X160286716Y-127274062D01*
X160292971Y-127253443D01*
X160303124Y-127234447D01*
X160316792Y-127217792D01*
X160333447Y-127204124D01*
X160352443Y-127193971D01*
X160373062Y-127187716D01*
X160400640Y-127185000D01*
X160909360Y-127185000D01*
X160936938Y-127187716D01*
X160936938Y-127187716D01*
G37*
G36*
X159031938Y-127187716D02*
G01*
X159052557Y-127193971D01*
X159071553Y-127204124D01*
X159088208Y-127217792D01*
X159101876Y-127234447D01*
X159112029Y-127253443D01*
X159118284Y-127274062D01*
X159121000Y-127301640D01*
X159121000Y-127760360D01*
X159118284Y-127787938D01*
X159112029Y-127808557D01*
X159101876Y-127827553D01*
X159088208Y-127844208D01*
X159071553Y-127857876D01*
X159052557Y-127868029D01*
X159031938Y-127874284D01*
X159004360Y-127877000D01*
X158495640Y-127877000D01*
X158468062Y-127874284D01*
X158447443Y-127868029D01*
X158428447Y-127857876D01*
X158411792Y-127844208D01*
X158398124Y-127827553D01*
X158387971Y-127808557D01*
X158381716Y-127787938D01*
X158379000Y-127760360D01*
X158379000Y-127301640D01*
X158381716Y-127274062D01*
X158387971Y-127253443D01*
X158398124Y-127234447D01*
X158411792Y-127217792D01*
X158428447Y-127204124D01*
X158447443Y-127193971D01*
X158468062Y-127187716D01*
X158495640Y-127185000D01*
X159004360Y-127185000D01*
X159031938Y-127187716D01*
X159031938Y-127187716D01*
G37*
G36*
X132361938Y-127187716D02*
G01*
X132382557Y-127193971D01*
X132401553Y-127204124D01*
X132418208Y-127217792D01*
X132431876Y-127234447D01*
X132442029Y-127253443D01*
X132448284Y-127274062D01*
X132451000Y-127301640D01*
X132451000Y-127760360D01*
X132448284Y-127787938D01*
X132442029Y-127808557D01*
X132431876Y-127827553D01*
X132418208Y-127844208D01*
X132401553Y-127857876D01*
X132382557Y-127868029D01*
X132361938Y-127874284D01*
X132334360Y-127877000D01*
X131825640Y-127877000D01*
X131798062Y-127874284D01*
X131777443Y-127868029D01*
X131758447Y-127857876D01*
X131741792Y-127844208D01*
X131728124Y-127827553D01*
X131717971Y-127808557D01*
X131711716Y-127787938D01*
X131709000Y-127760360D01*
X131709000Y-127301640D01*
X131711716Y-127274062D01*
X131717971Y-127253443D01*
X131728124Y-127234447D01*
X131741792Y-127217792D01*
X131758447Y-127204124D01*
X131777443Y-127193971D01*
X131798062Y-127187716D01*
X131825640Y-127185000D01*
X132334360Y-127185000D01*
X132361938Y-127187716D01*
X132361938Y-127187716D01*
G37*
G36*
X162841938Y-127187716D02*
G01*
X162862557Y-127193971D01*
X162881553Y-127204124D01*
X162898208Y-127217792D01*
X162911876Y-127234447D01*
X162922029Y-127253443D01*
X162928284Y-127274062D01*
X162931000Y-127301640D01*
X162931000Y-127760360D01*
X162928284Y-127787938D01*
X162922029Y-127808557D01*
X162911876Y-127827553D01*
X162898208Y-127844208D01*
X162881553Y-127857876D01*
X162862557Y-127868029D01*
X162841938Y-127874284D01*
X162814360Y-127877000D01*
X162305640Y-127877000D01*
X162278062Y-127874284D01*
X162257443Y-127868029D01*
X162238447Y-127857876D01*
X162221792Y-127844208D01*
X162208124Y-127827553D01*
X162197971Y-127808557D01*
X162191716Y-127787938D01*
X162189000Y-127760360D01*
X162189000Y-127301640D01*
X162191716Y-127274062D01*
X162197971Y-127253443D01*
X162208124Y-127234447D01*
X162221792Y-127217792D01*
X162238447Y-127204124D01*
X162257443Y-127193971D01*
X162278062Y-127187716D01*
X162305640Y-127185000D01*
X162814360Y-127185000D01*
X162841938Y-127187716D01*
X162841938Y-127187716D01*
G37*
G36*
X147928212Y-125296249D02*
G01*
X148022651Y-125324897D01*
X148109687Y-125371418D01*
X148185975Y-125434025D01*
X148248582Y-125510313D01*
X148295103Y-125597348D01*
X148323751Y-125691787D01*
X148331000Y-125765388D01*
X148331000Y-126914612D01*
X148323751Y-126988213D01*
X148295103Y-127082652D01*
X148248582Y-127169687D01*
X148185975Y-127245975D01*
X148109687Y-127308582D01*
X148022652Y-127355103D01*
X147928213Y-127383751D01*
X147830000Y-127393424D01*
X147731788Y-127383751D01*
X147637349Y-127355103D01*
X147550314Y-127308582D01*
X147474026Y-127245975D01*
X147411419Y-127169687D01*
X147364898Y-127082652D01*
X147336250Y-126988213D01*
X147329001Y-126914612D01*
X147329000Y-125765389D01*
X147336249Y-125691788D01*
X147364897Y-125597349D01*
X147411418Y-125510313D01*
X147474025Y-125434025D01*
X147550313Y-125371418D01*
X147637348Y-125324897D01*
X147731787Y-125296249D01*
X147830000Y-125286576D01*
X147928212Y-125296249D01*
X147928212Y-125296249D01*
G37*
G36*
X139288212Y-125296249D02*
G01*
X139382651Y-125324897D01*
X139469687Y-125371418D01*
X139545975Y-125434025D01*
X139608582Y-125510313D01*
X139655103Y-125597348D01*
X139683751Y-125691787D01*
X139691000Y-125765388D01*
X139691000Y-126914612D01*
X139683751Y-126988213D01*
X139655103Y-127082652D01*
X139608582Y-127169687D01*
X139545975Y-127245975D01*
X139469687Y-127308582D01*
X139382652Y-127355103D01*
X139288213Y-127383751D01*
X139190000Y-127393424D01*
X139091788Y-127383751D01*
X138997349Y-127355103D01*
X138910314Y-127308582D01*
X138834026Y-127245975D01*
X138771419Y-127169687D01*
X138724898Y-127082652D01*
X138696250Y-126988213D01*
X138689001Y-126914612D01*
X138689000Y-125765389D01*
X138696249Y-125691788D01*
X138724897Y-125597349D01*
X138771418Y-125510313D01*
X138834025Y-125434025D01*
X138910313Y-125371418D01*
X138997348Y-125324897D01*
X139091787Y-125296249D01*
X139190000Y-125286576D01*
X139288212Y-125296249D01*
X139288212Y-125296249D01*
G37*
G36*
X147061000Y-126391000D02*
G01*
X146769163Y-126391000D01*
X146744777Y-126393402D01*
X146721328Y-126400515D01*
X146699717Y-126412066D01*
X146680775Y-126427611D01*
X146665230Y-126446553D01*
X146653679Y-126468164D01*
X146646566Y-126491613D01*
X146644164Y-126515999D01*
X146646566Y-126540385D01*
X146653679Y-126563834D01*
X146665230Y-126585445D01*
X146666246Y-126586683D01*
X146711054Y-126653742D01*
X146724713Y-126686719D01*
X146737511Y-126717617D01*
X146751000Y-126785430D01*
X146751000Y-126854570D01*
X146737511Y-126922383D01*
X146737510Y-126922385D01*
X146711054Y-126986258D01*
X146672640Y-127043748D01*
X146623748Y-127092640D01*
X146566258Y-127131054D01*
X146514182Y-127152624D01*
X146502383Y-127157511D01*
X146434570Y-127171000D01*
X146365430Y-127171000D01*
X146297617Y-127157511D01*
X146285818Y-127152624D01*
X146233742Y-127131054D01*
X146176252Y-127092640D01*
X146127360Y-127043748D01*
X146088946Y-126986258D01*
X146062490Y-126922385D01*
X146062489Y-126922383D01*
X146049000Y-126854570D01*
X146049000Y-126785430D01*
X146062489Y-126717617D01*
X146075287Y-126686719D01*
X146088946Y-126653742D01*
X146133754Y-126586683D01*
X146134770Y-126585445D01*
X146146321Y-126563834D01*
X146153434Y-126540385D01*
X146155836Y-126515999D01*
X146153434Y-126491613D01*
X146146321Y-126468164D01*
X146134770Y-126446553D01*
X146119225Y-126427611D01*
X146100283Y-126412066D01*
X146078672Y-126400515D01*
X146055223Y-126393402D01*
X146030837Y-126391000D01*
X140989163Y-126391000D01*
X140964777Y-126393402D01*
X140941328Y-126400515D01*
X140919717Y-126412066D01*
X140900775Y-126427611D01*
X140885230Y-126446553D01*
X140873679Y-126468164D01*
X140866566Y-126491613D01*
X140864164Y-126515999D01*
X140866566Y-126540385D01*
X140873679Y-126563834D01*
X140885230Y-126585445D01*
X140886246Y-126586683D01*
X140931054Y-126653742D01*
X140944713Y-126686719D01*
X140957511Y-126717617D01*
X140971000Y-126785430D01*
X140971000Y-126854570D01*
X140957511Y-126922383D01*
X140957510Y-126922385D01*
X140931054Y-126986258D01*
X140892640Y-127043748D01*
X140843748Y-127092640D01*
X140786258Y-127131054D01*
X140734182Y-127152624D01*
X140722383Y-127157511D01*
X140654570Y-127171000D01*
X140585430Y-127171000D01*
X140517617Y-127157511D01*
X140505818Y-127152624D01*
X140453742Y-127131054D01*
X140396252Y-127092640D01*
X140347360Y-127043748D01*
X140308946Y-126986258D01*
X140282490Y-126922385D01*
X140282489Y-126922383D01*
X140269000Y-126854570D01*
X140269000Y-126785430D01*
X140282489Y-126717617D01*
X140295287Y-126686719D01*
X140308946Y-126653742D01*
X140353754Y-126586683D01*
X140354770Y-126585445D01*
X140366321Y-126563834D01*
X140373434Y-126540385D01*
X140375836Y-126515999D01*
X140373434Y-126491613D01*
X140366321Y-126468164D01*
X140354770Y-126446553D01*
X140339225Y-126427611D01*
X140320283Y-126412066D01*
X140298672Y-126400515D01*
X140275223Y-126393402D01*
X140250837Y-126391000D01*
X139959000Y-126391000D01*
X139959000Y-125129000D01*
X147061000Y-125129000D01*
X147061000Y-126391000D01*
X147061000Y-126391000D01*
G37*
G36*
X156976000Y-127136000D02*
G01*
X156074000Y-127136000D01*
X156074000Y-126134000D01*
X156976000Y-126134000D01*
X156976000Y-127136000D01*
X156976000Y-127136000D01*
G37*
G36*
X155076000Y-127136000D02*
G01*
X154174000Y-127136000D01*
X154174000Y-126134000D01*
X155076000Y-126134000D01*
X155076000Y-127136000D01*
X155076000Y-127136000D01*
G37*
G36*
X132869938Y-126125716D02*
G01*
X132890557Y-126131971D01*
X132909553Y-126142124D01*
X132926208Y-126155792D01*
X132939876Y-126172447D01*
X132950029Y-126191443D01*
X132956284Y-126212062D01*
X132959000Y-126239640D01*
X132959000Y-126698360D01*
X132956284Y-126725938D01*
X132950029Y-126746557D01*
X132939876Y-126765553D01*
X132926208Y-126782208D01*
X132909553Y-126795876D01*
X132890557Y-126806029D01*
X132869938Y-126812284D01*
X132842360Y-126815000D01*
X132333640Y-126815000D01*
X132306062Y-126812284D01*
X132285443Y-126806029D01*
X132266447Y-126795876D01*
X132249792Y-126782208D01*
X132236124Y-126765553D01*
X132225971Y-126746557D01*
X132219716Y-126725938D01*
X132217000Y-126698360D01*
X132217000Y-126239640D01*
X132219716Y-126212062D01*
X132225971Y-126191443D01*
X132236124Y-126172447D01*
X132249792Y-126155792D01*
X132266447Y-126142124D01*
X132285443Y-126131971D01*
X132306062Y-126125716D01*
X132333640Y-126123000D01*
X132842360Y-126123000D01*
X132869938Y-126125716D01*
X132869938Y-126125716D01*
G37*
G36*
X131853938Y-126125716D02*
G01*
X131874557Y-126131971D01*
X131893553Y-126142124D01*
X131910208Y-126155792D01*
X131923876Y-126172447D01*
X131934029Y-126191443D01*
X131940284Y-126212062D01*
X131943000Y-126239640D01*
X131943000Y-126698360D01*
X131940284Y-126725938D01*
X131934029Y-126746557D01*
X131923876Y-126765553D01*
X131910208Y-126782208D01*
X131893553Y-126795876D01*
X131874557Y-126806029D01*
X131853938Y-126812284D01*
X131826360Y-126815000D01*
X131317640Y-126815000D01*
X131290062Y-126812284D01*
X131269443Y-126806029D01*
X131250447Y-126795876D01*
X131233792Y-126782208D01*
X131220124Y-126765553D01*
X131209971Y-126746557D01*
X131203716Y-126725938D01*
X131201000Y-126698360D01*
X131201000Y-126239640D01*
X131203716Y-126212062D01*
X131209971Y-126191443D01*
X131220124Y-126172447D01*
X131233792Y-126155792D01*
X131250447Y-126142124D01*
X131269443Y-126131971D01*
X131290062Y-126125716D01*
X131317640Y-126123000D01*
X131826360Y-126123000D01*
X131853938Y-126125716D01*
X131853938Y-126125716D01*
G37*
G36*
X161823938Y-125996716D02*
G01*
X161844557Y-126002971D01*
X161863553Y-126013124D01*
X161880208Y-126026792D01*
X161893876Y-126043447D01*
X161904029Y-126062443D01*
X161910284Y-126083062D01*
X161913000Y-126110640D01*
X161913000Y-126619360D01*
X161910284Y-126646938D01*
X161904029Y-126667557D01*
X161893876Y-126686553D01*
X161880208Y-126703208D01*
X161863553Y-126716876D01*
X161844557Y-126727029D01*
X161823938Y-126733284D01*
X161796360Y-126736000D01*
X161337640Y-126736000D01*
X161310062Y-126733284D01*
X161289443Y-126727029D01*
X161270447Y-126716876D01*
X161253792Y-126703208D01*
X161240124Y-126686553D01*
X161229971Y-126667557D01*
X161223716Y-126646938D01*
X161221000Y-126619360D01*
X161221000Y-126110640D01*
X161223716Y-126083062D01*
X161229971Y-126062443D01*
X161240124Y-126043447D01*
X161253792Y-126026792D01*
X161270447Y-126013124D01*
X161289443Y-126002971D01*
X161310062Y-125996716D01*
X161337640Y-125994000D01*
X161796360Y-125994000D01*
X161823938Y-125996716D01*
X161823938Y-125996716D01*
G37*
G36*
X162793938Y-125996716D02*
G01*
X162814557Y-126002971D01*
X162833553Y-126013124D01*
X162850208Y-126026792D01*
X162863876Y-126043447D01*
X162874029Y-126062443D01*
X162880284Y-126083062D01*
X162883000Y-126110640D01*
X162883000Y-126619360D01*
X162880284Y-126646938D01*
X162874029Y-126667557D01*
X162863876Y-126686553D01*
X162850208Y-126703208D01*
X162833553Y-126716876D01*
X162814557Y-126727029D01*
X162793938Y-126733284D01*
X162766360Y-126736000D01*
X162307640Y-126736000D01*
X162280062Y-126733284D01*
X162259443Y-126727029D01*
X162240447Y-126716876D01*
X162223792Y-126703208D01*
X162210124Y-126686553D01*
X162199971Y-126667557D01*
X162193716Y-126646938D01*
X162191000Y-126619360D01*
X162191000Y-126110640D01*
X162193716Y-126083062D01*
X162199971Y-126062443D01*
X162210124Y-126043447D01*
X162223792Y-126026792D01*
X162240447Y-126013124D01*
X162259443Y-126002971D01*
X162280062Y-125996716D01*
X162307640Y-125994000D01*
X162766360Y-125994000D01*
X162793938Y-125996716D01*
X162793938Y-125996716D01*
G37*
G36*
X153178000Y-126103000D02*
G01*
X151876000Y-126103000D01*
X151876000Y-125101000D01*
X153178000Y-125101000D01*
X153178000Y-126103000D01*
X153178000Y-126103000D01*
G37*
G36*
X150765000Y-126103000D02*
G01*
X149463000Y-126103000D01*
X149463000Y-125101000D01*
X150765000Y-125101000D01*
X150765000Y-126103000D01*
X150765000Y-126103000D01*
G37*
G36*
X134689468Y-124602565D02*
G01*
X134728138Y-124614296D01*
X134763777Y-124633346D01*
X134795017Y-124658983D01*
X134820654Y-124690223D01*
X134839704Y-124725862D01*
X134851435Y-124764532D01*
X134856000Y-124810888D01*
X134856000Y-125887112D01*
X134851435Y-125933468D01*
X134839704Y-125972138D01*
X134820654Y-126007777D01*
X134795017Y-126039017D01*
X134763777Y-126064654D01*
X134728138Y-126083704D01*
X134689468Y-126095435D01*
X134643112Y-126100000D01*
X133991888Y-126100000D01*
X133945532Y-126095435D01*
X133906862Y-126083704D01*
X133871223Y-126064654D01*
X133839983Y-126039017D01*
X133814346Y-126007777D01*
X133795296Y-125972138D01*
X133783565Y-125933468D01*
X133779000Y-125887112D01*
X133779000Y-124810888D01*
X133783565Y-124764532D01*
X133795296Y-124725862D01*
X133814346Y-124690223D01*
X133839983Y-124658983D01*
X133871223Y-124633346D01*
X133906862Y-124614296D01*
X133945532Y-124602565D01*
X133991888Y-124598000D01*
X134643112Y-124598000D01*
X134689468Y-124602565D01*
X134689468Y-124602565D01*
G37*
G36*
X136564468Y-124602565D02*
G01*
X136603138Y-124614296D01*
X136638777Y-124633346D01*
X136670017Y-124658983D01*
X136695654Y-124690223D01*
X136714704Y-124725862D01*
X136726435Y-124764532D01*
X136731000Y-124810888D01*
X136731000Y-125887112D01*
X136726435Y-125933468D01*
X136714704Y-125972138D01*
X136695654Y-126007777D01*
X136670017Y-126039017D01*
X136638777Y-126064654D01*
X136603138Y-126083704D01*
X136564468Y-126095435D01*
X136518112Y-126100000D01*
X135866888Y-126100000D01*
X135820532Y-126095435D01*
X135781862Y-126083704D01*
X135746223Y-126064654D01*
X135714983Y-126039017D01*
X135689346Y-126007777D01*
X135670296Y-125972138D01*
X135658565Y-125933468D01*
X135654000Y-125887112D01*
X135654000Y-124810888D01*
X135658565Y-124764532D01*
X135670296Y-124725862D01*
X135689346Y-124690223D01*
X135714983Y-124658983D01*
X135746223Y-124633346D01*
X135781862Y-124614296D01*
X135820532Y-124602565D01*
X135866888Y-124598000D01*
X136518112Y-124598000D01*
X136564468Y-124602565D01*
X136564468Y-124602565D01*
G37*
G36*
X132869938Y-125155716D02*
G01*
X132890557Y-125161971D01*
X132909553Y-125172124D01*
X132926208Y-125185792D01*
X132939876Y-125202447D01*
X132950029Y-125221443D01*
X132956284Y-125242062D01*
X132959000Y-125269640D01*
X132959000Y-125728360D01*
X132956284Y-125755938D01*
X132950029Y-125776557D01*
X132939876Y-125795553D01*
X132926208Y-125812208D01*
X132909553Y-125825876D01*
X132890557Y-125836029D01*
X132869938Y-125842284D01*
X132842360Y-125845000D01*
X132333640Y-125845000D01*
X132306062Y-125842284D01*
X132285443Y-125836029D01*
X132266447Y-125825876D01*
X132249792Y-125812208D01*
X132236124Y-125795553D01*
X132225971Y-125776557D01*
X132219716Y-125755938D01*
X132217000Y-125728360D01*
X132217000Y-125269640D01*
X132219716Y-125242062D01*
X132225971Y-125221443D01*
X132236124Y-125202447D01*
X132249792Y-125185792D01*
X132266447Y-125172124D01*
X132285443Y-125161971D01*
X132306062Y-125155716D01*
X132333640Y-125153000D01*
X132842360Y-125153000D01*
X132869938Y-125155716D01*
X132869938Y-125155716D01*
G37*
G36*
X131853938Y-125155716D02*
G01*
X131874557Y-125161971D01*
X131893553Y-125172124D01*
X131910208Y-125185792D01*
X131923876Y-125202447D01*
X131934029Y-125221443D01*
X131940284Y-125242062D01*
X131943000Y-125269640D01*
X131943000Y-125728360D01*
X131940284Y-125755938D01*
X131934029Y-125776557D01*
X131923876Y-125795553D01*
X131910208Y-125812208D01*
X131893553Y-125825876D01*
X131874557Y-125836029D01*
X131853938Y-125842284D01*
X131826360Y-125845000D01*
X131317640Y-125845000D01*
X131290062Y-125842284D01*
X131269443Y-125836029D01*
X131250447Y-125825876D01*
X131233792Y-125812208D01*
X131220124Y-125795553D01*
X131209971Y-125776557D01*
X131203716Y-125755938D01*
X131201000Y-125728360D01*
X131201000Y-125269640D01*
X131203716Y-125242062D01*
X131209971Y-125221443D01*
X131220124Y-125202447D01*
X131233792Y-125185792D01*
X131250447Y-125172124D01*
X131269443Y-125161971D01*
X131290062Y-125155716D01*
X131317640Y-125153000D01*
X131826360Y-125153000D01*
X131853938Y-125155716D01*
X131853938Y-125155716D01*
G37*
G36*
X159560355Y-120130083D02*
G01*
X159565029Y-120131501D01*
X159569330Y-120133800D01*
X159575702Y-120139029D01*
X159596076Y-120152643D01*
X159618715Y-120162020D01*
X159642749Y-120166800D01*
X159667253Y-120166800D01*
X159691286Y-120162019D01*
X159713925Y-120152642D01*
X159734298Y-120139029D01*
X159740670Y-120133800D01*
X159744971Y-120131501D01*
X159749645Y-120130083D01*
X159760641Y-120129000D01*
X160049359Y-120129000D01*
X160060355Y-120130083D01*
X160065029Y-120131501D01*
X160069330Y-120133800D01*
X160075702Y-120139029D01*
X160096076Y-120152643D01*
X160118715Y-120162020D01*
X160142749Y-120166800D01*
X160167253Y-120166800D01*
X160191286Y-120162019D01*
X160213925Y-120152642D01*
X160234298Y-120139029D01*
X160240670Y-120133800D01*
X160244971Y-120131501D01*
X160249645Y-120130083D01*
X160260641Y-120129000D01*
X160549359Y-120129000D01*
X160560355Y-120130083D01*
X160565029Y-120131501D01*
X160569330Y-120133800D01*
X160575702Y-120139029D01*
X160596076Y-120152643D01*
X160618715Y-120162020D01*
X160642749Y-120166800D01*
X160667253Y-120166800D01*
X160691286Y-120162019D01*
X160713925Y-120152642D01*
X160734298Y-120139029D01*
X160740670Y-120133800D01*
X160744971Y-120131501D01*
X160749645Y-120130083D01*
X160760641Y-120129000D01*
X161049359Y-120129000D01*
X161060355Y-120130083D01*
X161065029Y-120131501D01*
X161069330Y-120133800D01*
X161075702Y-120139029D01*
X161096076Y-120152643D01*
X161118715Y-120162020D01*
X161142749Y-120166800D01*
X161167253Y-120166800D01*
X161191286Y-120162019D01*
X161213925Y-120152642D01*
X161234298Y-120139029D01*
X161240670Y-120133800D01*
X161244971Y-120131501D01*
X161249645Y-120130083D01*
X161260641Y-120129000D01*
X161549359Y-120129000D01*
X161560355Y-120130083D01*
X161565029Y-120131501D01*
X161569330Y-120133800D01*
X161575702Y-120139029D01*
X161596076Y-120152643D01*
X161618715Y-120162020D01*
X161642749Y-120166800D01*
X161667253Y-120166800D01*
X161691286Y-120162019D01*
X161713925Y-120152642D01*
X161734298Y-120139029D01*
X161740670Y-120133800D01*
X161744971Y-120131501D01*
X161749645Y-120130083D01*
X161760641Y-120129000D01*
X162049359Y-120129000D01*
X162060355Y-120130083D01*
X162065029Y-120131501D01*
X162069331Y-120133800D01*
X162073104Y-120136896D01*
X162076200Y-120140669D01*
X162078499Y-120144971D01*
X162079917Y-120149645D01*
X162081000Y-120160641D01*
X162081000Y-121004001D01*
X162083402Y-121028387D01*
X162090515Y-121051836D01*
X162102066Y-121073447D01*
X162117611Y-121092389D01*
X162136553Y-121107934D01*
X162158164Y-121119485D01*
X162181613Y-121126598D01*
X162205999Y-121129000D01*
X163049359Y-121129000D01*
X163060355Y-121130083D01*
X163065029Y-121131501D01*
X163069331Y-121133800D01*
X163073104Y-121136896D01*
X163076200Y-121140669D01*
X163078499Y-121144971D01*
X163079917Y-121149645D01*
X163081000Y-121160641D01*
X163081000Y-121449359D01*
X163079917Y-121460355D01*
X163078499Y-121465029D01*
X163076200Y-121469330D01*
X163070971Y-121475702D01*
X163057357Y-121496076D01*
X163047980Y-121518715D01*
X163043200Y-121542749D01*
X163043200Y-121567253D01*
X163047981Y-121591286D01*
X163057358Y-121613925D01*
X163070971Y-121634298D01*
X163076200Y-121640670D01*
X163078499Y-121644971D01*
X163079917Y-121649645D01*
X163081000Y-121660641D01*
X163081000Y-121949359D01*
X163079917Y-121960355D01*
X163078499Y-121965029D01*
X163076200Y-121969330D01*
X163070971Y-121975702D01*
X163057357Y-121996076D01*
X163047980Y-122018715D01*
X163043200Y-122042749D01*
X163043200Y-122067253D01*
X163047981Y-122091286D01*
X163057358Y-122113925D01*
X163070971Y-122134298D01*
X163076200Y-122140670D01*
X163078499Y-122144971D01*
X163079917Y-122149645D01*
X163081000Y-122160641D01*
X163081000Y-122449359D01*
X163079917Y-122460355D01*
X163078499Y-122465029D01*
X163076200Y-122469330D01*
X163070971Y-122475702D01*
X163057357Y-122496076D01*
X163047980Y-122518715D01*
X163043200Y-122542749D01*
X163043200Y-122567253D01*
X163047981Y-122591286D01*
X163057358Y-122613925D01*
X163070971Y-122634298D01*
X163076200Y-122640670D01*
X163078499Y-122644971D01*
X163079917Y-122649645D01*
X163081000Y-122660641D01*
X163081000Y-122949359D01*
X163079917Y-122960355D01*
X163078499Y-122965029D01*
X163076200Y-122969330D01*
X163070971Y-122975702D01*
X163057357Y-122996076D01*
X163047980Y-123018715D01*
X163043200Y-123042749D01*
X163043200Y-123067253D01*
X163047981Y-123091286D01*
X163057358Y-123113925D01*
X163070971Y-123134298D01*
X163076200Y-123140670D01*
X163078499Y-123144971D01*
X163079917Y-123149645D01*
X163081000Y-123160641D01*
X163081000Y-123449359D01*
X163079917Y-123460355D01*
X163078499Y-123465029D01*
X163076200Y-123469330D01*
X163070971Y-123475702D01*
X163057357Y-123496076D01*
X163047980Y-123518715D01*
X163043200Y-123542749D01*
X163043200Y-123567253D01*
X163047981Y-123591286D01*
X163057358Y-123613925D01*
X163070971Y-123634298D01*
X163076200Y-123640670D01*
X163078499Y-123644971D01*
X163079917Y-123649645D01*
X163081000Y-123660641D01*
X163081000Y-123949359D01*
X163079917Y-123960355D01*
X163078499Y-123965029D01*
X163076200Y-123969331D01*
X163073104Y-123973104D01*
X163069331Y-123976200D01*
X163065029Y-123978499D01*
X163060355Y-123979917D01*
X163049359Y-123981000D01*
X162205999Y-123981000D01*
X162181613Y-123983402D01*
X162158164Y-123990515D01*
X162136553Y-124002066D01*
X162117611Y-124017611D01*
X162102066Y-124036553D01*
X162090515Y-124058164D01*
X162083402Y-124081613D01*
X162081000Y-124105999D01*
X162081000Y-124949359D01*
X162079917Y-124960355D01*
X162078499Y-124965029D01*
X162076200Y-124969331D01*
X162073104Y-124973104D01*
X162069331Y-124976200D01*
X162065029Y-124978499D01*
X162060355Y-124979917D01*
X162049359Y-124981000D01*
X161760641Y-124981000D01*
X161749645Y-124979917D01*
X161744971Y-124978499D01*
X161740670Y-124976200D01*
X161734298Y-124970971D01*
X161713924Y-124957357D01*
X161691285Y-124947980D01*
X161667251Y-124943200D01*
X161642747Y-124943200D01*
X161618714Y-124947981D01*
X161596075Y-124957358D01*
X161575702Y-124970971D01*
X161569330Y-124976200D01*
X161565029Y-124978499D01*
X161560355Y-124979917D01*
X161549359Y-124981000D01*
X161260641Y-124981000D01*
X161249645Y-124979917D01*
X161244971Y-124978499D01*
X161240670Y-124976200D01*
X161234298Y-124970971D01*
X161213924Y-124957357D01*
X161191285Y-124947980D01*
X161167251Y-124943200D01*
X161142747Y-124943200D01*
X161118714Y-124947981D01*
X161096075Y-124957358D01*
X161075702Y-124970971D01*
X161069330Y-124976200D01*
X161065029Y-124978499D01*
X161060355Y-124979917D01*
X161049359Y-124981000D01*
X160760641Y-124981000D01*
X160749645Y-124979917D01*
X160744971Y-124978499D01*
X160740670Y-124976200D01*
X160734298Y-124970971D01*
X160713924Y-124957357D01*
X160691285Y-124947980D01*
X160667251Y-124943200D01*
X160642747Y-124943200D01*
X160618714Y-124947981D01*
X160596075Y-124957358D01*
X160575702Y-124970971D01*
X160569330Y-124976200D01*
X160565029Y-124978499D01*
X160560355Y-124979917D01*
X160549359Y-124981000D01*
X160260641Y-124981000D01*
X160249645Y-124979917D01*
X160244971Y-124978499D01*
X160240670Y-124976200D01*
X160234298Y-124970971D01*
X160213924Y-124957357D01*
X160191285Y-124947980D01*
X160167251Y-124943200D01*
X160142747Y-124943200D01*
X160118714Y-124947981D01*
X160096075Y-124957358D01*
X160075702Y-124970971D01*
X160069330Y-124976200D01*
X160065029Y-124978499D01*
X160060355Y-124979917D01*
X160049359Y-124981000D01*
X159760641Y-124981000D01*
X159749645Y-124979917D01*
X159744971Y-124978499D01*
X159740670Y-124976200D01*
X159734298Y-124970971D01*
X159713924Y-124957357D01*
X159691285Y-124947980D01*
X159667251Y-124943200D01*
X159642747Y-124943200D01*
X159618714Y-124947981D01*
X159596075Y-124957358D01*
X159575702Y-124970971D01*
X159569330Y-124976200D01*
X159565029Y-124978499D01*
X159560355Y-124979917D01*
X159549359Y-124981000D01*
X159260641Y-124981000D01*
X159249645Y-124979917D01*
X159244971Y-124978499D01*
X159240669Y-124976200D01*
X159236896Y-124973104D01*
X159233800Y-124969331D01*
X159231501Y-124965029D01*
X159230083Y-124960355D01*
X159229000Y-124949359D01*
X159229000Y-124105999D01*
X159226598Y-124081613D01*
X159219485Y-124058164D01*
X159207934Y-124036553D01*
X159192389Y-124017611D01*
X159173447Y-124002066D01*
X159151836Y-123990515D01*
X159128387Y-123983402D01*
X159104001Y-123981000D01*
X158260641Y-123981000D01*
X158249645Y-123979917D01*
X158244971Y-123978499D01*
X158240669Y-123976200D01*
X158236896Y-123973104D01*
X158233800Y-123969331D01*
X158231501Y-123965029D01*
X158230083Y-123960355D01*
X158229000Y-123949359D01*
X158229000Y-123660641D01*
X158230083Y-123649645D01*
X158231501Y-123644971D01*
X158233800Y-123640670D01*
X158239029Y-123634298D01*
X158252643Y-123613924D01*
X158262020Y-123591285D01*
X158266800Y-123567251D01*
X158266800Y-123542747D01*
X158262019Y-123518714D01*
X158252642Y-123496075D01*
X158239029Y-123475702D01*
X158233800Y-123469330D01*
X158231501Y-123465029D01*
X158230083Y-123460355D01*
X158229000Y-123449359D01*
X158229000Y-123160641D01*
X158230083Y-123149645D01*
X158231501Y-123144971D01*
X158233800Y-123140670D01*
X158239029Y-123134298D01*
X158252643Y-123113924D01*
X158262020Y-123091285D01*
X158266800Y-123067251D01*
X158266800Y-123042747D01*
X158262019Y-123018714D01*
X158252642Y-122996075D01*
X158239029Y-122975702D01*
X158233800Y-122969330D01*
X158231501Y-122965029D01*
X158230083Y-122960355D01*
X158229000Y-122949359D01*
X158229000Y-122660641D01*
X158230083Y-122649645D01*
X158231501Y-122644971D01*
X158233800Y-122640670D01*
X158239029Y-122634298D01*
X158252643Y-122613924D01*
X158262020Y-122591285D01*
X158266800Y-122567251D01*
X158266800Y-122542747D01*
X158262019Y-122518714D01*
X158252642Y-122496075D01*
X158239029Y-122475702D01*
X158233800Y-122469330D01*
X158231501Y-122465029D01*
X158230083Y-122460355D01*
X158229000Y-122449359D01*
X158229000Y-122160641D01*
X158230083Y-122149645D01*
X158231501Y-122144971D01*
X158233800Y-122140670D01*
X158239029Y-122134298D01*
X158252643Y-122113924D01*
X158262020Y-122091285D01*
X158266800Y-122067251D01*
X158266800Y-122042747D01*
X158262019Y-122018714D01*
X158252642Y-121996075D01*
X158239029Y-121975702D01*
X158233800Y-121969330D01*
X158231501Y-121965029D01*
X158230083Y-121960355D01*
X158229000Y-121949359D01*
X158229000Y-121660641D01*
X158230083Y-121649645D01*
X158231501Y-121644971D01*
X158233800Y-121640670D01*
X158239029Y-121634298D01*
X158252643Y-121613924D01*
X158262020Y-121591285D01*
X158266800Y-121567251D01*
X158266800Y-121542747D01*
X158262019Y-121518714D01*
X158252642Y-121496075D01*
X158239029Y-121475702D01*
X158233800Y-121469330D01*
X158231501Y-121465029D01*
X158230083Y-121460355D01*
X158229000Y-121449359D01*
X158229000Y-121160641D01*
X158230083Y-121149645D01*
X158231501Y-121144971D01*
X158233800Y-121140669D01*
X158236896Y-121136896D01*
X158240669Y-121133800D01*
X158244971Y-121131501D01*
X158249645Y-121130083D01*
X158260641Y-121129000D01*
X159104001Y-121129000D01*
X159128387Y-121126598D01*
X159151836Y-121119485D01*
X159173447Y-121107934D01*
X159192389Y-121092389D01*
X159207934Y-121073447D01*
X159219485Y-121051836D01*
X159226598Y-121028387D01*
X159229000Y-121004001D01*
X159229000Y-120160641D01*
X159230083Y-120149645D01*
X159231501Y-120144971D01*
X159233800Y-120140669D01*
X159236896Y-120136896D01*
X159240669Y-120133800D01*
X159244971Y-120131501D01*
X159249645Y-120130083D01*
X159260641Y-120129000D01*
X159549359Y-120129000D01*
X159560355Y-120130083D01*
X159560355Y-120130083D01*
G37*
G36*
X128701000Y-124901000D02*
G01*
X125299000Y-124901000D01*
X125299000Y-122299000D01*
X128701000Y-122299000D01*
X128701000Y-124901000D01*
X128701000Y-124901000D01*
G37*
G36*
X154711938Y-122948716D02*
G01*
X154732557Y-122954971D01*
X154751553Y-122965124D01*
X154768208Y-122978792D01*
X154781876Y-122995447D01*
X154792029Y-123014443D01*
X154798284Y-123035062D01*
X154801000Y-123062640D01*
X154801000Y-123571360D01*
X154798284Y-123598938D01*
X154792029Y-123619557D01*
X154781876Y-123638553D01*
X154768208Y-123655208D01*
X154751553Y-123668876D01*
X154732557Y-123679029D01*
X154711938Y-123685284D01*
X154684360Y-123688000D01*
X154225640Y-123688000D01*
X154198062Y-123685284D01*
X154177443Y-123679029D01*
X154158447Y-123668876D01*
X154141792Y-123655208D01*
X154128124Y-123638553D01*
X154117971Y-123619557D01*
X154111716Y-123598938D01*
X154109000Y-123571360D01*
X154109000Y-123062640D01*
X154111716Y-123035062D01*
X154117971Y-123014443D01*
X154128124Y-122995447D01*
X154141792Y-122978792D01*
X154158447Y-122965124D01*
X154177443Y-122954971D01*
X154198062Y-122948716D01*
X154225640Y-122946000D01*
X154684360Y-122946000D01*
X154711938Y-122948716D01*
X154711938Y-122948716D01*
G37*
G36*
X155681938Y-122948716D02*
G01*
X155702557Y-122954971D01*
X155721553Y-122965124D01*
X155738208Y-122978792D01*
X155751876Y-122995447D01*
X155762029Y-123014443D01*
X155768284Y-123035062D01*
X155771000Y-123062640D01*
X155771000Y-123571360D01*
X155768284Y-123598938D01*
X155762029Y-123619557D01*
X155751876Y-123638553D01*
X155738208Y-123655208D01*
X155721553Y-123668876D01*
X155702557Y-123679029D01*
X155681938Y-123685284D01*
X155654360Y-123688000D01*
X155195640Y-123688000D01*
X155168062Y-123685284D01*
X155147443Y-123679029D01*
X155128447Y-123668876D01*
X155111792Y-123655208D01*
X155098124Y-123638553D01*
X155087971Y-123619557D01*
X155081716Y-123598938D01*
X155079000Y-123571360D01*
X155079000Y-123062640D01*
X155081716Y-123035062D01*
X155087971Y-123014443D01*
X155098124Y-122995447D01*
X155111792Y-122978792D01*
X155128447Y-122965124D01*
X155147443Y-122954971D01*
X155168062Y-122948716D01*
X155195640Y-122946000D01*
X155654360Y-122946000D01*
X155681938Y-122948716D01*
X155681938Y-122948716D01*
G37*
G36*
X164998938Y-122440716D02*
G01*
X165019557Y-122446971D01*
X165038553Y-122457124D01*
X165055208Y-122470792D01*
X165068876Y-122487447D01*
X165079029Y-122506443D01*
X165085284Y-122527062D01*
X165088000Y-122554640D01*
X165088000Y-123063360D01*
X165085284Y-123090938D01*
X165079029Y-123111557D01*
X165068876Y-123130553D01*
X165055208Y-123147208D01*
X165038553Y-123160876D01*
X165019557Y-123171029D01*
X164998938Y-123177284D01*
X164971360Y-123180000D01*
X164512640Y-123180000D01*
X164485062Y-123177284D01*
X164464443Y-123171029D01*
X164445447Y-123160876D01*
X164428792Y-123147208D01*
X164415124Y-123130553D01*
X164404971Y-123111557D01*
X164398716Y-123090938D01*
X164396000Y-123063360D01*
X164396000Y-122554640D01*
X164398716Y-122527062D01*
X164404971Y-122506443D01*
X164415124Y-122487447D01*
X164428792Y-122470792D01*
X164445447Y-122457124D01*
X164464443Y-122446971D01*
X164485062Y-122440716D01*
X164512640Y-122438000D01*
X164971360Y-122438000D01*
X164998938Y-122440716D01*
X164998938Y-122440716D01*
G37*
G36*
X165968938Y-122440716D02*
G01*
X165989557Y-122446971D01*
X166008553Y-122457124D01*
X166025208Y-122470792D01*
X166038876Y-122487447D01*
X166049029Y-122506443D01*
X166055284Y-122527062D01*
X166058000Y-122554640D01*
X166058000Y-123063360D01*
X166055284Y-123090938D01*
X166049029Y-123111557D01*
X166038876Y-123130553D01*
X166025208Y-123147208D01*
X166008553Y-123160876D01*
X165989557Y-123171029D01*
X165968938Y-123177284D01*
X165941360Y-123180000D01*
X165482640Y-123180000D01*
X165455062Y-123177284D01*
X165434443Y-123171029D01*
X165415447Y-123160876D01*
X165398792Y-123147208D01*
X165385124Y-123130553D01*
X165374971Y-123111557D01*
X165368716Y-123090938D01*
X165366000Y-123063360D01*
X165366000Y-122554640D01*
X165368716Y-122527062D01*
X165374971Y-122506443D01*
X165385124Y-122487447D01*
X165398792Y-122470792D01*
X165415447Y-122457124D01*
X165434443Y-122446971D01*
X165455062Y-122440716D01*
X165482640Y-122438000D01*
X165941360Y-122438000D01*
X165968938Y-122440716D01*
X165968938Y-122440716D01*
G37*
G36*
X153178000Y-122803000D02*
G01*
X151876000Y-122803000D01*
X151876000Y-121801000D01*
X153178000Y-121801000D01*
X153178000Y-122803000D01*
X153178000Y-122803000D01*
G37*
G36*
X150765000Y-122803000D02*
G01*
X149463000Y-122803000D01*
X149463000Y-121801000D01*
X150765000Y-121801000D01*
X150765000Y-122803000D01*
X150765000Y-122803000D01*
G37*
G36*
X137986811Y-120317271D02*
G01*
X138022603Y-120328129D01*
X138055595Y-120345763D01*
X138084508Y-120369492D01*
X138108237Y-120398405D01*
X138125871Y-120431397D01*
X138136729Y-120467189D01*
X138141000Y-120510555D01*
X138141000Y-122567445D01*
X138136729Y-122610811D01*
X138125871Y-122646603D01*
X138108237Y-122679595D01*
X138084508Y-122708508D01*
X138055595Y-122732237D01*
X138022603Y-122749871D01*
X137986811Y-122760729D01*
X137943445Y-122765000D01*
X136911555Y-122765000D01*
X136868189Y-122760729D01*
X136832397Y-122749871D01*
X136799405Y-122732237D01*
X136770492Y-122708508D01*
X136746763Y-122679595D01*
X136729129Y-122646603D01*
X136718271Y-122610811D01*
X136714000Y-122567445D01*
X136714000Y-120510555D01*
X136718271Y-120467189D01*
X136729129Y-120431397D01*
X136746763Y-120398405D01*
X136770492Y-120369492D01*
X136799405Y-120345763D01*
X136832397Y-120328129D01*
X136868189Y-120317271D01*
X136911555Y-120313000D01*
X137943445Y-120313000D01*
X137986811Y-120317271D01*
X137986811Y-120317271D01*
G37*
G36*
X134911811Y-120317271D02*
G01*
X134947603Y-120328129D01*
X134980595Y-120345763D01*
X135009508Y-120369492D01*
X135033237Y-120398405D01*
X135050871Y-120431397D01*
X135061729Y-120467189D01*
X135066000Y-120510555D01*
X135066000Y-122567445D01*
X135061729Y-122610811D01*
X135050871Y-122646603D01*
X135033237Y-122679595D01*
X135009508Y-122708508D01*
X134980595Y-122732237D01*
X134947603Y-122749871D01*
X134911811Y-122760729D01*
X134868445Y-122765000D01*
X133836555Y-122765000D01*
X133793189Y-122760729D01*
X133757397Y-122749871D01*
X133724405Y-122732237D01*
X133695492Y-122708508D01*
X133671763Y-122679595D01*
X133654129Y-122646603D01*
X133643271Y-122610811D01*
X133639000Y-122567445D01*
X133639000Y-120510555D01*
X133643271Y-120467189D01*
X133654129Y-120431397D01*
X133671763Y-120398405D01*
X133695492Y-120369492D01*
X133724405Y-120345763D01*
X133757397Y-120328129D01*
X133793189Y-120317271D01*
X133836555Y-120313000D01*
X134868445Y-120313000D01*
X134911811Y-120317271D01*
X134911811Y-120317271D01*
G37*
G36*
X119896000Y-122746000D02*
G01*
X117594000Y-122746000D01*
X117594000Y-121144000D01*
X119896000Y-121144000D01*
X119896000Y-122746000D01*
X119896000Y-122746000D01*
G37*
G36*
X154711938Y-121932716D02*
G01*
X154732557Y-121938971D01*
X154751553Y-121949124D01*
X154768208Y-121962792D01*
X154781876Y-121979447D01*
X154792029Y-121998443D01*
X154798284Y-122019062D01*
X154801000Y-122046640D01*
X154801000Y-122555360D01*
X154798284Y-122582938D01*
X154792029Y-122603557D01*
X154781876Y-122622553D01*
X154768208Y-122639208D01*
X154751553Y-122652876D01*
X154732557Y-122663029D01*
X154711938Y-122669284D01*
X154684360Y-122672000D01*
X154225640Y-122672000D01*
X154198062Y-122669284D01*
X154177443Y-122663029D01*
X154158447Y-122652876D01*
X154141792Y-122639208D01*
X154128124Y-122622553D01*
X154117971Y-122603557D01*
X154111716Y-122582938D01*
X154109000Y-122555360D01*
X154109000Y-122046640D01*
X154111716Y-122019062D01*
X154117971Y-121998443D01*
X154128124Y-121979447D01*
X154141792Y-121962792D01*
X154158447Y-121949124D01*
X154177443Y-121938971D01*
X154198062Y-121932716D01*
X154225640Y-121930000D01*
X154684360Y-121930000D01*
X154711938Y-121932716D01*
X154711938Y-121932716D01*
G37*
G36*
X155681938Y-121932716D02*
G01*
X155702557Y-121938971D01*
X155721553Y-121949124D01*
X155738208Y-121962792D01*
X155751876Y-121979447D01*
X155762029Y-121998443D01*
X155768284Y-122019062D01*
X155771000Y-122046640D01*
X155771000Y-122555360D01*
X155768284Y-122582938D01*
X155762029Y-122603557D01*
X155751876Y-122622553D01*
X155738208Y-122639208D01*
X155721553Y-122652876D01*
X155702557Y-122663029D01*
X155681938Y-122669284D01*
X155654360Y-122672000D01*
X155195640Y-122672000D01*
X155168062Y-122669284D01*
X155147443Y-122663029D01*
X155128447Y-122652876D01*
X155111792Y-122639208D01*
X155098124Y-122622553D01*
X155087971Y-122603557D01*
X155081716Y-122582938D01*
X155079000Y-122555360D01*
X155079000Y-122046640D01*
X155081716Y-122019062D01*
X155087971Y-121998443D01*
X155098124Y-121979447D01*
X155111792Y-121962792D01*
X155128447Y-121949124D01*
X155147443Y-121938971D01*
X155168062Y-121932716D01*
X155195640Y-121930000D01*
X155654360Y-121930000D01*
X155681938Y-121932716D01*
X155681938Y-121932716D01*
G37*
G36*
X130454938Y-121043716D02*
G01*
X130475557Y-121049971D01*
X130494553Y-121060124D01*
X130511208Y-121073792D01*
X130524876Y-121090447D01*
X130535029Y-121109443D01*
X130541284Y-121130062D01*
X130544000Y-121157640D01*
X130544000Y-121666360D01*
X130541284Y-121693938D01*
X130535029Y-121714557D01*
X130524876Y-121733553D01*
X130511208Y-121750208D01*
X130494553Y-121763876D01*
X130475557Y-121774029D01*
X130454938Y-121780284D01*
X130427360Y-121783000D01*
X129968640Y-121783000D01*
X129941062Y-121780284D01*
X129920443Y-121774029D01*
X129901447Y-121763876D01*
X129884792Y-121750208D01*
X129871124Y-121733553D01*
X129860971Y-121714557D01*
X129854716Y-121693938D01*
X129852000Y-121666360D01*
X129852000Y-121157640D01*
X129854716Y-121130062D01*
X129860971Y-121109443D01*
X129871124Y-121090447D01*
X129884792Y-121073792D01*
X129901447Y-121060124D01*
X129920443Y-121049971D01*
X129941062Y-121043716D01*
X129968640Y-121041000D01*
X130427360Y-121041000D01*
X130454938Y-121043716D01*
X130454938Y-121043716D01*
G37*
G36*
X165968938Y-121043716D02*
G01*
X165989557Y-121049971D01*
X166008553Y-121060124D01*
X166025208Y-121073792D01*
X166038876Y-121090447D01*
X166049029Y-121109443D01*
X166055284Y-121130062D01*
X166058000Y-121157640D01*
X166058000Y-121666360D01*
X166055284Y-121693938D01*
X166049029Y-121714557D01*
X166038876Y-121733553D01*
X166025208Y-121750208D01*
X166008553Y-121763876D01*
X165989557Y-121774029D01*
X165968938Y-121780284D01*
X165941360Y-121783000D01*
X165482640Y-121783000D01*
X165455062Y-121780284D01*
X165434443Y-121774029D01*
X165415447Y-121763876D01*
X165398792Y-121750208D01*
X165385124Y-121733553D01*
X165374971Y-121714557D01*
X165368716Y-121693938D01*
X165366000Y-121666360D01*
X165366000Y-121157640D01*
X165368716Y-121130062D01*
X165374971Y-121109443D01*
X165385124Y-121090447D01*
X165398792Y-121073792D01*
X165415447Y-121060124D01*
X165434443Y-121049971D01*
X165455062Y-121043716D01*
X165482640Y-121041000D01*
X165941360Y-121041000D01*
X165968938Y-121043716D01*
X165968938Y-121043716D01*
G37*
G36*
X164998938Y-121043716D02*
G01*
X165019557Y-121049971D01*
X165038553Y-121060124D01*
X165055208Y-121073792D01*
X165068876Y-121090447D01*
X165079029Y-121109443D01*
X165085284Y-121130062D01*
X165088000Y-121157640D01*
X165088000Y-121666360D01*
X165085284Y-121693938D01*
X165079029Y-121714557D01*
X165068876Y-121733553D01*
X165055208Y-121750208D01*
X165038553Y-121763876D01*
X165019557Y-121774029D01*
X164998938Y-121780284D01*
X164971360Y-121783000D01*
X164512640Y-121783000D01*
X164485062Y-121780284D01*
X164464443Y-121774029D01*
X164445447Y-121763876D01*
X164428792Y-121750208D01*
X164415124Y-121733553D01*
X164404971Y-121714557D01*
X164398716Y-121693938D01*
X164396000Y-121666360D01*
X164396000Y-121157640D01*
X164398716Y-121130062D01*
X164404971Y-121109443D01*
X164415124Y-121090447D01*
X164428792Y-121073792D01*
X164445447Y-121060124D01*
X164464443Y-121049971D01*
X164485062Y-121043716D01*
X164512640Y-121041000D01*
X164971360Y-121041000D01*
X164998938Y-121043716D01*
X164998938Y-121043716D01*
G37*
G36*
X131424938Y-121043716D02*
G01*
X131445557Y-121049971D01*
X131464553Y-121060124D01*
X131481208Y-121073792D01*
X131494876Y-121090447D01*
X131505029Y-121109443D01*
X131511284Y-121130062D01*
X131514000Y-121157640D01*
X131514000Y-121666360D01*
X131511284Y-121693938D01*
X131505029Y-121714557D01*
X131494876Y-121733553D01*
X131481208Y-121750208D01*
X131464553Y-121763876D01*
X131445557Y-121774029D01*
X131424938Y-121780284D01*
X131397360Y-121783000D01*
X130938640Y-121783000D01*
X130911062Y-121780284D01*
X130890443Y-121774029D01*
X130871447Y-121763876D01*
X130854792Y-121750208D01*
X130841124Y-121733553D01*
X130830971Y-121714557D01*
X130824716Y-121693938D01*
X130822000Y-121666360D01*
X130822000Y-121157640D01*
X130824716Y-121130062D01*
X130830971Y-121109443D01*
X130841124Y-121090447D01*
X130854792Y-121073792D01*
X130871447Y-121060124D01*
X130890443Y-121049971D01*
X130911062Y-121043716D01*
X130938640Y-121041000D01*
X131397360Y-121041000D01*
X131424938Y-121043716D01*
X131424938Y-121043716D01*
G37*
G36*
X155681938Y-120916716D02*
G01*
X155702557Y-120922971D01*
X155721553Y-120933124D01*
X155738208Y-120946792D01*
X155751876Y-120963447D01*
X155762029Y-120982443D01*
X155768284Y-121003062D01*
X155771000Y-121030640D01*
X155771000Y-121539360D01*
X155768284Y-121566938D01*
X155762029Y-121587557D01*
X155751876Y-121606553D01*
X155738208Y-121623208D01*
X155721553Y-121636876D01*
X155702557Y-121647029D01*
X155681938Y-121653284D01*
X155654360Y-121656000D01*
X155195640Y-121656000D01*
X155168062Y-121653284D01*
X155147443Y-121647029D01*
X155128447Y-121636876D01*
X155111792Y-121623208D01*
X155098124Y-121606553D01*
X155087971Y-121587557D01*
X155081716Y-121566938D01*
X155079000Y-121539360D01*
X155079000Y-121030640D01*
X155081716Y-121003062D01*
X155087971Y-120982443D01*
X155098124Y-120963447D01*
X155111792Y-120946792D01*
X155128447Y-120933124D01*
X155147443Y-120922971D01*
X155168062Y-120916716D01*
X155195640Y-120914000D01*
X155654360Y-120914000D01*
X155681938Y-120916716D01*
X155681938Y-120916716D01*
G37*
G36*
X154711938Y-120916716D02*
G01*
X154732557Y-120922971D01*
X154751553Y-120933124D01*
X154768208Y-120946792D01*
X154781876Y-120963447D01*
X154792029Y-120982443D01*
X154798284Y-121003062D01*
X154801000Y-121030640D01*
X154801000Y-121539360D01*
X154798284Y-121566938D01*
X154792029Y-121587557D01*
X154781876Y-121606553D01*
X154768208Y-121623208D01*
X154751553Y-121636876D01*
X154732557Y-121647029D01*
X154711938Y-121653284D01*
X154684360Y-121656000D01*
X154225640Y-121656000D01*
X154198062Y-121653284D01*
X154177443Y-121647029D01*
X154158447Y-121636876D01*
X154141792Y-121623208D01*
X154128124Y-121606553D01*
X154117971Y-121587557D01*
X154111716Y-121566938D01*
X154109000Y-121539360D01*
X154109000Y-121030640D01*
X154111716Y-121003062D01*
X154117971Y-120982443D01*
X154128124Y-120963447D01*
X154141792Y-120946792D01*
X154158447Y-120933124D01*
X154177443Y-120922971D01*
X154198062Y-120916716D01*
X154225640Y-120914000D01*
X154684360Y-120914000D01*
X154711938Y-120916716D01*
X154711938Y-120916716D01*
G37*
G36*
X165968938Y-120027716D02*
G01*
X165989557Y-120033971D01*
X166008553Y-120044124D01*
X166025208Y-120057792D01*
X166038876Y-120074447D01*
X166049029Y-120093443D01*
X166055284Y-120114062D01*
X166058000Y-120141640D01*
X166058000Y-120650360D01*
X166055284Y-120677938D01*
X166049029Y-120698557D01*
X166038876Y-120717553D01*
X166025208Y-120734208D01*
X166008553Y-120747876D01*
X165989557Y-120758029D01*
X165968938Y-120764284D01*
X165941360Y-120767000D01*
X165482640Y-120767000D01*
X165455062Y-120764284D01*
X165434443Y-120758029D01*
X165415447Y-120747876D01*
X165398792Y-120734208D01*
X165385124Y-120717553D01*
X165374971Y-120698557D01*
X165368716Y-120677938D01*
X165366000Y-120650360D01*
X165366000Y-120141640D01*
X165368716Y-120114062D01*
X165374971Y-120093443D01*
X165385124Y-120074447D01*
X165398792Y-120057792D01*
X165415447Y-120044124D01*
X165434443Y-120033971D01*
X165455062Y-120027716D01*
X165482640Y-120025000D01*
X165941360Y-120025000D01*
X165968938Y-120027716D01*
X165968938Y-120027716D01*
G37*
G36*
X164998938Y-120027716D02*
G01*
X165019557Y-120033971D01*
X165038553Y-120044124D01*
X165055208Y-120057792D01*
X165068876Y-120074447D01*
X165079029Y-120093443D01*
X165085284Y-120114062D01*
X165088000Y-120141640D01*
X165088000Y-120650360D01*
X165085284Y-120677938D01*
X165079029Y-120698557D01*
X165068876Y-120717553D01*
X165055208Y-120734208D01*
X165038553Y-120747876D01*
X165019557Y-120758029D01*
X164998938Y-120764284D01*
X164971360Y-120767000D01*
X164512640Y-120767000D01*
X164485062Y-120764284D01*
X164464443Y-120758029D01*
X164445447Y-120747876D01*
X164428792Y-120734208D01*
X164415124Y-120717553D01*
X164404971Y-120698557D01*
X164398716Y-120677938D01*
X164396000Y-120650360D01*
X164396000Y-120141640D01*
X164398716Y-120114062D01*
X164404971Y-120093443D01*
X164415124Y-120074447D01*
X164428792Y-120057792D01*
X164445447Y-120044124D01*
X164464443Y-120033971D01*
X164485062Y-120027716D01*
X164512640Y-120025000D01*
X164971360Y-120025000D01*
X164998938Y-120027716D01*
X164998938Y-120027716D01*
G37*
G36*
X151055355Y-119602083D02*
G01*
X151060029Y-119603501D01*
X151064330Y-119605800D01*
X151070702Y-119611029D01*
X151091076Y-119624643D01*
X151113715Y-119634020D01*
X151137749Y-119638800D01*
X151162253Y-119638800D01*
X151186286Y-119634019D01*
X151208925Y-119624642D01*
X151229298Y-119611029D01*
X151235670Y-119605800D01*
X151239971Y-119603501D01*
X151244645Y-119602083D01*
X151255641Y-119601000D01*
X151544359Y-119601000D01*
X151555355Y-119602083D01*
X151560029Y-119603501D01*
X151564330Y-119605800D01*
X151570702Y-119611029D01*
X151591076Y-119624643D01*
X151613715Y-119634020D01*
X151637749Y-119638800D01*
X151662253Y-119638800D01*
X151686286Y-119634019D01*
X151708925Y-119624642D01*
X151729298Y-119611029D01*
X151735670Y-119605800D01*
X151739971Y-119603501D01*
X151744645Y-119602083D01*
X151755641Y-119601000D01*
X152044359Y-119601000D01*
X152055355Y-119602083D01*
X152060029Y-119603501D01*
X152064330Y-119605800D01*
X152070702Y-119611029D01*
X152091076Y-119624643D01*
X152113715Y-119634020D01*
X152137749Y-119638800D01*
X152162253Y-119638800D01*
X152186286Y-119634019D01*
X152208925Y-119624642D01*
X152229298Y-119611029D01*
X152235670Y-119605800D01*
X152239971Y-119603501D01*
X152244645Y-119602083D01*
X152255641Y-119601000D01*
X152544359Y-119601000D01*
X152555355Y-119602083D01*
X152560029Y-119603501D01*
X152564330Y-119605800D01*
X152570702Y-119611029D01*
X152591076Y-119624643D01*
X152613715Y-119634020D01*
X152637749Y-119638800D01*
X152662253Y-119638800D01*
X152686286Y-119634019D01*
X152708925Y-119624642D01*
X152729298Y-119611029D01*
X152735670Y-119605800D01*
X152739971Y-119603501D01*
X152744645Y-119602083D01*
X152755641Y-119601000D01*
X153044359Y-119601000D01*
X153055355Y-119602083D01*
X153060029Y-119603501D01*
X153064330Y-119605800D01*
X153070702Y-119611029D01*
X153091076Y-119624643D01*
X153113715Y-119634020D01*
X153137749Y-119638800D01*
X153162253Y-119638800D01*
X153186286Y-119634019D01*
X153208925Y-119624642D01*
X153229298Y-119611029D01*
X153235670Y-119605800D01*
X153239971Y-119603501D01*
X153244645Y-119602083D01*
X153255641Y-119601000D01*
X153544359Y-119601000D01*
X153555355Y-119602083D01*
X153560029Y-119603501D01*
X153564330Y-119605800D01*
X153570702Y-119611029D01*
X153591076Y-119624643D01*
X153613715Y-119634020D01*
X153637749Y-119638800D01*
X153662253Y-119638800D01*
X153686286Y-119634019D01*
X153708925Y-119624642D01*
X153729298Y-119611029D01*
X153735670Y-119605800D01*
X153739971Y-119603501D01*
X153744645Y-119602083D01*
X153755641Y-119601000D01*
X154044359Y-119601000D01*
X154055355Y-119602083D01*
X154060029Y-119603501D01*
X154064331Y-119605800D01*
X154068104Y-119608896D01*
X154071200Y-119612669D01*
X154073499Y-119616971D01*
X154074917Y-119621645D01*
X154076000Y-119632641D01*
X154076000Y-120471359D01*
X154074917Y-120482355D01*
X154073499Y-120487029D01*
X154071200Y-120491331D01*
X154068104Y-120495104D01*
X154064331Y-120498200D01*
X154060029Y-120500499D01*
X154055355Y-120501917D01*
X154044359Y-120503000D01*
X153755641Y-120503000D01*
X153744645Y-120501917D01*
X153739971Y-120500499D01*
X153735670Y-120498200D01*
X153729298Y-120492971D01*
X153708924Y-120479357D01*
X153686285Y-120469980D01*
X153662251Y-120465200D01*
X153637747Y-120465200D01*
X153613714Y-120469981D01*
X153591075Y-120479358D01*
X153570702Y-120492971D01*
X153564330Y-120498200D01*
X153560029Y-120500499D01*
X153555355Y-120501917D01*
X153544359Y-120503000D01*
X153255641Y-120503000D01*
X153244645Y-120501917D01*
X153239971Y-120500499D01*
X153235670Y-120498200D01*
X153229298Y-120492971D01*
X153208924Y-120479357D01*
X153186285Y-120469980D01*
X153162251Y-120465200D01*
X153137747Y-120465200D01*
X153113714Y-120469981D01*
X153091075Y-120479358D01*
X153070702Y-120492971D01*
X153064330Y-120498200D01*
X153060029Y-120500499D01*
X153055355Y-120501917D01*
X153044359Y-120503000D01*
X152755641Y-120503000D01*
X152744645Y-120501917D01*
X152739971Y-120500499D01*
X152735670Y-120498200D01*
X152729298Y-120492971D01*
X152708924Y-120479357D01*
X152686285Y-120469980D01*
X152662251Y-120465200D01*
X152637747Y-120465200D01*
X152613714Y-120469981D01*
X152591075Y-120479358D01*
X152570702Y-120492971D01*
X152564330Y-120498200D01*
X152560029Y-120500499D01*
X152555355Y-120501917D01*
X152544359Y-120503000D01*
X152255641Y-120503000D01*
X152244645Y-120501917D01*
X152239971Y-120500499D01*
X152235670Y-120498200D01*
X152229298Y-120492971D01*
X152208924Y-120479357D01*
X152186285Y-120469980D01*
X152162251Y-120465200D01*
X152137747Y-120465200D01*
X152113714Y-120469981D01*
X152091075Y-120479358D01*
X152070702Y-120492971D01*
X152064330Y-120498200D01*
X152060029Y-120500499D01*
X152055355Y-120501917D01*
X152044359Y-120503000D01*
X151755641Y-120503000D01*
X151744645Y-120501917D01*
X151739971Y-120500499D01*
X151735670Y-120498200D01*
X151729298Y-120492971D01*
X151708924Y-120479357D01*
X151686285Y-120469980D01*
X151662251Y-120465200D01*
X151637747Y-120465200D01*
X151613714Y-120469981D01*
X151591075Y-120479358D01*
X151570702Y-120492971D01*
X151564330Y-120498200D01*
X151560029Y-120500499D01*
X151555355Y-120501917D01*
X151544359Y-120503000D01*
X151255641Y-120503000D01*
X151244645Y-120501917D01*
X151239971Y-120500499D01*
X151235670Y-120498200D01*
X151229298Y-120492971D01*
X151208924Y-120479357D01*
X151186285Y-120469980D01*
X151162251Y-120465200D01*
X151137747Y-120465200D01*
X151113714Y-120469981D01*
X151091075Y-120479358D01*
X151070702Y-120492971D01*
X151064330Y-120498200D01*
X151060029Y-120500499D01*
X151055355Y-120501917D01*
X151044359Y-120503000D01*
X150755641Y-120503000D01*
X150744645Y-120501917D01*
X150739971Y-120500499D01*
X150735669Y-120498200D01*
X150731896Y-120495104D01*
X150728800Y-120491331D01*
X150726501Y-120487029D01*
X150725083Y-120482355D01*
X150724000Y-120471359D01*
X150724000Y-119632641D01*
X150725083Y-119621645D01*
X150726501Y-119616971D01*
X150728800Y-119612669D01*
X150731896Y-119608896D01*
X150735669Y-119605800D01*
X150739971Y-119603501D01*
X150744645Y-119602083D01*
X150755641Y-119601000D01*
X151044359Y-119601000D01*
X151055355Y-119602083D01*
X151055355Y-119602083D01*
G37*
G36*
X157586938Y-119138716D02*
G01*
X157607557Y-119144971D01*
X157626553Y-119155124D01*
X157643208Y-119168792D01*
X157656876Y-119185447D01*
X157667029Y-119204443D01*
X157673284Y-119225062D01*
X157676000Y-119252640D01*
X157676000Y-119761360D01*
X157673284Y-119788938D01*
X157667029Y-119809557D01*
X157656876Y-119828553D01*
X157643208Y-119845208D01*
X157626553Y-119858876D01*
X157607557Y-119869029D01*
X157586938Y-119875284D01*
X157559360Y-119878000D01*
X157100640Y-119878000D01*
X157073062Y-119875284D01*
X157052443Y-119869029D01*
X157033447Y-119858876D01*
X157016792Y-119845208D01*
X157003124Y-119828553D01*
X156992971Y-119809557D01*
X156986716Y-119788938D01*
X156984000Y-119761360D01*
X156984000Y-119252640D01*
X156986716Y-119225062D01*
X156992971Y-119204443D01*
X157003124Y-119185447D01*
X157016792Y-119168792D01*
X157033447Y-119155124D01*
X157052443Y-119144971D01*
X157073062Y-119138716D01*
X157100640Y-119136000D01*
X157559360Y-119136000D01*
X157586938Y-119138716D01*
X157586938Y-119138716D01*
G37*
G36*
X156616938Y-119138716D02*
G01*
X156637557Y-119144971D01*
X156656553Y-119155124D01*
X156673208Y-119168792D01*
X156686876Y-119185447D01*
X156697029Y-119204443D01*
X156703284Y-119225062D01*
X156706000Y-119252640D01*
X156706000Y-119761360D01*
X156703284Y-119788938D01*
X156697029Y-119809557D01*
X156686876Y-119828553D01*
X156673208Y-119845208D01*
X156656553Y-119858876D01*
X156637557Y-119869029D01*
X156616938Y-119875284D01*
X156589360Y-119878000D01*
X156130640Y-119878000D01*
X156103062Y-119875284D01*
X156082443Y-119869029D01*
X156063447Y-119858876D01*
X156046792Y-119845208D01*
X156033124Y-119828553D01*
X156022971Y-119809557D01*
X156016716Y-119788938D01*
X156014000Y-119761360D01*
X156014000Y-119252640D01*
X156016716Y-119225062D01*
X156022971Y-119204443D01*
X156033124Y-119185447D01*
X156046792Y-119168792D01*
X156063447Y-119155124D01*
X156082443Y-119144971D01*
X156103062Y-119138716D01*
X156130640Y-119136000D01*
X156589360Y-119136000D01*
X156616938Y-119138716D01*
X156616938Y-119138716D01*
G37*
G36*
X126396000Y-119731000D02*
G01*
X124744000Y-119731000D01*
X124744000Y-119029000D01*
X126396000Y-119029000D01*
X126396000Y-119731000D01*
X126396000Y-119731000D01*
G37*
G36*
X131796000Y-119731000D02*
G01*
X130144000Y-119731000D01*
X130144000Y-119029000D01*
X131796000Y-119029000D01*
X131796000Y-119731000D01*
X131796000Y-119731000D01*
G37*
G36*
X134911811Y-117015271D02*
G01*
X134947603Y-117026129D01*
X134980595Y-117043763D01*
X135009508Y-117067492D01*
X135033237Y-117096405D01*
X135050871Y-117129397D01*
X135061729Y-117165189D01*
X135066000Y-117208555D01*
X135066000Y-119265445D01*
X135061729Y-119308811D01*
X135050871Y-119344603D01*
X135033237Y-119377595D01*
X135009508Y-119406508D01*
X134980595Y-119430237D01*
X134947603Y-119447871D01*
X134911811Y-119458729D01*
X134868445Y-119463000D01*
X133836555Y-119463000D01*
X133793189Y-119458729D01*
X133757397Y-119447871D01*
X133724405Y-119430237D01*
X133695492Y-119406508D01*
X133671763Y-119377595D01*
X133654129Y-119344603D01*
X133643271Y-119308811D01*
X133639000Y-119265445D01*
X133639000Y-117208555D01*
X133643271Y-117165189D01*
X133654129Y-117129397D01*
X133671763Y-117096405D01*
X133695492Y-117067492D01*
X133724405Y-117043763D01*
X133757397Y-117026129D01*
X133793189Y-117015271D01*
X133836555Y-117011000D01*
X134868445Y-117011000D01*
X134911811Y-117015271D01*
X134911811Y-117015271D01*
G37*
G36*
X137986811Y-117015271D02*
G01*
X138022603Y-117026129D01*
X138055595Y-117043763D01*
X138084508Y-117067492D01*
X138108237Y-117096405D01*
X138125871Y-117129397D01*
X138136729Y-117165189D01*
X138141000Y-117208555D01*
X138141000Y-119265445D01*
X138136729Y-119308811D01*
X138125871Y-119344603D01*
X138108237Y-119377595D01*
X138084508Y-119406508D01*
X138055595Y-119430237D01*
X138022603Y-119447871D01*
X137986811Y-119458729D01*
X137943445Y-119463000D01*
X136911555Y-119463000D01*
X136868189Y-119458729D01*
X136832397Y-119447871D01*
X136799405Y-119430237D01*
X136770492Y-119406508D01*
X136746763Y-119377595D01*
X136729129Y-119344603D01*
X136718271Y-119308811D01*
X136714000Y-119265445D01*
X136714000Y-117208555D01*
X136718271Y-117165189D01*
X136729129Y-117129397D01*
X136746763Y-117096405D01*
X136770492Y-117067492D01*
X136799405Y-117043763D01*
X136832397Y-117026129D01*
X136868189Y-117015271D01*
X136911555Y-117011000D01*
X137943445Y-117011000D01*
X137986811Y-117015271D01*
X137986811Y-117015271D01*
G37*
G36*
X165437938Y-118630716D02*
G01*
X165458557Y-118636971D01*
X165477553Y-118647124D01*
X165494208Y-118660792D01*
X165507876Y-118677447D01*
X165518029Y-118696443D01*
X165524284Y-118717062D01*
X165527000Y-118744640D01*
X165527000Y-119253360D01*
X165524284Y-119280938D01*
X165518029Y-119301557D01*
X165507876Y-119320553D01*
X165494208Y-119337208D01*
X165477553Y-119350876D01*
X165458557Y-119361029D01*
X165437938Y-119367284D01*
X165410360Y-119370000D01*
X164951640Y-119370000D01*
X164924062Y-119367284D01*
X164903443Y-119361029D01*
X164884447Y-119350876D01*
X164867792Y-119337208D01*
X164854124Y-119320553D01*
X164843971Y-119301557D01*
X164837716Y-119280938D01*
X164835000Y-119253360D01*
X164835000Y-118744640D01*
X164837716Y-118717062D01*
X164843971Y-118696443D01*
X164854124Y-118677447D01*
X164867792Y-118660792D01*
X164884447Y-118647124D01*
X164903443Y-118636971D01*
X164924062Y-118630716D01*
X164951640Y-118628000D01*
X165410360Y-118628000D01*
X165437938Y-118630716D01*
X165437938Y-118630716D01*
G37*
G36*
X167746938Y-118630716D02*
G01*
X167767557Y-118636971D01*
X167786553Y-118647124D01*
X167803208Y-118660792D01*
X167816876Y-118677447D01*
X167827029Y-118696443D01*
X167833284Y-118717062D01*
X167836000Y-118744640D01*
X167836000Y-119253360D01*
X167833284Y-119280938D01*
X167827029Y-119301557D01*
X167816876Y-119320553D01*
X167803208Y-119337208D01*
X167786553Y-119350876D01*
X167767557Y-119361029D01*
X167746938Y-119367284D01*
X167719360Y-119370000D01*
X167260640Y-119370000D01*
X167233062Y-119367284D01*
X167212443Y-119361029D01*
X167193447Y-119350876D01*
X167176792Y-119337208D01*
X167163124Y-119320553D01*
X167152971Y-119301557D01*
X167146716Y-119280938D01*
X167144000Y-119253360D01*
X167144000Y-118744640D01*
X167146716Y-118717062D01*
X167152971Y-118696443D01*
X167163124Y-118677447D01*
X167176792Y-118660792D01*
X167193447Y-118647124D01*
X167212443Y-118636971D01*
X167233062Y-118630716D01*
X167260640Y-118628000D01*
X167719360Y-118628000D01*
X167746938Y-118630716D01*
X167746938Y-118630716D01*
G37*
G36*
X164467938Y-118630716D02*
G01*
X164488557Y-118636971D01*
X164507553Y-118647124D01*
X164524208Y-118660792D01*
X164537876Y-118677447D01*
X164548029Y-118696443D01*
X164554284Y-118717062D01*
X164557000Y-118744640D01*
X164557000Y-119253360D01*
X164554284Y-119280938D01*
X164548029Y-119301557D01*
X164537876Y-119320553D01*
X164524208Y-119337208D01*
X164507553Y-119350876D01*
X164488557Y-119361029D01*
X164467938Y-119367284D01*
X164440360Y-119370000D01*
X163981640Y-119370000D01*
X163954062Y-119367284D01*
X163933443Y-119361029D01*
X163914447Y-119350876D01*
X163897792Y-119337208D01*
X163884124Y-119320553D01*
X163873971Y-119301557D01*
X163867716Y-119280938D01*
X163865000Y-119253360D01*
X163865000Y-118744640D01*
X163867716Y-118717062D01*
X163873971Y-118696443D01*
X163884124Y-118677447D01*
X163897792Y-118660792D01*
X163914447Y-118647124D01*
X163933443Y-118636971D01*
X163954062Y-118630716D01*
X163981640Y-118628000D01*
X164440360Y-118628000D01*
X164467938Y-118630716D01*
X164467938Y-118630716D01*
G37*
G36*
X166776938Y-118630716D02*
G01*
X166797557Y-118636971D01*
X166816553Y-118647124D01*
X166833208Y-118660792D01*
X166846876Y-118677447D01*
X166857029Y-118696443D01*
X166863284Y-118717062D01*
X166866000Y-118744640D01*
X166866000Y-119253360D01*
X166863284Y-119280938D01*
X166857029Y-119301557D01*
X166846876Y-119320553D01*
X166833208Y-119337208D01*
X166816553Y-119350876D01*
X166797557Y-119361029D01*
X166776938Y-119367284D01*
X166749360Y-119370000D01*
X166290640Y-119370000D01*
X166263062Y-119367284D01*
X166242443Y-119361029D01*
X166223447Y-119350876D01*
X166206792Y-119337208D01*
X166193124Y-119320553D01*
X166182971Y-119301557D01*
X166176716Y-119280938D01*
X166174000Y-119253360D01*
X166174000Y-118744640D01*
X166176716Y-118717062D01*
X166182971Y-118696443D01*
X166193124Y-118677447D01*
X166206792Y-118660792D01*
X166223447Y-118647124D01*
X166242443Y-118636971D01*
X166263062Y-118630716D01*
X166290640Y-118628000D01*
X166749360Y-118628000D01*
X166776938Y-118630716D01*
X166776938Y-118630716D01*
G37*
G36*
X154004124Y-115879499D02*
G01*
X154032387Y-115888073D01*
X154058434Y-115901996D01*
X154081267Y-115920733D01*
X154100004Y-115943566D01*
X154113927Y-115969613D01*
X154122501Y-115997876D01*
X154126000Y-116033408D01*
X154126000Y-119170592D01*
X154122501Y-119206124D01*
X154113927Y-119234387D01*
X154100004Y-119260434D01*
X154081267Y-119283267D01*
X154058434Y-119302004D01*
X154032387Y-119315927D01*
X154004124Y-119324501D01*
X153968592Y-119328000D01*
X150831408Y-119328000D01*
X150795876Y-119324501D01*
X150767613Y-119315927D01*
X150741566Y-119302004D01*
X150718733Y-119283267D01*
X150699996Y-119260434D01*
X150686073Y-119234387D01*
X150677499Y-119206124D01*
X150674000Y-119170592D01*
X150674000Y-116033408D01*
X150677499Y-115997876D01*
X150686073Y-115969613D01*
X150699996Y-115943566D01*
X150718733Y-115920733D01*
X150741566Y-115901996D01*
X150767613Y-115888073D01*
X150795876Y-115879499D01*
X150831408Y-115876000D01*
X153968592Y-115876000D01*
X154004124Y-115879499D01*
X154004124Y-115879499D01*
G37*
G36*
X155280355Y-115927083D02*
G01*
X155285029Y-115928501D01*
X155289331Y-115930800D01*
X155293104Y-115933896D01*
X155296200Y-115937669D01*
X155298499Y-115941971D01*
X155299917Y-115946645D01*
X155301000Y-115957641D01*
X155301000Y-116246359D01*
X155299917Y-116257355D01*
X155298499Y-116262029D01*
X155296200Y-116266330D01*
X155290971Y-116272702D01*
X155277357Y-116293076D01*
X155267980Y-116315715D01*
X155263200Y-116339749D01*
X155263200Y-116364253D01*
X155267981Y-116388286D01*
X155277358Y-116410925D01*
X155290971Y-116431298D01*
X155296200Y-116437670D01*
X155298499Y-116441971D01*
X155299917Y-116446645D01*
X155301000Y-116457641D01*
X155301000Y-116746359D01*
X155299917Y-116757355D01*
X155298499Y-116762029D01*
X155296200Y-116766330D01*
X155290971Y-116772702D01*
X155277357Y-116793076D01*
X155267980Y-116815715D01*
X155263200Y-116839749D01*
X155263200Y-116864253D01*
X155267981Y-116888286D01*
X155277358Y-116910925D01*
X155290971Y-116931298D01*
X155296200Y-116937670D01*
X155298499Y-116941971D01*
X155299917Y-116946645D01*
X155301000Y-116957641D01*
X155301000Y-117246359D01*
X155299917Y-117257355D01*
X155298499Y-117262029D01*
X155296200Y-117266330D01*
X155290971Y-117272702D01*
X155277357Y-117293076D01*
X155267980Y-117315715D01*
X155263200Y-117339749D01*
X155263200Y-117364253D01*
X155267981Y-117388286D01*
X155277358Y-117410925D01*
X155290971Y-117431298D01*
X155296200Y-117437670D01*
X155298499Y-117441971D01*
X155299917Y-117446645D01*
X155301000Y-117457641D01*
X155301000Y-117746359D01*
X155299917Y-117757355D01*
X155298499Y-117762029D01*
X155296200Y-117766330D01*
X155290971Y-117772702D01*
X155277357Y-117793076D01*
X155267980Y-117815715D01*
X155263200Y-117839749D01*
X155263200Y-117864253D01*
X155267981Y-117888286D01*
X155277358Y-117910925D01*
X155290971Y-117931298D01*
X155296200Y-117937670D01*
X155298499Y-117941971D01*
X155299917Y-117946645D01*
X155301000Y-117957641D01*
X155301000Y-118246359D01*
X155299917Y-118257355D01*
X155298499Y-118262029D01*
X155296200Y-118266330D01*
X155290971Y-118272702D01*
X155277357Y-118293076D01*
X155267980Y-118315715D01*
X155263200Y-118339749D01*
X155263200Y-118364253D01*
X155267981Y-118388286D01*
X155277358Y-118410925D01*
X155290971Y-118431298D01*
X155296200Y-118437670D01*
X155298499Y-118441971D01*
X155299917Y-118446645D01*
X155301000Y-118457641D01*
X155301000Y-118746359D01*
X155299917Y-118757355D01*
X155298499Y-118762029D01*
X155296200Y-118766330D01*
X155290971Y-118772702D01*
X155277357Y-118793076D01*
X155267980Y-118815715D01*
X155263200Y-118839749D01*
X155263200Y-118864253D01*
X155267981Y-118888286D01*
X155277358Y-118910925D01*
X155290971Y-118931298D01*
X155296200Y-118937670D01*
X155298499Y-118941971D01*
X155299917Y-118946645D01*
X155301000Y-118957641D01*
X155301000Y-119246359D01*
X155299917Y-119257355D01*
X155298499Y-119262029D01*
X155296200Y-119266331D01*
X155293104Y-119270104D01*
X155289331Y-119273200D01*
X155285029Y-119275499D01*
X155280355Y-119276917D01*
X155269359Y-119278000D01*
X154430641Y-119278000D01*
X154419645Y-119276917D01*
X154414971Y-119275499D01*
X154410669Y-119273200D01*
X154406896Y-119270104D01*
X154403800Y-119266331D01*
X154401501Y-119262029D01*
X154400083Y-119257355D01*
X154399000Y-119246359D01*
X154399000Y-118957641D01*
X154400083Y-118946645D01*
X154401501Y-118941971D01*
X154403800Y-118937670D01*
X154409029Y-118931298D01*
X154422643Y-118910924D01*
X154432020Y-118888285D01*
X154436800Y-118864251D01*
X154436800Y-118839747D01*
X154432019Y-118815714D01*
X154422642Y-118793075D01*
X154409029Y-118772702D01*
X154403800Y-118766330D01*
X154401501Y-118762029D01*
X154400083Y-118757355D01*
X154399000Y-118746359D01*
X154399000Y-118457641D01*
X154400083Y-118446645D01*
X154401501Y-118441971D01*
X154403800Y-118437670D01*
X154409029Y-118431298D01*
X154422643Y-118410924D01*
X154432020Y-118388285D01*
X154436800Y-118364251D01*
X154436800Y-118339747D01*
X154432019Y-118315714D01*
X154422642Y-118293075D01*
X154409029Y-118272702D01*
X154403800Y-118266330D01*
X154401501Y-118262029D01*
X154400083Y-118257355D01*
X154399000Y-118246359D01*
X154399000Y-117957641D01*
X154400083Y-117946645D01*
X154401501Y-117941971D01*
X154403800Y-117937670D01*
X154409029Y-117931298D01*
X154422643Y-117910924D01*
X154432020Y-117888285D01*
X154436800Y-117864251D01*
X154436800Y-117839747D01*
X154432019Y-117815714D01*
X154422642Y-117793075D01*
X154409029Y-117772702D01*
X154403800Y-117766330D01*
X154401501Y-117762029D01*
X154400083Y-117757355D01*
X154399000Y-117746359D01*
X154399000Y-117457641D01*
X154400083Y-117446645D01*
X154401501Y-117441971D01*
X154403800Y-117437670D01*
X154409029Y-117431298D01*
X154422643Y-117410924D01*
X154432020Y-117388285D01*
X154436800Y-117364251D01*
X154436800Y-117339747D01*
X154432019Y-117315714D01*
X154422642Y-117293075D01*
X154409029Y-117272702D01*
X154403800Y-117266330D01*
X154401501Y-117262029D01*
X154400083Y-117257355D01*
X154399000Y-117246359D01*
X154399000Y-116957641D01*
X154400083Y-116946645D01*
X154401501Y-116941971D01*
X154403800Y-116937670D01*
X154409029Y-116931298D01*
X154422643Y-116910924D01*
X154432020Y-116888285D01*
X154436800Y-116864251D01*
X154436800Y-116839747D01*
X154432019Y-116815714D01*
X154422642Y-116793075D01*
X154409029Y-116772702D01*
X154403800Y-116766330D01*
X154401501Y-116762029D01*
X154400083Y-116757355D01*
X154399000Y-116746359D01*
X154399000Y-116457641D01*
X154400083Y-116446645D01*
X154401501Y-116441971D01*
X154403800Y-116437670D01*
X154409029Y-116431298D01*
X154422643Y-116410924D01*
X154432020Y-116388285D01*
X154436800Y-116364251D01*
X154436800Y-116339747D01*
X154432019Y-116315714D01*
X154422642Y-116293075D01*
X154409029Y-116272702D01*
X154403800Y-116266330D01*
X154401501Y-116262029D01*
X154400083Y-116257355D01*
X154399000Y-116246359D01*
X154399000Y-115957641D01*
X154400083Y-115946645D01*
X154401501Y-115941971D01*
X154403800Y-115937669D01*
X154406896Y-115933896D01*
X154410669Y-115930800D01*
X154414971Y-115928501D01*
X154419645Y-115927083D01*
X154430641Y-115926000D01*
X155269359Y-115926000D01*
X155280355Y-115927083D01*
X155280355Y-115927083D01*
G37*
G36*
X150380355Y-115927083D02*
G01*
X150385029Y-115928501D01*
X150389331Y-115930800D01*
X150393104Y-115933896D01*
X150396200Y-115937669D01*
X150398499Y-115941971D01*
X150399917Y-115946645D01*
X150401000Y-115957641D01*
X150401000Y-116246359D01*
X150399917Y-116257355D01*
X150398499Y-116262029D01*
X150396200Y-116266330D01*
X150390971Y-116272702D01*
X150377357Y-116293076D01*
X150367980Y-116315715D01*
X150363200Y-116339749D01*
X150363200Y-116364253D01*
X150367981Y-116388286D01*
X150377358Y-116410925D01*
X150390971Y-116431298D01*
X150396200Y-116437670D01*
X150398499Y-116441971D01*
X150399917Y-116446645D01*
X150401000Y-116457641D01*
X150401000Y-116746359D01*
X150399917Y-116757355D01*
X150398499Y-116762029D01*
X150396200Y-116766330D01*
X150390971Y-116772702D01*
X150377357Y-116793076D01*
X150367980Y-116815715D01*
X150363200Y-116839749D01*
X150363200Y-116864253D01*
X150367981Y-116888286D01*
X150377358Y-116910925D01*
X150390971Y-116931298D01*
X150396200Y-116937670D01*
X150398499Y-116941971D01*
X150399917Y-116946645D01*
X150401000Y-116957641D01*
X150401000Y-117246359D01*
X150399917Y-117257355D01*
X150398499Y-117262029D01*
X150396200Y-117266330D01*
X150390971Y-117272702D01*
X150377357Y-117293076D01*
X150367980Y-117315715D01*
X150363200Y-117339749D01*
X150363200Y-117364253D01*
X150367981Y-117388286D01*
X150377358Y-117410925D01*
X150390971Y-117431298D01*
X150396200Y-117437670D01*
X150398499Y-117441971D01*
X150399917Y-117446645D01*
X150401000Y-117457641D01*
X150401000Y-117746359D01*
X150399917Y-117757355D01*
X150398499Y-117762029D01*
X150396200Y-117766330D01*
X150390971Y-117772702D01*
X150377357Y-117793076D01*
X150367980Y-117815715D01*
X150363200Y-117839749D01*
X150363200Y-117864253D01*
X150367981Y-117888286D01*
X150377358Y-117910925D01*
X150390971Y-117931298D01*
X150396200Y-117937670D01*
X150398499Y-117941971D01*
X150399917Y-117946645D01*
X150401000Y-117957641D01*
X150401000Y-118246359D01*
X150399917Y-118257355D01*
X150398499Y-118262029D01*
X150396200Y-118266330D01*
X150390971Y-118272702D01*
X150377357Y-118293076D01*
X150367980Y-118315715D01*
X150363200Y-118339749D01*
X150363200Y-118364253D01*
X150367981Y-118388286D01*
X150377358Y-118410925D01*
X150390971Y-118431298D01*
X150396200Y-118437670D01*
X150398499Y-118441971D01*
X150399917Y-118446645D01*
X150401000Y-118457641D01*
X150401000Y-118746359D01*
X150399917Y-118757355D01*
X150398499Y-118762029D01*
X150396200Y-118766330D01*
X150390971Y-118772702D01*
X150377357Y-118793076D01*
X150367980Y-118815715D01*
X150363200Y-118839749D01*
X150363200Y-118864253D01*
X150367981Y-118888286D01*
X150377358Y-118910925D01*
X150390971Y-118931298D01*
X150396200Y-118937670D01*
X150398499Y-118941971D01*
X150399917Y-118946645D01*
X150401000Y-118957641D01*
X150401000Y-119246359D01*
X150399917Y-119257355D01*
X150398499Y-119262029D01*
X150396200Y-119266331D01*
X150393104Y-119270104D01*
X150389331Y-119273200D01*
X150385029Y-119275499D01*
X150380355Y-119276917D01*
X150369359Y-119278000D01*
X149530641Y-119278000D01*
X149519645Y-119276917D01*
X149514971Y-119275499D01*
X149510669Y-119273200D01*
X149506896Y-119270104D01*
X149503800Y-119266331D01*
X149501501Y-119262029D01*
X149500083Y-119257355D01*
X149499000Y-119246359D01*
X149499000Y-118957641D01*
X149500083Y-118946645D01*
X149501501Y-118941971D01*
X149503800Y-118937670D01*
X149509029Y-118931298D01*
X149522643Y-118910924D01*
X149532020Y-118888285D01*
X149536800Y-118864251D01*
X149536800Y-118839747D01*
X149532019Y-118815714D01*
X149522642Y-118793075D01*
X149509029Y-118772702D01*
X149503800Y-118766330D01*
X149501501Y-118762029D01*
X149500083Y-118757355D01*
X149499000Y-118746359D01*
X149499000Y-118457641D01*
X149500083Y-118446645D01*
X149501501Y-118441971D01*
X149503800Y-118437670D01*
X149509029Y-118431298D01*
X149522643Y-118410924D01*
X149532020Y-118388285D01*
X149536800Y-118364251D01*
X149536800Y-118339747D01*
X149532019Y-118315714D01*
X149522642Y-118293075D01*
X149509029Y-118272702D01*
X149503800Y-118266330D01*
X149501501Y-118262029D01*
X149500083Y-118257355D01*
X149499000Y-118246359D01*
X149499000Y-117957641D01*
X149500083Y-117946645D01*
X149501501Y-117941971D01*
X149503800Y-117937670D01*
X149509029Y-117931298D01*
X149522643Y-117910924D01*
X149532020Y-117888285D01*
X149536800Y-117864251D01*
X149536800Y-117839747D01*
X149532019Y-117815714D01*
X149522642Y-117793075D01*
X149509029Y-117772702D01*
X149503800Y-117766330D01*
X149501501Y-117762029D01*
X149500083Y-117757355D01*
X149499000Y-117746359D01*
X149499000Y-117457641D01*
X149500083Y-117446645D01*
X149501501Y-117441971D01*
X149503800Y-117437670D01*
X149509029Y-117431298D01*
X149522643Y-117410924D01*
X149532020Y-117388285D01*
X149536800Y-117364251D01*
X149536800Y-117339747D01*
X149532019Y-117315714D01*
X149522642Y-117293075D01*
X149509029Y-117272702D01*
X149503800Y-117266330D01*
X149501501Y-117262029D01*
X149500083Y-117257355D01*
X149499000Y-117246359D01*
X149499000Y-116957641D01*
X149500083Y-116946645D01*
X149501501Y-116941971D01*
X149503800Y-116937670D01*
X149509029Y-116931298D01*
X149522643Y-116910924D01*
X149532020Y-116888285D01*
X149536800Y-116864251D01*
X149536800Y-116839747D01*
X149532019Y-116815714D01*
X149522642Y-116793075D01*
X149509029Y-116772702D01*
X149503800Y-116766330D01*
X149501501Y-116762029D01*
X149500083Y-116757355D01*
X149499000Y-116746359D01*
X149499000Y-116457641D01*
X149500083Y-116446645D01*
X149501501Y-116441971D01*
X149503800Y-116437670D01*
X149509029Y-116431298D01*
X149522643Y-116410924D01*
X149532020Y-116388285D01*
X149536800Y-116364251D01*
X149536800Y-116339747D01*
X149532019Y-116315714D01*
X149522642Y-116293075D01*
X149509029Y-116272702D01*
X149503800Y-116266330D01*
X149501501Y-116262029D01*
X149500083Y-116257355D01*
X149499000Y-116246359D01*
X149499000Y-115957641D01*
X149500083Y-115946645D01*
X149501501Y-115941971D01*
X149503800Y-115937669D01*
X149506896Y-115933896D01*
X149510669Y-115930800D01*
X149514971Y-115928501D01*
X149519645Y-115927083D01*
X149530641Y-115926000D01*
X150369359Y-115926000D01*
X150380355Y-115927083D01*
X150380355Y-115927083D01*
G37*
G36*
X163101721Y-118088174D02*
G01*
X163201995Y-118129709D01*
X163221633Y-118142831D01*
X163292242Y-118190010D01*
X163368990Y-118266758D01*
X163386574Y-118293075D01*
X163429291Y-118357005D01*
X163470826Y-118457279D01*
X163492000Y-118563730D01*
X163492000Y-118672270D01*
X163470826Y-118778721D01*
X163429291Y-118878995D01*
X163423083Y-118888286D01*
X163368990Y-118969242D01*
X163292242Y-119045990D01*
X163247329Y-119076000D01*
X163201995Y-119106291D01*
X163101721Y-119147826D01*
X162995270Y-119169000D01*
X162886730Y-119169000D01*
X162780279Y-119147826D01*
X162680005Y-119106291D01*
X162634671Y-119076000D01*
X162589758Y-119045990D01*
X162513010Y-118969242D01*
X162458917Y-118888286D01*
X162452709Y-118878995D01*
X162411174Y-118778721D01*
X162390000Y-118672270D01*
X162390000Y-118563730D01*
X162411174Y-118457279D01*
X162452709Y-118357005D01*
X162495426Y-118293075D01*
X162513010Y-118266758D01*
X162589758Y-118190010D01*
X162660367Y-118142831D01*
X162680005Y-118129709D01*
X162780279Y-118088174D01*
X162886730Y-118067000D01*
X162995270Y-118067000D01*
X163101721Y-118088174D01*
X163101721Y-118088174D01*
G37*
G36*
X129621000Y-119076000D02*
G01*
X126919000Y-119076000D01*
X126919000Y-115874000D01*
X129621000Y-115874000D01*
X129621000Y-119076000D01*
X129621000Y-119076000D01*
G37*
G36*
X156616938Y-117868716D02*
G01*
X156637557Y-117874971D01*
X156656553Y-117885124D01*
X156673208Y-117898792D01*
X156686876Y-117915447D01*
X156697029Y-117934443D01*
X156703284Y-117955062D01*
X156706000Y-117982640D01*
X156706000Y-118491360D01*
X156703284Y-118518938D01*
X156697029Y-118539557D01*
X156686876Y-118558553D01*
X156673208Y-118575208D01*
X156656553Y-118588876D01*
X156637557Y-118599029D01*
X156616938Y-118605284D01*
X156589360Y-118608000D01*
X156130640Y-118608000D01*
X156103062Y-118605284D01*
X156082443Y-118599029D01*
X156063447Y-118588876D01*
X156046792Y-118575208D01*
X156033124Y-118558553D01*
X156022971Y-118539557D01*
X156016716Y-118518938D01*
X156014000Y-118491360D01*
X156014000Y-117982640D01*
X156016716Y-117955062D01*
X156022971Y-117934443D01*
X156033124Y-117915447D01*
X156046792Y-117898792D01*
X156063447Y-117885124D01*
X156082443Y-117874971D01*
X156103062Y-117868716D01*
X156130640Y-117866000D01*
X156589360Y-117866000D01*
X156616938Y-117868716D01*
X156616938Y-117868716D01*
G37*
G36*
X157586938Y-117868716D02*
G01*
X157607557Y-117874971D01*
X157626553Y-117885124D01*
X157643208Y-117898792D01*
X157656876Y-117915447D01*
X157667029Y-117934443D01*
X157673284Y-117955062D01*
X157676000Y-117982640D01*
X157676000Y-118491360D01*
X157673284Y-118518938D01*
X157667029Y-118539557D01*
X157656876Y-118558553D01*
X157643208Y-118575208D01*
X157626553Y-118588876D01*
X157607557Y-118599029D01*
X157586938Y-118605284D01*
X157559360Y-118608000D01*
X157100640Y-118608000D01*
X157073062Y-118605284D01*
X157052443Y-118599029D01*
X157033447Y-118588876D01*
X157016792Y-118575208D01*
X157003124Y-118558553D01*
X156992971Y-118539557D01*
X156986716Y-118518938D01*
X156984000Y-118491360D01*
X156984000Y-117982640D01*
X156986716Y-117955062D01*
X156992971Y-117934443D01*
X157003124Y-117915447D01*
X157016792Y-117898792D01*
X157033447Y-117885124D01*
X157052443Y-117874971D01*
X157073062Y-117868716D01*
X157100640Y-117866000D01*
X157559360Y-117866000D01*
X157586938Y-117868716D01*
X157586938Y-117868716D01*
G37*
G36*
X126396000Y-118461000D02*
G01*
X124744000Y-118461000D01*
X124744000Y-117759000D01*
X126396000Y-117759000D01*
X126396000Y-118461000D01*
X126396000Y-118461000D01*
G37*
G36*
X131796000Y-118461000D02*
G01*
X130144000Y-118461000D01*
X130144000Y-117759000D01*
X131796000Y-117759000D01*
X131796000Y-118461000D01*
X131796000Y-118461000D01*
G37*
G36*
X166776938Y-117487716D02*
G01*
X166797557Y-117493971D01*
X166816553Y-117504124D01*
X166833208Y-117517792D01*
X166846876Y-117534447D01*
X166857029Y-117553443D01*
X166863284Y-117574062D01*
X166866000Y-117601640D01*
X166866000Y-118110360D01*
X166863284Y-118137938D01*
X166857029Y-118158557D01*
X166846876Y-118177553D01*
X166833208Y-118194208D01*
X166816553Y-118207876D01*
X166797557Y-118218029D01*
X166776938Y-118224284D01*
X166749360Y-118227000D01*
X166290640Y-118227000D01*
X166263062Y-118224284D01*
X166242443Y-118218029D01*
X166223447Y-118207876D01*
X166206792Y-118194208D01*
X166193124Y-118177553D01*
X166182971Y-118158557D01*
X166176716Y-118137938D01*
X166174000Y-118110360D01*
X166174000Y-117601640D01*
X166176716Y-117574062D01*
X166182971Y-117553443D01*
X166193124Y-117534447D01*
X166206792Y-117517792D01*
X166223447Y-117504124D01*
X166242443Y-117493971D01*
X166263062Y-117487716D01*
X166290640Y-117485000D01*
X166749360Y-117485000D01*
X166776938Y-117487716D01*
X166776938Y-117487716D01*
G37*
G36*
X167746938Y-117487716D02*
G01*
X167767557Y-117493971D01*
X167786553Y-117504124D01*
X167803208Y-117517792D01*
X167816876Y-117534447D01*
X167827029Y-117553443D01*
X167833284Y-117574062D01*
X167836000Y-117601640D01*
X167836000Y-118110360D01*
X167833284Y-118137938D01*
X167827029Y-118158557D01*
X167816876Y-118177553D01*
X167803208Y-118194208D01*
X167786553Y-118207876D01*
X167767557Y-118218029D01*
X167746938Y-118224284D01*
X167719360Y-118227000D01*
X167260640Y-118227000D01*
X167233062Y-118224284D01*
X167212443Y-118218029D01*
X167193447Y-118207876D01*
X167176792Y-118194208D01*
X167163124Y-118177553D01*
X167152971Y-118158557D01*
X167146716Y-118137938D01*
X167144000Y-118110360D01*
X167144000Y-117601640D01*
X167146716Y-117574062D01*
X167152971Y-117553443D01*
X167163124Y-117534447D01*
X167176792Y-117517792D01*
X167193447Y-117504124D01*
X167212443Y-117493971D01*
X167233062Y-117487716D01*
X167260640Y-117485000D01*
X167719360Y-117485000D01*
X167746938Y-117487716D01*
X167746938Y-117487716D01*
G37*
G36*
X164492938Y-117466716D02*
G01*
X164513557Y-117472971D01*
X164532553Y-117483124D01*
X164549208Y-117496792D01*
X164562876Y-117513447D01*
X164573029Y-117532443D01*
X164579284Y-117553062D01*
X164582000Y-117580640D01*
X164582000Y-118039360D01*
X164579284Y-118066938D01*
X164573029Y-118087557D01*
X164562876Y-118106553D01*
X164549208Y-118123208D01*
X164532553Y-118136876D01*
X164513557Y-118147029D01*
X164492938Y-118153284D01*
X164465360Y-118156000D01*
X163956640Y-118156000D01*
X163929062Y-118153284D01*
X163908443Y-118147029D01*
X163889447Y-118136876D01*
X163872792Y-118123208D01*
X163859124Y-118106553D01*
X163848971Y-118087557D01*
X163842716Y-118066938D01*
X163840000Y-118039360D01*
X163840000Y-117580640D01*
X163842716Y-117553062D01*
X163848971Y-117532443D01*
X163859124Y-117513447D01*
X163872792Y-117496792D01*
X163889447Y-117483124D01*
X163908443Y-117472971D01*
X163929062Y-117466716D01*
X163956640Y-117464000D01*
X164465360Y-117464000D01*
X164492938Y-117466716D01*
X164492938Y-117466716D01*
G37*
G36*
X161571938Y-117466716D02*
G01*
X161592557Y-117472971D01*
X161611553Y-117483124D01*
X161628208Y-117496792D01*
X161641876Y-117513447D01*
X161652029Y-117532443D01*
X161658284Y-117553062D01*
X161661000Y-117580640D01*
X161661000Y-118039360D01*
X161658284Y-118066938D01*
X161652029Y-118087557D01*
X161641876Y-118106553D01*
X161628208Y-118123208D01*
X161611553Y-118136876D01*
X161592557Y-118147029D01*
X161571938Y-118153284D01*
X161544360Y-118156000D01*
X161035640Y-118156000D01*
X161008062Y-118153284D01*
X160987443Y-118147029D01*
X160968447Y-118136876D01*
X160951792Y-118123208D01*
X160938124Y-118106553D01*
X160927971Y-118087557D01*
X160921716Y-118066938D01*
X160919000Y-118039360D01*
X160919000Y-117580640D01*
X160921716Y-117553062D01*
X160927971Y-117532443D01*
X160938124Y-117513447D01*
X160951792Y-117496792D01*
X160968447Y-117483124D01*
X160987443Y-117472971D01*
X161008062Y-117466716D01*
X161035640Y-117464000D01*
X161544360Y-117464000D01*
X161571938Y-117466716D01*
X161571938Y-117466716D01*
G37*
G36*
X160053721Y-116818174D02*
G01*
X160153995Y-116859709D01*
X160196762Y-116888285D01*
X160244242Y-116920010D01*
X160320990Y-116996758D01*
X160340615Y-117026129D01*
X160381291Y-117087005D01*
X160422826Y-117187279D01*
X160444000Y-117293730D01*
X160444000Y-117402270D01*
X160422826Y-117508721D01*
X160381291Y-117608995D01*
X160351345Y-117653812D01*
X160320990Y-117699242D01*
X160244242Y-117775990D01*
X160218672Y-117793075D01*
X160153995Y-117836291D01*
X160053721Y-117877826D01*
X159947270Y-117899000D01*
X159838730Y-117899000D01*
X159732279Y-117877826D01*
X159632005Y-117836291D01*
X159567328Y-117793075D01*
X159541758Y-117775990D01*
X159465010Y-117699242D01*
X159434655Y-117653812D01*
X159404709Y-117608995D01*
X159363174Y-117508721D01*
X159342000Y-117402270D01*
X159342000Y-117293730D01*
X159363174Y-117187279D01*
X159404709Y-117087005D01*
X159445385Y-117026129D01*
X159465010Y-116996758D01*
X159541758Y-116920010D01*
X159589238Y-116888285D01*
X159632005Y-116859709D01*
X159732279Y-116818174D01*
X159838730Y-116797000D01*
X159947270Y-116797000D01*
X160053721Y-116818174D01*
X160053721Y-116818174D01*
G37*
G36*
X126396000Y-117191000D02*
G01*
X124744000Y-117191000D01*
X124744000Y-116489000D01*
X126396000Y-116489000D01*
X126396000Y-117191000D01*
X126396000Y-117191000D01*
G37*
G36*
X131796000Y-117191000D02*
G01*
X130144000Y-117191000D01*
X130144000Y-116489000D01*
X131796000Y-116489000D01*
X131796000Y-117191000D01*
X131796000Y-117191000D01*
G37*
G36*
X161571938Y-116496716D02*
G01*
X161592557Y-116502971D01*
X161611553Y-116513124D01*
X161628208Y-116526792D01*
X161641876Y-116543447D01*
X161652029Y-116562443D01*
X161658284Y-116583062D01*
X161661000Y-116610640D01*
X161661000Y-117069360D01*
X161658284Y-117096938D01*
X161652029Y-117117557D01*
X161641876Y-117136553D01*
X161628208Y-117153208D01*
X161611553Y-117166876D01*
X161592557Y-117177029D01*
X161571938Y-117183284D01*
X161544360Y-117186000D01*
X161035640Y-117186000D01*
X161008062Y-117183284D01*
X160987443Y-117177029D01*
X160968447Y-117166876D01*
X160951792Y-117153208D01*
X160938124Y-117136553D01*
X160927971Y-117117557D01*
X160921716Y-117096938D01*
X160919000Y-117069360D01*
X160919000Y-116610640D01*
X160921716Y-116583062D01*
X160927971Y-116562443D01*
X160938124Y-116543447D01*
X160951792Y-116526792D01*
X160968447Y-116513124D01*
X160987443Y-116502971D01*
X161008062Y-116496716D01*
X161035640Y-116494000D01*
X161544360Y-116494000D01*
X161571938Y-116496716D01*
X161571938Y-116496716D01*
G37*
G36*
X164492938Y-116496716D02*
G01*
X164513557Y-116502971D01*
X164532553Y-116513124D01*
X164549208Y-116526792D01*
X164562876Y-116543447D01*
X164573029Y-116562443D01*
X164579284Y-116583062D01*
X164582000Y-116610640D01*
X164582000Y-117069360D01*
X164579284Y-117096938D01*
X164573029Y-117117557D01*
X164562876Y-117136553D01*
X164549208Y-117153208D01*
X164532553Y-117166876D01*
X164513557Y-117177029D01*
X164492938Y-117183284D01*
X164465360Y-117186000D01*
X163956640Y-117186000D01*
X163929062Y-117183284D01*
X163908443Y-117177029D01*
X163889447Y-117166876D01*
X163872792Y-117153208D01*
X163859124Y-117136553D01*
X163848971Y-117117557D01*
X163842716Y-117096938D01*
X163840000Y-117069360D01*
X163840000Y-116610640D01*
X163842716Y-116583062D01*
X163848971Y-116562443D01*
X163859124Y-116543447D01*
X163872792Y-116526792D01*
X163889447Y-116513124D01*
X163908443Y-116502971D01*
X163929062Y-116496716D01*
X163956640Y-116494000D01*
X164465360Y-116494000D01*
X164492938Y-116496716D01*
X164492938Y-116496716D01*
G37*
G36*
X123598938Y-116496716D02*
G01*
X123619557Y-116502971D01*
X123638553Y-116513124D01*
X123655208Y-116526792D01*
X123668876Y-116543447D01*
X123679029Y-116562443D01*
X123685284Y-116583062D01*
X123688000Y-116610640D01*
X123688000Y-117069360D01*
X123685284Y-117096938D01*
X123679029Y-117117557D01*
X123668876Y-117136553D01*
X123655208Y-117153208D01*
X123638553Y-117166876D01*
X123619557Y-117177029D01*
X123598938Y-117183284D01*
X123571360Y-117186000D01*
X123062640Y-117186000D01*
X123035062Y-117183284D01*
X123014443Y-117177029D01*
X122995447Y-117166876D01*
X122978792Y-117153208D01*
X122965124Y-117136553D01*
X122954971Y-117117557D01*
X122948716Y-117096938D01*
X122946000Y-117069360D01*
X122946000Y-116610640D01*
X122948716Y-116583062D01*
X122954971Y-116562443D01*
X122965124Y-116543447D01*
X122978792Y-116526792D01*
X122995447Y-116513124D01*
X123014443Y-116502971D01*
X123035062Y-116496716D01*
X123062640Y-116494000D01*
X123571360Y-116494000D01*
X123598938Y-116496716D01*
X123598938Y-116496716D01*
G37*
G36*
X157746000Y-117132000D02*
G01*
X155944000Y-117132000D01*
X155944000Y-115730000D01*
X157746000Y-115730000D01*
X157746000Y-117132000D01*
X157746000Y-117132000D01*
G37*
G36*
X166776938Y-116344716D02*
G01*
X166797557Y-116350971D01*
X166816553Y-116361124D01*
X166833208Y-116374792D01*
X166846876Y-116391447D01*
X166857029Y-116410443D01*
X166863284Y-116431062D01*
X166866000Y-116458640D01*
X166866000Y-116967360D01*
X166863284Y-116994938D01*
X166857029Y-117015557D01*
X166846876Y-117034553D01*
X166833208Y-117051208D01*
X166816553Y-117064876D01*
X166797557Y-117075029D01*
X166776938Y-117081284D01*
X166749360Y-117084000D01*
X166290640Y-117084000D01*
X166263062Y-117081284D01*
X166242443Y-117075029D01*
X166223447Y-117064876D01*
X166206792Y-117051208D01*
X166193124Y-117034553D01*
X166182971Y-117015557D01*
X166176716Y-116994938D01*
X166174000Y-116967360D01*
X166174000Y-116458640D01*
X166176716Y-116431062D01*
X166182971Y-116410443D01*
X166193124Y-116391447D01*
X166206792Y-116374792D01*
X166223447Y-116361124D01*
X166242443Y-116350971D01*
X166263062Y-116344716D01*
X166290640Y-116342000D01*
X166749360Y-116342000D01*
X166776938Y-116344716D01*
X166776938Y-116344716D01*
G37*
G36*
X167746938Y-116344716D02*
G01*
X167767557Y-116350971D01*
X167786553Y-116361124D01*
X167803208Y-116374792D01*
X167816876Y-116391447D01*
X167827029Y-116410443D01*
X167833284Y-116431062D01*
X167836000Y-116458640D01*
X167836000Y-116967360D01*
X167833284Y-116994938D01*
X167827029Y-117015557D01*
X167816876Y-117034553D01*
X167803208Y-117051208D01*
X167786553Y-117064876D01*
X167767557Y-117075029D01*
X167746938Y-117081284D01*
X167719360Y-117084000D01*
X167260640Y-117084000D01*
X167233062Y-117081284D01*
X167212443Y-117075029D01*
X167193447Y-117064876D01*
X167176792Y-117051208D01*
X167163124Y-117034553D01*
X167152971Y-117015557D01*
X167146716Y-116994938D01*
X167144000Y-116967360D01*
X167144000Y-116458640D01*
X167146716Y-116431062D01*
X167152971Y-116410443D01*
X167163124Y-116391447D01*
X167176792Y-116374792D01*
X167193447Y-116361124D01*
X167212443Y-116350971D01*
X167233062Y-116344716D01*
X167260640Y-116342000D01*
X167719360Y-116342000D01*
X167746938Y-116344716D01*
X167746938Y-116344716D01*
G37*
G36*
X119896000Y-116346000D02*
G01*
X117594000Y-116346000D01*
X117594000Y-114744000D01*
X119896000Y-114744000D01*
X119896000Y-116346000D01*
X119896000Y-116346000D01*
G37*
G36*
X123598938Y-115526716D02*
G01*
X123619557Y-115532971D01*
X123638553Y-115543124D01*
X123655208Y-115556792D01*
X123668876Y-115573447D01*
X123679029Y-115592443D01*
X123685284Y-115613062D01*
X123688000Y-115640640D01*
X123688000Y-116099360D01*
X123685284Y-116126938D01*
X123679029Y-116147557D01*
X123668876Y-116166553D01*
X123655208Y-116183208D01*
X123638553Y-116196876D01*
X123619557Y-116207029D01*
X123598938Y-116213284D01*
X123571360Y-116216000D01*
X123062640Y-116216000D01*
X123035062Y-116213284D01*
X123014443Y-116207029D01*
X122995447Y-116196876D01*
X122978792Y-116183208D01*
X122965124Y-116166553D01*
X122954971Y-116147557D01*
X122948716Y-116126938D01*
X122946000Y-116099360D01*
X122946000Y-115640640D01*
X122948716Y-115613062D01*
X122954971Y-115592443D01*
X122965124Y-115573447D01*
X122978792Y-115556792D01*
X122995447Y-115543124D01*
X123014443Y-115532971D01*
X123035062Y-115526716D01*
X123062640Y-115524000D01*
X123571360Y-115524000D01*
X123598938Y-115526716D01*
X123598938Y-115526716D01*
G37*
G36*
X159664938Y-115455716D02*
G01*
X159685557Y-115461971D01*
X159704553Y-115472124D01*
X159721208Y-115485792D01*
X159734876Y-115502447D01*
X159745029Y-115521443D01*
X159751284Y-115542062D01*
X159754000Y-115569640D01*
X159754000Y-116078360D01*
X159751284Y-116105938D01*
X159745029Y-116126557D01*
X159734876Y-116145553D01*
X159721208Y-116162208D01*
X159704553Y-116175876D01*
X159685557Y-116186029D01*
X159664938Y-116192284D01*
X159637360Y-116195000D01*
X159178640Y-116195000D01*
X159151062Y-116192284D01*
X159130443Y-116186029D01*
X159111447Y-116175876D01*
X159094792Y-116162208D01*
X159081124Y-116145553D01*
X159070971Y-116126557D01*
X159064716Y-116105938D01*
X159062000Y-116078360D01*
X159062000Y-115569640D01*
X159064716Y-115542062D01*
X159070971Y-115521443D01*
X159081124Y-115502447D01*
X159094792Y-115485792D01*
X159111447Y-115472124D01*
X159130443Y-115461971D01*
X159151062Y-115455716D01*
X159178640Y-115453000D01*
X159637360Y-115453000D01*
X159664938Y-115455716D01*
X159664938Y-115455716D01*
G37*
G36*
X160634938Y-115455716D02*
G01*
X160655557Y-115461971D01*
X160674553Y-115472124D01*
X160691208Y-115485792D01*
X160704876Y-115502447D01*
X160715029Y-115521443D01*
X160721284Y-115542062D01*
X160724000Y-115569640D01*
X160724000Y-116078360D01*
X160721284Y-116105938D01*
X160715029Y-116126557D01*
X160704876Y-116145553D01*
X160691208Y-116162208D01*
X160674553Y-116175876D01*
X160655557Y-116186029D01*
X160634938Y-116192284D01*
X160607360Y-116195000D01*
X160148640Y-116195000D01*
X160121062Y-116192284D01*
X160100443Y-116186029D01*
X160081447Y-116175876D01*
X160064792Y-116162208D01*
X160051124Y-116145553D01*
X160040971Y-116126557D01*
X160034716Y-116105938D01*
X160032000Y-116078360D01*
X160032000Y-115569640D01*
X160034716Y-115542062D01*
X160040971Y-115521443D01*
X160051124Y-115502447D01*
X160064792Y-115485792D01*
X160081447Y-115472124D01*
X160100443Y-115461971D01*
X160121062Y-115455716D01*
X160148640Y-115453000D01*
X160607360Y-115453000D01*
X160634938Y-115455716D01*
X160634938Y-115455716D01*
G37*
G36*
X164467938Y-115455716D02*
G01*
X164488557Y-115461971D01*
X164507553Y-115472124D01*
X164524208Y-115485792D01*
X164537876Y-115502447D01*
X164548029Y-115521443D01*
X164554284Y-115542062D01*
X164557000Y-115569640D01*
X164557000Y-116078360D01*
X164554284Y-116105938D01*
X164548029Y-116126557D01*
X164537876Y-116145553D01*
X164524208Y-116162208D01*
X164507553Y-116175876D01*
X164488557Y-116186029D01*
X164467938Y-116192284D01*
X164440360Y-116195000D01*
X163981640Y-116195000D01*
X163954062Y-116192284D01*
X163933443Y-116186029D01*
X163914447Y-116175876D01*
X163897792Y-116162208D01*
X163884124Y-116145553D01*
X163873971Y-116126557D01*
X163867716Y-116105938D01*
X163865000Y-116078360D01*
X163865000Y-115569640D01*
X163867716Y-115542062D01*
X163873971Y-115521443D01*
X163884124Y-115502447D01*
X163897792Y-115485792D01*
X163914447Y-115472124D01*
X163933443Y-115461971D01*
X163954062Y-115455716D01*
X163981640Y-115453000D01*
X164440360Y-115453000D01*
X164467938Y-115455716D01*
X164467938Y-115455716D01*
G37*
G36*
X163497938Y-115455716D02*
G01*
X163518557Y-115461971D01*
X163537553Y-115472124D01*
X163554208Y-115485792D01*
X163567876Y-115502447D01*
X163578029Y-115521443D01*
X163584284Y-115542062D01*
X163587000Y-115569640D01*
X163587000Y-116078360D01*
X163584284Y-116105938D01*
X163578029Y-116126557D01*
X163567876Y-116145553D01*
X163554208Y-116162208D01*
X163537553Y-116175876D01*
X163518557Y-116186029D01*
X163497938Y-116192284D01*
X163470360Y-116195000D01*
X163011640Y-116195000D01*
X162984062Y-116192284D01*
X162963443Y-116186029D01*
X162944447Y-116175876D01*
X162927792Y-116162208D01*
X162914124Y-116145553D01*
X162903971Y-116126557D01*
X162897716Y-116105938D01*
X162895000Y-116078360D01*
X162895000Y-115569640D01*
X162897716Y-115542062D01*
X162903971Y-115521443D01*
X162914124Y-115502447D01*
X162927792Y-115485792D01*
X162944447Y-115472124D01*
X162963443Y-115461971D01*
X162984062Y-115455716D01*
X163011640Y-115453000D01*
X163470360Y-115453000D01*
X163497938Y-115455716D01*
X163497938Y-115455716D01*
G37*
G36*
X131796000Y-115921000D02*
G01*
X130144000Y-115921000D01*
X130144000Y-115219000D01*
X131796000Y-115219000D01*
X131796000Y-115921000D01*
X131796000Y-115921000D01*
G37*
G36*
X126396000Y-115921000D02*
G01*
X124744000Y-115921000D01*
X124744000Y-115219000D01*
X126396000Y-115219000D01*
X126396000Y-115921000D01*
X126396000Y-115921000D01*
G37*
G36*
X151055355Y-114702083D02*
G01*
X151060029Y-114703501D01*
X151064330Y-114705800D01*
X151070702Y-114711029D01*
X151091076Y-114724643D01*
X151113715Y-114734020D01*
X151137749Y-114738800D01*
X151162253Y-114738800D01*
X151186286Y-114734019D01*
X151208925Y-114724642D01*
X151229298Y-114711029D01*
X151235670Y-114705800D01*
X151239971Y-114703501D01*
X151244645Y-114702083D01*
X151255641Y-114701000D01*
X151544359Y-114701000D01*
X151555355Y-114702083D01*
X151560029Y-114703501D01*
X151564330Y-114705800D01*
X151570702Y-114711029D01*
X151591076Y-114724643D01*
X151613715Y-114734020D01*
X151637749Y-114738800D01*
X151662253Y-114738800D01*
X151686286Y-114734019D01*
X151708925Y-114724642D01*
X151729298Y-114711029D01*
X151735670Y-114705800D01*
X151739971Y-114703501D01*
X151744645Y-114702083D01*
X151755641Y-114701000D01*
X152044359Y-114701000D01*
X152055355Y-114702083D01*
X152060029Y-114703501D01*
X152064330Y-114705800D01*
X152070702Y-114711029D01*
X152091076Y-114724643D01*
X152113715Y-114734020D01*
X152137749Y-114738800D01*
X152162253Y-114738800D01*
X152186286Y-114734019D01*
X152208925Y-114724642D01*
X152229298Y-114711029D01*
X152235670Y-114705800D01*
X152239971Y-114703501D01*
X152244645Y-114702083D01*
X152255641Y-114701000D01*
X152544359Y-114701000D01*
X152555355Y-114702083D01*
X152560029Y-114703501D01*
X152564330Y-114705800D01*
X152570702Y-114711029D01*
X152591076Y-114724643D01*
X152613715Y-114734020D01*
X152637749Y-114738800D01*
X152662253Y-114738800D01*
X152686286Y-114734019D01*
X152708925Y-114724642D01*
X152729298Y-114711029D01*
X152735670Y-114705800D01*
X152739971Y-114703501D01*
X152744645Y-114702083D01*
X152755641Y-114701000D01*
X153044359Y-114701000D01*
X153055355Y-114702083D01*
X153060029Y-114703501D01*
X153064330Y-114705800D01*
X153070702Y-114711029D01*
X153091076Y-114724643D01*
X153113715Y-114734020D01*
X153137749Y-114738800D01*
X153162253Y-114738800D01*
X153186286Y-114734019D01*
X153208925Y-114724642D01*
X153229298Y-114711029D01*
X153235670Y-114705800D01*
X153239971Y-114703501D01*
X153244645Y-114702083D01*
X153255641Y-114701000D01*
X153544359Y-114701000D01*
X153555355Y-114702083D01*
X153560029Y-114703501D01*
X153564330Y-114705800D01*
X153570702Y-114711029D01*
X153591076Y-114724643D01*
X153613715Y-114734020D01*
X153637749Y-114738800D01*
X153662253Y-114738800D01*
X153686286Y-114734019D01*
X153708925Y-114724642D01*
X153729298Y-114711029D01*
X153735670Y-114705800D01*
X153739971Y-114703501D01*
X153744645Y-114702083D01*
X153755641Y-114701000D01*
X154044359Y-114701000D01*
X154055355Y-114702083D01*
X154060029Y-114703501D01*
X154064331Y-114705800D01*
X154068104Y-114708896D01*
X154071200Y-114712669D01*
X154073499Y-114716971D01*
X154074917Y-114721645D01*
X154076000Y-114732641D01*
X154076000Y-115571359D01*
X154074917Y-115582355D01*
X154073499Y-115587029D01*
X154071200Y-115591331D01*
X154068104Y-115595104D01*
X154064331Y-115598200D01*
X154060029Y-115600499D01*
X154055355Y-115601917D01*
X154044359Y-115603000D01*
X153755641Y-115603000D01*
X153744645Y-115601917D01*
X153739971Y-115600499D01*
X153735670Y-115598200D01*
X153729298Y-115592971D01*
X153708924Y-115579357D01*
X153686285Y-115569980D01*
X153662251Y-115565200D01*
X153637747Y-115565200D01*
X153613714Y-115569981D01*
X153591075Y-115579358D01*
X153570702Y-115592971D01*
X153564330Y-115598200D01*
X153560029Y-115600499D01*
X153555355Y-115601917D01*
X153544359Y-115603000D01*
X153255641Y-115603000D01*
X153244645Y-115601917D01*
X153239971Y-115600499D01*
X153235670Y-115598200D01*
X153229298Y-115592971D01*
X153208924Y-115579357D01*
X153186285Y-115569980D01*
X153162251Y-115565200D01*
X153137747Y-115565200D01*
X153113714Y-115569981D01*
X153091075Y-115579358D01*
X153070702Y-115592971D01*
X153064330Y-115598200D01*
X153060029Y-115600499D01*
X153055355Y-115601917D01*
X153044359Y-115603000D01*
X152755641Y-115603000D01*
X152744645Y-115601917D01*
X152739971Y-115600499D01*
X152735670Y-115598200D01*
X152729298Y-115592971D01*
X152708924Y-115579357D01*
X152686285Y-115569980D01*
X152662251Y-115565200D01*
X152637747Y-115565200D01*
X152613714Y-115569981D01*
X152591075Y-115579358D01*
X152570702Y-115592971D01*
X152564330Y-115598200D01*
X152560029Y-115600499D01*
X152555355Y-115601917D01*
X152544359Y-115603000D01*
X152255641Y-115603000D01*
X152244645Y-115601917D01*
X152239971Y-115600499D01*
X152235670Y-115598200D01*
X152229298Y-115592971D01*
X152208924Y-115579357D01*
X152186285Y-115569980D01*
X152162251Y-115565200D01*
X152137747Y-115565200D01*
X152113714Y-115569981D01*
X152091075Y-115579358D01*
X152070702Y-115592971D01*
X152064330Y-115598200D01*
X152060029Y-115600499D01*
X152055355Y-115601917D01*
X152044359Y-115603000D01*
X151755641Y-115603000D01*
X151744645Y-115601917D01*
X151739971Y-115600499D01*
X151735670Y-115598200D01*
X151729298Y-115592971D01*
X151708924Y-115579357D01*
X151686285Y-115569980D01*
X151662251Y-115565200D01*
X151637747Y-115565200D01*
X151613714Y-115569981D01*
X151591075Y-115579358D01*
X151570702Y-115592971D01*
X151564330Y-115598200D01*
X151560029Y-115600499D01*
X151555355Y-115601917D01*
X151544359Y-115603000D01*
X151255641Y-115603000D01*
X151244645Y-115601917D01*
X151239971Y-115600499D01*
X151235670Y-115598200D01*
X151229298Y-115592971D01*
X151208924Y-115579357D01*
X151186285Y-115569980D01*
X151162251Y-115565200D01*
X151137747Y-115565200D01*
X151113714Y-115569981D01*
X151091075Y-115579358D01*
X151070702Y-115592971D01*
X151064330Y-115598200D01*
X151060029Y-115600499D01*
X151055355Y-115601917D01*
X151044359Y-115603000D01*
X150755641Y-115603000D01*
X150744645Y-115601917D01*
X150739971Y-115600499D01*
X150735669Y-115598200D01*
X150731896Y-115595104D01*
X150728800Y-115591331D01*
X150726501Y-115587029D01*
X150725083Y-115582355D01*
X150724000Y-115571359D01*
X150724000Y-114732641D01*
X150725083Y-114721645D01*
X150726501Y-114716971D01*
X150728800Y-114712669D01*
X150731896Y-114708896D01*
X150735669Y-114705800D01*
X150739971Y-114703501D01*
X150744645Y-114702083D01*
X150755641Y-114701000D01*
X151044359Y-114701000D01*
X151055355Y-114702083D01*
X151055355Y-114702083D01*
G37*
G36*
X123598938Y-114441716D02*
G01*
X123619557Y-114447971D01*
X123638553Y-114458124D01*
X123655208Y-114471792D01*
X123668876Y-114488447D01*
X123679029Y-114507443D01*
X123685284Y-114528062D01*
X123688000Y-114555640D01*
X123688000Y-115014360D01*
X123685284Y-115041938D01*
X123679029Y-115062557D01*
X123668876Y-115081553D01*
X123655208Y-115098208D01*
X123638553Y-115111876D01*
X123619557Y-115122029D01*
X123598938Y-115128284D01*
X123571360Y-115131000D01*
X123062640Y-115131000D01*
X123035062Y-115128284D01*
X123014443Y-115122029D01*
X122995447Y-115111876D01*
X122978792Y-115098208D01*
X122965124Y-115081553D01*
X122954971Y-115062557D01*
X122948716Y-115041938D01*
X122946000Y-115014360D01*
X122946000Y-114555640D01*
X122948716Y-114528062D01*
X122954971Y-114507443D01*
X122965124Y-114488447D01*
X122978792Y-114471792D01*
X122995447Y-114458124D01*
X123014443Y-114447971D01*
X123035062Y-114441716D01*
X123062640Y-114439000D01*
X123571360Y-114439000D01*
X123598938Y-114441716D01*
X123598938Y-114441716D01*
G37*
G36*
X160634938Y-114058716D02*
G01*
X160655557Y-114064971D01*
X160674553Y-114075124D01*
X160691208Y-114088792D01*
X160704876Y-114105447D01*
X160715029Y-114124443D01*
X160721284Y-114145062D01*
X160724000Y-114172640D01*
X160724000Y-114681360D01*
X160721284Y-114708938D01*
X160715029Y-114729557D01*
X160704876Y-114748553D01*
X160691208Y-114765208D01*
X160674553Y-114778876D01*
X160655557Y-114789029D01*
X160634938Y-114795284D01*
X160607360Y-114798000D01*
X160148640Y-114798000D01*
X160121062Y-114795284D01*
X160100443Y-114789029D01*
X160081447Y-114778876D01*
X160064792Y-114765208D01*
X160051124Y-114748553D01*
X160040971Y-114729557D01*
X160034716Y-114708938D01*
X160032000Y-114681360D01*
X160032000Y-114172640D01*
X160034716Y-114145062D01*
X160040971Y-114124443D01*
X160051124Y-114105447D01*
X160064792Y-114088792D01*
X160081447Y-114075124D01*
X160100443Y-114064971D01*
X160121062Y-114058716D01*
X160148640Y-114056000D01*
X160607360Y-114056000D01*
X160634938Y-114058716D01*
X160634938Y-114058716D01*
G37*
G36*
X159664938Y-114058716D02*
G01*
X159685557Y-114064971D01*
X159704553Y-114075124D01*
X159721208Y-114088792D01*
X159734876Y-114105447D01*
X159745029Y-114124443D01*
X159751284Y-114145062D01*
X159754000Y-114172640D01*
X159754000Y-114681360D01*
X159751284Y-114708938D01*
X159745029Y-114729557D01*
X159734876Y-114748553D01*
X159721208Y-114765208D01*
X159704553Y-114778876D01*
X159685557Y-114789029D01*
X159664938Y-114795284D01*
X159637360Y-114798000D01*
X159178640Y-114798000D01*
X159151062Y-114795284D01*
X159130443Y-114789029D01*
X159111447Y-114778876D01*
X159094792Y-114765208D01*
X159081124Y-114748553D01*
X159070971Y-114729557D01*
X159064716Y-114708938D01*
X159062000Y-114681360D01*
X159062000Y-114172640D01*
X159064716Y-114145062D01*
X159070971Y-114124443D01*
X159081124Y-114105447D01*
X159094792Y-114088792D01*
X159111447Y-114075124D01*
X159130443Y-114064971D01*
X159151062Y-114058716D01*
X159178640Y-114056000D01*
X159637360Y-114056000D01*
X159664938Y-114058716D01*
X159664938Y-114058716D01*
G37*
G36*
X126829938Y-113677716D02*
G01*
X126850557Y-113683971D01*
X126869553Y-113694124D01*
X126886208Y-113707792D01*
X126899876Y-113724447D01*
X126910029Y-113743443D01*
X126916284Y-113764062D01*
X126919000Y-113791640D01*
X126919000Y-114300360D01*
X126916284Y-114327938D01*
X126910029Y-114348557D01*
X126899876Y-114367553D01*
X126886208Y-114384208D01*
X126869553Y-114397876D01*
X126850557Y-114408029D01*
X126829938Y-114414284D01*
X126802360Y-114417000D01*
X126343640Y-114417000D01*
X126316062Y-114414284D01*
X126295443Y-114408029D01*
X126276447Y-114397876D01*
X126259792Y-114384208D01*
X126246124Y-114367553D01*
X126235971Y-114348557D01*
X126229716Y-114327938D01*
X126227000Y-114300360D01*
X126227000Y-113791640D01*
X126229716Y-113764062D01*
X126235971Y-113743443D01*
X126246124Y-113724447D01*
X126259792Y-113707792D01*
X126276447Y-113694124D01*
X126295443Y-113683971D01*
X126316062Y-113677716D01*
X126343640Y-113675000D01*
X126802360Y-113675000D01*
X126829938Y-113677716D01*
X126829938Y-113677716D01*
G37*
G36*
X125859938Y-113677716D02*
G01*
X125880557Y-113683971D01*
X125899553Y-113694124D01*
X125916208Y-113707792D01*
X125929876Y-113724447D01*
X125940029Y-113743443D01*
X125946284Y-113764062D01*
X125949000Y-113791640D01*
X125949000Y-114300360D01*
X125946284Y-114327938D01*
X125940029Y-114348557D01*
X125929876Y-114367553D01*
X125916208Y-114384208D01*
X125899553Y-114397876D01*
X125880557Y-114408029D01*
X125859938Y-114414284D01*
X125832360Y-114417000D01*
X125373640Y-114417000D01*
X125346062Y-114414284D01*
X125325443Y-114408029D01*
X125306447Y-114397876D01*
X125289792Y-114384208D01*
X125276124Y-114367553D01*
X125265971Y-114348557D01*
X125259716Y-114327938D01*
X125257000Y-114300360D01*
X125257000Y-113791640D01*
X125259716Y-113764062D01*
X125265971Y-113743443D01*
X125276124Y-113724447D01*
X125289792Y-113707792D01*
X125306447Y-113694124D01*
X125325443Y-113683971D01*
X125346062Y-113677716D01*
X125373640Y-113675000D01*
X125832360Y-113675000D01*
X125859938Y-113677716D01*
X125859938Y-113677716D01*
G37*
G36*
X130962938Y-113550716D02*
G01*
X130983557Y-113556971D01*
X131002553Y-113567124D01*
X131019208Y-113580792D01*
X131032876Y-113597447D01*
X131043029Y-113616443D01*
X131049284Y-113637062D01*
X131052000Y-113664640D01*
X131052000Y-114173360D01*
X131049284Y-114200938D01*
X131043029Y-114221557D01*
X131032876Y-114240553D01*
X131019208Y-114257208D01*
X131002553Y-114270876D01*
X130983557Y-114281029D01*
X130962938Y-114287284D01*
X130935360Y-114290000D01*
X130476640Y-114290000D01*
X130449062Y-114287284D01*
X130428443Y-114281029D01*
X130409447Y-114270876D01*
X130392792Y-114257208D01*
X130379124Y-114240553D01*
X130368971Y-114221557D01*
X130362716Y-114200938D01*
X130360000Y-114173360D01*
X130360000Y-113664640D01*
X130362716Y-113637062D01*
X130368971Y-113616443D01*
X130379124Y-113597447D01*
X130392792Y-113580792D01*
X130409447Y-113567124D01*
X130428443Y-113556971D01*
X130449062Y-113550716D01*
X130476640Y-113548000D01*
X130935360Y-113548000D01*
X130962938Y-113550716D01*
X130962938Y-113550716D01*
G37*
G36*
X131932938Y-113550716D02*
G01*
X131953557Y-113556971D01*
X131972553Y-113567124D01*
X131989208Y-113580792D01*
X132002876Y-113597447D01*
X132013029Y-113616443D01*
X132019284Y-113637062D01*
X132022000Y-113664640D01*
X132022000Y-114173360D01*
X132019284Y-114200938D01*
X132013029Y-114221557D01*
X132002876Y-114240553D01*
X131989208Y-114257208D01*
X131972553Y-114270876D01*
X131953557Y-114281029D01*
X131932938Y-114287284D01*
X131905360Y-114290000D01*
X131446640Y-114290000D01*
X131419062Y-114287284D01*
X131398443Y-114281029D01*
X131379447Y-114270876D01*
X131362792Y-114257208D01*
X131349124Y-114240553D01*
X131338971Y-114221557D01*
X131332716Y-114200938D01*
X131330000Y-114173360D01*
X131330000Y-113664640D01*
X131332716Y-113637062D01*
X131338971Y-113616443D01*
X131349124Y-113597447D01*
X131362792Y-113580792D01*
X131379447Y-113567124D01*
X131398443Y-113556971D01*
X131419062Y-113550716D01*
X131446640Y-113548000D01*
X131905360Y-113548000D01*
X131932938Y-113550716D01*
X131932938Y-113550716D01*
G37*
G36*
X122407938Y-113423716D02*
G01*
X122428557Y-113429971D01*
X122447553Y-113440124D01*
X122464208Y-113453792D01*
X122477876Y-113470447D01*
X122488029Y-113489443D01*
X122494284Y-113510062D01*
X122497000Y-113537640D01*
X122497000Y-114046360D01*
X122494284Y-114073938D01*
X122488029Y-114094557D01*
X122477876Y-114113553D01*
X122464208Y-114130208D01*
X122447553Y-114143876D01*
X122428557Y-114154029D01*
X122407938Y-114160284D01*
X122380360Y-114163000D01*
X121921640Y-114163000D01*
X121894062Y-114160284D01*
X121873443Y-114154029D01*
X121854447Y-114143876D01*
X121837792Y-114130208D01*
X121824124Y-114113553D01*
X121813971Y-114094557D01*
X121807716Y-114073938D01*
X121805000Y-114046360D01*
X121805000Y-113537640D01*
X121807716Y-113510062D01*
X121813971Y-113489443D01*
X121824124Y-113470447D01*
X121837792Y-113453792D01*
X121854447Y-113440124D01*
X121873443Y-113429971D01*
X121894062Y-113423716D01*
X121921640Y-113421000D01*
X122380360Y-113421000D01*
X122407938Y-113423716D01*
X122407938Y-113423716D01*
G37*
G36*
X121437938Y-113423716D02*
G01*
X121458557Y-113429971D01*
X121477553Y-113440124D01*
X121494208Y-113453792D01*
X121507876Y-113470447D01*
X121518029Y-113489443D01*
X121524284Y-113510062D01*
X121527000Y-113537640D01*
X121527000Y-114046360D01*
X121524284Y-114073938D01*
X121518029Y-114094557D01*
X121507876Y-114113553D01*
X121494208Y-114130208D01*
X121477553Y-114143876D01*
X121458557Y-114154029D01*
X121437938Y-114160284D01*
X121410360Y-114163000D01*
X120951640Y-114163000D01*
X120924062Y-114160284D01*
X120903443Y-114154029D01*
X120884447Y-114143876D01*
X120867792Y-114130208D01*
X120854124Y-114113553D01*
X120843971Y-114094557D01*
X120837716Y-114073938D01*
X120835000Y-114046360D01*
X120835000Y-113537640D01*
X120837716Y-113510062D01*
X120843971Y-113489443D01*
X120854124Y-113470447D01*
X120867792Y-113453792D01*
X120884447Y-113440124D01*
X120903443Y-113429971D01*
X120924062Y-113423716D01*
X120951640Y-113421000D01*
X121410360Y-113421000D01*
X121437938Y-113423716D01*
X121437938Y-113423716D01*
G37*
G36*
X123598938Y-113471716D02*
G01*
X123619557Y-113477971D01*
X123638553Y-113488124D01*
X123655208Y-113501792D01*
X123668876Y-113518447D01*
X123679029Y-113537443D01*
X123685284Y-113558062D01*
X123688000Y-113585640D01*
X123688000Y-114044360D01*
X123685284Y-114071938D01*
X123679029Y-114092557D01*
X123668876Y-114111553D01*
X123655208Y-114128208D01*
X123638553Y-114141876D01*
X123619557Y-114152029D01*
X123598938Y-114158284D01*
X123571360Y-114161000D01*
X123062640Y-114161000D01*
X123035062Y-114158284D01*
X123014443Y-114152029D01*
X122995447Y-114141876D01*
X122978792Y-114128208D01*
X122965124Y-114111553D01*
X122954971Y-114092557D01*
X122948716Y-114071938D01*
X122946000Y-114044360D01*
X122946000Y-113585640D01*
X122948716Y-113558062D01*
X122954971Y-113537443D01*
X122965124Y-113518447D01*
X122978792Y-113501792D01*
X122995447Y-113488124D01*
X123014443Y-113477971D01*
X123035062Y-113471716D01*
X123062640Y-113469000D01*
X123571360Y-113469000D01*
X123598938Y-113471716D01*
X123598938Y-113471716D01*
G37*
G36*
X155065591Y-113079085D02*
G01*
X155099569Y-113089393D01*
X155130890Y-113106134D01*
X155158339Y-113128661D01*
X155180866Y-113156110D01*
X155197607Y-113187431D01*
X155207915Y-113221409D01*
X155212000Y-113262890D01*
X155212000Y-113864110D01*
X155207915Y-113905591D01*
X155197607Y-113939569D01*
X155180866Y-113970890D01*
X155158339Y-113998339D01*
X155130890Y-114020866D01*
X155099569Y-114037607D01*
X155065591Y-114047915D01*
X155024110Y-114052000D01*
X154347890Y-114052000D01*
X154306409Y-114047915D01*
X154272431Y-114037607D01*
X154241110Y-114020866D01*
X154213661Y-113998339D01*
X154191134Y-113970890D01*
X154174393Y-113939569D01*
X154164085Y-113905591D01*
X154160000Y-113864110D01*
X154160000Y-113262890D01*
X154164085Y-113221409D01*
X154174393Y-113187431D01*
X154191134Y-113156110D01*
X154213661Y-113128661D01*
X154241110Y-113106134D01*
X154272431Y-113089393D01*
X154306409Y-113079085D01*
X154347890Y-113075000D01*
X155024110Y-113075000D01*
X155065591Y-113079085D01*
X155065591Y-113079085D01*
G37*
G36*
X144646000Y-113811000D02*
G01*
X143644000Y-113811000D01*
X143644000Y-111709000D01*
X144646000Y-111709000D01*
X144646000Y-113811000D01*
X144646000Y-113811000D01*
G37*
G36*
X140836000Y-113811000D02*
G01*
X139834000Y-113811000D01*
X139834000Y-111709000D01*
X140836000Y-111709000D01*
X140836000Y-113811000D01*
X140836000Y-113811000D01*
G37*
G36*
X145916000Y-113811000D02*
G01*
X144914000Y-113811000D01*
X144914000Y-111709000D01*
X145916000Y-111709000D01*
X145916000Y-113811000D01*
X145916000Y-113811000D01*
G37*
G36*
X149726000Y-113811000D02*
G01*
X148724000Y-113811000D01*
X148724000Y-111709000D01*
X149726000Y-111709000D01*
X149726000Y-113811000D01*
X149726000Y-113811000D01*
G37*
G36*
X148456000Y-113811000D02*
G01*
X147454000Y-113811000D01*
X147454000Y-111709000D01*
X148456000Y-111709000D01*
X148456000Y-113811000D01*
X148456000Y-113811000D01*
G37*
G36*
X143376000Y-113811000D02*
G01*
X142374000Y-113811000D01*
X142374000Y-111709000D01*
X143376000Y-111709000D01*
X143376000Y-113811000D01*
X143376000Y-113811000D01*
G37*
G36*
X138296000Y-113811000D02*
G01*
X137294000Y-113811000D01*
X137294000Y-111709000D01*
X138296000Y-111709000D01*
X138296000Y-113811000D01*
X138296000Y-113811000D01*
G37*
G36*
X139566000Y-113811000D02*
G01*
X138564000Y-113811000D01*
X138564000Y-111709000D01*
X139566000Y-111709000D01*
X139566000Y-113811000D01*
X139566000Y-113811000D01*
G37*
G36*
X142106000Y-113811000D02*
G01*
X141104000Y-113811000D01*
X141104000Y-111709000D01*
X142106000Y-111709000D01*
X142106000Y-113811000D01*
X142106000Y-113811000D01*
G37*
G36*
X147186000Y-113811000D02*
G01*
X146184000Y-113811000D01*
X146184000Y-111709000D01*
X147186000Y-111709000D01*
X147186000Y-113811000D01*
X147186000Y-113811000D01*
G37*
G36*
X116111721Y-112627174D02*
G01*
X116211995Y-112668709D01*
X116211996Y-112668710D01*
X116302242Y-112729010D01*
X116378990Y-112805758D01*
X116378991Y-112805760D01*
X116439291Y-112896005D01*
X116480826Y-112996279D01*
X116502000Y-113102730D01*
X116502000Y-113211270D01*
X116480826Y-113317721D01*
X116439291Y-113417995D01*
X116439290Y-113417996D01*
X116378990Y-113508242D01*
X116302242Y-113584990D01*
X116281767Y-113598671D01*
X116211995Y-113645291D01*
X116111721Y-113686826D01*
X116005270Y-113708000D01*
X115896730Y-113708000D01*
X115790279Y-113686826D01*
X115690005Y-113645291D01*
X115620233Y-113598671D01*
X115599758Y-113584990D01*
X115523010Y-113508242D01*
X115462710Y-113417996D01*
X115462709Y-113417995D01*
X115421174Y-113317721D01*
X115400000Y-113211270D01*
X115400000Y-113102730D01*
X115421174Y-112996279D01*
X115462709Y-112896005D01*
X115523009Y-112805760D01*
X115523010Y-112805758D01*
X115599758Y-112729010D01*
X115690004Y-112668710D01*
X115690005Y-112668709D01*
X115790279Y-112627174D01*
X115896730Y-112606000D01*
X116005270Y-112606000D01*
X116111721Y-112627174D01*
X116111721Y-112627174D01*
G37*
G36*
X157746000Y-113632000D02*
G01*
X155944000Y-113632000D01*
X155944000Y-112230000D01*
X157746000Y-112230000D01*
X157746000Y-113632000D01*
X157746000Y-113632000D01*
G37*
G36*
X126829938Y-112534716D02*
G01*
X126850557Y-112540971D01*
X126869553Y-112551124D01*
X126886208Y-112564792D01*
X126899876Y-112581447D01*
X126910029Y-112600443D01*
X126916284Y-112621062D01*
X126919000Y-112648640D01*
X126919000Y-113157360D01*
X126916284Y-113184938D01*
X126910029Y-113205557D01*
X126899876Y-113224553D01*
X126886208Y-113241208D01*
X126869553Y-113254876D01*
X126850557Y-113265029D01*
X126829938Y-113271284D01*
X126802360Y-113274000D01*
X126343640Y-113274000D01*
X126316062Y-113271284D01*
X126295443Y-113265029D01*
X126276447Y-113254876D01*
X126259792Y-113241208D01*
X126246124Y-113224553D01*
X126235971Y-113205557D01*
X126229716Y-113184938D01*
X126227000Y-113157360D01*
X126227000Y-112648640D01*
X126229716Y-112621062D01*
X126235971Y-112600443D01*
X126246124Y-112581447D01*
X126259792Y-112564792D01*
X126276447Y-112551124D01*
X126295443Y-112540971D01*
X126316062Y-112534716D01*
X126343640Y-112532000D01*
X126802360Y-112532000D01*
X126829938Y-112534716D01*
X126829938Y-112534716D01*
G37*
G36*
X125859938Y-112534716D02*
G01*
X125880557Y-112540971D01*
X125899553Y-112551124D01*
X125916208Y-112564792D01*
X125929876Y-112581447D01*
X125940029Y-112600443D01*
X125946284Y-112621062D01*
X125949000Y-112648640D01*
X125949000Y-113157360D01*
X125946284Y-113184938D01*
X125940029Y-113205557D01*
X125929876Y-113224553D01*
X125916208Y-113241208D01*
X125899553Y-113254876D01*
X125880557Y-113265029D01*
X125859938Y-113271284D01*
X125832360Y-113274000D01*
X125373640Y-113274000D01*
X125346062Y-113271284D01*
X125325443Y-113265029D01*
X125306447Y-113254876D01*
X125289792Y-113241208D01*
X125276124Y-113224553D01*
X125265971Y-113205557D01*
X125259716Y-113184938D01*
X125257000Y-113157360D01*
X125257000Y-112648640D01*
X125259716Y-112621062D01*
X125265971Y-112600443D01*
X125276124Y-112581447D01*
X125289792Y-112564792D01*
X125306447Y-112551124D01*
X125325443Y-112540971D01*
X125346062Y-112534716D01*
X125373640Y-112532000D01*
X125832360Y-112532000D01*
X125859938Y-112534716D01*
X125859938Y-112534716D01*
G37*
G36*
X130962938Y-112280716D02*
G01*
X130983557Y-112286971D01*
X131002553Y-112297124D01*
X131019208Y-112310792D01*
X131032876Y-112327447D01*
X131043029Y-112346443D01*
X131049284Y-112367062D01*
X131052000Y-112394640D01*
X131052000Y-112903360D01*
X131049284Y-112930938D01*
X131043029Y-112951557D01*
X131032876Y-112970553D01*
X131019208Y-112987208D01*
X131002553Y-113000876D01*
X130983557Y-113011029D01*
X130962938Y-113017284D01*
X130935360Y-113020000D01*
X130476640Y-113020000D01*
X130449062Y-113017284D01*
X130428443Y-113011029D01*
X130409447Y-113000876D01*
X130392792Y-112987208D01*
X130379124Y-112970553D01*
X130368971Y-112951557D01*
X130362716Y-112930938D01*
X130360000Y-112903360D01*
X130360000Y-112394640D01*
X130362716Y-112367062D01*
X130368971Y-112346443D01*
X130379124Y-112327447D01*
X130392792Y-112310792D01*
X130409447Y-112297124D01*
X130428443Y-112286971D01*
X130449062Y-112280716D01*
X130476640Y-112278000D01*
X130935360Y-112278000D01*
X130962938Y-112280716D01*
X130962938Y-112280716D01*
G37*
G36*
X131932938Y-112280716D02*
G01*
X131953557Y-112286971D01*
X131972553Y-112297124D01*
X131989208Y-112310792D01*
X132002876Y-112327447D01*
X132013029Y-112346443D01*
X132019284Y-112367062D01*
X132022000Y-112394640D01*
X132022000Y-112903360D01*
X132019284Y-112930938D01*
X132013029Y-112951557D01*
X132002876Y-112970553D01*
X131989208Y-112987208D01*
X131972553Y-113000876D01*
X131953557Y-113011029D01*
X131932938Y-113017284D01*
X131905360Y-113020000D01*
X131446640Y-113020000D01*
X131419062Y-113017284D01*
X131398443Y-113011029D01*
X131379447Y-113000876D01*
X131362792Y-112987208D01*
X131349124Y-112970553D01*
X131338971Y-112951557D01*
X131332716Y-112930938D01*
X131330000Y-112903360D01*
X131330000Y-112394640D01*
X131332716Y-112367062D01*
X131338971Y-112346443D01*
X131349124Y-112327447D01*
X131362792Y-112310792D01*
X131379447Y-112297124D01*
X131398443Y-112286971D01*
X131419062Y-112280716D01*
X131446640Y-112278000D01*
X131905360Y-112278000D01*
X131932938Y-112280716D01*
X131932938Y-112280716D01*
G37*
G36*
X155065591Y-111504085D02*
G01*
X155099569Y-111514393D01*
X155130890Y-111531134D01*
X155158339Y-111553661D01*
X155180866Y-111581110D01*
X155197607Y-111612431D01*
X155207915Y-111646409D01*
X155212000Y-111687890D01*
X155212000Y-112289110D01*
X155207915Y-112330591D01*
X155197607Y-112364569D01*
X155180866Y-112395890D01*
X155158339Y-112423339D01*
X155130890Y-112445866D01*
X155099569Y-112462607D01*
X155065591Y-112472915D01*
X155024110Y-112477000D01*
X154347890Y-112477000D01*
X154306409Y-112472915D01*
X154272431Y-112462607D01*
X154241110Y-112445866D01*
X154213661Y-112423339D01*
X154191134Y-112395890D01*
X154174393Y-112364569D01*
X154164085Y-112330591D01*
X154160000Y-112289110D01*
X154160000Y-111687890D01*
X154164085Y-111646409D01*
X154174393Y-111612431D01*
X154191134Y-111581110D01*
X154213661Y-111553661D01*
X154241110Y-111531134D01*
X154272431Y-111514393D01*
X154306409Y-111504085D01*
X154347890Y-111500000D01*
X155024110Y-111500000D01*
X155065591Y-111504085D01*
X155065591Y-111504085D01*
G37*
G36*
X136061000Y-112261000D02*
G01*
X133959000Y-112261000D01*
X133959000Y-111259000D01*
X136061000Y-111259000D01*
X136061000Y-112261000D01*
X136061000Y-112261000D01*
G37*
G36*
X153061000Y-112261000D02*
G01*
X150959000Y-112261000D01*
X150959000Y-111259000D01*
X153061000Y-111259000D01*
X153061000Y-112261000D01*
X153061000Y-112261000D01*
G37*
G36*
X153061000Y-110991000D02*
G01*
X150959000Y-110991000D01*
X150959000Y-109989000D01*
X153061000Y-109989000D01*
X153061000Y-110991000D01*
X153061000Y-110991000D01*
G37*
G36*
X136061000Y-110991000D02*
G01*
X133959000Y-110991000D01*
X133959000Y-109989000D01*
X136061000Y-109989000D01*
X136061000Y-110991000D01*
X136061000Y-110991000D01*
G37*
G36*
X136061000Y-109721000D02*
G01*
X133959000Y-109721000D01*
X133959000Y-108719000D01*
X136061000Y-108719000D01*
X136061000Y-109721000D01*
X136061000Y-109721000D01*
G37*
G36*
X153061000Y-109721000D02*
G01*
X150959000Y-109721000D01*
X150959000Y-108719000D01*
X153061000Y-108719000D01*
X153061000Y-109721000D01*
X153061000Y-109721000D01*
G37*
G36*
X153061000Y-108451000D02*
G01*
X150959000Y-108451000D01*
X150959000Y-107449000D01*
X153061000Y-107449000D01*
X153061000Y-108451000D01*
X153061000Y-108451000D01*
G37*
G36*
X136061000Y-108451000D02*
G01*
X133959000Y-108451000D01*
X133959000Y-107449000D01*
X136061000Y-107449000D01*
X136061000Y-108451000D01*
X136061000Y-108451000D01*
G37*
G36*
X121533600Y-105782989D02*
G01*
X121566652Y-105793015D01*
X121597103Y-105809292D01*
X121623799Y-105831201D01*
X121645708Y-105857897D01*
X121661985Y-105888348D01*
X121672011Y-105921400D01*
X121676000Y-105961903D01*
X121676000Y-107398097D01*
X121672011Y-107438600D01*
X121661985Y-107471652D01*
X121645708Y-107502103D01*
X121623799Y-107528799D01*
X121597103Y-107550708D01*
X121566652Y-107566985D01*
X121533600Y-107577011D01*
X121493097Y-107581000D01*
X119806903Y-107581000D01*
X119766400Y-107577011D01*
X119733348Y-107566985D01*
X119702897Y-107550708D01*
X119676201Y-107528799D01*
X119654292Y-107502103D01*
X119638015Y-107471652D01*
X119627989Y-107438600D01*
X119624000Y-107398097D01*
X119624000Y-105961903D01*
X119627989Y-105921400D01*
X119638015Y-105888348D01*
X119654292Y-105857897D01*
X119676201Y-105831201D01*
X119702897Y-105809292D01*
X119733348Y-105793015D01*
X119766400Y-105782989D01*
X119806903Y-105779000D01*
X121493097Y-105779000D01*
X121533600Y-105782989D01*
X121533600Y-105782989D01*
G37*
G36*
X166605442Y-105665518D02*
G01*
X166671627Y-105672037D01*
X166841466Y-105723557D01*
X166997991Y-105807222D01*
X167027209Y-105831201D01*
X167135186Y-105919814D01*
X167218448Y-106021271D01*
X167247778Y-106057009D01*
X167331443Y-106213534D01*
X167382963Y-106383373D01*
X167400359Y-106560000D01*
X167382963Y-106736627D01*
X167331443Y-106906466D01*
X167247778Y-107062991D01*
X167218448Y-107098729D01*
X167135186Y-107200186D01*
X167033729Y-107283448D01*
X166997991Y-107312778D01*
X166841466Y-107396443D01*
X166671627Y-107447963D01*
X166605443Y-107454481D01*
X166539260Y-107461000D01*
X166200740Y-107461000D01*
X166134557Y-107454481D01*
X166068373Y-107447963D01*
X165898534Y-107396443D01*
X165742009Y-107312778D01*
X165706271Y-107283448D01*
X165604814Y-107200186D01*
X165521552Y-107098729D01*
X165492222Y-107062991D01*
X165408557Y-106906466D01*
X165357037Y-106736627D01*
X165339641Y-106560000D01*
X165357037Y-106383373D01*
X165408557Y-106213534D01*
X165492222Y-106057009D01*
X165521552Y-106021271D01*
X165604814Y-105919814D01*
X165712791Y-105831201D01*
X165742009Y-105807222D01*
X165898534Y-105723557D01*
X166068373Y-105672037D01*
X166134558Y-105665518D01*
X166200740Y-105659000D01*
X166539260Y-105659000D01*
X166605442Y-105665518D01*
X166605442Y-105665518D01*
G37*
G36*
X153061000Y-107181000D02*
G01*
X150959000Y-107181000D01*
X150959000Y-106179000D01*
X153061000Y-106179000D01*
X153061000Y-107181000D01*
X153061000Y-107181000D01*
G37*
G36*
X136061000Y-107181000D02*
G01*
X133959000Y-107181000D01*
X133959000Y-106179000D01*
X136061000Y-106179000D01*
X136061000Y-107181000D01*
X136061000Y-107181000D01*
G37*
G36*
X136061000Y-105911000D02*
G01*
X133959000Y-105911000D01*
X133959000Y-104909000D01*
X136061000Y-104909000D01*
X136061000Y-105911000D01*
X136061000Y-105911000D01*
G37*
G36*
X153061000Y-105911000D02*
G01*
X150959000Y-105911000D01*
X150959000Y-104909000D01*
X153061000Y-104909000D01*
X153061000Y-105911000D01*
X153061000Y-105911000D01*
G37*
G36*
X145061000Y-105301000D02*
G01*
X139959000Y-105301000D01*
X139959000Y-100199000D01*
X145061000Y-100199000D01*
X145061000Y-105301000D01*
X145061000Y-105301000D01*
G37*
G36*
X120885443Y-103285519D02*
G01*
X120951627Y-103292037D01*
X121121466Y-103343557D01*
X121277991Y-103427222D01*
X121313729Y-103456552D01*
X121415186Y-103539814D01*
X121496585Y-103639000D01*
X121527778Y-103677009D01*
X121611443Y-103833534D01*
X121662963Y-104003373D01*
X121680359Y-104180000D01*
X121662963Y-104356627D01*
X121611443Y-104526466D01*
X121527778Y-104682991D01*
X121513667Y-104700185D01*
X121415186Y-104820186D01*
X121322266Y-104896442D01*
X121277991Y-104932778D01*
X121121466Y-105016443D01*
X120951627Y-105067963D01*
X120885443Y-105074481D01*
X120819260Y-105081000D01*
X120480740Y-105081000D01*
X120414557Y-105074481D01*
X120348373Y-105067963D01*
X120178534Y-105016443D01*
X120022009Y-104932778D01*
X119977734Y-104896442D01*
X119884814Y-104820186D01*
X119786333Y-104700185D01*
X119772222Y-104682991D01*
X119688557Y-104526466D01*
X119637037Y-104356627D01*
X119619641Y-104180000D01*
X119637037Y-104003373D01*
X119688557Y-103833534D01*
X119772222Y-103677009D01*
X119803415Y-103639000D01*
X119884814Y-103539814D01*
X119986271Y-103456552D01*
X120022009Y-103427222D01*
X120178534Y-103343557D01*
X120348373Y-103292037D01*
X120414557Y-103285519D01*
X120480740Y-103279000D01*
X120819260Y-103279000D01*
X120885443Y-103285519D01*
X120885443Y-103285519D01*
G37*
G36*
X166605442Y-103165518D02*
G01*
X166671627Y-103172037D01*
X166841466Y-103223557D01*
X166997991Y-103307222D01*
X167033729Y-103336552D01*
X167135186Y-103419814D01*
X167218448Y-103521271D01*
X167247778Y-103557009D01*
X167331443Y-103713534D01*
X167382963Y-103883373D01*
X167400359Y-104060000D01*
X167382963Y-104236627D01*
X167331443Y-104406466D01*
X167247778Y-104562991D01*
X167218448Y-104598729D01*
X167135186Y-104700186D01*
X167033729Y-104783448D01*
X166997991Y-104812778D01*
X166841466Y-104896443D01*
X166671627Y-104947963D01*
X166605443Y-104954481D01*
X166539260Y-104961000D01*
X166200740Y-104961000D01*
X166134557Y-104954481D01*
X166068373Y-104947963D01*
X165898534Y-104896443D01*
X165742009Y-104812778D01*
X165706271Y-104783448D01*
X165604814Y-104700186D01*
X165521552Y-104598729D01*
X165492222Y-104562991D01*
X165408557Y-104406466D01*
X165357037Y-104236627D01*
X165339641Y-104060000D01*
X165357037Y-103883373D01*
X165408557Y-103713534D01*
X165492222Y-103557009D01*
X165521552Y-103521271D01*
X165604814Y-103419814D01*
X165706271Y-103336552D01*
X165742009Y-103307222D01*
X165898534Y-103223557D01*
X166068373Y-103172037D01*
X166134558Y-103165518D01*
X166200740Y-103159000D01*
X166539260Y-103159000D01*
X166605442Y-103165518D01*
X166605442Y-103165518D01*
G37*
G36*
X153061000Y-104641000D02*
G01*
X150959000Y-104641000D01*
X150959000Y-103639000D01*
X153061000Y-103639000D01*
X153061000Y-104641000D01*
X153061000Y-104641000D01*
G37*
G36*
X136061000Y-104641000D02*
G01*
X133959000Y-104641000D01*
X133959000Y-103639000D01*
X136061000Y-103639000D01*
X136061000Y-104641000D01*
X136061000Y-104641000D01*
G37*
G36*
X153061000Y-103371000D02*
G01*
X150959000Y-103371000D01*
X150959000Y-102369000D01*
X153061000Y-102369000D01*
X153061000Y-103371000D01*
X153061000Y-103371000D01*
G37*
G36*
X136061000Y-103371000D02*
G01*
X133959000Y-103371000D01*
X133959000Y-102369000D01*
X136061000Y-102369000D01*
X136061000Y-103371000D01*
X136061000Y-103371000D01*
G37*
G36*
X120885442Y-100785518D02*
G01*
X120951627Y-100792037D01*
X121121466Y-100843557D01*
X121277991Y-100927222D01*
X121313729Y-100956552D01*
X121415186Y-101039814D01*
X121498448Y-101141271D01*
X121527778Y-101177009D01*
X121611443Y-101333534D01*
X121662963Y-101503373D01*
X121680359Y-101680000D01*
X121662963Y-101856627D01*
X121611443Y-102026466D01*
X121527778Y-102182991D01*
X121513667Y-102200185D01*
X121415186Y-102320186D01*
X121322266Y-102396442D01*
X121277991Y-102432778D01*
X121121466Y-102516443D01*
X120951627Y-102567963D01*
X120885443Y-102574481D01*
X120819260Y-102581000D01*
X120480740Y-102581000D01*
X120414557Y-102574481D01*
X120348373Y-102567963D01*
X120178534Y-102516443D01*
X120022009Y-102432778D01*
X119977734Y-102396442D01*
X119884814Y-102320186D01*
X119786333Y-102200185D01*
X119772222Y-102182991D01*
X119688557Y-102026466D01*
X119637037Y-101856627D01*
X119619641Y-101680000D01*
X119637037Y-101503373D01*
X119688557Y-101333534D01*
X119772222Y-101177009D01*
X119801552Y-101141271D01*
X119884814Y-101039814D01*
X119986271Y-100956552D01*
X120022009Y-100927222D01*
X120178534Y-100843557D01*
X120348373Y-100792037D01*
X120414558Y-100785518D01*
X120480740Y-100779000D01*
X120819260Y-100779000D01*
X120885442Y-100785518D01*
X120885442Y-100785518D01*
G37*
G36*
X166605442Y-100665518D02*
G01*
X166671627Y-100672037D01*
X166841466Y-100723557D01*
X166997991Y-100807222D01*
X167026964Y-100831000D01*
X167135186Y-100919814D01*
X167218448Y-101021271D01*
X167247778Y-101057009D01*
X167331443Y-101213534D01*
X167382963Y-101383373D01*
X167400359Y-101560000D01*
X167382963Y-101736627D01*
X167331443Y-101906466D01*
X167247778Y-102062991D01*
X167218448Y-102098729D01*
X167135186Y-102200186D01*
X167033729Y-102283448D01*
X166997991Y-102312778D01*
X166841466Y-102396443D01*
X166671627Y-102447963D01*
X166605443Y-102454481D01*
X166539260Y-102461000D01*
X166200740Y-102461000D01*
X166134557Y-102454481D01*
X166068373Y-102447963D01*
X165898534Y-102396443D01*
X165742009Y-102312778D01*
X165706271Y-102283448D01*
X165604814Y-102200186D01*
X165521552Y-102098729D01*
X165492222Y-102062991D01*
X165408557Y-101906466D01*
X165357037Y-101736627D01*
X165339641Y-101560000D01*
X165357037Y-101383373D01*
X165408557Y-101213534D01*
X165492222Y-101057009D01*
X165521552Y-101021271D01*
X165604814Y-100919814D01*
X165713036Y-100831000D01*
X165742009Y-100807222D01*
X165898534Y-100723557D01*
X166068373Y-100672037D01*
X166134558Y-100665518D01*
X166200740Y-100659000D01*
X166539260Y-100659000D01*
X166605442Y-100665518D01*
X166605442Y-100665518D01*
G37*
G36*
X153061000Y-102101000D02*
G01*
X150959000Y-102101000D01*
X150959000Y-101099000D01*
X153061000Y-101099000D01*
X153061000Y-102101000D01*
X153061000Y-102101000D01*
G37*
G36*
X136061000Y-102101000D02*
G01*
X133959000Y-102101000D01*
X133959000Y-101099000D01*
X136061000Y-101099000D01*
X136061000Y-102101000D01*
X136061000Y-102101000D01*
G37*
G36*
X136061000Y-100831000D02*
G01*
X133959000Y-100831000D01*
X133959000Y-99829000D01*
X136061000Y-99829000D01*
X136061000Y-100831000D01*
X136061000Y-100831000D01*
G37*
G36*
X153061000Y-100831000D02*
G01*
X150959000Y-100831000D01*
X150959000Y-99829000D01*
X153061000Y-99829000D01*
X153061000Y-100831000D01*
X153061000Y-100831000D01*
G37*
G36*
X120885442Y-98285518D02*
G01*
X120951627Y-98292037D01*
X121121466Y-98343557D01*
X121277991Y-98427222D01*
X121313729Y-98456552D01*
X121415186Y-98539814D01*
X121498448Y-98641271D01*
X121527778Y-98677009D01*
X121611443Y-98833534D01*
X121662963Y-99003373D01*
X121680359Y-99180000D01*
X121662963Y-99356627D01*
X121611443Y-99526466D01*
X121527778Y-99682991D01*
X121498448Y-99718729D01*
X121415186Y-99820186D01*
X121338179Y-99883383D01*
X121277991Y-99932778D01*
X121121466Y-100016443D01*
X120951627Y-100067963D01*
X120885443Y-100074481D01*
X120819260Y-100081000D01*
X120480740Y-100081000D01*
X120414557Y-100074481D01*
X120348373Y-100067963D01*
X120178534Y-100016443D01*
X120022009Y-99932778D01*
X119961821Y-99883383D01*
X119884814Y-99820186D01*
X119801552Y-99718729D01*
X119772222Y-99682991D01*
X119688557Y-99526466D01*
X119637037Y-99356627D01*
X119619641Y-99180000D01*
X119637037Y-99003373D01*
X119688557Y-98833534D01*
X119772222Y-98677009D01*
X119801552Y-98641271D01*
X119884814Y-98539814D01*
X119986271Y-98456552D01*
X120022009Y-98427222D01*
X120178534Y-98343557D01*
X120348373Y-98292037D01*
X120414558Y-98285518D01*
X120480740Y-98279000D01*
X120819260Y-98279000D01*
X120885442Y-98285518D01*
X120885442Y-98285518D01*
G37*
G36*
X167253600Y-98162989D02*
G01*
X167286652Y-98173015D01*
X167317103Y-98189292D01*
X167343799Y-98211201D01*
X167365708Y-98237897D01*
X167381985Y-98268348D01*
X167392011Y-98301400D01*
X167396000Y-98341903D01*
X167396000Y-99778097D01*
X167392011Y-99818600D01*
X167381985Y-99851652D01*
X167365708Y-99882103D01*
X167343799Y-99908799D01*
X167317103Y-99930708D01*
X167286652Y-99946985D01*
X167253600Y-99957011D01*
X167213097Y-99961000D01*
X165526903Y-99961000D01*
X165486400Y-99957011D01*
X165453348Y-99946985D01*
X165422897Y-99930708D01*
X165396201Y-99908799D01*
X165374292Y-99882103D01*
X165358015Y-99851652D01*
X165347989Y-99818600D01*
X165344000Y-99778097D01*
X165344000Y-98341903D01*
X165347989Y-98301400D01*
X165358015Y-98268348D01*
X165374292Y-98237897D01*
X165396201Y-98211201D01*
X165422897Y-98189292D01*
X165453348Y-98173015D01*
X165486400Y-98162989D01*
X165526903Y-98159000D01*
X167213097Y-98159000D01*
X167253600Y-98162989D01*
X167253600Y-98162989D01*
G37*
G36*
X153061000Y-99561000D02*
G01*
X150959000Y-99561000D01*
X150959000Y-98559000D01*
X153061000Y-98559000D01*
X153061000Y-99561000D01*
X153061000Y-99561000D01*
G37*
G36*
X136061000Y-99561000D02*
G01*
X133959000Y-99561000D01*
X133959000Y-98559000D01*
X136061000Y-98559000D01*
X136061000Y-99561000D01*
X136061000Y-99561000D01*
G37*
G36*
X136061000Y-98291000D02*
G01*
X133959000Y-98291000D01*
X133959000Y-97289000D01*
X136061000Y-97289000D01*
X136061000Y-98291000D01*
X136061000Y-98291000D01*
G37*
G36*
X153061000Y-98291000D02*
G01*
X150959000Y-98291000D01*
X150959000Y-97289000D01*
X153061000Y-97289000D01*
X153061000Y-98291000D01*
X153061000Y-98291000D01*
G37*
G36*
X136061000Y-97021000D02*
G01*
X133959000Y-97021000D01*
X133959000Y-96019000D01*
X136061000Y-96019000D01*
X136061000Y-97021000D01*
X136061000Y-97021000D01*
G37*
G36*
X153061000Y-97021000D02*
G01*
X150959000Y-97021000D01*
X150959000Y-96019000D01*
X153061000Y-96019000D01*
X153061000Y-97021000D01*
X153061000Y-97021000D01*
G37*
G36*
X132361938Y-95391716D02*
G01*
X132382557Y-95397971D01*
X132401553Y-95408124D01*
X132418208Y-95421792D01*
X132431876Y-95438447D01*
X132442029Y-95457443D01*
X132448284Y-95478062D01*
X132451000Y-95505640D01*
X132451000Y-95964360D01*
X132448284Y-95991938D01*
X132442029Y-96012557D01*
X132431876Y-96031553D01*
X132418208Y-96048208D01*
X132401553Y-96061876D01*
X132382557Y-96072029D01*
X132361938Y-96078284D01*
X132334360Y-96081000D01*
X131825640Y-96081000D01*
X131798062Y-96078284D01*
X131777443Y-96072029D01*
X131758447Y-96061876D01*
X131741792Y-96048208D01*
X131728124Y-96031553D01*
X131717971Y-96012557D01*
X131711716Y-95991938D01*
X131709000Y-95964360D01*
X131709000Y-95505640D01*
X131711716Y-95478062D01*
X131717971Y-95457443D01*
X131728124Y-95438447D01*
X131741792Y-95421792D01*
X131758447Y-95408124D01*
X131777443Y-95397971D01*
X131798062Y-95391716D01*
X131825640Y-95389000D01*
X132334360Y-95389000D01*
X132361938Y-95391716D01*
X132361938Y-95391716D01*
G37*
G36*
X136061000Y-95751000D02*
G01*
X133959000Y-95751000D01*
X133959000Y-94749000D01*
X136061000Y-94749000D01*
X136061000Y-95751000D01*
X136061000Y-95751000D01*
G37*
G36*
X153061000Y-95751000D02*
G01*
X150959000Y-95751000D01*
X150959000Y-94749000D01*
X153061000Y-94749000D01*
X153061000Y-95751000D01*
X153061000Y-95751000D01*
G37*
G36*
X132361938Y-94421716D02*
G01*
X132382557Y-94427971D01*
X132401553Y-94438124D01*
X132418208Y-94451792D01*
X132431876Y-94468447D01*
X132442029Y-94487443D01*
X132448284Y-94508062D01*
X132451000Y-94535640D01*
X132451000Y-94994360D01*
X132448284Y-95021938D01*
X132442029Y-95042557D01*
X132431876Y-95061553D01*
X132418208Y-95078208D01*
X132401553Y-95091876D01*
X132382557Y-95102029D01*
X132361938Y-95108284D01*
X132334360Y-95111000D01*
X131825640Y-95111000D01*
X131798062Y-95108284D01*
X131777443Y-95102029D01*
X131758447Y-95091876D01*
X131741792Y-95078208D01*
X131728124Y-95061553D01*
X131717971Y-95042557D01*
X131711716Y-95021938D01*
X131709000Y-94994360D01*
X131709000Y-94535640D01*
X131711716Y-94508062D01*
X131717971Y-94487443D01*
X131728124Y-94468447D01*
X131741792Y-94451792D01*
X131758447Y-94438124D01*
X131777443Y-94427971D01*
X131798062Y-94421716D01*
X131825640Y-94419000D01*
X132334360Y-94419000D01*
X132361938Y-94421716D01*
X132361938Y-94421716D01*
G37*
G36*
X124106938Y-94121716D02*
G01*
X124127557Y-94127971D01*
X124146553Y-94138124D01*
X124163208Y-94151792D01*
X124176876Y-94168447D01*
X124187029Y-94187443D01*
X124193284Y-94208062D01*
X124196000Y-94235640D01*
X124196000Y-94694360D01*
X124193284Y-94721938D01*
X124187029Y-94742557D01*
X124176876Y-94761553D01*
X124163208Y-94778208D01*
X124146553Y-94791876D01*
X124127557Y-94802029D01*
X124106938Y-94808284D01*
X124079360Y-94811000D01*
X123570640Y-94811000D01*
X123543062Y-94808284D01*
X123522443Y-94802029D01*
X123503447Y-94791876D01*
X123486792Y-94778208D01*
X123473124Y-94761553D01*
X123462971Y-94742557D01*
X123456716Y-94721938D01*
X123454000Y-94694360D01*
X123454000Y-94235640D01*
X123456716Y-94208062D01*
X123462971Y-94187443D01*
X123473124Y-94168447D01*
X123486792Y-94151792D01*
X123503447Y-94138124D01*
X123522443Y-94127971D01*
X123543062Y-94121716D01*
X123570640Y-94119000D01*
X124079360Y-94119000D01*
X124106938Y-94121716D01*
X124106938Y-94121716D01*
G37*
G36*
X125376938Y-94121716D02*
G01*
X125397557Y-94127971D01*
X125416553Y-94138124D01*
X125433208Y-94151792D01*
X125446876Y-94168447D01*
X125457029Y-94187443D01*
X125463284Y-94208062D01*
X125466000Y-94235640D01*
X125466000Y-94694360D01*
X125463284Y-94721938D01*
X125457029Y-94742557D01*
X125446876Y-94761553D01*
X125433208Y-94778208D01*
X125416553Y-94791876D01*
X125397557Y-94802029D01*
X125376938Y-94808284D01*
X125349360Y-94811000D01*
X124840640Y-94811000D01*
X124813062Y-94808284D01*
X124792443Y-94802029D01*
X124773447Y-94791876D01*
X124756792Y-94778208D01*
X124743124Y-94761553D01*
X124732971Y-94742557D01*
X124726716Y-94721938D01*
X124724000Y-94694360D01*
X124724000Y-94235640D01*
X124726716Y-94208062D01*
X124732971Y-94187443D01*
X124743124Y-94168447D01*
X124756792Y-94151792D01*
X124773447Y-94138124D01*
X124792443Y-94127971D01*
X124813062Y-94121716D01*
X124840640Y-94119000D01*
X125349360Y-94119000D01*
X125376938Y-94121716D01*
X125376938Y-94121716D01*
G37*
G36*
X125376938Y-93151716D02*
G01*
X125397557Y-93157971D01*
X125416553Y-93168124D01*
X125433208Y-93181792D01*
X125446876Y-93198447D01*
X125457029Y-93217443D01*
X125463284Y-93238062D01*
X125466000Y-93265640D01*
X125466000Y-93724360D01*
X125463284Y-93751938D01*
X125457029Y-93772557D01*
X125446876Y-93791553D01*
X125433208Y-93808208D01*
X125416553Y-93821876D01*
X125397557Y-93832029D01*
X125376938Y-93838284D01*
X125349360Y-93841000D01*
X124840640Y-93841000D01*
X124813062Y-93838284D01*
X124792443Y-93832029D01*
X124773447Y-93821876D01*
X124756792Y-93808208D01*
X124743124Y-93791553D01*
X124732971Y-93772557D01*
X124726716Y-93751938D01*
X124724000Y-93724360D01*
X124724000Y-93265640D01*
X124726716Y-93238062D01*
X124732971Y-93217443D01*
X124743124Y-93198447D01*
X124756792Y-93181792D01*
X124773447Y-93168124D01*
X124792443Y-93157971D01*
X124813062Y-93151716D01*
X124840640Y-93149000D01*
X125349360Y-93149000D01*
X125376938Y-93151716D01*
X125376938Y-93151716D01*
G37*
G36*
X124106938Y-93151716D02*
G01*
X124127557Y-93157971D01*
X124146553Y-93168124D01*
X124163208Y-93181792D01*
X124176876Y-93198447D01*
X124187029Y-93217443D01*
X124193284Y-93238062D01*
X124196000Y-93265640D01*
X124196000Y-93724360D01*
X124193284Y-93751938D01*
X124187029Y-93772557D01*
X124176876Y-93791553D01*
X124163208Y-93808208D01*
X124146553Y-93821876D01*
X124127557Y-93832029D01*
X124106938Y-93838284D01*
X124079360Y-93841000D01*
X123570640Y-93841000D01*
X123543062Y-93838284D01*
X123522443Y-93832029D01*
X123503447Y-93821876D01*
X123486792Y-93808208D01*
X123473124Y-93791553D01*
X123462971Y-93772557D01*
X123456716Y-93751938D01*
X123454000Y-93724360D01*
X123454000Y-93265640D01*
X123456716Y-93238062D01*
X123462971Y-93217443D01*
X123473124Y-93198447D01*
X123486792Y-93181792D01*
X123503447Y-93168124D01*
X123522443Y-93157971D01*
X123543062Y-93151716D01*
X123570640Y-93149000D01*
X124079360Y-93149000D01*
X124106938Y-93151716D01*
X124106938Y-93151716D01*
G37*
G36*
X164575443Y-90545519D02*
G01*
X164641627Y-90552037D01*
X164811466Y-90603557D01*
X164967991Y-90687222D01*
X165003729Y-90716552D01*
X165105186Y-90799814D01*
X165188448Y-90901271D01*
X165217778Y-90937009D01*
X165301443Y-91093534D01*
X165352963Y-91263373D01*
X165370359Y-91440000D01*
X165352963Y-91616627D01*
X165301443Y-91786466D01*
X165217778Y-91942991D01*
X165188448Y-91978729D01*
X165105186Y-92080186D01*
X165003729Y-92163448D01*
X164967991Y-92192778D01*
X164811466Y-92276443D01*
X164641627Y-92327963D01*
X164575443Y-92334481D01*
X164509260Y-92341000D01*
X164420740Y-92341000D01*
X164354557Y-92334481D01*
X164288373Y-92327963D01*
X164118534Y-92276443D01*
X163962009Y-92192778D01*
X163926271Y-92163448D01*
X163824814Y-92080186D01*
X163741552Y-91978729D01*
X163712222Y-91942991D01*
X163628557Y-91786466D01*
X163577037Y-91616627D01*
X163559641Y-91440000D01*
X163577037Y-91263373D01*
X163628557Y-91093534D01*
X163712222Y-90937009D01*
X163741552Y-90901271D01*
X163824814Y-90799814D01*
X163926271Y-90716552D01*
X163962009Y-90687222D01*
X164118534Y-90603557D01*
X164288373Y-90552037D01*
X164354558Y-90545518D01*
X164420740Y-90539000D01*
X164509260Y-90539000D01*
X164575443Y-90545519D01*
X164575443Y-90545519D01*
G37*
G36*
X123296000Y-92181000D02*
G01*
X121194000Y-92181000D01*
X121194000Y-90079000D01*
X123296000Y-90079000D01*
X123296000Y-92181000D01*
X123296000Y-92181000D01*
G37*
G36*
X116296000Y-92181000D02*
G01*
X114194000Y-92181000D01*
X114194000Y-90079000D01*
X116296000Y-90079000D01*
X116296000Y-92181000D01*
X116296000Y-92181000D01*
G37*
G36*
X164575443Y-88005519D02*
G01*
X164641627Y-88012037D01*
X164811466Y-88063557D01*
X164967991Y-88147222D01*
X165003729Y-88176552D01*
X165105186Y-88259814D01*
X165188448Y-88361271D01*
X165217778Y-88397009D01*
X165301443Y-88553534D01*
X165352963Y-88723373D01*
X165370359Y-88900000D01*
X165352963Y-89076627D01*
X165301443Y-89246466D01*
X165217778Y-89402991D01*
X165188448Y-89438729D01*
X165105186Y-89540186D01*
X165003729Y-89623448D01*
X164967991Y-89652778D01*
X164811466Y-89736443D01*
X164641627Y-89787963D01*
X164575443Y-89794481D01*
X164509260Y-89801000D01*
X164420740Y-89801000D01*
X164354557Y-89794481D01*
X164288373Y-89787963D01*
X164118534Y-89736443D01*
X163962009Y-89652778D01*
X163926271Y-89623448D01*
X163824814Y-89540186D01*
X163741552Y-89438729D01*
X163712222Y-89402991D01*
X163628557Y-89246466D01*
X163577037Y-89076627D01*
X163559641Y-88900000D01*
X163577037Y-88723373D01*
X163628557Y-88553534D01*
X163712222Y-88397009D01*
X163741552Y-88361271D01*
X163824814Y-88259814D01*
X163926271Y-88176552D01*
X163962009Y-88147222D01*
X164118534Y-88063557D01*
X164288373Y-88012037D01*
X164354557Y-88005519D01*
X164420740Y-87999000D01*
X164509260Y-87999000D01*
X164575443Y-88005519D01*
X164575443Y-88005519D01*
G37*
G36*
X127231000Y-89666000D02*
G01*
X126229000Y-89666000D01*
X126229000Y-88764000D01*
X127231000Y-88764000D01*
X127231000Y-89666000D01*
X127231000Y-89666000D01*
G37*
G36*
X125231000Y-88716000D02*
G01*
X124229000Y-88716000D01*
X124229000Y-87814000D01*
X125231000Y-87814000D01*
X125231000Y-88716000D01*
X125231000Y-88716000D01*
G37*
G36*
X127231000Y-87766000D02*
G01*
X126229000Y-87766000D01*
X126229000Y-86864000D01*
X127231000Y-86864000D01*
X127231000Y-87766000D01*
X127231000Y-87766000D01*
G37*
G36*
X165366000Y-87261000D02*
G01*
X163564000Y-87261000D01*
X163564000Y-85459000D01*
X165366000Y-85459000D01*
X165366000Y-87261000D01*
X165366000Y-87261000D01*
G37*
G36*
X126011938Y-84596716D02*
G01*
X126032557Y-84602971D01*
X126051553Y-84613124D01*
X126068208Y-84626792D01*
X126081876Y-84643447D01*
X126092029Y-84662443D01*
X126098284Y-84683062D01*
X126101000Y-84710640D01*
X126101000Y-85169360D01*
X126098284Y-85196938D01*
X126092029Y-85217557D01*
X126081876Y-85236553D01*
X126068208Y-85253208D01*
X126051553Y-85266876D01*
X126032557Y-85277029D01*
X126011938Y-85283284D01*
X125984360Y-85286000D01*
X125475640Y-85286000D01*
X125448062Y-85283284D01*
X125427443Y-85277029D01*
X125408447Y-85266876D01*
X125391792Y-85253208D01*
X125378124Y-85236553D01*
X125367971Y-85217557D01*
X125361716Y-85196938D01*
X125359000Y-85169360D01*
X125359000Y-84710640D01*
X125361716Y-84683062D01*
X125367971Y-84662443D01*
X125378124Y-84643447D01*
X125391792Y-84626792D01*
X125408447Y-84613124D01*
X125427443Y-84602971D01*
X125448062Y-84596716D01*
X125475640Y-84594000D01*
X125984360Y-84594000D01*
X126011938Y-84596716D01*
X126011938Y-84596716D01*
G37*
G36*
X127281938Y-84596716D02*
G01*
X127302557Y-84602971D01*
X127321553Y-84613124D01*
X127338208Y-84626792D01*
X127351876Y-84643447D01*
X127362029Y-84662443D01*
X127368284Y-84683062D01*
X127371000Y-84710640D01*
X127371000Y-85169360D01*
X127368284Y-85196938D01*
X127362029Y-85217557D01*
X127351876Y-85236553D01*
X127338208Y-85253208D01*
X127321553Y-85266876D01*
X127302557Y-85277029D01*
X127281938Y-85283284D01*
X127254360Y-85286000D01*
X126745640Y-85286000D01*
X126718062Y-85283284D01*
X126697443Y-85277029D01*
X126678447Y-85266876D01*
X126661792Y-85253208D01*
X126648124Y-85236553D01*
X126637971Y-85217557D01*
X126631716Y-85196938D01*
X126629000Y-85169360D01*
X126629000Y-84710640D01*
X126631716Y-84683062D01*
X126637971Y-84662443D01*
X126648124Y-84643447D01*
X126661792Y-84626792D01*
X126678447Y-84613124D01*
X126697443Y-84602971D01*
X126718062Y-84596716D01*
X126745640Y-84594000D01*
X127254360Y-84594000D01*
X127281938Y-84596716D01*
X127281938Y-84596716D01*
G37*
G36*
X116296000Y-85181000D02*
G01*
X114194000Y-85181000D01*
X114194000Y-83079000D01*
X116296000Y-83079000D01*
X116296000Y-85181000D01*
X116296000Y-85181000D01*
G37*
G36*
X123296000Y-85181000D02*
G01*
X121194000Y-85181000D01*
X121194000Y-83079000D01*
X123296000Y-83079000D01*
X123296000Y-85181000D01*
X123296000Y-85181000D01*
G37*
G36*
X127281938Y-83626716D02*
G01*
X127302557Y-83632971D01*
X127321553Y-83643124D01*
X127338208Y-83656792D01*
X127351876Y-83673447D01*
X127362029Y-83692443D01*
X127368284Y-83713062D01*
X127371000Y-83740640D01*
X127371000Y-84199360D01*
X127368284Y-84226938D01*
X127362029Y-84247557D01*
X127351876Y-84266553D01*
X127338208Y-84283208D01*
X127321553Y-84296876D01*
X127302557Y-84307029D01*
X127281938Y-84313284D01*
X127254360Y-84316000D01*
X126745640Y-84316000D01*
X126718062Y-84313284D01*
X126697443Y-84307029D01*
X126678447Y-84296876D01*
X126661792Y-84283208D01*
X126648124Y-84266553D01*
X126637971Y-84247557D01*
X126631716Y-84226938D01*
X126629000Y-84199360D01*
X126629000Y-83740640D01*
X126631716Y-83713062D01*
X126637971Y-83692443D01*
X126648124Y-83673447D01*
X126661792Y-83656792D01*
X126678447Y-83643124D01*
X126697443Y-83632971D01*
X126718062Y-83626716D01*
X126745640Y-83624000D01*
X127254360Y-83624000D01*
X127281938Y-83626716D01*
X127281938Y-83626716D01*
G37*
G36*
X126011938Y-83626716D02*
G01*
X126032557Y-83632971D01*
X126051553Y-83643124D01*
X126068208Y-83656792D01*
X126081876Y-83673447D01*
X126092029Y-83692443D01*
X126098284Y-83713062D01*
X126101000Y-83740640D01*
X126101000Y-84199360D01*
X126098284Y-84226938D01*
X126092029Y-84247557D01*
X126081876Y-84266553D01*
X126068208Y-84283208D01*
X126051553Y-84296876D01*
X126032557Y-84307029D01*
X126011938Y-84313284D01*
X125984360Y-84316000D01*
X125475640Y-84316000D01*
X125448062Y-84313284D01*
X125427443Y-84307029D01*
X125408447Y-84296876D01*
X125391792Y-84283208D01*
X125378124Y-84266553D01*
X125367971Y-84247557D01*
X125361716Y-84226938D01*
X125359000Y-84199360D01*
X125359000Y-83740640D01*
X125361716Y-83713062D01*
X125367971Y-83692443D01*
X125378124Y-83673447D01*
X125391792Y-83656792D01*
X125408447Y-83643124D01*
X125427443Y-83632971D01*
X125448062Y-83626716D01*
X125475640Y-83624000D01*
X125984360Y-83624000D01*
X126011938Y-83626716D01*
X126011938Y-83626716D01*
G37*
G36*
X119379239Y-74916467D02*
G01*
X119693282Y-74978934D01*
X120284926Y-75224001D01*
X120616950Y-75445853D01*
X120817391Y-75579783D01*
X121270217Y-76032609D01*
X121328909Y-76120448D01*
X121625999Y-76565074D01*
X121806565Y-77001000D01*
X121871066Y-77156719D01*
X121996000Y-77784803D01*
X121996000Y-78425197D01*
X121966569Y-78573156D01*
X121871066Y-79053282D01*
X121625999Y-79644926D01*
X121378265Y-80015685D01*
X121270217Y-80177391D01*
X120817391Y-80630217D01*
X120711477Y-80700986D01*
X120284926Y-80985999D01*
X119693282Y-81231066D01*
X119379239Y-81293533D01*
X119065197Y-81356000D01*
X118424803Y-81356000D01*
X118110761Y-81293533D01*
X117796718Y-81231066D01*
X117205074Y-80985999D01*
X116778523Y-80700986D01*
X116672609Y-80630217D01*
X116219783Y-80177391D01*
X116111735Y-80015685D01*
X115864001Y-79644926D01*
X115618934Y-79053282D01*
X115523431Y-78573156D01*
X115494000Y-78425197D01*
X115494000Y-77784803D01*
X115618934Y-77156719D01*
X115683435Y-77001000D01*
X115864001Y-76565074D01*
X116161091Y-76120448D01*
X116219783Y-76032609D01*
X116672609Y-75579783D01*
X116873050Y-75445853D01*
X117205074Y-75224001D01*
X117796718Y-74978934D01*
X118110761Y-74916467D01*
X118424803Y-74854000D01*
X119065197Y-74854000D01*
X119379239Y-74916467D01*
X119379239Y-74916467D01*
G37*
G36*
X168909239Y-74916467D02*
G01*
X169223282Y-74978934D01*
X169814926Y-75224001D01*
X170146950Y-75445853D01*
X170347391Y-75579783D01*
X170800217Y-76032609D01*
X170858909Y-76120448D01*
X171155999Y-76565074D01*
X171336565Y-77001000D01*
X171401066Y-77156719D01*
X171526000Y-77784803D01*
X171526000Y-78425197D01*
X171496569Y-78573156D01*
X171401066Y-79053282D01*
X171155999Y-79644926D01*
X170908265Y-80015685D01*
X170800217Y-80177391D01*
X170347391Y-80630217D01*
X170241477Y-80700986D01*
X169814926Y-80985999D01*
X169223282Y-81231066D01*
X168909239Y-81293533D01*
X168595197Y-81356000D01*
X167954803Y-81356000D01*
X167640761Y-81293533D01*
X167326718Y-81231066D01*
X166735074Y-80985999D01*
X166308523Y-80700986D01*
X166202609Y-80630217D01*
X165749783Y-80177391D01*
X165641735Y-80015685D01*
X165394001Y-79644926D01*
X165148934Y-79053282D01*
X165053431Y-78573156D01*
X165024000Y-78425197D01*
X165024000Y-77784803D01*
X165148934Y-77156719D01*
X165213435Y-77001000D01*
X165394001Y-76565074D01*
X165691091Y-76120448D01*
X165749783Y-76032609D01*
X166202609Y-75579783D01*
X166403050Y-75445853D01*
X166735074Y-75224001D01*
X167326718Y-74978934D01*
X167640761Y-74916467D01*
X167954803Y-74854000D01*
X168595197Y-74854000D01*
X168909239Y-74916467D01*
X168909239Y-74916467D01*
G37*
G36*
X142376626Y-78997037D02*
G01*
X142546465Y-79048557D01*
X142546467Y-79048558D01*
X142702989Y-79132221D01*
X142840186Y-79244814D01*
X142923448Y-79346271D01*
X142952778Y-79382009D01*
X143036443Y-79538534D01*
X143087963Y-79708373D01*
X143087963Y-79708375D01*
X143101000Y-79840740D01*
X143101000Y-80179259D01*
X143098634Y-80203284D01*
X143087963Y-80311626D01*
X143036443Y-80481466D01*
X142952778Y-80637991D01*
X142928150Y-80668000D01*
X142840186Y-80775186D01*
X142759990Y-80841000D01*
X142702991Y-80887778D01*
X142546466Y-80971443D01*
X142376627Y-81022963D01*
X142200000Y-81040359D01*
X142023374Y-81022963D01*
X141853535Y-80971443D01*
X141697010Y-80887778D01*
X141559815Y-80775185D01*
X141447222Y-80637991D01*
X141363557Y-80481466D01*
X141312037Y-80311627D01*
X141299750Y-80186876D01*
X141299000Y-80179260D01*
X141299000Y-79840741D01*
X141312037Y-79708376D01*
X141312037Y-79708374D01*
X141363557Y-79538535D01*
X141371876Y-79522971D01*
X141447221Y-79382011D01*
X141559814Y-79244814D01*
X141664241Y-79159114D01*
X141697009Y-79132222D01*
X141853534Y-79048557D01*
X142023373Y-78997037D01*
X142200000Y-78979641D01*
X142376626Y-78997037D01*
X142376626Y-78997037D01*
G37*
G36*
X147376626Y-78997037D02*
G01*
X147546465Y-79048557D01*
X147546467Y-79048558D01*
X147702989Y-79132221D01*
X147840186Y-79244814D01*
X147923448Y-79346271D01*
X147952778Y-79382009D01*
X148036443Y-79538534D01*
X148087963Y-79708373D01*
X148087963Y-79708375D01*
X148101000Y-79840740D01*
X148101000Y-80179259D01*
X148098634Y-80203284D01*
X148087963Y-80311626D01*
X148036443Y-80481466D01*
X147952778Y-80637991D01*
X147928150Y-80668000D01*
X147840186Y-80775186D01*
X147759990Y-80841000D01*
X147702991Y-80887778D01*
X147546466Y-80971443D01*
X147376627Y-81022963D01*
X147200000Y-81040359D01*
X147023374Y-81022963D01*
X146853535Y-80971443D01*
X146697010Y-80887778D01*
X146559815Y-80775185D01*
X146447222Y-80637991D01*
X146363557Y-80481466D01*
X146312037Y-80311627D01*
X146299750Y-80186876D01*
X146299000Y-80179260D01*
X146299000Y-79840741D01*
X146312037Y-79708376D01*
X146312037Y-79708374D01*
X146363557Y-79538535D01*
X146371876Y-79522971D01*
X146447221Y-79382011D01*
X146559814Y-79244814D01*
X146664241Y-79159114D01*
X146697009Y-79132222D01*
X146853534Y-79048557D01*
X147023373Y-78997037D01*
X147200000Y-78979641D01*
X147376626Y-78997037D01*
X147376626Y-78997037D01*
G37*
G36*
X144876626Y-78997037D02*
G01*
X145046465Y-79048557D01*
X145046467Y-79048558D01*
X145202989Y-79132221D01*
X145340186Y-79244814D01*
X145423448Y-79346271D01*
X145452778Y-79382009D01*
X145536443Y-79538534D01*
X145587963Y-79708373D01*
X145587963Y-79708375D01*
X145601000Y-79840740D01*
X145601000Y-80179259D01*
X145598634Y-80203284D01*
X145587963Y-80311626D01*
X145536443Y-80481466D01*
X145452778Y-80637991D01*
X145428150Y-80668000D01*
X145340186Y-80775186D01*
X145259990Y-80841000D01*
X145202991Y-80887778D01*
X145046466Y-80971443D01*
X144876627Y-81022963D01*
X144700000Y-81040359D01*
X144523374Y-81022963D01*
X144353535Y-80971443D01*
X144197010Y-80887778D01*
X144059815Y-80775185D01*
X143947222Y-80637991D01*
X143863557Y-80481466D01*
X143812037Y-80311627D01*
X143799750Y-80186876D01*
X143799000Y-80179260D01*
X143799000Y-79840741D01*
X143812037Y-79708376D01*
X143812037Y-79708374D01*
X143863557Y-79538535D01*
X143871876Y-79522971D01*
X143947221Y-79382011D01*
X144059814Y-79244814D01*
X144164241Y-79159114D01*
X144197009Y-79132222D01*
X144353534Y-79048557D01*
X144523373Y-78997037D01*
X144700000Y-78979641D01*
X144876626Y-78997037D01*
X144876626Y-78997037D01*
G37*
G36*
X140458600Y-78987989D02*
G01*
X140491652Y-78998015D01*
X140522103Y-79014292D01*
X140548799Y-79036201D01*
X140570708Y-79062897D01*
X140586985Y-79093348D01*
X140597011Y-79126400D01*
X140601000Y-79166903D01*
X140601000Y-80853097D01*
X140597011Y-80893600D01*
X140586985Y-80926652D01*
X140570708Y-80957103D01*
X140548799Y-80983799D01*
X140522103Y-81005708D01*
X140491652Y-81021985D01*
X140458600Y-81032011D01*
X140418097Y-81036000D01*
X138981903Y-81036000D01*
X138941400Y-81032011D01*
X138908348Y-81021985D01*
X138877897Y-81005708D01*
X138851201Y-80983799D01*
X138829292Y-80957103D01*
X138813015Y-80926652D01*
X138802989Y-80893600D01*
X138799000Y-80853097D01*
X138799000Y-79166903D01*
X138802989Y-79126400D01*
X138813015Y-79093348D01*
X138829292Y-79062897D01*
X138851201Y-79036201D01*
X138877897Y-79014292D01*
X138908348Y-78998015D01*
X138941400Y-78987989D01*
X138981903Y-78984000D01*
X140418097Y-78984000D01*
X140458600Y-78987989D01*
X140458600Y-78987989D01*
G37*
G36*
X162841938Y-80151716D02*
G01*
X162862557Y-80157971D01*
X162881553Y-80168124D01*
X162898208Y-80181792D01*
X162911876Y-80198447D01*
X162922029Y-80217443D01*
X162928284Y-80238062D01*
X162931000Y-80265640D01*
X162931000Y-80724360D01*
X162928284Y-80751938D01*
X162922029Y-80772557D01*
X162911876Y-80791553D01*
X162898208Y-80808208D01*
X162881553Y-80821876D01*
X162862557Y-80832029D01*
X162841938Y-80838284D01*
X162814360Y-80841000D01*
X162305640Y-80841000D01*
X162278062Y-80838284D01*
X162257443Y-80832029D01*
X162238447Y-80821876D01*
X162221792Y-80808208D01*
X162208124Y-80791553D01*
X162197971Y-80772557D01*
X162191716Y-80751938D01*
X162189000Y-80724360D01*
X162189000Y-80265640D01*
X162191716Y-80238062D01*
X162197971Y-80217443D01*
X162208124Y-80198447D01*
X162221792Y-80181792D01*
X162238447Y-80168124D01*
X162257443Y-80157971D01*
X162278062Y-80151716D01*
X162305640Y-80149000D01*
X162814360Y-80149000D01*
X162841938Y-80151716D01*
X162841938Y-80151716D01*
G37*
G36*
X156951938Y-79641716D02*
G01*
X156972557Y-79647971D01*
X156991553Y-79658124D01*
X157008208Y-79671792D01*
X157021876Y-79688447D01*
X157032029Y-79707443D01*
X157038284Y-79728062D01*
X157041000Y-79755640D01*
X157041000Y-80264360D01*
X157038284Y-80291938D01*
X157032029Y-80312557D01*
X157021876Y-80331553D01*
X157008208Y-80348208D01*
X156991553Y-80361876D01*
X156972557Y-80372029D01*
X156951938Y-80378284D01*
X156924360Y-80381000D01*
X156465640Y-80381000D01*
X156438062Y-80378284D01*
X156417443Y-80372029D01*
X156398447Y-80361876D01*
X156381792Y-80348208D01*
X156368124Y-80331553D01*
X156357971Y-80312557D01*
X156351716Y-80291938D01*
X156349000Y-80264360D01*
X156349000Y-79755640D01*
X156351716Y-79728062D01*
X156357971Y-79707443D01*
X156368124Y-79688447D01*
X156381792Y-79671792D01*
X156398447Y-79658124D01*
X156417443Y-79647971D01*
X156438062Y-79641716D01*
X156465640Y-79639000D01*
X156924360Y-79639000D01*
X156951938Y-79641716D01*
X156951938Y-79641716D01*
G37*
G36*
X155981938Y-79641716D02*
G01*
X156002557Y-79647971D01*
X156021553Y-79658124D01*
X156038208Y-79671792D01*
X156051876Y-79688447D01*
X156062029Y-79707443D01*
X156068284Y-79728062D01*
X156071000Y-79755640D01*
X156071000Y-80264360D01*
X156068284Y-80291938D01*
X156062029Y-80312557D01*
X156051876Y-80331553D01*
X156038208Y-80348208D01*
X156021553Y-80361876D01*
X156002557Y-80372029D01*
X155981938Y-80378284D01*
X155954360Y-80381000D01*
X155495640Y-80381000D01*
X155468062Y-80378284D01*
X155447443Y-80372029D01*
X155428447Y-80361876D01*
X155411792Y-80348208D01*
X155398124Y-80331553D01*
X155387971Y-80312557D01*
X155381716Y-80291938D01*
X155379000Y-80264360D01*
X155379000Y-79755640D01*
X155381716Y-79728062D01*
X155387971Y-79707443D01*
X155398124Y-79688447D01*
X155411792Y-79671792D01*
X155428447Y-79658124D01*
X155447443Y-79647971D01*
X155468062Y-79641716D01*
X155495640Y-79639000D01*
X155954360Y-79639000D01*
X155981938Y-79641716D01*
X155981938Y-79641716D01*
G37*
G36*
X152046938Y-79516716D02*
G01*
X152067557Y-79522971D01*
X152086553Y-79533124D01*
X152103208Y-79546792D01*
X152116876Y-79563447D01*
X152127029Y-79582443D01*
X152133284Y-79603062D01*
X152136000Y-79630640D01*
X152136000Y-80089360D01*
X152133284Y-80116938D01*
X152127029Y-80137557D01*
X152116876Y-80156553D01*
X152103208Y-80173208D01*
X152086553Y-80186876D01*
X152067557Y-80197029D01*
X152046938Y-80203284D01*
X152019360Y-80206000D01*
X151510640Y-80206000D01*
X151483062Y-80203284D01*
X151462443Y-80197029D01*
X151443447Y-80186876D01*
X151426792Y-80173208D01*
X151413124Y-80156553D01*
X151402971Y-80137557D01*
X151396716Y-80116938D01*
X151394000Y-80089360D01*
X151394000Y-79630640D01*
X151396716Y-79603062D01*
X151402971Y-79582443D01*
X151413124Y-79563447D01*
X151426792Y-79546792D01*
X151443447Y-79533124D01*
X151462443Y-79522971D01*
X151483062Y-79516716D01*
X151510640Y-79514000D01*
X152019360Y-79514000D01*
X152046938Y-79516716D01*
X152046938Y-79516716D01*
G37*
G36*
X162841938Y-79181716D02*
G01*
X162862557Y-79187971D01*
X162881553Y-79198124D01*
X162898208Y-79211792D01*
X162911876Y-79228447D01*
X162922029Y-79247443D01*
X162928284Y-79268062D01*
X162931000Y-79295640D01*
X162931000Y-79754360D01*
X162928284Y-79781938D01*
X162922029Y-79802557D01*
X162911876Y-79821553D01*
X162898208Y-79838208D01*
X162881553Y-79851876D01*
X162862557Y-79862029D01*
X162841938Y-79868284D01*
X162814360Y-79871000D01*
X162305640Y-79871000D01*
X162278062Y-79868284D01*
X162257443Y-79862029D01*
X162238447Y-79851876D01*
X162221792Y-79838208D01*
X162208124Y-79821553D01*
X162197971Y-79802557D01*
X162191716Y-79781938D01*
X162189000Y-79754360D01*
X162189000Y-79295640D01*
X162191716Y-79268062D01*
X162197971Y-79247443D01*
X162208124Y-79228447D01*
X162221792Y-79211792D01*
X162238447Y-79198124D01*
X162257443Y-79187971D01*
X162278062Y-79181716D01*
X162305640Y-79179000D01*
X162814360Y-79179000D01*
X162841938Y-79181716D01*
X162841938Y-79181716D01*
G37*
G36*
X152046938Y-78546716D02*
G01*
X152067557Y-78552971D01*
X152086553Y-78563124D01*
X152103208Y-78576792D01*
X152116876Y-78593447D01*
X152127029Y-78612443D01*
X152133284Y-78633062D01*
X152136000Y-78660640D01*
X152136000Y-79119360D01*
X152133284Y-79146938D01*
X152127029Y-79167557D01*
X152116876Y-79186553D01*
X152103208Y-79203208D01*
X152086553Y-79216876D01*
X152067557Y-79227029D01*
X152046938Y-79233284D01*
X152019360Y-79236000D01*
X151510640Y-79236000D01*
X151483062Y-79233284D01*
X151462443Y-79227029D01*
X151443447Y-79216876D01*
X151426792Y-79203208D01*
X151413124Y-79186553D01*
X151402971Y-79167557D01*
X151396716Y-79146938D01*
X151394000Y-79119360D01*
X151394000Y-78660640D01*
X151396716Y-78633062D01*
X151402971Y-78612443D01*
X151413124Y-78593447D01*
X151426792Y-78576792D01*
X151443447Y-78563124D01*
X151462443Y-78552971D01*
X151483062Y-78546716D01*
X151510640Y-78544000D01*
X152019360Y-78544000D01*
X152046938Y-78546716D01*
X152046938Y-78546716D01*
G37*
G36*
X162633228Y-75381703D02*
G01*
X162788100Y-75445853D01*
X162927481Y-75538985D01*
X163046015Y-75657519D01*
X163139147Y-75796900D01*
X163203297Y-75951772D01*
X163236000Y-76116184D01*
X163236000Y-76283816D01*
X163203297Y-76448228D01*
X163139147Y-76603100D01*
X163046015Y-76742481D01*
X162927481Y-76861015D01*
X162788100Y-76954147D01*
X162633228Y-77018297D01*
X162468816Y-77051000D01*
X162301184Y-77051000D01*
X162136772Y-77018297D01*
X161981900Y-76954147D01*
X161842519Y-76861015D01*
X161723985Y-76742481D01*
X161630853Y-76603100D01*
X161566703Y-76448228D01*
X161534000Y-76283816D01*
X161534000Y-76116184D01*
X161566703Y-75951772D01*
X161630853Y-75796900D01*
X161723985Y-75657519D01*
X161842519Y-75538985D01*
X161981900Y-75445853D01*
X162136772Y-75381703D01*
X162301184Y-75349000D01*
X162468816Y-75349000D01*
X162633228Y-75381703D01*
X162633228Y-75381703D01*
G37*
G36*
X159633228Y-75381703D02*
G01*
X159788100Y-75445853D01*
X159927481Y-75538985D01*
X160046015Y-75657519D01*
X160139147Y-75796900D01*
X160203297Y-75951772D01*
X160236000Y-76116184D01*
X160236000Y-76283816D01*
X160203297Y-76448228D01*
X160139147Y-76603100D01*
X160046015Y-76742481D01*
X159927481Y-76861015D01*
X159788100Y-76954147D01*
X159633228Y-77018297D01*
X159468816Y-77051000D01*
X159301184Y-77051000D01*
X159136772Y-77018297D01*
X158981900Y-76954147D01*
X158842519Y-76861015D01*
X158723985Y-76742481D01*
X158630853Y-76603100D01*
X158566703Y-76448228D01*
X158534000Y-76283816D01*
X158534000Y-76116184D01*
X158566703Y-75951772D01*
X158630853Y-75796900D01*
X158723985Y-75657519D01*
X158842519Y-75538985D01*
X158981900Y-75445853D01*
X159136772Y-75381703D01*
X159301184Y-75349000D01*
X159468816Y-75349000D01*
X159633228Y-75381703D01*
X159633228Y-75381703D01*
G37*
G36*
X154538642Y-75429781D02*
G01*
X154684414Y-75490162D01*
X154684416Y-75490163D01*
X154815608Y-75577822D01*
X154927178Y-75689392D01*
X154967287Y-75749420D01*
X155014838Y-75820586D01*
X155075219Y-75966358D01*
X155106000Y-76121107D01*
X155106000Y-76278893D01*
X155075219Y-76433642D01*
X155020778Y-76565074D01*
X155014837Y-76579416D01*
X154927178Y-76710608D01*
X154815608Y-76822178D01*
X154684416Y-76909837D01*
X154684415Y-76909838D01*
X154684414Y-76909838D01*
X154538642Y-76970219D01*
X154383893Y-77001000D01*
X154226107Y-77001000D01*
X154071358Y-76970219D01*
X153925586Y-76909838D01*
X153925585Y-76909838D01*
X153925584Y-76909837D01*
X153794392Y-76822178D01*
X153682822Y-76710608D01*
X153595163Y-76579416D01*
X153589222Y-76565074D01*
X153534781Y-76433642D01*
X153504000Y-76278893D01*
X153504000Y-76121107D01*
X153534781Y-75966358D01*
X153595162Y-75820586D01*
X153642713Y-75749420D01*
X153682822Y-75689392D01*
X153794392Y-75577822D01*
X153925584Y-75490163D01*
X153925586Y-75490162D01*
X154071358Y-75429781D01*
X154226107Y-75399000D01*
X154383893Y-75399000D01*
X154538642Y-75429781D01*
X154538642Y-75429781D01*
G37*
G36*
X157078642Y-75429781D02*
G01*
X157224414Y-75490162D01*
X157224416Y-75490163D01*
X157355608Y-75577822D01*
X157467178Y-75689392D01*
X157507287Y-75749420D01*
X157554838Y-75820586D01*
X157615219Y-75966358D01*
X157646000Y-76121107D01*
X157646000Y-76278893D01*
X157615219Y-76433642D01*
X157560778Y-76565074D01*
X157554837Y-76579416D01*
X157467178Y-76710608D01*
X157355608Y-76822178D01*
X157224416Y-76909837D01*
X157224415Y-76909838D01*
X157224414Y-76909838D01*
X157078642Y-76970219D01*
X156923893Y-77001000D01*
X156766107Y-77001000D01*
X156611358Y-76970219D01*
X156465586Y-76909838D01*
X156465585Y-76909838D01*
X156465584Y-76909837D01*
X156334392Y-76822178D01*
X156222822Y-76710608D01*
X156135163Y-76579416D01*
X156129222Y-76565074D01*
X156074781Y-76433642D01*
X156044000Y-76278893D01*
X156044000Y-76121107D01*
X156074781Y-75966358D01*
X156135162Y-75820586D01*
X156182713Y-75749420D01*
X156222822Y-75689392D01*
X156334392Y-75577822D01*
X156465584Y-75490163D01*
X156465586Y-75490162D01*
X156611358Y-75429781D01*
X156766107Y-75399000D01*
X156923893Y-75399000D01*
X157078642Y-75429781D01*
X157078642Y-75429781D01*
G37*
G36*
X152566000Y-77001000D02*
G01*
X150964000Y-77001000D01*
X150964000Y-75399000D01*
X152566000Y-75399000D01*
X152566000Y-77001000D01*
X152566000Y-77001000D01*
G37*
M02*
