G04 #@! TF.GenerationSoftware,KiCad,Pcbnew,(5.1.9)-1*
G04 #@! TF.CreationDate,2022-02-01T14:59:45+01:00*
G04 #@! TF.ProjectId,ESPCraft,45535043-7261-4667-942e-6b696361645f,rev?*
G04 #@! TF.SameCoordinates,Original*
G04 #@! TF.FileFunction,Soldermask,Bot*
G04 #@! TF.FilePolarity,Negative*
%FSLAX46Y46*%
G04 Gerber Fmt 4.6, Leading zero omitted, Abs format (unit mm)*
G04 Created by KiCad (PCBNEW (5.1.9)-1) date 2022-02-01 14:59:45*
%MOMM*%
%LPD*%
G01*
G04 APERTURE LIST*
%ADD10O,1.700000X1.950000*%
%ADD11O,1.700000X1.700000*%
%ADD12R,1.700000X1.700000*%
%ADD13C,0.800000*%
%ADD14C,6.400000*%
%ADD15O,1.950000X1.700000*%
%ADD16C,1.600000*%
%ADD17O,0.900000X2.000000*%
%ADD18O,0.900000X1.700000*%
%ADD19C,0.600000*%
%ADD20C,1.500000*%
%ADD21R,1.500000X1.500000*%
G04 APERTURE END LIST*
G36*
G01*
X138850000Y-80735000D02*
X138850000Y-79285000D01*
G75*
G02*
X139100000Y-79035000I250000J0D01*
G01*
X140300000Y-79035000D01*
G75*
G02*
X140550000Y-79285000I0J-250000D01*
G01*
X140550000Y-80735000D01*
G75*
G02*
X140300000Y-80985000I-250000J0D01*
G01*
X139100000Y-80985000D01*
G75*
G02*
X138850000Y-80735000I0J250000D01*
G01*
G37*
D10*
X142200000Y-80010000D03*
X144700000Y-80010000D03*
X147200000Y-80010000D03*
D11*
X164465000Y-91440000D03*
X164465000Y-88900000D03*
D12*
X164465000Y-86360000D03*
D13*
X120442056Y-76407944D03*
X118745000Y-75705000D03*
X117047944Y-76407944D03*
X116345000Y-78105000D03*
X117047944Y-79802056D03*
X118745000Y-80505000D03*
X120442056Y-79802056D03*
X121145000Y-78105000D03*
D14*
X118745000Y-78105000D03*
X168275000Y-78105000D03*
D13*
X170675000Y-78105000D03*
X169972056Y-79802056D03*
X168275000Y-80505000D03*
X166577944Y-79802056D03*
X165875000Y-78105000D03*
X166577944Y-76407944D03*
X168275000Y-75705000D03*
X169972056Y-76407944D03*
X169972056Y-125937944D03*
X168275000Y-125235000D03*
X166577944Y-125937944D03*
X165875000Y-127635000D03*
X166577944Y-129332056D03*
X168275000Y-130035000D03*
X169972056Y-129332056D03*
X170675000Y-127635000D03*
D14*
X168275000Y-127635000D03*
X118745000Y-127635000D03*
D13*
X121145000Y-127635000D03*
X120442056Y-129332056D03*
X118745000Y-130035000D03*
X117047944Y-129332056D03*
X116345000Y-127635000D03*
X117047944Y-125937944D03*
X118745000Y-125235000D03*
X120442056Y-125937944D03*
G36*
G01*
X165645000Y-98210000D02*
X167095000Y-98210000D01*
G75*
G02*
X167345000Y-98460000I0J-250000D01*
G01*
X167345000Y-99660000D01*
G75*
G02*
X167095000Y-99910000I-250000J0D01*
G01*
X165645000Y-99910000D01*
G75*
G02*
X165395000Y-99660000I0J250000D01*
G01*
X165395000Y-98460000D01*
G75*
G02*
X165645000Y-98210000I250000J0D01*
G01*
G37*
D15*
X166370000Y-101560000D03*
X166370000Y-104060000D03*
X166370000Y-106560000D03*
X120650000Y-99180000D03*
X120650000Y-101680000D03*
X120650000Y-104180000D03*
G36*
G01*
X121375000Y-107530000D02*
X119925000Y-107530000D01*
G75*
G02*
X119675000Y-107280000I0J250000D01*
G01*
X119675000Y-106080000D01*
G75*
G02*
X119925000Y-105830000I250000J0D01*
G01*
X121375000Y-105830000D01*
G75*
G02*
X121625000Y-106080000I0J-250000D01*
G01*
X121625000Y-107280000D01*
G75*
G02*
X121375000Y-107530000I-250000J0D01*
G01*
G37*
D16*
X159385000Y-76200000D03*
X162385000Y-76200000D03*
D17*
X139190000Y-126340000D03*
X147830000Y-126340000D03*
D18*
X139190000Y-130510000D03*
X147830000Y-130510000D03*
D19*
X146400000Y-126820000D03*
X140620000Y-126820000D03*
D20*
X154305000Y-76200000D03*
X156845000Y-76200000D03*
D21*
X151765000Y-76200000D03*
M02*
