G04 #@! TF.GenerationSoftware,KiCad,Pcbnew,(5.1.9)-1*
G04 #@! TF.CreationDate,2022-02-01T14:59:44+01:00*
G04 #@! TF.ProjectId,ESPCraft,45535043-7261-4667-942e-6b696361645f,rev?*
G04 #@! TF.SameCoordinates,Original*
G04 #@! TF.FileFunction,Legend,Top*
G04 #@! TF.FilePolarity,Positive*
%FSLAX46Y46*%
G04 Gerber Fmt 4.6, Leading zero omitted, Abs format (unit mm)*
G04 Created by KiCad (PCBNEW (5.1.9)-1) date 2022-02-01 14:59:44*
%MOMM*%
%LPD*%
G01*
G04 APERTURE LIST*
%ADD10C,0.150000*%
%ADD11C,0.100000*%
%ADD12C,0.500000*%
%ADD13C,0.120000*%
%ADD14C,0.125000*%
G04 APERTURE END LIST*
D10*
X137737857Y-130371714D02*
X137775952Y-130257428D01*
X137814047Y-130219333D01*
X137890238Y-130181238D01*
X138004523Y-130181238D01*
X138080714Y-130219333D01*
X138118809Y-130257428D01*
X138156904Y-130333619D01*
X138156904Y-130638380D01*
X137356904Y-130638380D01*
X137356904Y-130371714D01*
X137395000Y-130295523D01*
X137433095Y-130257428D01*
X137509285Y-130219333D01*
X137585476Y-130219333D01*
X137661666Y-130257428D01*
X137699761Y-130295523D01*
X137737857Y-130371714D01*
X137737857Y-130638380D01*
X137356904Y-129686000D02*
X137356904Y-129533619D01*
X137395000Y-129457428D01*
X137471190Y-129381238D01*
X137623571Y-129343142D01*
X137890238Y-129343142D01*
X138042619Y-129381238D01*
X138118809Y-129457428D01*
X138156904Y-129533619D01*
X138156904Y-129686000D01*
X138118809Y-129762190D01*
X138042619Y-129838380D01*
X137890238Y-129876476D01*
X137623571Y-129876476D01*
X137471190Y-129838380D01*
X137395000Y-129762190D01*
X137356904Y-129686000D01*
X137356904Y-128847904D02*
X137356904Y-128695523D01*
X137395000Y-128619333D01*
X137471190Y-128543142D01*
X137623571Y-128505047D01*
X137890238Y-128505047D01*
X138042619Y-128543142D01*
X138118809Y-128619333D01*
X138156904Y-128695523D01*
X138156904Y-128847904D01*
X138118809Y-128924095D01*
X138042619Y-129000285D01*
X137890238Y-129038380D01*
X137623571Y-129038380D01*
X137471190Y-129000285D01*
X137395000Y-128924095D01*
X137356904Y-128847904D01*
X137356904Y-128276476D02*
X137356904Y-127819333D01*
X138156904Y-128047904D02*
X137356904Y-128047904D01*
X149586904Y-130447904D02*
X149205952Y-130714571D01*
X149586904Y-130905047D02*
X148786904Y-130905047D01*
X148786904Y-130600285D01*
X148825000Y-130524095D01*
X148863095Y-130486000D01*
X148939285Y-130447904D01*
X149053571Y-130447904D01*
X149129761Y-130486000D01*
X149167857Y-130524095D01*
X149205952Y-130600285D01*
X149205952Y-130905047D01*
X149167857Y-130105047D02*
X149167857Y-129838380D01*
X149586904Y-129724095D02*
X149586904Y-130105047D01*
X148786904Y-130105047D01*
X148786904Y-129724095D01*
X149548809Y-129419333D02*
X149586904Y-129305047D01*
X149586904Y-129114571D01*
X149548809Y-129038380D01*
X149510714Y-129000285D01*
X149434523Y-128962190D01*
X149358333Y-128962190D01*
X149282142Y-129000285D01*
X149244047Y-129038380D01*
X149205952Y-129114571D01*
X149167857Y-129266952D01*
X149129761Y-129343142D01*
X149091666Y-129381238D01*
X149015476Y-129419333D01*
X148939285Y-129419333D01*
X148863095Y-129381238D01*
X148825000Y-129343142D01*
X148786904Y-129266952D01*
X148786904Y-129076476D01*
X148825000Y-128962190D01*
X149167857Y-128619333D02*
X149167857Y-128352666D01*
X149586904Y-128238380D02*
X149586904Y-128619333D01*
X148786904Y-128619333D01*
X148786904Y-128238380D01*
X148786904Y-128009809D02*
X148786904Y-127552666D01*
X149586904Y-127781238D02*
X148786904Y-127781238D01*
D11*
G36*
X128270000Y-103505000D02*
G01*
X127000000Y-103505000D01*
X127000000Y-100965000D01*
X128270000Y-100965000D01*
X128270000Y-103505000D01*
G37*
X128270000Y-103505000D02*
X127000000Y-103505000D01*
X127000000Y-100965000D01*
X128270000Y-100965000D01*
X128270000Y-103505000D01*
G36*
X141605000Y-124460000D02*
G01*
X140335000Y-124460000D01*
X140335000Y-123190000D01*
X141605000Y-123190000D01*
X141605000Y-124460000D01*
G37*
X141605000Y-124460000D02*
X140335000Y-124460000D01*
X140335000Y-123190000D01*
X141605000Y-123190000D01*
X141605000Y-124460000D01*
G36*
X146685000Y-124460000D02*
G01*
X145415000Y-124460000D01*
X145415000Y-123190000D01*
X146685000Y-123190000D01*
X146685000Y-124460000D01*
G37*
X146685000Y-124460000D02*
X145415000Y-124460000D01*
X145415000Y-123190000D01*
X146685000Y-123190000D01*
X146685000Y-124460000D01*
G36*
X144145000Y-124460000D02*
G01*
X142875000Y-124460000D01*
X142875000Y-123190000D01*
X144145000Y-123190000D01*
X144145000Y-124460000D01*
G37*
X144145000Y-124460000D02*
X142875000Y-124460000D01*
X142875000Y-123190000D01*
X144145000Y-123190000D01*
X144145000Y-124460000D01*
G36*
X145415000Y-123190000D02*
G01*
X141605000Y-123190000D01*
X141605000Y-121920000D01*
X145415000Y-121920000D01*
X145415000Y-123190000D01*
G37*
X145415000Y-123190000D02*
X141605000Y-123190000D01*
X141605000Y-121920000D01*
X145415000Y-121920000D01*
X145415000Y-123190000D01*
G36*
X144145000Y-121920000D02*
G01*
X142875000Y-121920000D01*
X142875000Y-120650000D01*
X144145000Y-120650000D01*
X144145000Y-121920000D01*
G37*
X144145000Y-121920000D02*
X142875000Y-121920000D01*
X142875000Y-120650000D01*
X144145000Y-120650000D01*
X144145000Y-121920000D01*
G36*
X142875000Y-120650000D02*
G01*
X141605000Y-120650000D01*
X141605000Y-119380000D01*
X142875000Y-119380000D01*
X142875000Y-120650000D01*
G37*
X142875000Y-120650000D02*
X141605000Y-120650000D01*
X141605000Y-119380000D01*
X142875000Y-119380000D01*
X142875000Y-120650000D01*
G36*
X144145000Y-118110000D02*
G01*
X145415000Y-118110000D01*
X145415000Y-119380000D01*
X142875000Y-119380000D01*
X142875000Y-116840000D01*
X144145000Y-116840000D01*
X144145000Y-118110000D01*
G37*
X144145000Y-118110000D02*
X145415000Y-118110000D01*
X145415000Y-119380000D01*
X142875000Y-119380000D01*
X142875000Y-116840000D01*
X144145000Y-116840000D01*
X144145000Y-118110000D01*
G36*
X142875000Y-116840000D02*
G01*
X141605000Y-116840000D01*
X141605000Y-115570000D01*
X142875000Y-115570000D01*
X142875000Y-116840000D01*
G37*
X142875000Y-116840000D02*
X141605000Y-116840000D01*
X141605000Y-115570000D01*
X142875000Y-115570000D01*
X142875000Y-116840000D01*
G36*
X144145000Y-115570000D02*
G01*
X142875000Y-115570000D01*
X142875000Y-114300000D01*
X144145000Y-114300000D01*
X144145000Y-115570000D01*
G37*
X144145000Y-115570000D02*
X142875000Y-115570000D01*
X142875000Y-114300000D01*
X144145000Y-114300000D01*
X144145000Y-115570000D01*
G36*
X163830000Y-106045000D02*
G01*
X162560000Y-106045000D01*
X162560000Y-104775000D01*
X163830000Y-104775000D01*
X163830000Y-106045000D01*
G37*
X163830000Y-106045000D02*
X162560000Y-106045000D01*
X162560000Y-104775000D01*
X163830000Y-104775000D01*
X163830000Y-106045000D01*
G36*
X141605000Y-83820000D02*
G01*
X140335000Y-83820000D01*
X140335000Y-82550000D01*
X141605000Y-82550000D01*
X141605000Y-83820000D01*
G37*
X141605000Y-83820000D02*
X140335000Y-83820000D01*
X140335000Y-82550000D01*
X141605000Y-82550000D01*
X141605000Y-83820000D01*
G36*
X145415000Y-86360000D02*
G01*
X144145000Y-86360000D01*
X144145000Y-85090000D01*
X145415000Y-85090000D01*
X145415000Y-86360000D01*
G37*
X145415000Y-86360000D02*
X144145000Y-86360000D01*
X144145000Y-85090000D01*
X145415000Y-85090000D01*
X145415000Y-86360000D01*
G36*
X146685000Y-83820000D02*
G01*
X142875000Y-83820000D01*
X142875000Y-82550000D01*
X146685000Y-82550000D01*
X146685000Y-83820000D01*
G37*
X146685000Y-83820000D02*
X142875000Y-83820000D01*
X142875000Y-82550000D01*
X146685000Y-82550000D01*
X146685000Y-83820000D01*
G36*
X142875000Y-86360000D02*
G01*
X141605000Y-86360000D01*
X141605000Y-83820000D01*
X142875000Y-83820000D01*
X142875000Y-86360000D01*
G37*
X142875000Y-86360000D02*
X141605000Y-86360000D01*
X141605000Y-83820000D01*
X142875000Y-83820000D01*
X142875000Y-86360000D01*
G36*
X144145000Y-87630000D02*
G01*
X142875000Y-87630000D01*
X142875000Y-86360000D01*
X144145000Y-86360000D01*
X144145000Y-87630000D01*
G37*
X144145000Y-87630000D02*
X142875000Y-87630000D01*
X142875000Y-86360000D01*
X144145000Y-86360000D01*
X144145000Y-87630000D01*
G36*
X163830000Y-103505000D02*
G01*
X162560000Y-103505000D01*
X162560000Y-104775000D01*
X161290000Y-104775000D01*
X161290000Y-102235000D01*
X162560000Y-102235000D01*
X162560000Y-99695000D01*
X163830000Y-99695000D01*
X163830000Y-103505000D01*
G37*
X163830000Y-103505000D02*
X162560000Y-103505000D01*
X162560000Y-104775000D01*
X161290000Y-104775000D01*
X161290000Y-102235000D01*
X162560000Y-102235000D01*
X162560000Y-99695000D01*
X163830000Y-99695000D01*
X163830000Y-103505000D01*
G36*
X161290000Y-102235000D02*
G01*
X158750000Y-102235000D01*
X158750000Y-100965000D01*
X161290000Y-100965000D01*
X161290000Y-102235000D01*
G37*
X161290000Y-102235000D02*
X158750000Y-102235000D01*
X158750000Y-100965000D01*
X161290000Y-100965000D01*
X161290000Y-102235000D01*
G36*
X157480000Y-102235000D02*
G01*
X156210000Y-102235000D01*
X156210000Y-100965000D01*
X157480000Y-100965000D01*
X157480000Y-102235000D01*
G37*
X157480000Y-102235000D02*
X156210000Y-102235000D01*
X156210000Y-100965000D01*
X157480000Y-100965000D01*
X157480000Y-102235000D01*
G36*
X158750000Y-103505000D02*
G01*
X157480000Y-103505000D01*
X157480000Y-102235000D01*
X158750000Y-102235000D01*
X158750000Y-103505000D01*
G37*
X158750000Y-103505000D02*
X157480000Y-103505000D01*
X157480000Y-102235000D01*
X158750000Y-102235000D01*
X158750000Y-103505000D01*
G36*
X157480000Y-104775000D02*
G01*
X154940000Y-104775000D01*
X154940000Y-103505000D01*
X157480000Y-103505000D01*
X157480000Y-104775000D01*
G37*
X157480000Y-104775000D02*
X154940000Y-104775000D01*
X154940000Y-103505000D01*
X157480000Y-103505000D01*
X157480000Y-104775000D01*
G36*
X154940000Y-103505000D02*
G01*
X153670000Y-103505000D01*
X153670000Y-102235000D01*
X154940000Y-102235000D01*
X154940000Y-103505000D01*
G37*
X154940000Y-103505000D02*
X153670000Y-103505000D01*
X153670000Y-102235000D01*
X154940000Y-102235000D01*
X154940000Y-103505000D01*
G36*
X124460000Y-106045000D02*
G01*
X123190000Y-106045000D01*
X123190000Y-104775000D01*
X124460000Y-104775000D01*
X124460000Y-106045000D01*
G37*
X124460000Y-106045000D02*
X123190000Y-106045000D01*
X123190000Y-104775000D01*
X124460000Y-104775000D01*
X124460000Y-106045000D01*
G36*
X124460000Y-102235000D02*
G01*
X123190000Y-102235000D01*
X123190000Y-99695000D01*
X124460000Y-99695000D01*
X124460000Y-102235000D01*
G37*
X124460000Y-102235000D02*
X123190000Y-102235000D01*
X123190000Y-99695000D01*
X124460000Y-99695000D01*
X124460000Y-102235000D01*
G36*
X132080000Y-102235000D02*
G01*
X130810000Y-102235000D01*
X130810000Y-100965000D01*
X132080000Y-100965000D01*
X132080000Y-102235000D01*
G37*
X132080000Y-102235000D02*
X130810000Y-102235000D01*
X130810000Y-100965000D01*
X132080000Y-100965000D01*
X132080000Y-102235000D01*
G36*
X125730000Y-103505000D02*
G01*
X127000000Y-103505000D01*
X127000000Y-104775000D01*
X124460000Y-104775000D01*
X124460000Y-103505000D01*
X123190000Y-103505000D01*
X123190000Y-102235000D01*
X125730000Y-102235000D01*
X125730000Y-103505000D01*
G37*
X125730000Y-103505000D02*
X127000000Y-103505000D01*
X127000000Y-104775000D01*
X124460000Y-104775000D01*
X124460000Y-103505000D01*
X123190000Y-103505000D01*
X123190000Y-102235000D01*
X125730000Y-102235000D01*
X125730000Y-103505000D01*
G36*
X129540000Y-104775000D02*
G01*
X128270000Y-104775000D01*
X128270000Y-103505000D01*
X129540000Y-103505000D01*
X129540000Y-104775000D01*
G37*
X129540000Y-104775000D02*
X128270000Y-104775000D01*
X128270000Y-103505000D01*
X129540000Y-103505000D01*
X129540000Y-104775000D01*
G36*
X130810000Y-103505000D02*
G01*
X129540000Y-103505000D01*
X129540000Y-102235000D01*
X130810000Y-102235000D01*
X130810000Y-103505000D01*
G37*
X130810000Y-103505000D02*
X129540000Y-103505000D01*
X129540000Y-102235000D01*
X130810000Y-102235000D01*
X130810000Y-103505000D01*
G36*
X133350000Y-103505000D02*
G01*
X132080000Y-103505000D01*
X132080000Y-102235000D01*
X133350000Y-102235000D01*
X133350000Y-103505000D01*
G37*
X133350000Y-103505000D02*
X132080000Y-103505000D01*
X132080000Y-102235000D01*
X133350000Y-102235000D01*
X133350000Y-103505000D01*
D12*
X141732000Y-89789001D02*
G75*
G02*
X145668999Y-93725999I1016000J-2920999D01*
G01*
X141364623Y-88811393D02*
G75*
G02*
X146685000Y-93980000I1383377J-3898607D01*
G01*
X142111999Y-90805335D02*
G75*
G02*
X144652999Y-93344999I636001J-1904665D01*
G01*
X143383000Y-92710000D02*
G75*
G03*
X143383000Y-92710000I-635000J0D01*
G01*
D13*
X134390000Y-94060000D02*
X134010000Y-94060000D01*
X134390000Y-87640000D02*
X134390000Y-94060000D01*
X152630000Y-87640000D02*
X152630000Y-94060000D01*
X134390000Y-87640000D02*
X152630000Y-87640000D01*
X152630000Y-113385000D02*
X151630000Y-113385000D01*
X152630000Y-112605000D02*
X152630000Y-113385000D01*
X134390000Y-113385000D02*
X135390000Y-113385000D01*
X134390000Y-112605000D02*
X134390000Y-113385000D01*
X140000000Y-82110000D02*
X139700000Y-81510000D01*
X139400000Y-82110000D02*
X140000000Y-82110000D01*
X139700000Y-81510000D02*
X139400000Y-82110000D01*
X147520000Y-78420000D02*
X147200000Y-78420000D01*
X147520000Y-75000000D02*
X147520000Y-78420000D01*
X147200000Y-74920000D02*
X147520000Y-75000000D01*
X146880000Y-75000000D02*
X147200000Y-74920000D01*
X146880000Y-78420000D02*
X146880000Y-75000000D01*
X147200000Y-78420000D02*
X146880000Y-78420000D01*
X145870000Y-79420000D02*
X146030000Y-79420000D01*
X145020000Y-78420000D02*
X144700000Y-78420000D01*
X145020000Y-75000000D02*
X145020000Y-78420000D01*
X144700000Y-74920000D02*
X145020000Y-75000000D01*
X144380000Y-75000000D02*
X144700000Y-74920000D01*
X144380000Y-78420000D02*
X144380000Y-75000000D01*
X144700000Y-78420000D02*
X144380000Y-78420000D01*
X143370000Y-79420000D02*
X143530000Y-79420000D01*
X142520000Y-78420000D02*
X142200000Y-78420000D01*
X142520000Y-75000000D02*
X142520000Y-78420000D01*
X142200000Y-74920000D02*
X142520000Y-75000000D01*
X141880000Y-75000000D02*
X142200000Y-74920000D01*
X141880000Y-78420000D02*
X141880000Y-75000000D01*
X142200000Y-78420000D02*
X141880000Y-78420000D01*
X140870000Y-79420000D02*
X141030000Y-79420000D01*
X140020000Y-78420000D02*
X139700000Y-78420000D01*
X140020000Y-75000000D02*
X140020000Y-78420000D01*
X139700000Y-74920000D02*
X140020000Y-75000000D01*
X139380000Y-75000000D02*
X139700000Y-74920000D01*
X139380000Y-78420000D02*
X139380000Y-75000000D01*
X139700000Y-78420000D02*
X139380000Y-78420000D01*
X138310000Y-78420000D02*
X148590000Y-78420000D01*
X148590000Y-79420000D02*
X149810000Y-79420000D01*
X148590000Y-74420000D02*
X148590000Y-79420000D01*
X149810000Y-74420000D02*
X148590000Y-74420000D01*
X138310000Y-79420000D02*
X137090000Y-79420000D01*
X138310000Y-74420000D02*
X138310000Y-79420000D01*
X137090000Y-74420000D02*
X138310000Y-74420000D01*
X148590000Y-81620000D02*
X148590000Y-79420000D01*
X149810000Y-81620000D02*
X148590000Y-81620000D01*
X149810000Y-73200000D02*
X149810000Y-81620000D01*
X137090000Y-73200000D02*
X149810000Y-73200000D01*
X137090000Y-81620000D02*
X137090000Y-73200000D01*
X138310000Y-81620000D02*
X137090000Y-81620000D01*
X138310000Y-79420000D02*
X138310000Y-81620000D01*
X163135000Y-92770000D02*
X165795000Y-92770000D01*
X163135000Y-87630000D02*
X163135000Y-92770000D01*
X165795000Y-87630000D02*
X165795000Y-92770000D01*
X163135000Y-87630000D02*
X165795000Y-87630000D01*
X163135000Y-86360000D02*
X163135000Y-85030000D01*
X163135000Y-85030000D02*
X164465000Y-85030000D01*
X135305000Y-131740000D02*
X135205000Y-131740000D01*
X133705000Y-127340000D02*
X133705000Y-131740000D01*
X136805000Y-131740000D02*
X136805000Y-127340000D01*
X135305000Y-127340000D02*
X135205000Y-127340000D01*
X151715000Y-131740000D02*
X151815000Y-131740000D01*
X150215000Y-127340000D02*
X150215000Y-131740000D01*
X153315000Y-131740000D02*
X153315000Y-127340000D01*
X151715000Y-127340000D02*
X151815000Y-127340000D01*
X159485000Y-131610000D02*
X159485000Y-129150000D01*
X159485000Y-129150000D02*
X158015000Y-129150000D01*
X158015000Y-129150000D02*
X158015000Y-131610000D01*
X159920000Y-129150000D02*
X159920000Y-131610000D01*
X161390000Y-129150000D02*
X159920000Y-129150000D01*
X161390000Y-131610000D02*
X161390000Y-129150000D01*
X161825000Y-129150000D02*
X161825000Y-131610000D01*
X163295000Y-129150000D02*
X161825000Y-129150000D01*
X163295000Y-131610000D02*
X163295000Y-129150000D01*
X132815000Y-131610000D02*
X132815000Y-129150000D01*
X132815000Y-129150000D02*
X131345000Y-129150000D01*
X131345000Y-129150000D02*
X131345000Y-131610000D01*
X164270000Y-99360000D02*
X164870000Y-99060000D01*
X164270000Y-98760000D02*
X164270000Y-99360000D01*
X164870000Y-99060000D02*
X164270000Y-98760000D01*
X167960000Y-106880000D02*
X167960000Y-106560000D01*
X171380000Y-106880000D02*
X167960000Y-106880000D01*
X171460000Y-106560000D02*
X171380000Y-106880000D01*
X171380000Y-106240000D02*
X171460000Y-106560000D01*
X167960000Y-106240000D02*
X171380000Y-106240000D01*
X167960000Y-106560000D02*
X167960000Y-106240000D01*
X166960000Y-105230000D02*
X166960000Y-105390000D01*
X167960000Y-104380000D02*
X167960000Y-104060000D01*
X171380000Y-104380000D02*
X167960000Y-104380000D01*
X171460000Y-104060000D02*
X171380000Y-104380000D01*
X171380000Y-103740000D02*
X171460000Y-104060000D01*
X167960000Y-103740000D02*
X171380000Y-103740000D01*
X167960000Y-104060000D02*
X167960000Y-103740000D01*
X166960000Y-102730000D02*
X166960000Y-102890000D01*
X167960000Y-101880000D02*
X167960000Y-101560000D01*
X171380000Y-101880000D02*
X167960000Y-101880000D01*
X171460000Y-101560000D02*
X171380000Y-101880000D01*
X171380000Y-101240000D02*
X171460000Y-101560000D01*
X167960000Y-101240000D02*
X171380000Y-101240000D01*
X167960000Y-101560000D02*
X167960000Y-101240000D01*
X166960000Y-100230000D02*
X166960000Y-100390000D01*
X167960000Y-99380000D02*
X167960000Y-99060000D01*
X171380000Y-99380000D02*
X167960000Y-99380000D01*
X171460000Y-99060000D02*
X171380000Y-99380000D01*
X171380000Y-98740000D02*
X171460000Y-99060000D01*
X167960000Y-98740000D02*
X171380000Y-98740000D01*
X167960000Y-99060000D02*
X167960000Y-98740000D01*
X167960000Y-97670000D02*
X167960000Y-107950000D01*
X166960000Y-107950000D02*
X166960000Y-109170000D01*
X171960000Y-107950000D02*
X166960000Y-107950000D01*
X171960000Y-109170000D02*
X171960000Y-107950000D01*
X166960000Y-97670000D02*
X166960000Y-96450000D01*
X171960000Y-97670000D02*
X166960000Y-97670000D01*
X171960000Y-96450000D02*
X171960000Y-97670000D01*
X164760000Y-107950000D02*
X166960000Y-107950000D01*
X164760000Y-109170000D02*
X164760000Y-107950000D01*
X173180000Y-109170000D02*
X164760000Y-109170000D01*
X173180000Y-96450000D02*
X173180000Y-109170000D01*
X164760000Y-96450000D02*
X173180000Y-96450000D01*
X164760000Y-97670000D02*
X164760000Y-96450000D01*
X166960000Y-97670000D02*
X164760000Y-97670000D01*
X120060000Y-108070000D02*
X122260000Y-108070000D01*
X122260000Y-108070000D02*
X122260000Y-109290000D01*
X122260000Y-109290000D02*
X113840000Y-109290000D01*
X113840000Y-109290000D02*
X113840000Y-96570000D01*
X113840000Y-96570000D02*
X122260000Y-96570000D01*
X122260000Y-96570000D02*
X122260000Y-97790000D01*
X122260000Y-97790000D02*
X120060000Y-97790000D01*
X115060000Y-109290000D02*
X115060000Y-108070000D01*
X115060000Y-108070000D02*
X120060000Y-108070000D01*
X120060000Y-108070000D02*
X120060000Y-109290000D01*
X115060000Y-96570000D02*
X115060000Y-97790000D01*
X115060000Y-97790000D02*
X120060000Y-97790000D01*
X120060000Y-97790000D02*
X120060000Y-96570000D01*
X119060000Y-108070000D02*
X119060000Y-97790000D01*
X119060000Y-106680000D02*
X119060000Y-107000000D01*
X119060000Y-107000000D02*
X115640000Y-107000000D01*
X115640000Y-107000000D02*
X115560000Y-106680000D01*
X115560000Y-106680000D02*
X115640000Y-106360000D01*
X115640000Y-106360000D02*
X119060000Y-106360000D01*
X119060000Y-106360000D02*
X119060000Y-106680000D01*
X120060000Y-105510000D02*
X120060000Y-105350000D01*
X119060000Y-104180000D02*
X119060000Y-104500000D01*
X119060000Y-104500000D02*
X115640000Y-104500000D01*
X115640000Y-104500000D02*
X115560000Y-104180000D01*
X115560000Y-104180000D02*
X115640000Y-103860000D01*
X115640000Y-103860000D02*
X119060000Y-103860000D01*
X119060000Y-103860000D02*
X119060000Y-104180000D01*
X120060000Y-103010000D02*
X120060000Y-102850000D01*
X119060000Y-101680000D02*
X119060000Y-102000000D01*
X119060000Y-102000000D02*
X115640000Y-102000000D01*
X115640000Y-102000000D02*
X115560000Y-101680000D01*
X115560000Y-101680000D02*
X115640000Y-101360000D01*
X115640000Y-101360000D02*
X119060000Y-101360000D01*
X119060000Y-101360000D02*
X119060000Y-101680000D01*
X120060000Y-100510000D02*
X120060000Y-100350000D01*
X119060000Y-99180000D02*
X119060000Y-99500000D01*
X119060000Y-99500000D02*
X115640000Y-99500000D01*
X115640000Y-99500000D02*
X115560000Y-99180000D01*
X115560000Y-99180000D02*
X115640000Y-98860000D01*
X115640000Y-98860000D02*
X119060000Y-98860000D01*
X119060000Y-98860000D02*
X119060000Y-99180000D01*
X122150000Y-106680000D02*
X122750000Y-106980000D01*
X122750000Y-106980000D02*
X122750000Y-106380000D01*
X122750000Y-106380000D02*
X122150000Y-106680000D01*
X149790000Y-119487000D02*
X149790000Y-120212000D01*
X155010000Y-114992000D02*
X154285000Y-114992000D01*
X155010000Y-115717000D02*
X155010000Y-114992000D01*
X155010000Y-120212000D02*
X154285000Y-120212000D01*
X155010000Y-119487000D02*
X155010000Y-120212000D01*
X149790000Y-114992000D02*
X150515000Y-114992000D01*
X149790000Y-115717000D02*
X149790000Y-114992000D01*
X116745000Y-91980000D02*
X120745000Y-91980000D01*
X123095000Y-89630000D02*
X123095000Y-85630000D01*
X120745000Y-83280000D02*
X116745000Y-83280000D01*
X114395000Y-85630000D02*
X114395000Y-89630000D01*
X124970000Y-86685000D02*
X126430000Y-86685000D01*
X124970000Y-89845000D02*
X127130000Y-89845000D01*
X124970000Y-89845000D02*
X124970000Y-88915000D01*
X124970000Y-86685000D02*
X124970000Y-87615000D01*
X159485000Y-74100000D02*
X162285000Y-74100000D01*
X159485000Y-78300000D02*
X162285000Y-78300000D01*
X162271037Y-78309242D02*
G75*
G03*
X162285000Y-74100000I-1386037J2109242D01*
G01*
X159498963Y-74090758D02*
G75*
G03*
X159485000Y-78300000I1386037J-2109242D01*
G01*
X139040000Y-127600000D02*
X139040000Y-129400000D01*
X139040000Y-133110000D02*
X139040000Y-131650000D01*
X147980000Y-133110000D02*
X147980000Y-131650000D01*
X147980000Y-127600000D02*
X147980000Y-129400000D01*
X147980000Y-133110000D02*
X139040000Y-133110000D01*
X156335000Y-121376221D02*
X156335000Y-121701779D01*
X157355000Y-121376221D02*
X157355000Y-121701779D01*
X152505000Y-78050000D02*
X156105000Y-78050000D01*
X151980816Y-77322795D02*
G75*
G03*
X152505000Y-78050000I2324184J1122795D01*
G01*
X151948600Y-75101193D02*
G75*
G02*
X154305000Y-73600000I2356400J-1098807D01*
G01*
X156661400Y-75101193D02*
G75*
G03*
X154305000Y-73600000I-2356400J-1098807D01*
G01*
X156629184Y-77322795D02*
G75*
G02*
X156105000Y-78050000I-2324184J1122795D01*
G01*
X137640000Y-120029000D02*
X133430000Y-120029000D01*
X133430000Y-120029000D02*
X133430000Y-123049000D01*
X133430000Y-123049000D02*
X137640000Y-123049000D01*
X133430000Y-119747000D02*
X137640000Y-119747000D01*
X133430000Y-116727000D02*
X133430000Y-119747000D01*
X137640000Y-116727000D02*
X133430000Y-116727000D01*
X130250000Y-122200000D02*
X130250000Y-130600000D01*
X123750000Y-122200000D02*
X123750000Y-130600000D01*
X123750000Y-122200000D02*
X130250000Y-122200000D01*
X115045000Y-115045000D02*
X117345000Y-115045000D01*
X115045000Y-122445000D02*
X115045000Y-115045000D01*
X117345000Y-122445000D02*
X115045000Y-122445000D01*
X122445000Y-122445000D02*
X120145000Y-122445000D01*
X122445000Y-115045000D02*
X122445000Y-122445000D01*
X120145000Y-115045000D02*
X122445000Y-115045000D01*
X160974000Y-123952000D02*
G75*
G03*
X160974000Y-123952000I-700000J0D01*
G01*
X159450000Y-123952000D02*
G75*
G03*
X159450000Y-123952000I-700000J0D01*
G01*
D10*
X130345000Y-120000000D02*
X131745000Y-120000000D01*
X130345000Y-114900000D02*
X126195000Y-114900000D01*
X130345000Y-120050000D02*
X126195000Y-120050000D01*
X130345000Y-114900000D02*
X130345000Y-115045000D01*
X126195000Y-114900000D02*
X126195000Y-115045000D01*
X126195000Y-120050000D02*
X126195000Y-119905000D01*
X130345000Y-120050000D02*
X130345000Y-120000000D01*
D13*
X116651000Y-113157000D02*
G75*
G03*
X116651000Y-113157000I-700000J0D01*
G01*
X135408641Y-78360000D02*
X135101359Y-78360000D01*
X135408641Y-79120000D02*
X135101359Y-79120000D01*
X145942164Y-115930000D02*
X146157836Y-115930000D01*
X145942164Y-115210000D02*
X146157836Y-115210000D01*
X159272500Y-121301742D02*
X159272500Y-121776258D01*
X158227500Y-121301742D02*
X158227500Y-121776258D01*
X159751500Y-121301742D02*
X159751500Y-121776258D01*
X160796500Y-121301742D02*
X160796500Y-121776258D01*
X134993748Y-126084000D02*
X135516252Y-126084000D01*
X134993748Y-124614000D02*
X135516252Y-124614000D01*
D10*
X153543095Y-109307380D02*
X153543095Y-110116904D01*
X153590714Y-110212142D01*
X153638333Y-110259761D01*
X153733571Y-110307380D01*
X153924047Y-110307380D01*
X154019285Y-110259761D01*
X154066904Y-110212142D01*
X154114523Y-110116904D01*
X154114523Y-109307380D01*
X155114523Y-110307380D02*
X154543095Y-110307380D01*
X154828809Y-110307380D02*
X154828809Y-109307380D01*
X154733571Y-109450238D01*
X154638333Y-109545476D01*
X154543095Y-109593095D01*
X143176666Y-76922380D02*
X143176666Y-77636666D01*
X143129047Y-77779523D01*
X143033809Y-77874761D01*
X142890952Y-77922380D01*
X142795714Y-77922380D01*
X144081428Y-77255714D02*
X144081428Y-77922380D01*
X143843333Y-76874761D02*
X143605238Y-77589047D01*
X144224285Y-77589047D01*
X164131666Y-83482380D02*
X164131666Y-84196666D01*
X164084047Y-84339523D01*
X163988809Y-84434761D01*
X163845952Y-84482380D01*
X163750714Y-84482380D01*
X165131666Y-84482380D02*
X164560238Y-84482380D01*
X164845952Y-84482380D02*
X164845952Y-83482380D01*
X164750714Y-83625238D01*
X164655476Y-83720476D01*
X164560238Y-83768095D01*
X115443095Y-82367380D02*
X115443095Y-81367380D01*
X115443095Y-81843571D02*
X116014523Y-81843571D01*
X116014523Y-82367380D02*
X116014523Y-81367380D01*
X117014523Y-82367380D02*
X116443095Y-82367380D01*
X116728809Y-82367380D02*
X116728809Y-81367380D01*
X116633571Y-81510238D01*
X116538333Y-81605476D01*
X116443095Y-81653095D01*
X170053095Y-82367380D02*
X170053095Y-81367380D01*
X170053095Y-81843571D02*
X170624523Y-81843571D01*
X170624523Y-82367380D02*
X170624523Y-81367380D01*
X171053095Y-81462619D02*
X171100714Y-81415000D01*
X171195952Y-81367380D01*
X171434047Y-81367380D01*
X171529285Y-81415000D01*
X171576904Y-81462619D01*
X171624523Y-81557857D01*
X171624523Y-81653095D01*
X171576904Y-81795952D01*
X171005476Y-82367380D01*
X171624523Y-82367380D01*
X170053095Y-124277380D02*
X170053095Y-123277380D01*
X170053095Y-123753571D02*
X170624523Y-123753571D01*
X170624523Y-124277380D02*
X170624523Y-123277380D01*
X171005476Y-123277380D02*
X171624523Y-123277380D01*
X171291190Y-123658333D01*
X171434047Y-123658333D01*
X171529285Y-123705952D01*
X171576904Y-123753571D01*
X171624523Y-123848809D01*
X171624523Y-124086904D01*
X171576904Y-124182142D01*
X171529285Y-124229761D01*
X171434047Y-124277380D01*
X171148333Y-124277380D01*
X171053095Y-124229761D01*
X171005476Y-124182142D01*
X115443095Y-124277380D02*
X115443095Y-123277380D01*
X115443095Y-123753571D02*
X116014523Y-123753571D01*
X116014523Y-124277380D02*
X116014523Y-123277380D01*
X116919285Y-123610714D02*
X116919285Y-124277380D01*
X116681190Y-123229761D02*
X116443095Y-123944047D01*
X117062142Y-123944047D01*
X168362380Y-103143333D02*
X169076666Y-103143333D01*
X169219523Y-103190952D01*
X169314761Y-103286190D01*
X169362380Y-103429047D01*
X169362380Y-103524285D01*
X168457619Y-102714761D02*
X168410000Y-102667142D01*
X168362380Y-102571904D01*
X168362380Y-102333809D01*
X168410000Y-102238571D01*
X168457619Y-102190952D01*
X168552857Y-102143333D01*
X168648095Y-102143333D01*
X168790952Y-102190952D01*
X169362380Y-102762380D01*
X169362380Y-102143333D01*
X117562380Y-103263333D02*
X118276666Y-103263333D01*
X118419523Y-103310952D01*
X118514761Y-103406190D01*
X118562380Y-103549047D01*
X118562380Y-103644285D01*
X117562380Y-102882380D02*
X117562380Y-102263333D01*
X117943333Y-102596666D01*
X117943333Y-102453809D01*
X117990952Y-102358571D01*
X118038571Y-102310952D01*
X118133809Y-102263333D01*
X118371904Y-102263333D01*
X118467142Y-102310952D01*
X118514761Y-102358571D01*
X118562380Y-102453809D01*
X118562380Y-102739523D01*
X118514761Y-102834761D01*
X118467142Y-102882380D01*
D14*
X149860047Y-114153190D02*
X149860047Y-114557952D01*
X149883857Y-114605571D01*
X149907666Y-114629380D01*
X149955285Y-114653190D01*
X150050523Y-114653190D01*
X150098142Y-114629380D01*
X150121952Y-114605571D01*
X150145761Y-114557952D01*
X150145761Y-114153190D01*
X150336238Y-114153190D02*
X150645761Y-114153190D01*
X150479095Y-114343666D01*
X150550523Y-114343666D01*
X150598142Y-114367476D01*
X150621952Y-114391285D01*
X150645761Y-114438904D01*
X150645761Y-114557952D01*
X150621952Y-114605571D01*
X150598142Y-114629380D01*
X150550523Y-114653190D01*
X150407666Y-114653190D01*
X150360047Y-114629380D01*
X150336238Y-114605571D01*
D10*
X117664047Y-93458571D02*
X117806904Y-93506190D01*
X117854523Y-93553809D01*
X117902142Y-93649047D01*
X117902142Y-93791904D01*
X117854523Y-93887142D01*
X117806904Y-93934761D01*
X117711666Y-93982380D01*
X117330714Y-93982380D01*
X117330714Y-92982380D01*
X117664047Y-92982380D01*
X117759285Y-93030000D01*
X117806904Y-93077619D01*
X117854523Y-93172857D01*
X117854523Y-93268095D01*
X117806904Y-93363333D01*
X117759285Y-93410952D01*
X117664047Y-93458571D01*
X117330714Y-93458571D01*
X118235476Y-92982380D02*
X118902142Y-92982380D01*
X118235476Y-93982380D01*
X118902142Y-93982380D01*
X119806904Y-93982380D02*
X119235476Y-93982380D01*
X119521190Y-93982380D02*
X119521190Y-92982380D01*
X119425952Y-93125238D01*
X119330714Y-93220476D01*
X119235476Y-93268095D01*
X120316428Y-91260952D02*
X120316428Y-90499047D01*
X120697380Y-90880000D02*
X119935476Y-90880000D01*
X121753333Y-94337142D02*
X121705714Y-94384761D01*
X121562857Y-94432380D01*
X121467619Y-94432380D01*
X121324761Y-94384761D01*
X121229523Y-94289523D01*
X121181904Y-94194285D01*
X121134285Y-94003809D01*
X121134285Y-93860952D01*
X121181904Y-93670476D01*
X121229523Y-93575238D01*
X121324761Y-93480000D01*
X121467619Y-93432380D01*
X121562857Y-93432380D01*
X121705714Y-93480000D01*
X121753333Y-93527619D01*
X122134285Y-93527619D02*
X122181904Y-93480000D01*
X122277142Y-93432380D01*
X122515238Y-93432380D01*
X122610476Y-93480000D01*
X122658095Y-93527619D01*
X122705714Y-93622857D01*
X122705714Y-93718095D01*
X122658095Y-93860952D01*
X122086666Y-94432380D01*
X122705714Y-94432380D01*
D14*
X158285666Y-118415571D02*
X158261857Y-118439380D01*
X158190428Y-118463190D01*
X158142809Y-118463190D01*
X158071380Y-118439380D01*
X158023761Y-118391761D01*
X157999952Y-118344142D01*
X157976142Y-118248904D01*
X157976142Y-118177476D01*
X157999952Y-118082238D01*
X158023761Y-118034619D01*
X158071380Y-117987000D01*
X158142809Y-117963190D01*
X158190428Y-117963190D01*
X158261857Y-117987000D01*
X158285666Y-118010809D01*
X158452333Y-117963190D02*
X158761857Y-117963190D01*
X158595190Y-118153666D01*
X158666619Y-118153666D01*
X158714238Y-118177476D01*
X158738047Y-118201285D01*
X158761857Y-118248904D01*
X158761857Y-118367952D01*
X158738047Y-118415571D01*
X158714238Y-118439380D01*
X158666619Y-118463190D01*
X158523761Y-118463190D01*
X158476142Y-118439380D01*
X158452333Y-118415571D01*
D10*
X126833333Y-94432380D02*
X126500000Y-93956190D01*
X126261904Y-94432380D02*
X126261904Y-93432380D01*
X126642857Y-93432380D01*
X126738095Y-93480000D01*
X126785714Y-93527619D01*
X126833333Y-93622857D01*
X126833333Y-93765714D01*
X126785714Y-93860952D01*
X126738095Y-93908571D01*
X126642857Y-93956190D01*
X126261904Y-93956190D01*
X127738095Y-93432380D02*
X127261904Y-93432380D01*
X127214285Y-93908571D01*
X127261904Y-93860952D01*
X127357142Y-93813333D01*
X127595238Y-93813333D01*
X127690476Y-93860952D01*
X127738095Y-93908571D01*
X127785714Y-94003809D01*
X127785714Y-94241904D01*
X127738095Y-94337142D01*
X127690476Y-94384761D01*
X127595238Y-94432380D01*
X127357142Y-94432380D01*
X127261904Y-94384761D01*
X127214285Y-94337142D01*
D14*
X158285666Y-119733190D02*
X158119000Y-119495095D01*
X157999952Y-119733190D02*
X157999952Y-119233190D01*
X158190428Y-119233190D01*
X158238047Y-119257000D01*
X158261857Y-119280809D01*
X158285666Y-119328428D01*
X158285666Y-119399857D01*
X158261857Y-119447476D01*
X158238047Y-119471285D01*
X158190428Y-119495095D01*
X157999952Y-119495095D01*
X158571380Y-119447476D02*
X158523761Y-119423666D01*
X158499952Y-119399857D01*
X158476142Y-119352238D01*
X158476142Y-119328428D01*
X158499952Y-119280809D01*
X158523761Y-119257000D01*
X158571380Y-119233190D01*
X158666619Y-119233190D01*
X158714238Y-119257000D01*
X158738047Y-119280809D01*
X158761857Y-119328428D01*
X158761857Y-119352238D01*
X158738047Y-119399857D01*
X158714238Y-119423666D01*
X158666619Y-119447476D01*
X158571380Y-119447476D01*
X158523761Y-119471285D01*
X158499952Y-119495095D01*
X158476142Y-119542714D01*
X158476142Y-119637952D01*
X158499952Y-119685571D01*
X158523761Y-119709380D01*
X158571380Y-119733190D01*
X158666619Y-119733190D01*
X158714238Y-119709380D01*
X158738047Y-119685571D01*
X158761857Y-119637952D01*
X158761857Y-119542714D01*
X158738047Y-119495095D01*
X158714238Y-119471285D01*
X158666619Y-119447476D01*
X131750571Y-124543333D02*
X131774380Y-124567142D01*
X131798190Y-124638571D01*
X131798190Y-124686190D01*
X131774380Y-124757619D01*
X131726761Y-124805238D01*
X131679142Y-124829047D01*
X131583904Y-124852857D01*
X131512476Y-124852857D01*
X131417238Y-124829047D01*
X131369619Y-124805238D01*
X131322000Y-124757619D01*
X131298190Y-124686190D01*
X131298190Y-124638571D01*
X131322000Y-124567142D01*
X131345809Y-124543333D01*
X131798190Y-124067142D02*
X131798190Y-124352857D01*
X131798190Y-124210000D02*
X131298190Y-124210000D01*
X131369619Y-124257619D01*
X131417238Y-124305238D01*
X131441047Y-124352857D01*
D10*
X129532142Y-95607142D02*
X129484523Y-95654761D01*
X129341666Y-95702380D01*
X129246428Y-95702380D01*
X129103571Y-95654761D01*
X129008333Y-95559523D01*
X128960714Y-95464285D01*
X128913095Y-95273809D01*
X128913095Y-95130952D01*
X128960714Y-94940476D01*
X129008333Y-94845238D01*
X129103571Y-94750000D01*
X129246428Y-94702380D01*
X129341666Y-94702380D01*
X129484523Y-94750000D01*
X129532142Y-94797619D01*
X130484523Y-95702380D02*
X129913095Y-95702380D01*
X130198809Y-95702380D02*
X130198809Y-94702380D01*
X130103571Y-94845238D01*
X130008333Y-94940476D01*
X129913095Y-94988095D01*
X131341666Y-94702380D02*
X131151190Y-94702380D01*
X131055952Y-94750000D01*
X131008333Y-94797619D01*
X130913095Y-94940476D01*
X130865476Y-95130952D01*
X130865476Y-95511904D01*
X130913095Y-95607142D01*
X130960714Y-95654761D01*
X131055952Y-95702380D01*
X131246428Y-95702380D01*
X131341666Y-95654761D01*
X131389285Y-95607142D01*
X131436904Y-95511904D01*
X131436904Y-95273809D01*
X131389285Y-95178571D01*
X131341666Y-95130952D01*
X131246428Y-95083333D01*
X131055952Y-95083333D01*
X130960714Y-95130952D01*
X130913095Y-95178571D01*
X130865476Y-95273809D01*
X128817619Y-88360238D02*
X128770000Y-88455476D01*
X128674761Y-88550714D01*
X128531904Y-88693571D01*
X128484285Y-88788809D01*
X128484285Y-88884047D01*
X128722380Y-88836428D02*
X128674761Y-88931666D01*
X128579523Y-89026904D01*
X128389047Y-89074523D01*
X128055714Y-89074523D01*
X127865238Y-89026904D01*
X127770000Y-88931666D01*
X127722380Y-88836428D01*
X127722380Y-88645952D01*
X127770000Y-88550714D01*
X127865238Y-88455476D01*
X128055714Y-88407857D01*
X128389047Y-88407857D01*
X128579523Y-88455476D01*
X128674761Y-88550714D01*
X128722380Y-88645952D01*
X128722380Y-88836428D01*
X127817619Y-88026904D02*
X127770000Y-87979285D01*
X127722380Y-87884047D01*
X127722380Y-87645952D01*
X127770000Y-87550714D01*
X127817619Y-87503095D01*
X127912857Y-87455476D01*
X128008095Y-87455476D01*
X128150952Y-87503095D01*
X128722380Y-88074523D01*
X128722380Y-87455476D01*
X128622380Y-85097857D02*
X128146190Y-85431190D01*
X128622380Y-85669285D02*
X127622380Y-85669285D01*
X127622380Y-85288333D01*
X127670000Y-85193095D01*
X127717619Y-85145476D01*
X127812857Y-85097857D01*
X127955714Y-85097857D01*
X128050952Y-85145476D01*
X128098571Y-85193095D01*
X128146190Y-85288333D01*
X128146190Y-85669285D01*
X128622380Y-84145476D02*
X128622380Y-84716904D01*
X128622380Y-84431190D02*
X127622380Y-84431190D01*
X127765238Y-84526428D01*
X127860476Y-84621666D01*
X127908095Y-84716904D01*
X127622380Y-83812142D02*
X127622380Y-83145476D01*
X128622380Y-83574047D01*
X125012380Y-85097857D02*
X124536190Y-85431190D01*
X125012380Y-85669285D02*
X124012380Y-85669285D01*
X124012380Y-85288333D01*
X124060000Y-85193095D01*
X124107619Y-85145476D01*
X124202857Y-85097857D01*
X124345714Y-85097857D01*
X124440952Y-85145476D01*
X124488571Y-85193095D01*
X124536190Y-85288333D01*
X124536190Y-85669285D01*
X125012380Y-84145476D02*
X125012380Y-84716904D01*
X125012380Y-84431190D02*
X124012380Y-84431190D01*
X124155238Y-84526428D01*
X124250476Y-84621666D01*
X124298095Y-84716904D01*
X124440952Y-83574047D02*
X124393333Y-83669285D01*
X124345714Y-83716904D01*
X124250476Y-83764523D01*
X124202857Y-83764523D01*
X124107619Y-83716904D01*
X124060000Y-83669285D01*
X124012380Y-83574047D01*
X124012380Y-83383571D01*
X124060000Y-83288333D01*
X124107619Y-83240714D01*
X124202857Y-83193095D01*
X124250476Y-83193095D01*
X124345714Y-83240714D01*
X124393333Y-83288333D01*
X124440952Y-83383571D01*
X124440952Y-83574047D01*
X124488571Y-83669285D01*
X124536190Y-83716904D01*
X124631428Y-83764523D01*
X124821904Y-83764523D01*
X124917142Y-83716904D01*
X124964761Y-83669285D01*
X125012380Y-83574047D01*
X125012380Y-83383571D01*
X124964761Y-83288333D01*
X124917142Y-83240714D01*
X124821904Y-83193095D01*
X124631428Y-83193095D01*
X124536190Y-83240714D01*
X124488571Y-83288333D01*
X124440952Y-83383571D01*
X159853333Y-79827380D02*
X159520000Y-79351190D01*
X159281904Y-79827380D02*
X159281904Y-78827380D01*
X159662857Y-78827380D01*
X159758095Y-78875000D01*
X159805714Y-78922619D01*
X159853333Y-79017857D01*
X159853333Y-79160714D01*
X159805714Y-79255952D01*
X159758095Y-79303571D01*
X159662857Y-79351190D01*
X159281904Y-79351190D01*
X160186666Y-78827380D02*
X160805714Y-78827380D01*
X160472380Y-79208333D01*
X160615238Y-79208333D01*
X160710476Y-79255952D01*
X160758095Y-79303571D01*
X160805714Y-79398809D01*
X160805714Y-79636904D01*
X160758095Y-79732142D01*
X160710476Y-79779761D01*
X160615238Y-79827380D01*
X160329523Y-79827380D01*
X160234285Y-79779761D01*
X160186666Y-79732142D01*
X159853333Y-81097380D02*
X159520000Y-80621190D01*
X159281904Y-81097380D02*
X159281904Y-80097380D01*
X159662857Y-80097380D01*
X159758095Y-80145000D01*
X159805714Y-80192619D01*
X159853333Y-80287857D01*
X159853333Y-80430714D01*
X159805714Y-80525952D01*
X159758095Y-80573571D01*
X159662857Y-80621190D01*
X159281904Y-80621190D01*
X160710476Y-80097380D02*
X160520000Y-80097380D01*
X160424761Y-80145000D01*
X160377142Y-80192619D01*
X160281904Y-80335476D01*
X160234285Y-80525952D01*
X160234285Y-80906904D01*
X160281904Y-81002142D01*
X160329523Y-81049761D01*
X160424761Y-81097380D01*
X160615238Y-81097380D01*
X160710476Y-81049761D01*
X160758095Y-81002142D01*
X160805714Y-80906904D01*
X160805714Y-80668809D01*
X160758095Y-80573571D01*
X160710476Y-80525952D01*
X160615238Y-80478333D01*
X160424761Y-80478333D01*
X160329523Y-80525952D01*
X160281904Y-80573571D01*
X160234285Y-80668809D01*
X156043333Y-81732380D02*
X155710000Y-81256190D01*
X155471904Y-81732380D02*
X155471904Y-80732380D01*
X155852857Y-80732380D01*
X155948095Y-80780000D01*
X155995714Y-80827619D01*
X156043333Y-80922857D01*
X156043333Y-81065714D01*
X155995714Y-81160952D01*
X155948095Y-81208571D01*
X155852857Y-81256190D01*
X155471904Y-81256190D01*
X156519523Y-81732380D02*
X156710000Y-81732380D01*
X156805238Y-81684761D01*
X156852857Y-81637142D01*
X156948095Y-81494285D01*
X156995714Y-81303809D01*
X156995714Y-80922857D01*
X156948095Y-80827619D01*
X156900476Y-80780000D01*
X156805238Y-80732380D01*
X156614761Y-80732380D01*
X156519523Y-80780000D01*
X156471904Y-80827619D01*
X156424285Y-80922857D01*
X156424285Y-81160952D01*
X156471904Y-81256190D01*
X156519523Y-81303809D01*
X156614761Y-81351428D01*
X156805238Y-81351428D01*
X156900476Y-81303809D01*
X156948095Y-81256190D01*
X156995714Y-81160952D01*
X153392142Y-80652857D02*
X153439761Y-80700476D01*
X153487380Y-80843333D01*
X153487380Y-80938571D01*
X153439761Y-81081428D01*
X153344523Y-81176666D01*
X153249285Y-81224285D01*
X153058809Y-81271904D01*
X152915952Y-81271904D01*
X152725476Y-81224285D01*
X152630238Y-81176666D01*
X152535000Y-81081428D01*
X152487380Y-80938571D01*
X152487380Y-80843333D01*
X152535000Y-80700476D01*
X152582619Y-80652857D01*
X153487380Y-79700476D02*
X153487380Y-80271904D01*
X153487380Y-79986190D02*
X152487380Y-79986190D01*
X152630238Y-80081428D01*
X152725476Y-80176666D01*
X152773095Y-80271904D01*
X152487380Y-79367142D02*
X152487380Y-78700476D01*
X153487380Y-79129047D01*
X143176666Y-123142380D02*
X143176666Y-123856666D01*
X143129047Y-123999523D01*
X143033809Y-124094761D01*
X142890952Y-124142380D01*
X142795714Y-124142380D01*
X144129047Y-123142380D02*
X143652857Y-123142380D01*
X143605238Y-123618571D01*
X143652857Y-123570952D01*
X143748095Y-123523333D01*
X143986190Y-123523333D01*
X144081428Y-123570952D01*
X144129047Y-123618571D01*
X144176666Y-123713809D01*
X144176666Y-123951904D01*
X144129047Y-124047142D01*
X144081428Y-124094761D01*
X143986190Y-124142380D01*
X143748095Y-124142380D01*
X143652857Y-124094761D01*
X143605238Y-124047142D01*
D14*
X156523571Y-123670190D02*
X156356904Y-123432095D01*
X156237857Y-123670190D02*
X156237857Y-123170190D01*
X156428333Y-123170190D01*
X156475952Y-123194000D01*
X156499761Y-123217809D01*
X156523571Y-123265428D01*
X156523571Y-123336857D01*
X156499761Y-123384476D01*
X156475952Y-123408285D01*
X156428333Y-123432095D01*
X156237857Y-123432095D01*
X156999761Y-123670190D02*
X156714047Y-123670190D01*
X156856904Y-123670190D02*
X156856904Y-123170190D01*
X156809285Y-123241619D01*
X156761666Y-123289238D01*
X156714047Y-123313047D01*
X157309285Y-123170190D02*
X157356904Y-123170190D01*
X157404523Y-123194000D01*
X157428333Y-123217809D01*
X157452142Y-123265428D01*
X157475952Y-123360666D01*
X157475952Y-123479714D01*
X157452142Y-123574952D01*
X157428333Y-123622571D01*
X157404523Y-123646380D01*
X157356904Y-123670190D01*
X157309285Y-123670190D01*
X157261666Y-123646380D01*
X157237857Y-123622571D01*
X157214047Y-123574952D01*
X157190238Y-123479714D01*
X157190238Y-123360666D01*
X157214047Y-123265428D01*
X157237857Y-123217809D01*
X157261666Y-123194000D01*
X157309285Y-123170190D01*
X153924047Y-78593190D02*
X153924047Y-78997952D01*
X153947857Y-79045571D01*
X153971666Y-79069380D01*
X154019285Y-79093190D01*
X154114523Y-79093190D01*
X154162142Y-79069380D01*
X154185952Y-79045571D01*
X154209761Y-78997952D01*
X154209761Y-78593190D01*
X154424047Y-78640809D02*
X154447857Y-78617000D01*
X154495476Y-78593190D01*
X154614523Y-78593190D01*
X154662142Y-78617000D01*
X154685952Y-78640809D01*
X154709761Y-78688428D01*
X154709761Y-78736047D01*
X154685952Y-78807476D01*
X154400238Y-79093190D01*
X154709761Y-79093190D01*
X132123666Y-121590571D02*
X132099857Y-121614380D01*
X132028428Y-121638190D01*
X131980809Y-121638190D01*
X131909380Y-121614380D01*
X131861761Y-121566761D01*
X131837952Y-121519142D01*
X131814142Y-121423904D01*
X131814142Y-121352476D01*
X131837952Y-121257238D01*
X131861761Y-121209619D01*
X131909380Y-121162000D01*
X131980809Y-121138190D01*
X132028428Y-121138190D01*
X132099857Y-121162000D01*
X132123666Y-121185809D01*
X132290333Y-121138190D02*
X132623666Y-121138190D01*
X132409380Y-121638190D01*
X129583666Y-112827571D02*
X129559857Y-112851380D01*
X129488428Y-112875190D01*
X129440809Y-112875190D01*
X129369380Y-112851380D01*
X129321761Y-112803761D01*
X129297952Y-112756142D01*
X129274142Y-112660904D01*
X129274142Y-112589476D01*
X129297952Y-112494238D01*
X129321761Y-112446619D01*
X129369380Y-112399000D01*
X129440809Y-112375190D01*
X129488428Y-112375190D01*
X129559857Y-112399000D01*
X129583666Y-112422809D01*
X129869380Y-112589476D02*
X129821761Y-112565666D01*
X129797952Y-112541857D01*
X129774142Y-112494238D01*
X129774142Y-112470428D01*
X129797952Y-112422809D01*
X129821761Y-112399000D01*
X129869380Y-112375190D01*
X129964619Y-112375190D01*
X130012238Y-112399000D01*
X130036047Y-112422809D01*
X130059857Y-112470428D01*
X130059857Y-112494238D01*
X130036047Y-112541857D01*
X130012238Y-112565666D01*
X129964619Y-112589476D01*
X129869380Y-112589476D01*
X129821761Y-112613285D01*
X129797952Y-112637095D01*
X129774142Y-112684714D01*
X129774142Y-112779952D01*
X129797952Y-112827571D01*
X129821761Y-112851380D01*
X129869380Y-112875190D01*
X129964619Y-112875190D01*
X130012238Y-112851380D01*
X130036047Y-112827571D01*
X130059857Y-112779952D01*
X130059857Y-112684714D01*
X130036047Y-112637095D01*
X130012238Y-112613285D01*
X129964619Y-112589476D01*
X153078666Y-121463571D02*
X153054857Y-121487380D01*
X152983428Y-121511190D01*
X152935809Y-121511190D01*
X152864380Y-121487380D01*
X152816761Y-121439761D01*
X152792952Y-121392142D01*
X152769142Y-121296904D01*
X152769142Y-121225476D01*
X152792952Y-121130238D01*
X152816761Y-121082619D01*
X152864380Y-121035000D01*
X152935809Y-121011190D01*
X152983428Y-121011190D01*
X153054857Y-121035000D01*
X153078666Y-121058809D01*
X153316761Y-121511190D02*
X153412000Y-121511190D01*
X153459619Y-121487380D01*
X153483428Y-121463571D01*
X153531047Y-121392142D01*
X153554857Y-121296904D01*
X153554857Y-121106428D01*
X153531047Y-121058809D01*
X153507238Y-121035000D01*
X153459619Y-121011190D01*
X153364380Y-121011190D01*
X153316761Y-121035000D01*
X153292952Y-121058809D01*
X153269142Y-121106428D01*
X153269142Y-121225476D01*
X153292952Y-121273095D01*
X153316761Y-121296904D01*
X153364380Y-121320714D01*
X153459619Y-121320714D01*
X153507238Y-121296904D01*
X153531047Y-121273095D01*
X153554857Y-121225476D01*
X121344571Y-113081571D02*
X121320761Y-113105380D01*
X121249333Y-113129190D01*
X121201714Y-113129190D01*
X121130285Y-113105380D01*
X121082666Y-113057761D01*
X121058857Y-113010142D01*
X121035047Y-112914904D01*
X121035047Y-112843476D01*
X121058857Y-112748238D01*
X121082666Y-112700619D01*
X121130285Y-112653000D01*
X121201714Y-112629190D01*
X121249333Y-112629190D01*
X121320761Y-112653000D01*
X121344571Y-112676809D01*
X121820761Y-113129190D02*
X121535047Y-113129190D01*
X121677904Y-113129190D02*
X121677904Y-112629190D01*
X121630285Y-112700619D01*
X121582666Y-112748238D01*
X121535047Y-112772047D01*
X122296952Y-113129190D02*
X122011238Y-113129190D01*
X122154095Y-113129190D02*
X122154095Y-112629190D01*
X122106476Y-112700619D01*
X122058857Y-112748238D01*
X122011238Y-112772047D01*
X124384571Y-114621428D02*
X124408380Y-114645238D01*
X124432190Y-114716666D01*
X124432190Y-114764285D01*
X124408380Y-114835714D01*
X124360761Y-114883333D01*
X124313142Y-114907142D01*
X124217904Y-114930952D01*
X124146476Y-114930952D01*
X124051238Y-114907142D01*
X124003619Y-114883333D01*
X123956000Y-114835714D01*
X123932190Y-114764285D01*
X123932190Y-114716666D01*
X123956000Y-114645238D01*
X123979809Y-114621428D01*
X124432190Y-114145238D02*
X124432190Y-114430952D01*
X124432190Y-114288095D02*
X123932190Y-114288095D01*
X124003619Y-114335714D01*
X124051238Y-114383333D01*
X124075047Y-114430952D01*
X123979809Y-113954761D02*
X123956000Y-113930952D01*
X123932190Y-113883333D01*
X123932190Y-113764285D01*
X123956000Y-113716666D01*
X123979809Y-113692857D01*
X124027428Y-113669047D01*
X124075047Y-113669047D01*
X124146476Y-113692857D01*
X124432190Y-113978571D01*
X124432190Y-113669047D01*
X139116571Y-121860428D02*
X139140380Y-121884238D01*
X139164190Y-121955666D01*
X139164190Y-122003285D01*
X139140380Y-122074714D01*
X139092761Y-122122333D01*
X139045142Y-122146142D01*
X138949904Y-122169952D01*
X138878476Y-122169952D01*
X138783238Y-122146142D01*
X138735619Y-122122333D01*
X138688000Y-122074714D01*
X138664190Y-122003285D01*
X138664190Y-121955666D01*
X138688000Y-121884238D01*
X138711809Y-121860428D01*
X139164190Y-121384238D02*
X139164190Y-121669952D01*
X139164190Y-121527095D02*
X138664190Y-121527095D01*
X138735619Y-121574714D01*
X138783238Y-121622333D01*
X138807047Y-121669952D01*
X138830857Y-120955666D02*
X139164190Y-120955666D01*
X138640380Y-121074714D02*
X138997523Y-121193761D01*
X138997523Y-120884238D01*
X139116571Y-118558428D02*
X139140380Y-118582238D01*
X139164190Y-118653666D01*
X139164190Y-118701285D01*
X139140380Y-118772714D01*
X139092761Y-118820333D01*
X139045142Y-118844142D01*
X138949904Y-118867952D01*
X138878476Y-118867952D01*
X138783238Y-118844142D01*
X138735619Y-118820333D01*
X138688000Y-118772714D01*
X138664190Y-118701285D01*
X138664190Y-118653666D01*
X138688000Y-118582238D01*
X138711809Y-118558428D01*
X139164190Y-118082238D02*
X139164190Y-118367952D01*
X139164190Y-118225095D02*
X138664190Y-118225095D01*
X138735619Y-118272714D01*
X138783238Y-118320333D01*
X138807047Y-118367952D01*
X138664190Y-117629857D02*
X138664190Y-117867952D01*
X138902285Y-117891761D01*
X138878476Y-117867952D01*
X138854666Y-117820333D01*
X138854666Y-117701285D01*
X138878476Y-117653666D01*
X138902285Y-117629857D01*
X138949904Y-117606047D01*
X139068952Y-117606047D01*
X139116571Y-117629857D01*
X139140380Y-117653666D01*
X139164190Y-117701285D01*
X139164190Y-117820333D01*
X139140380Y-117867952D01*
X139116571Y-117891761D01*
D10*
X126261904Y-127452380D02*
X126261904Y-126452380D01*
X126500000Y-126452380D01*
X126642857Y-126500000D01*
X126738095Y-126595238D01*
X126785714Y-126690476D01*
X126833333Y-126880952D01*
X126833333Y-127023809D01*
X126785714Y-127214285D01*
X126738095Y-127309523D01*
X126642857Y-127404761D01*
X126500000Y-127452380D01*
X126261904Y-127452380D01*
X127404761Y-126880952D02*
X127309523Y-126833333D01*
X127261904Y-126785714D01*
X127214285Y-126690476D01*
X127214285Y-126642857D01*
X127261904Y-126547619D01*
X127309523Y-126500000D01*
X127404761Y-126452380D01*
X127595238Y-126452380D01*
X127690476Y-126500000D01*
X127738095Y-126547619D01*
X127785714Y-126642857D01*
X127785714Y-126690476D01*
X127738095Y-126785714D01*
X127690476Y-126833333D01*
X127595238Y-126880952D01*
X127404761Y-126880952D01*
X127309523Y-126928571D01*
X127261904Y-126976190D01*
X127214285Y-127071428D01*
X127214285Y-127261904D01*
X127261904Y-127357142D01*
X127309523Y-127404761D01*
X127404761Y-127452380D01*
X127595238Y-127452380D01*
X127690476Y-127404761D01*
X127738095Y-127357142D01*
X127785714Y-127261904D01*
X127785714Y-127071428D01*
X127738095Y-126976190D01*
X127690476Y-126928571D01*
X127595238Y-126880952D01*
X118578333Y-119197380D02*
X118102142Y-119197380D01*
X118102142Y-118197380D01*
X119435476Y-119197380D02*
X118864047Y-119197380D01*
X119149761Y-119197380D02*
X119149761Y-118197380D01*
X119054523Y-118340238D01*
X118959285Y-118435476D01*
X118864047Y-118483095D01*
D14*
X127544571Y-113129190D02*
X127377904Y-112891095D01*
X127258857Y-113129190D02*
X127258857Y-112629190D01*
X127449333Y-112629190D01*
X127496952Y-112653000D01*
X127520761Y-112676809D01*
X127544571Y-112724428D01*
X127544571Y-112795857D01*
X127520761Y-112843476D01*
X127496952Y-112867285D01*
X127449333Y-112891095D01*
X127258857Y-112891095D01*
X127735047Y-112676809D02*
X127758857Y-112653000D01*
X127806476Y-112629190D01*
X127925523Y-112629190D01*
X127973142Y-112653000D01*
X127996952Y-112676809D01*
X128020761Y-112724428D01*
X128020761Y-112772047D01*
X127996952Y-112843476D01*
X127711238Y-113129190D01*
X128020761Y-113129190D01*
X128449333Y-112795857D02*
X128449333Y-113129190D01*
X128330285Y-112605380D02*
X128211238Y-112962523D01*
X128520761Y-112962523D01*
X124432190Y-116653428D02*
X124194095Y-116820095D01*
X124432190Y-116939142D02*
X123932190Y-116939142D01*
X123932190Y-116748666D01*
X123956000Y-116701047D01*
X123979809Y-116677238D01*
X124027428Y-116653428D01*
X124098857Y-116653428D01*
X124146476Y-116677238D01*
X124170285Y-116701047D01*
X124194095Y-116748666D01*
X124194095Y-116939142D01*
X123979809Y-116462952D02*
X123956000Y-116439142D01*
X123932190Y-116391523D01*
X123932190Y-116272476D01*
X123956000Y-116224857D01*
X123979809Y-116201047D01*
X124027428Y-116177238D01*
X124075047Y-116177238D01*
X124146476Y-116201047D01*
X124432190Y-116486761D01*
X124432190Y-116177238D01*
X123932190Y-115724857D02*
X123932190Y-115962952D01*
X124170285Y-115986761D01*
X124146476Y-115962952D01*
X124122666Y-115915333D01*
X124122666Y-115796285D01*
X124146476Y-115748666D01*
X124170285Y-115724857D01*
X124217904Y-115701047D01*
X124336952Y-115701047D01*
X124384571Y-115724857D01*
X124408380Y-115748666D01*
X124432190Y-115796285D01*
X124432190Y-115915333D01*
X124408380Y-115962952D01*
X124384571Y-115986761D01*
X127567571Y-114272190D02*
X127400904Y-114034095D01*
X127281857Y-114272190D02*
X127281857Y-113772190D01*
X127472333Y-113772190D01*
X127519952Y-113796000D01*
X127543761Y-113819809D01*
X127567571Y-113867428D01*
X127567571Y-113938857D01*
X127543761Y-113986476D01*
X127519952Y-114010285D01*
X127472333Y-114034095D01*
X127281857Y-114034095D01*
X127758047Y-113819809D02*
X127781857Y-113796000D01*
X127829476Y-113772190D01*
X127948523Y-113772190D01*
X127996142Y-113796000D01*
X128019952Y-113819809D01*
X128043761Y-113867428D01*
X128043761Y-113915047D01*
X128019952Y-113986476D01*
X127734238Y-114272190D01*
X128043761Y-114272190D01*
X128472333Y-113772190D02*
X128377095Y-113772190D01*
X128329476Y-113796000D01*
X128305666Y-113819809D01*
X128258047Y-113891238D01*
X128234238Y-113986476D01*
X128234238Y-114176952D01*
X128258047Y-114224571D01*
X128281857Y-114248380D01*
X128329476Y-114272190D01*
X128424714Y-114272190D01*
X128472333Y-114248380D01*
X128496142Y-114224571D01*
X128519952Y-114176952D01*
X128519952Y-114057904D01*
X128496142Y-114010285D01*
X128472333Y-113986476D01*
X128424714Y-113962666D01*
X128329476Y-113962666D01*
X128281857Y-113986476D01*
X128258047Y-114010285D01*
X128234238Y-114057904D01*
X159643047Y-124821190D02*
X159928761Y-124821190D01*
X159785904Y-125321190D02*
X159785904Y-124821190D01*
X160095428Y-125321190D02*
X160095428Y-124821190D01*
X160285904Y-124821190D01*
X160333523Y-124845000D01*
X160357333Y-124868809D01*
X160381142Y-124916428D01*
X160381142Y-124987857D01*
X160357333Y-125035476D01*
X160333523Y-125059285D01*
X160285904Y-125083095D01*
X160095428Y-125083095D01*
X160857333Y-125321190D02*
X160571619Y-125321190D01*
X160714476Y-125321190D02*
X160714476Y-124821190D01*
X160666857Y-124892619D01*
X160619238Y-124940238D01*
X160571619Y-124964047D01*
X158476190Y-123058952D02*
X158476190Y-122773238D01*
X158976190Y-122916095D02*
X158476190Y-122916095D01*
X158976190Y-122606571D02*
X158476190Y-122606571D01*
X158476190Y-122416095D01*
X158500000Y-122368476D01*
X158523809Y-122344666D01*
X158571428Y-122320857D01*
X158642857Y-122320857D01*
X158690476Y-122344666D01*
X158714285Y-122368476D01*
X158738095Y-122416095D01*
X158738095Y-122606571D01*
X158523809Y-122130380D02*
X158500000Y-122106571D01*
X158476190Y-122058952D01*
X158476190Y-121939904D01*
X158500000Y-121892285D01*
X158523809Y-121868476D01*
X158571428Y-121844666D01*
X158619047Y-121844666D01*
X158690476Y-121868476D01*
X158976190Y-122154190D01*
X158976190Y-121844666D01*
D10*
X127508095Y-120427380D02*
X127508095Y-121236904D01*
X127555714Y-121332142D01*
X127603333Y-121379761D01*
X127698571Y-121427380D01*
X127889047Y-121427380D01*
X127984285Y-121379761D01*
X128031904Y-121332142D01*
X128079523Y-121236904D01*
X128079523Y-120427380D01*
X129031904Y-120427380D02*
X128555714Y-120427380D01*
X128508095Y-120903571D01*
X128555714Y-120855952D01*
X128650952Y-120808333D01*
X128889047Y-120808333D01*
X128984285Y-120855952D01*
X129031904Y-120903571D01*
X129079523Y-120998809D01*
X129079523Y-121236904D01*
X129031904Y-121332142D01*
X128984285Y-121379761D01*
X128889047Y-121427380D01*
X128650952Y-121427380D01*
X128555714Y-121379761D01*
X128508095Y-121332142D01*
D14*
X115320047Y-111435190D02*
X115605761Y-111435190D01*
X115462904Y-111935190D02*
X115462904Y-111435190D01*
X115772428Y-111935190D02*
X115772428Y-111435190D01*
X115962904Y-111435190D01*
X116010523Y-111459000D01*
X116034333Y-111482809D01*
X116058142Y-111530428D01*
X116058142Y-111601857D01*
X116034333Y-111649476D01*
X116010523Y-111673285D01*
X115962904Y-111697095D01*
X115772428Y-111697095D01*
X116224809Y-111435190D02*
X116534333Y-111435190D01*
X116367666Y-111625666D01*
X116439095Y-111625666D01*
X116486714Y-111649476D01*
X116510523Y-111673285D01*
X116534333Y-111720904D01*
X116534333Y-111839952D01*
X116510523Y-111887571D01*
X116486714Y-111911380D01*
X116439095Y-111935190D01*
X116296238Y-111935190D01*
X116248619Y-111911380D01*
X116224809Y-111887571D01*
X152586571Y-122479571D02*
X152562761Y-122503380D01*
X152491333Y-122527190D01*
X152443714Y-122527190D01*
X152372285Y-122503380D01*
X152324666Y-122455761D01*
X152300857Y-122408142D01*
X152277047Y-122312904D01*
X152277047Y-122241476D01*
X152300857Y-122146238D01*
X152324666Y-122098619D01*
X152372285Y-122051000D01*
X152443714Y-122027190D01*
X152491333Y-122027190D01*
X152562761Y-122051000D01*
X152586571Y-122074809D01*
X153062761Y-122527190D02*
X152777047Y-122527190D01*
X152919904Y-122527190D02*
X152919904Y-122027190D01*
X152872285Y-122098619D01*
X152824666Y-122146238D01*
X152777047Y-122170047D01*
X153348476Y-122241476D02*
X153300857Y-122217666D01*
X153277047Y-122193857D01*
X153253238Y-122146238D01*
X153253238Y-122122428D01*
X153277047Y-122074809D01*
X153300857Y-122051000D01*
X153348476Y-122027190D01*
X153443714Y-122027190D01*
X153491333Y-122051000D01*
X153515142Y-122074809D01*
X153538952Y-122122428D01*
X153538952Y-122146238D01*
X153515142Y-122193857D01*
X153491333Y-122217666D01*
X153443714Y-122241476D01*
X153348476Y-122241476D01*
X153300857Y-122265285D01*
X153277047Y-122289095D01*
X153253238Y-122336714D01*
X153253238Y-122431952D01*
X153277047Y-122479571D01*
X153300857Y-122503380D01*
X153348476Y-122527190D01*
X153443714Y-122527190D01*
X153491333Y-122503380D01*
X153515142Y-122479571D01*
X153538952Y-122431952D01*
X153538952Y-122336714D01*
X153515142Y-122289095D01*
X153491333Y-122265285D01*
X153443714Y-122241476D01*
X132814190Y-124527428D02*
X132576095Y-124694095D01*
X132814190Y-124813142D02*
X132314190Y-124813142D01*
X132314190Y-124622666D01*
X132338000Y-124575047D01*
X132361809Y-124551238D01*
X132409428Y-124527428D01*
X132480857Y-124527428D01*
X132528476Y-124551238D01*
X132552285Y-124575047D01*
X132576095Y-124622666D01*
X132576095Y-124813142D01*
X132361809Y-124336952D02*
X132338000Y-124313142D01*
X132314190Y-124265523D01*
X132314190Y-124146476D01*
X132338000Y-124098857D01*
X132361809Y-124075047D01*
X132409428Y-124051238D01*
X132457047Y-124051238D01*
X132528476Y-124075047D01*
X132814190Y-124360761D01*
X132814190Y-124051238D01*
X132314190Y-123884571D02*
X132314190Y-123551238D01*
X132814190Y-123765523D01*
D10*
X130548142Y-113106142D02*
X130500523Y-113153761D01*
X130357666Y-113201380D01*
X130262428Y-113201380D01*
X130119571Y-113153761D01*
X130024333Y-113058523D01*
X129976714Y-112963285D01*
X129929095Y-112772809D01*
X129929095Y-112629952D01*
X129976714Y-112439476D01*
X130024333Y-112344238D01*
X130119571Y-112249000D01*
X130262428Y-112201380D01*
X130357666Y-112201380D01*
X130500523Y-112249000D01*
X130548142Y-112296619D01*
X131500523Y-113201380D02*
X130929095Y-113201380D01*
X131214809Y-113201380D02*
X131214809Y-112201380D01*
X131119571Y-112344238D01*
X131024333Y-112439476D01*
X130929095Y-112487095D01*
X131833857Y-112201380D02*
X132452904Y-112201380D01*
X132119571Y-112582333D01*
X132262428Y-112582333D01*
X132357666Y-112629952D01*
X132405285Y-112677571D01*
X132452904Y-112772809D01*
X132452904Y-113010904D01*
X132405285Y-113106142D01*
X132357666Y-113153761D01*
X132262428Y-113201380D01*
X131976714Y-113201380D01*
X131881476Y-113153761D01*
X131833857Y-113106142D01*
X134612142Y-80362380D02*
X134278809Y-79886190D01*
X134040714Y-80362380D02*
X134040714Y-79362380D01*
X134421666Y-79362380D01*
X134516904Y-79410000D01*
X134564523Y-79457619D01*
X134612142Y-79552857D01*
X134612142Y-79695714D01*
X134564523Y-79790952D01*
X134516904Y-79838571D01*
X134421666Y-79886190D01*
X134040714Y-79886190D01*
X134993095Y-79457619D02*
X135040714Y-79410000D01*
X135135952Y-79362380D01*
X135374047Y-79362380D01*
X135469285Y-79410000D01*
X135516904Y-79457619D01*
X135564523Y-79552857D01*
X135564523Y-79648095D01*
X135516904Y-79790952D01*
X134945476Y-80362380D01*
X135564523Y-80362380D01*
X136135952Y-79790952D02*
X136040714Y-79743333D01*
X135993095Y-79695714D01*
X135945476Y-79600476D01*
X135945476Y-79552857D01*
X135993095Y-79457619D01*
X136040714Y-79410000D01*
X136135952Y-79362380D01*
X136326428Y-79362380D01*
X136421666Y-79410000D01*
X136469285Y-79457619D01*
X136516904Y-79552857D01*
X136516904Y-79600476D01*
X136469285Y-79695714D01*
X136421666Y-79743333D01*
X136326428Y-79790952D01*
X136135952Y-79790952D01*
X136040714Y-79838571D01*
X135993095Y-79886190D01*
X135945476Y-79981428D01*
X135945476Y-80171904D01*
X135993095Y-80267142D01*
X136040714Y-80314761D01*
X136135952Y-80362380D01*
X136326428Y-80362380D01*
X136421666Y-80314761D01*
X136469285Y-80267142D01*
X136516904Y-80171904D01*
X136516904Y-79981428D01*
X136469285Y-79886190D01*
X136421666Y-79838571D01*
X136326428Y-79790952D01*
X145407142Y-114767142D02*
X145359523Y-114814761D01*
X145216666Y-114862380D01*
X145121428Y-114862380D01*
X144978571Y-114814761D01*
X144883333Y-114719523D01*
X144835714Y-114624285D01*
X144788095Y-114433809D01*
X144788095Y-114290952D01*
X144835714Y-114100476D01*
X144883333Y-114005238D01*
X144978571Y-113910000D01*
X145121428Y-113862380D01*
X145216666Y-113862380D01*
X145359523Y-113910000D01*
X145407142Y-113957619D01*
X146359523Y-114862380D02*
X145788095Y-114862380D01*
X146073809Y-114862380D02*
X146073809Y-113862380D01*
X145978571Y-114005238D01*
X145883333Y-114100476D01*
X145788095Y-114148095D01*
X146835714Y-114862380D02*
X147026190Y-114862380D01*
X147121428Y-114814761D01*
X147169047Y-114767142D01*
X147264285Y-114624285D01*
X147311904Y-114433809D01*
X147311904Y-114052857D01*
X147264285Y-113957619D01*
X147216666Y-113910000D01*
X147121428Y-113862380D01*
X146930952Y-113862380D01*
X146835714Y-113910000D01*
X146788095Y-113957619D01*
X146740476Y-114052857D01*
X146740476Y-114290952D01*
X146788095Y-114386190D01*
X146835714Y-114433809D01*
X146930952Y-114481428D01*
X147121428Y-114481428D01*
X147216666Y-114433809D01*
X147264285Y-114386190D01*
X147311904Y-114290952D01*
X160632380Y-122181857D02*
X160156190Y-122515190D01*
X160632380Y-122753285D02*
X159632380Y-122753285D01*
X159632380Y-122372333D01*
X159680000Y-122277095D01*
X159727619Y-122229476D01*
X159822857Y-122181857D01*
X159965714Y-122181857D01*
X160060952Y-122229476D01*
X160108571Y-122277095D01*
X160156190Y-122372333D01*
X160156190Y-122753285D01*
X160632380Y-121229476D02*
X160632380Y-121800904D01*
X160632380Y-121515190D02*
X159632380Y-121515190D01*
X159775238Y-121610428D01*
X159870476Y-121705666D01*
X159918095Y-121800904D01*
X160632380Y-120277095D02*
X160632380Y-120848523D01*
X160632380Y-120562809D02*
X159632380Y-120562809D01*
X159775238Y-120658047D01*
X159870476Y-120753285D01*
X159918095Y-120848523D01*
X162156380Y-122181857D02*
X161680190Y-122515190D01*
X162156380Y-122753285D02*
X161156380Y-122753285D01*
X161156380Y-122372333D01*
X161204000Y-122277095D01*
X161251619Y-122229476D01*
X161346857Y-122181857D01*
X161489714Y-122181857D01*
X161584952Y-122229476D01*
X161632571Y-122277095D01*
X161680190Y-122372333D01*
X161680190Y-122753285D01*
X162156380Y-121229476D02*
X162156380Y-121800904D01*
X162156380Y-121515190D02*
X161156380Y-121515190D01*
X161299238Y-121610428D01*
X161394476Y-121705666D01*
X161442095Y-121800904D01*
X161251619Y-120848523D02*
X161204000Y-120800904D01*
X161156380Y-120705666D01*
X161156380Y-120467571D01*
X161204000Y-120372333D01*
X161251619Y-120324714D01*
X161346857Y-120277095D01*
X161442095Y-120277095D01*
X161584952Y-120324714D01*
X162156380Y-120896142D01*
X162156380Y-120277095D01*
X134612142Y-124026142D02*
X134564523Y-124073761D01*
X134421666Y-124121380D01*
X134326428Y-124121380D01*
X134183571Y-124073761D01*
X134088333Y-123978523D01*
X134040714Y-123883285D01*
X133993095Y-123692809D01*
X133993095Y-123549952D01*
X134040714Y-123359476D01*
X134088333Y-123264238D01*
X134183571Y-123169000D01*
X134326428Y-123121380D01*
X134421666Y-123121380D01*
X134564523Y-123169000D01*
X134612142Y-123216619D01*
X135564523Y-124121380D02*
X134993095Y-124121380D01*
X135278809Y-124121380D02*
X135278809Y-123121380D01*
X135183571Y-123264238D01*
X135088333Y-123359476D01*
X134993095Y-123407095D01*
X136183571Y-123121380D02*
X136278809Y-123121380D01*
X136374047Y-123169000D01*
X136421666Y-123216619D01*
X136469285Y-123311857D01*
X136516904Y-123502333D01*
X136516904Y-123740428D01*
X136469285Y-123930904D01*
X136421666Y-124026142D01*
X136374047Y-124073761D01*
X136278809Y-124121380D01*
X136183571Y-124121380D01*
X136088333Y-124073761D01*
X136040714Y-124026142D01*
X135993095Y-123930904D01*
X135945476Y-123740428D01*
X135945476Y-123502333D01*
X135993095Y-123311857D01*
X136040714Y-123216619D01*
X136088333Y-123169000D01*
X136183571Y-123121380D01*
M02*
