G04 #@! TF.GenerationSoftware,KiCad,Pcbnew,(5.1.9)-1*
G04 #@! TF.CreationDate,2022-02-01T14:59:44+01:00*
G04 #@! TF.ProjectId,ESPCraft,45535043-7261-4667-942e-6b696361645f,rev?*
G04 #@! TF.SameCoordinates,Original*
G04 #@! TF.FileFunction,Legend,Bot*
G04 #@! TF.FilePolarity,Positive*
%FSLAX46Y46*%
G04 Gerber Fmt 4.6, Leading zero omitted, Abs format (unit mm)*
G04 Created by KiCad (PCBNEW (5.1.9)-1) date 2022-02-01 14:59:44*
%MOMM*%
%LPD*%
G01*
G04 APERTURE LIST*
%ADD10C,0.100000*%
%ADD11C,0.244999*%
%ADD12C,0.160000*%
%ADD13C,0.200000*%
%ADD14C,0.300000*%
%ADD15C,0.150000*%
%ADD16C,0.250000*%
%ADD17C,0.750000*%
G04 APERTURE END LIST*
D10*
G36*
X151993600Y-104571800D02*
G01*
X152323800Y-104724200D01*
X152552400Y-104952800D01*
X152704800Y-105257600D01*
X152831800Y-105613200D01*
X152882600Y-106045000D01*
X152984200Y-106426000D01*
X153212800Y-106730800D01*
X153490995Y-106860804D01*
X153492200Y-107391200D01*
X153254524Y-107376630D01*
X152984200Y-107264200D01*
X152781000Y-107111800D01*
X152628600Y-106908600D01*
X152450800Y-106629200D01*
X152374600Y-106375200D01*
X152323800Y-106070400D01*
X152298400Y-105765600D01*
X152247600Y-105511600D01*
X152120600Y-105333800D01*
X151968200Y-105181400D01*
X151790400Y-105079800D01*
X151579244Y-105086514D01*
X151384000Y-105206800D01*
X151231600Y-105410000D01*
X151130000Y-105638600D01*
X151079200Y-105841800D01*
X151079200Y-106095800D01*
X151053800Y-106299000D01*
X151003000Y-106527600D01*
X150850600Y-106832400D01*
X150647400Y-107111800D01*
X150418800Y-107264200D01*
X150164800Y-107365800D01*
X149809200Y-107391200D01*
X149529800Y-107315000D01*
X149275800Y-107188000D01*
X149085018Y-106982245D01*
X148894800Y-106705400D01*
X148818600Y-106426000D01*
X148742400Y-106045000D01*
X148717000Y-105791000D01*
X148640800Y-105460800D01*
X148412200Y-105181400D01*
X148132800Y-105054400D01*
X148132800Y-104546400D01*
X148285200Y-104546400D01*
X148539200Y-104622600D01*
X148767800Y-104749600D01*
X148945600Y-104927400D01*
X149123400Y-105156000D01*
X149199600Y-105486200D01*
X149275800Y-105841800D01*
X149326600Y-106248200D01*
X149453600Y-106578400D01*
X149707600Y-106832400D01*
X149961600Y-106857800D01*
X150190200Y-106756200D01*
X150368000Y-106578400D01*
X150469600Y-106299000D01*
X150545800Y-105816400D01*
X150596600Y-105511600D01*
X150698200Y-105206800D01*
X150876000Y-104952800D01*
X151079200Y-104749600D01*
X151358600Y-104571800D01*
X151663400Y-104521000D01*
X151993600Y-104571800D01*
G37*
X151993600Y-104571800D02*
X152323800Y-104724200D01*
X152552400Y-104952800D01*
X152704800Y-105257600D01*
X152831800Y-105613200D01*
X152882600Y-106045000D01*
X152984200Y-106426000D01*
X153212800Y-106730800D01*
X153490995Y-106860804D01*
X153492200Y-107391200D01*
X153254524Y-107376630D01*
X152984200Y-107264200D01*
X152781000Y-107111800D01*
X152628600Y-106908600D01*
X152450800Y-106629200D01*
X152374600Y-106375200D01*
X152323800Y-106070400D01*
X152298400Y-105765600D01*
X152247600Y-105511600D01*
X152120600Y-105333800D01*
X151968200Y-105181400D01*
X151790400Y-105079800D01*
X151579244Y-105086514D01*
X151384000Y-105206800D01*
X151231600Y-105410000D01*
X151130000Y-105638600D01*
X151079200Y-105841800D01*
X151079200Y-106095800D01*
X151053800Y-106299000D01*
X151003000Y-106527600D01*
X150850600Y-106832400D01*
X150647400Y-107111800D01*
X150418800Y-107264200D01*
X150164800Y-107365800D01*
X149809200Y-107391200D01*
X149529800Y-107315000D01*
X149275800Y-107188000D01*
X149085018Y-106982245D01*
X148894800Y-106705400D01*
X148818600Y-106426000D01*
X148742400Y-106045000D01*
X148717000Y-105791000D01*
X148640800Y-105460800D01*
X148412200Y-105181400D01*
X148132800Y-105054400D01*
X148132800Y-104546400D01*
X148285200Y-104546400D01*
X148539200Y-104622600D01*
X148767800Y-104749600D01*
X148945600Y-104927400D01*
X149123400Y-105156000D01*
X149199600Y-105486200D01*
X149275800Y-105841800D01*
X149326600Y-106248200D01*
X149453600Y-106578400D01*
X149707600Y-106832400D01*
X149961600Y-106857800D01*
X150190200Y-106756200D01*
X150368000Y-106578400D01*
X150469600Y-106299000D01*
X150545800Y-105816400D01*
X150596600Y-105511600D01*
X150698200Y-105206800D01*
X150876000Y-104952800D01*
X151079200Y-104749600D01*
X151358600Y-104571800D01*
X151663400Y-104521000D01*
X151993600Y-104571800D01*
D11*
X143256000Y-112776000D02*
X145288000Y-112776000D01*
X144272000Y-111760000D02*
X144272000Y-113792000D01*
X144780000Y-112268000D02*
X144780000Y-111252000D01*
X145796000Y-112268000D02*
X144780000Y-112268000D01*
X145796000Y-113284000D02*
X145796000Y-112268000D01*
X144780000Y-113284000D02*
X145796000Y-113284000D01*
X144780000Y-114300000D02*
X144780000Y-113284000D01*
X143764000Y-114300000D02*
X144780000Y-114300000D01*
X143764000Y-113284000D02*
X143764000Y-114300000D01*
X142748000Y-113284000D02*
X143764000Y-113284000D01*
X142748000Y-112268000D02*
X142748000Y-113284000D01*
X143764000Y-112268000D02*
X142748000Y-112268000D01*
X143764000Y-111252000D02*
X143764000Y-112268000D01*
X144780000Y-111252000D02*
X143764000Y-111252000D01*
X147269200Y-118745000D02*
X145465800Y-118745000D01*
X147269200Y-116484400D02*
X147269200Y-118745000D01*
X146710400Y-116484400D02*
X147269200Y-116484400D01*
X146710400Y-118262400D02*
X146710400Y-116484400D01*
X145465800Y-118262400D02*
X146710400Y-118262400D01*
X145465800Y-118745000D02*
X145465800Y-118262400D01*
X149883756Y-118411571D02*
X149743196Y-118378678D01*
X150644643Y-116832802D02*
X150530233Y-116694785D01*
X149607676Y-116521146D02*
X149395403Y-116588624D01*
X150159669Y-116521146D02*
X149883660Y-116498637D01*
X149395403Y-116588624D02*
X149237087Y-116694785D01*
X150371819Y-116588624D02*
X150159669Y-116521146D01*
X149404293Y-118719461D02*
X149614354Y-118785296D01*
X150530233Y-116694785D02*
X150371819Y-116588624D01*
X150638025Y-118475282D02*
X150761299Y-118101605D01*
X150522183Y-118614336D02*
X150638025Y-118475282D01*
X149237087Y-116694785D02*
X149122776Y-116832802D01*
X150125762Y-117067997D02*
X150163199Y-117285505D01*
X149883756Y-118807274D02*
X149883756Y-118807274D01*
X151955914Y-115587893D02*
X151291831Y-115587893D01*
X149006317Y-118101605D02*
X149129395Y-118475282D01*
X148478653Y-118763415D02*
X148478653Y-116115868D01*
X150039924Y-116938005D02*
X150125762Y-117067997D01*
X147814458Y-118763415D02*
X148478653Y-118763415D01*
X147814458Y-116115868D02*
X147814458Y-118763415D01*
X147075504Y-116115868D02*
X147814458Y-116115868D01*
X147075504Y-115587893D02*
X147075504Y-116115868D01*
X150789747Y-117624212D02*
X150763472Y-117190971D01*
X149883756Y-118411571D02*
X149883756Y-118411571D01*
X149883660Y-116498637D02*
X149607676Y-116521146D01*
X150112526Y-118255601D02*
X150026786Y-118378678D01*
X150169520Y-117589049D02*
X150156580Y-118004705D01*
X150761299Y-118101605D02*
X150789747Y-117624212D01*
X149729959Y-116938005D02*
X149883855Y-116894345D01*
X149604314Y-117285505D02*
X149641751Y-117067997D01*
X148977573Y-117624212D02*
X149006317Y-118101605D01*
X151291831Y-118763415D02*
X151955914Y-118763415D01*
X151955914Y-118763415D02*
X151955914Y-115587893D01*
X149245508Y-118614336D02*
X149404293Y-118719461D01*
X150763472Y-117190971D02*
X150644643Y-116832802D01*
X149122776Y-116832802D02*
X149004144Y-117190971D01*
X150363225Y-118719461D02*
X150522183Y-118614336D01*
X151955914Y-118763415D02*
X151955914Y-118763415D01*
X150156580Y-118004705D02*
X150112526Y-118255601D01*
X149004144Y-117190971D02*
X148977573Y-117624212D01*
X150163199Y-117285505D02*
X150169520Y-117589049D01*
X150026786Y-118378678D02*
X149883756Y-118411571D01*
X149743196Y-118378678D02*
X149655086Y-118255601D01*
X149883756Y-118807274D02*
X150153197Y-118785296D01*
X149883855Y-116894345D02*
X150039924Y-116938005D01*
X149129395Y-118475282D02*
X149245508Y-118614336D01*
X150153197Y-118785296D02*
X150363225Y-118719461D01*
X151291831Y-115587893D02*
X151291831Y-118763415D01*
X149655086Y-118255601D02*
X149611031Y-118004705D01*
X149597993Y-117589049D02*
X149604314Y-117285505D01*
X149614354Y-118785296D02*
X149883756Y-118807274D01*
X149641751Y-117067997D02*
X149729959Y-116938005D01*
X149611031Y-118004705D02*
X149597993Y-117589049D01*
X135401743Y-116327058D02*
X135401743Y-116543288D01*
X136412368Y-116327058D02*
X135401743Y-116327058D01*
X137312509Y-116321136D02*
X137087197Y-116291701D01*
X137063396Y-116478589D02*
X137105575Y-116474934D01*
X136950703Y-117824336D02*
X136873064Y-117718545D01*
X136440718Y-117779688D02*
X135617900Y-116519681D01*
X136240889Y-117836090D02*
X135382598Y-117836090D01*
X136412368Y-116515043D02*
X136412368Y-116327058D01*
X135617868Y-116515043D02*
X136412368Y-116515043D01*
X135617900Y-116519681D02*
X135617868Y-116515043D01*
X136920057Y-118039477D02*
X137021107Y-118056960D01*
X137484184Y-116421100D02*
X137312509Y-116321136D01*
X137269138Y-118046490D02*
X137443184Y-117970036D01*
X137039702Y-117868983D02*
X136950703Y-117824336D01*
X138175423Y-117297850D02*
X138175423Y-117053375D01*
X137632153Y-116907481D02*
X137593433Y-116610259D01*
X136810513Y-117992360D02*
X136920057Y-118039477D01*
X136641504Y-117749169D02*
X136712031Y-117900793D01*
X137954083Y-117053375D02*
X137954083Y-117297850D01*
X137362001Y-116606605D02*
X137372669Y-116629028D01*
X137443184Y-117970036D02*
X137578411Y-117770307D01*
X135401673Y-116543288D02*
X136240889Y-117836090D01*
X136616908Y-117523264D02*
X136641504Y-117749169D01*
X136840368Y-117523261D02*
X136616908Y-117523264D01*
X136873064Y-117718545D02*
X136840368Y-117523261D01*
X137323194Y-117801913D02*
X137226984Y-117864341D01*
X137344320Y-116576083D02*
X137362001Y-116606605D01*
X136866039Y-116794875D02*
X136872953Y-116654907D01*
X136440718Y-118024163D02*
X136440718Y-117779688D01*
X135382598Y-118024163D02*
X136440718Y-118024163D01*
X137411292Y-116959241D02*
X137411303Y-117412926D01*
X135382598Y-117836090D02*
X135382598Y-118024163D01*
X137411303Y-117412926D02*
X137387597Y-117661056D01*
X137954083Y-117297850D02*
X137954083Y-117297850D01*
X136866039Y-116794777D02*
X136866039Y-116794875D01*
X136872195Y-116323754D02*
X136730907Y-116419816D01*
X137021107Y-118056960D02*
X137096277Y-118059430D01*
X137105575Y-116474934D02*
X137221243Y-116492615D01*
X136656688Y-116577625D02*
X136642995Y-116794774D01*
X136730907Y-116419816D02*
X136656688Y-116577625D01*
X137593433Y-116610259D02*
X137484184Y-116421100D01*
X137954083Y-117297850D02*
X138175423Y-117297850D01*
X137389067Y-116680787D02*
X137404377Y-116784108D01*
X137108155Y-117878367D02*
X137039702Y-117868983D01*
X137298685Y-116532620D02*
X137344320Y-116576083D01*
X137226984Y-117864341D02*
X137108155Y-117878367D01*
X137387597Y-117661056D02*
X137323194Y-117801913D01*
X138175423Y-117053375D02*
X137954083Y-117053375D01*
X137221243Y-116492615D02*
X137298685Y-116532620D01*
X137010550Y-116491430D02*
X137063396Y-116478589D01*
X136642995Y-116794774D02*
X136866039Y-116794777D01*
X137632146Y-117387246D02*
X137632153Y-116907481D01*
X137087197Y-116291701D02*
X136872195Y-116323754D01*
X137096277Y-118059430D02*
X137269138Y-118046490D01*
X137578411Y-117770307D02*
X137632146Y-117387246D01*
X136915427Y-116547832D02*
X136957605Y-116513853D01*
X136712031Y-117900793D02*
X136810513Y-117992360D01*
X137404377Y-116784108D02*
X137411292Y-116959241D01*
X137372669Y-116629028D02*
X137389067Y-116680787D01*
X136957605Y-116513853D02*
X137010550Y-116491430D01*
X139578853Y-116327163D02*
X139578853Y-116327163D01*
X136872953Y-116654907D02*
X136915427Y-116547832D01*
X135401743Y-116543288D02*
X135401673Y-116543288D01*
X140215592Y-117824336D02*
X140138150Y-117718545D01*
X139280657Y-118021594D02*
X139446814Y-117907802D01*
X139181487Y-117858516D02*
X139045075Y-117878469D01*
X140708306Y-117970036D02*
X140843236Y-117770307D01*
X140373340Y-117878367D02*
X140305183Y-117868983D01*
X138727793Y-116327163D02*
X138511388Y-116327163D01*
X139045075Y-117878469D02*
X138908663Y-117858516D01*
X139578880Y-117403641D02*
X139578853Y-116327163D01*
X139341310Y-117642192D02*
X139280068Y-117785716D01*
X138908663Y-117858516D02*
X138809885Y-117785716D01*
X139545777Y-117705987D02*
X139578880Y-117403641D01*
X138643158Y-117907802D02*
X138809487Y-118021594D01*
X139446814Y-117907802D02*
X139545777Y-117705987D01*
X139045084Y-118059525D02*
X139280657Y-118021594D01*
X139280068Y-117785716D02*
X139181487Y-117858516D01*
X139578853Y-116327163D02*
X139362448Y-116327163D01*
X140105258Y-117523261D02*
X139882128Y-117523264D01*
X139995892Y-116419816D02*
X139921451Y-116577625D01*
X140361497Y-118059430D02*
X140534358Y-118046490D01*
X140609515Y-116576083D02*
X140627098Y-116606605D01*
X140138150Y-117718545D02*
X140105258Y-117523261D01*
X140137256Y-116323754D02*
X139995892Y-116419816D01*
X139977153Y-117900793D02*
X140075733Y-117992360D01*
X140305183Y-117868983D02*
X140215592Y-117824336D01*
X140749271Y-116421100D02*
X140577595Y-116321136D01*
X139882128Y-117523264D02*
X139906625Y-117749169D01*
X140858222Y-116610259D02*
X140749271Y-116421100D01*
X140534358Y-118046490D02*
X140708306Y-117970036D01*
X140588082Y-117801913D02*
X140491774Y-117864341D01*
X140222800Y-116513853D02*
X140275646Y-116491430D01*
X140286031Y-118056960D02*
X140361497Y-118059430D01*
X140653078Y-117661056D02*
X140588082Y-117801913D01*
X140328493Y-116478589D02*
X140370769Y-116474934D01*
X138511388Y-117403641D02*
X138544306Y-117705987D01*
X138809885Y-117785716D02*
X138748841Y-117642192D01*
X140370769Y-116474934D02*
X140486043Y-116492615D01*
X138511388Y-116327163D02*
X138511388Y-117403641D01*
X138727801Y-117413028D02*
X138727793Y-116327163D01*
X139362448Y-117413028D02*
X139341310Y-117642192D01*
X140563485Y-116532620D02*
X140609515Y-116576083D01*
X139907684Y-116794774D02*
X140130838Y-116794777D01*
X140351888Y-116291701D02*
X140137256Y-116323754D01*
X140577595Y-116321136D02*
X140351888Y-116291701D01*
X140897366Y-117387246D02*
X140897338Y-116907481D01*
X140185179Y-118039477D02*
X140286031Y-118056960D01*
X140676488Y-117412926D02*
X140653078Y-117661056D01*
X140275646Y-116491430D02*
X140328493Y-116478589D01*
X140486043Y-116492615D02*
X140563485Y-116532620D01*
X140669275Y-116784108D02*
X140676486Y-116959241D01*
X139362448Y-116327163D02*
X139362448Y-117413028D01*
X140897338Y-116907481D02*
X140858222Y-116610259D01*
X140637766Y-116629028D02*
X140653965Y-116680787D01*
X138809487Y-118021594D02*
X139045084Y-118059525D01*
X138544306Y-117705987D02*
X138643158Y-117907802D01*
X140676486Y-116959241D02*
X140676488Y-117412926D01*
X140627098Y-116606605D02*
X140637766Y-116629028D01*
X138748841Y-117642192D02*
X138727801Y-117413028D01*
X140130838Y-116794777D02*
X140130838Y-116794875D01*
X140491774Y-117864341D02*
X140373340Y-117878367D01*
X140075733Y-117992360D02*
X140185179Y-118039477D01*
X139906625Y-117749169D02*
X139977153Y-117900793D01*
X140653965Y-116680787D02*
X140669275Y-116784108D01*
X139921451Y-116577625D02*
X139907684Y-116794774D01*
X140843236Y-117770307D02*
X140897366Y-117387246D01*
X143685175Y-118084419D02*
X143810721Y-118218164D01*
X143632625Y-117867405D02*
X143685175Y-118084419D01*
X141365253Y-116515043D02*
X142159718Y-116515043D01*
X143353563Y-118644982D02*
X143159563Y-118499878D01*
X143949093Y-118763713D02*
X143780085Y-118757391D01*
X144016573Y-116885651D02*
X144016573Y-117512694D01*
X142394638Y-117053375D02*
X142394638Y-117297850D01*
X141129983Y-117836090D02*
X141129983Y-118024163D01*
X144459393Y-118275554D02*
X144459393Y-117897137D01*
X142159718Y-116327058D02*
X141149128Y-116327058D01*
X142187788Y-118024163D02*
X142187788Y-117779688D01*
X142615978Y-117297850D02*
X142615978Y-117053375D01*
X143780085Y-118757391D02*
X143571170Y-118724004D01*
X145123868Y-118763713D02*
X143949093Y-118763713D01*
X143656220Y-117718831D02*
X143632625Y-117867405D01*
X143667789Y-116481056D02*
X143700584Y-116674463D01*
X142994713Y-117624113D02*
X142994713Y-117624113D01*
X144014894Y-116885650D02*
X144016573Y-116885651D01*
X144089867Y-118275554D02*
X144459393Y-118275554D01*
X141365267Y-116519681D02*
X141365253Y-116515043D01*
X142187788Y-117779688D02*
X141365267Y-116519681D01*
X141129983Y-118024163D02*
X142187788Y-118024163D01*
X143694632Y-116320469D02*
X143667789Y-116481056D01*
X143841305Y-117540623D02*
X143727155Y-117615818D01*
X142394638Y-117297850D02*
X142394638Y-117297850D01*
X143810721Y-118218164D02*
X143959974Y-118269035D01*
X144016573Y-117512694D02*
X143841305Y-117540623D01*
X142615978Y-117053375D02*
X142394638Y-117053375D01*
X142968428Y-117923806D02*
X142994713Y-117624113D01*
X142394638Y-117297850D02*
X142615978Y-117297850D01*
X144016573Y-115587893D02*
X144016573Y-116077648D01*
X143571170Y-118724004D02*
X143353563Y-118644982D01*
X144459393Y-117897137D02*
X145123868Y-117897137D01*
X143727155Y-117615818D02*
X143656220Y-117718831D01*
X142159718Y-116515043D02*
X142159718Y-116327058D01*
X143775260Y-116190848D02*
X143694632Y-116320469D01*
X140180326Y-116547832D02*
X140222800Y-116513853D01*
X140138049Y-116654907D02*
X140180326Y-116547832D01*
X143159563Y-118499878D02*
X143021571Y-118266565D01*
X144016573Y-116077648D02*
X143775260Y-116190848D01*
X141988239Y-117836090D02*
X141129983Y-117836090D01*
X141149023Y-116543288D02*
X141988239Y-117836090D01*
X143021571Y-118266565D02*
X142968428Y-117923806D01*
X143700584Y-116674463D02*
X143786619Y-116799614D01*
X143786619Y-116799614D02*
X143900707Y-116865993D01*
X140130838Y-116794875D02*
X140138049Y-116654907D01*
X145123868Y-117897137D02*
X145123868Y-118763713D01*
X141149128Y-116543288D02*
X141149023Y-116543288D01*
X143900707Y-116865993D02*
X144014894Y-116885650D01*
X141149128Y-116327058D02*
X141149128Y-116543288D01*
X143959974Y-118269035D02*
X144089867Y-118275554D01*
X143021587Y-116410431D02*
X143093596Y-115994970D01*
X143324081Y-117023853D02*
X143155332Y-116872217D01*
X145567764Y-115863022D02*
X146184543Y-115862993D01*
X143291942Y-115743976D02*
X143586200Y-115620800D01*
X145919028Y-117454315D02*
X146104433Y-117299925D01*
X145076339Y-116377143D02*
X145293057Y-116385935D01*
X144488433Y-115630372D02*
X144459392Y-115920779D01*
X143093596Y-115994970D02*
X143291942Y-115743976D01*
X143054863Y-116664327D02*
X143021587Y-116410431D01*
X143155332Y-116872217D02*
X143054863Y-116664327D01*
X145505447Y-116035077D02*
X145076456Y-116023817D01*
X142994713Y-117624113D02*
X143089244Y-117382503D01*
X145093723Y-116842090D02*
X145073671Y-116598307D01*
X145083062Y-115717621D02*
X145116448Y-115612423D01*
X145639585Y-117512594D02*
X145919028Y-117454315D01*
X145560948Y-115733031D02*
X145567764Y-115863022D01*
X145183216Y-117040633D02*
X145093723Y-116842090D01*
X146213780Y-116542263D02*
X146139993Y-116354524D01*
X145878628Y-116124175D02*
X145505447Y-116035077D01*
X145460689Y-115547625D02*
X145531908Y-115623684D01*
X145116448Y-115612423D02*
X145194681Y-115543180D01*
X143562092Y-117118371D02*
X143562098Y-117109777D01*
X145076339Y-116377143D02*
X145076339Y-116377143D01*
X144611312Y-115388959D02*
X144488433Y-115630372D01*
X146238376Y-116792899D02*
X146213780Y-116542263D01*
X146104433Y-117299925D02*
X146207064Y-117072341D01*
X145040204Y-117168355D02*
X145049388Y-117168353D01*
X146207064Y-117072341D02*
X146238376Y-116792899D01*
X145621196Y-116765933D02*
X145614875Y-116891084D01*
X144459393Y-117512200D02*
X145123868Y-117512200D01*
X149217608Y-115587893D02*
X147075504Y-115587893D01*
X145073671Y-116598307D02*
X145076339Y-116377143D01*
X145583562Y-117005073D02*
X145512146Y-117090121D01*
X147075504Y-115587893D02*
X147075504Y-115587893D01*
X144459392Y-115920779D02*
X144459393Y-117512200D01*
X146124585Y-115523198D02*
X145952317Y-115312999D01*
X145076456Y-116023817D02*
X145076443Y-115849588D01*
X145293057Y-116385935D02*
X145467004Y-116424063D01*
X145389266Y-117123508D02*
X145183216Y-117040633D01*
X145123868Y-117512200D02*
X145123868Y-117512298D01*
X145512146Y-117090121D02*
X145389266Y-117123508D01*
X145952317Y-115312999D02*
X145695199Y-115199109D01*
X148478653Y-116115868D02*
X149217608Y-116115868D01*
X145695199Y-115199109D02*
X145362318Y-115165623D01*
X145293073Y-117427447D02*
X145639585Y-117512594D01*
X145049388Y-117168353D02*
X145293073Y-117427447D01*
X145123868Y-117512298D02*
X145040204Y-117168355D01*
X145467004Y-116424063D02*
X145581290Y-116535781D01*
X145531908Y-115623684D02*
X145560948Y-115733031D01*
X144883840Y-115225976D02*
X144611312Y-115388959D01*
X145581290Y-116535781D02*
X145621196Y-116765933D01*
X145331093Y-115518486D02*
X145460689Y-115547625D01*
X145362318Y-115165623D02*
X144883840Y-115225976D01*
X145076443Y-115849588D02*
X145083062Y-115717621D01*
X143089244Y-117382503D02*
X143271883Y-117210728D01*
X145194681Y-115543180D02*
X145331093Y-115518486D01*
X145614875Y-116891084D02*
X145583562Y-117005073D01*
X149217608Y-116115868D02*
X149217608Y-115587893D01*
X146184543Y-115862993D02*
X146124585Y-115523198D01*
X143562098Y-117109777D02*
X143324081Y-117023853D01*
X143271883Y-117210728D02*
X143562092Y-117118371D01*
X146139993Y-116354524D02*
X145878628Y-116124175D01*
X143944863Y-115587907D02*
X144016573Y-115587893D01*
X143586200Y-115620800D02*
X143944863Y-115587907D01*
D12*
X137370470Y-105630887D02*
X137357488Y-105743776D01*
X143433465Y-105193269D02*
X143334256Y-105432166D01*
X143334256Y-105432166D02*
X143271573Y-105690906D01*
X142730491Y-106304365D02*
X142677939Y-105965036D01*
X143239093Y-106136262D02*
X143197857Y-106304271D01*
X137858714Y-104742454D02*
X137858722Y-104739064D01*
X137791545Y-104796076D02*
X137858714Y-104742454D01*
X142020477Y-104667495D02*
X141818226Y-104580969D01*
X137606408Y-105008306D02*
X137791545Y-104796076D01*
X137491106Y-105215635D02*
X137606408Y-105008306D01*
X144326684Y-105059109D02*
X144326681Y-104551104D01*
X137411110Y-105438976D02*
X137491106Y-105215635D01*
X137360875Y-105735309D02*
X137370470Y-105630887D01*
X137357488Y-105743776D02*
X137354101Y-105836344D01*
X137354101Y-105836344D02*
X137360875Y-105735309D01*
X137360875Y-105735309D02*
X137370470Y-105630887D01*
X142494196Y-105192292D02*
X142362768Y-104980294D01*
X143907185Y-104668403D02*
X143724235Y-104804112D01*
X142677939Y-105965036D02*
X142656088Y-105691800D01*
X143127379Y-106462260D02*
X143029023Y-106606244D01*
X142656088Y-105691800D02*
X142593405Y-105431840D01*
X144212456Y-105079272D02*
X144326684Y-105059109D01*
X137394177Y-105512918D02*
X137411110Y-105438976D01*
X137354101Y-105836344D02*
X137360875Y-105735309D01*
X142203426Y-104802982D02*
X142020477Y-104667495D01*
X137354101Y-105869644D02*
X137354101Y-105836344D01*
X143271573Y-105690906D02*
X143249721Y-105962214D01*
X144109436Y-104581642D02*
X143907185Y-104668403D01*
X144326681Y-104551104D02*
X144109436Y-104581642D01*
X139257133Y-105016492D02*
X139261923Y-105018476D01*
X139255149Y-105011702D02*
X139257133Y-105016492D01*
X143249721Y-105962214D02*
X143239093Y-106136262D01*
X139091619Y-104813944D02*
X139255149Y-105011702D01*
X142593405Y-105431840D02*
X142494196Y-105192292D01*
X137373857Y-105617340D02*
X137380630Y-105573878D01*
X138431062Y-104537004D02*
X138675236Y-104569980D01*
X141600979Y-104550540D02*
X141600981Y-104550544D01*
X138128119Y-104590527D02*
X138431062Y-104537004D01*
X137380630Y-105573878D02*
X137394177Y-105512918D01*
X142894121Y-106606244D02*
X142730491Y-106304365D01*
X138896868Y-104664498D02*
X139091619Y-104813944D01*
X138675236Y-104569980D02*
X138896868Y-104664498D01*
X143029023Y-106606244D02*
X142961572Y-106635946D01*
X141818226Y-104580969D02*
X141600979Y-104550540D01*
X142362768Y-104980294D02*
X142203426Y-104802982D01*
X142961572Y-106635946D02*
X142894121Y-106606244D01*
X143197857Y-106304271D02*
X143127379Y-106462260D01*
X137858722Y-104739064D02*
X138128119Y-104590527D01*
X143724235Y-104804112D02*
X143564893Y-104981493D01*
X137370470Y-105630887D02*
X137373857Y-105617340D01*
X143564893Y-104981493D02*
X143433465Y-105193269D01*
X137354101Y-105836344D02*
X137354101Y-105836344D01*
X140490288Y-104778728D02*
X140330982Y-104941704D01*
X142311687Y-106614575D02*
X142471134Y-106878753D01*
X142004136Y-105340767D02*
X142127396Y-105630044D01*
X135874763Y-106453920D02*
X135750648Y-106191586D01*
X140978453Y-105075466D02*
X141092987Y-105058552D01*
X136163579Y-106680188D02*
X136056982Y-106631693D01*
X140016021Y-107205684D02*
X140520641Y-107205684D01*
X135682961Y-105603912D02*
X135620288Y-105353819D01*
X135218920Y-106140409D02*
X135282268Y-106390262D01*
X135704795Y-105872472D02*
X135682961Y-105603912D01*
X135521023Y-105127539D02*
X135389412Y-104930416D01*
X141600981Y-105058544D02*
X141715330Y-105078829D01*
X140673247Y-104655584D02*
X140490288Y-104778728D01*
X135196807Y-105872472D02*
X135218920Y-106140409D01*
X140875574Y-104577711D02*
X140673247Y-104655584D01*
X140520641Y-107205684D02*
X140520641Y-105883204D01*
X144105862Y-105136279D02*
X144212456Y-105079272D01*
X143617388Y-106612318D02*
X143720973Y-106302632D01*
X140566017Y-105563852D02*
X140689340Y-105301545D01*
X140871399Y-105123904D02*
X140978453Y-105075466D01*
X135674876Y-106976942D02*
X135858318Y-107100085D01*
X135151431Y-105553447D02*
X135196807Y-105872472D01*
X136060572Y-107177958D02*
X136277153Y-107205124D01*
X140016021Y-105883204D02*
X140016021Y-107205684D01*
X143249724Y-107083205D02*
X143456971Y-106876495D01*
X141822243Y-105136156D02*
X142004136Y-105340767D01*
X135229703Y-104767794D02*
X135046142Y-104645018D01*
X135620288Y-105353819D02*
X135521023Y-105127539D01*
X136277153Y-107205124D02*
X136277141Y-106697124D01*
X140689340Y-105301545D02*
X140871399Y-105123904D01*
X140520641Y-105883204D02*
X140566017Y-105563852D01*
X136277141Y-106697124D02*
X136163579Y-106680188D01*
X135750648Y-106191586D02*
X135704795Y-105872472D01*
X143456971Y-106876495D02*
X143617388Y-106612318D01*
X135858318Y-107100085D02*
X136060572Y-107177958D01*
X136056982Y-106631693D02*
X135874763Y-106453920D01*
X142962421Y-107207498D02*
X143145301Y-107157147D01*
X134624449Y-104540384D02*
X134624461Y-104540384D01*
X143924940Y-105339919D02*
X144105862Y-105136279D01*
X140016021Y-105883196D02*
X140016021Y-105883204D01*
X143802650Y-105628226D02*
X143924940Y-105339919D01*
X143757724Y-105959397D02*
X143802650Y-105628226D01*
X142172763Y-105961654D02*
X142209073Y-106304890D01*
X140100477Y-105365408D02*
X140037850Y-105615260D01*
X135514731Y-106813965D02*
X135674876Y-106976942D01*
X135046142Y-104645018D02*
X134842975Y-104567434D01*
X143720973Y-106302632D02*
X143757724Y-105959397D01*
X143145301Y-107157147D02*
X143249724Y-107083205D01*
X134842975Y-104567434D02*
X134624449Y-104540384D01*
X142127396Y-105630044D02*
X142172763Y-105961654D01*
X141600981Y-104550544D02*
X141600981Y-105058544D01*
X142209073Y-106304890D02*
X142311687Y-106614575D01*
X135389412Y-104930416D02*
X135229703Y-104767794D01*
X135382366Y-106616593D02*
X135514731Y-106813965D01*
X142779541Y-107157147D02*
X142962421Y-107207498D01*
X142677941Y-107085462D02*
X142779541Y-107157147D01*
X140037850Y-105615260D02*
X140016021Y-105883196D01*
X140199616Y-105139077D02*
X140100477Y-105365408D01*
X142471134Y-106878753D02*
X142677941Y-107085462D01*
X141092981Y-104550544D02*
X140875574Y-104577711D01*
X141715330Y-105078829D02*
X141822243Y-105136156D01*
X135282268Y-106390262D02*
X135382366Y-106616593D01*
X141092987Y-105058552D02*
X141092981Y-104550544D01*
X140330982Y-104941704D02*
X140199616Y-105139077D01*
X135112706Y-110001380D02*
X135357674Y-110024522D01*
X146736301Y-105002108D02*
X146571890Y-104802392D01*
X146903068Y-104802392D02*
X146736301Y-105002108D01*
X145690381Y-105097280D02*
X145797295Y-105048906D01*
X135475503Y-109692912D02*
X135252123Y-109738350D01*
X135471166Y-109207748D02*
X135507805Y-109290746D01*
X147101003Y-104651942D02*
X146903068Y-104802392D01*
X147564327Y-105032016D02*
X147564341Y-104524024D01*
X146315080Y-105274939D02*
X146438534Y-105537079D01*
X135047217Y-109252364D02*
X135091808Y-109132702D01*
X135748834Y-109902038D02*
X135748821Y-109902038D01*
X134905556Y-109944936D02*
X135112706Y-110001380D01*
X135044973Y-109719159D02*
X134854756Y-109666665D01*
X135357674Y-110024522D02*
X135564326Y-109998639D01*
X135028109Y-105291307D02*
X135151431Y-105553447D01*
X144834689Y-105856112D02*
X144834681Y-105856104D01*
X146483981Y-107185365D02*
X146991981Y-107185365D01*
X144919224Y-105338570D02*
X144856541Y-105588339D01*
X135410416Y-109143704D02*
X135471166Y-109207748D01*
X145911643Y-105032016D02*
X146026016Y-105048929D01*
X135507805Y-109290746D02*
X135047217Y-109290746D01*
X134846050Y-105113728D02*
X135028109Y-105291307D01*
X145797295Y-105048906D02*
X145911643Y-105032016D01*
X134738996Y-105065297D02*
X134846050Y-105113728D01*
X144856541Y-105588339D02*
X144834689Y-105856112D01*
X146026016Y-105048929D02*
X146132994Y-105097360D01*
X146438534Y-105537079D02*
X146483989Y-105856104D01*
X135532952Y-109635956D02*
X135475503Y-109692912D01*
X145018433Y-105112270D02*
X144919224Y-105338570D01*
X147344168Y-105097280D02*
X147450765Y-105048906D01*
X145508489Y-105274727D02*
X145690381Y-105097280D01*
X144834681Y-107185365D02*
X145339862Y-107185365D01*
X145339862Y-107185365D02*
X145339862Y-105856104D01*
X145149861Y-104914902D02*
X145018433Y-105112270D01*
X135252123Y-109738350D02*
X135044973Y-109719159D01*
X145309203Y-104751930D02*
X145149861Y-104914902D01*
X134854756Y-109666665D02*
X134905556Y-109944936D01*
X135331896Y-109103369D02*
X135410416Y-109143704D01*
X146991981Y-105856104D02*
X147037834Y-105536840D01*
X144834681Y-105856104D02*
X144834681Y-107185365D01*
X135047217Y-109290746D02*
X135047217Y-109252364D01*
X147564341Y-104524024D02*
X147323597Y-104557053D01*
X147323597Y-104557053D02*
X147101003Y-104651942D01*
X145339862Y-105856104D02*
X145385229Y-105536840D01*
X134624461Y-104540384D02*
X134624461Y-105048384D01*
X134745803Y-109556032D02*
X135554101Y-109556034D01*
X135564326Y-109998639D02*
X135748834Y-109902038D01*
X145385229Y-105536840D02*
X145508489Y-105274727D01*
X145694404Y-104551027D02*
X145492153Y-104628817D01*
X147450765Y-105048906D02*
X147564327Y-105032016D01*
X145492153Y-104628817D02*
X145309203Y-104751930D01*
X146132994Y-105097360D02*
X146315080Y-105274939D01*
X134624461Y-105048384D02*
X134738996Y-105065297D01*
X145911649Y-104524024D02*
X145694404Y-104551027D01*
X135091808Y-109132702D02*
X135241951Y-109091498D01*
X146153531Y-104557053D02*
X145911649Y-104524024D01*
X146375622Y-104651941D02*
X146153531Y-104557053D01*
X147161949Y-105274727D02*
X147344168Y-105097280D01*
X135241951Y-109091498D02*
X135331896Y-109103369D01*
X146571890Y-104802392D02*
X146375622Y-104651941D01*
X147037834Y-105536840D02*
X147161949Y-105274727D01*
X146483989Y-105856104D02*
X146483981Y-107185365D01*
X135554101Y-109556034D02*
X135532952Y-109635956D01*
X146991981Y-107185365D02*
X146991981Y-105856104D01*
X136754661Y-108836924D02*
X136971971Y-109989519D01*
X136295770Y-109601189D02*
X136270370Y-109675695D01*
X137738957Y-109587714D02*
X137699693Y-109648321D01*
X136093701Y-108490924D02*
X136156919Y-108836364D01*
X136528881Y-108836364D02*
X136465099Y-108490924D01*
X137216388Y-109312760D02*
X137286944Y-109179551D01*
X137129461Y-108836932D02*
X136754661Y-108836924D01*
X137871949Y-109998466D02*
X138018455Y-109900909D01*
X134715888Y-109400245D02*
X134745803Y-109556032D01*
X134703470Y-109277761D02*
X134715888Y-109400245D01*
X134716784Y-109152939D02*
X134703470Y-109277761D01*
X135881466Y-109418309D02*
X135802693Y-109173791D01*
X136465099Y-108490924D02*
X136093701Y-108490924D01*
X137542637Y-109697146D02*
X137375561Y-109649732D01*
X137330961Y-109989526D02*
X137309513Y-109876638D01*
X136971971Y-109989519D02*
X137330961Y-109989526D01*
X134759914Y-109035051D02*
X134716784Y-109152939D01*
X134830268Y-108938651D02*
X134759914Y-109035051D01*
X134924732Y-108865718D02*
X134830268Y-108938651D01*
X136217877Y-110012669D02*
X136374228Y-110026216D01*
X136726441Y-109129314D02*
X136669997Y-108836368D01*
X136583066Y-109129313D02*
X136726441Y-109129314D01*
X135650608Y-108966753D02*
X135430197Y-108839404D01*
X137286944Y-109179551D02*
X137429748Y-109129880D01*
X137698415Y-110027909D02*
X137871949Y-109998466D01*
X135802693Y-109173791D02*
X135650608Y-108966753D01*
X135047334Y-108817872D02*
X134924732Y-108865718D01*
X136213361Y-109129314D02*
X136287304Y-109524424D01*
X137537519Y-109147876D02*
X137630690Y-109204951D01*
X137634253Y-109684799D02*
X137542637Y-109697146D01*
X137630690Y-109204951D02*
X137704465Y-109300005D01*
X137699693Y-109648321D02*
X137634253Y-109684799D01*
X135430197Y-108839404D02*
X135178168Y-108803629D01*
X137489732Y-109988862D02*
X137698415Y-110027909D01*
X136156919Y-108836364D02*
X135924361Y-108836364D01*
X135178168Y-108803629D02*
X135047334Y-108817872D01*
X135894448Y-109554904D02*
X135881466Y-109418309D01*
X135861571Y-109745225D02*
X135894448Y-109554904D01*
X135748821Y-109902038D02*
X135861571Y-109745225D01*
X136664339Y-109836032D02*
X136680150Y-109712948D01*
X136602828Y-109943807D02*
X136602821Y-109943806D01*
X137254206Y-109516524D02*
X137216388Y-109312760D01*
X137148088Y-108930630D02*
X137129461Y-108836932D01*
X136497130Y-110008874D02*
X136602828Y-109943807D01*
X136093135Y-109970900D02*
X136217877Y-110012669D01*
X136667732Y-109580869D02*
X136583066Y-109129313D01*
X137429748Y-109129880D02*
X137537519Y-109147876D01*
X136374228Y-110026216D02*
X136497130Y-110008874D01*
X136287304Y-109524424D02*
X136295770Y-109601189D01*
X137309513Y-109876638D02*
X137489732Y-109988862D01*
X136033868Y-109656504D02*
X136093135Y-109970900D01*
X136270370Y-109675695D02*
X136186268Y-109699402D01*
X135980806Y-109129310D02*
X136213361Y-109129314D01*
X136669997Y-108836368D02*
X136528881Y-108836364D01*
X136680150Y-109712948D02*
X136667732Y-109580869D01*
X137375561Y-109649732D02*
X137375561Y-109649732D01*
X135924361Y-108836364D02*
X135980806Y-109129310D01*
X136602821Y-109943806D02*
X136664339Y-109836032D01*
X137752045Y-109502977D02*
X137738957Y-109587714D01*
X137743579Y-109413795D02*
X137752045Y-109502977D01*
X137375561Y-109649732D02*
X137254206Y-109516524D01*
X138018455Y-109900909D02*
X138018461Y-109900908D01*
X136186268Y-109699402D02*
X136033868Y-109656504D01*
X137704465Y-109300005D02*
X137743579Y-109413795D01*
X138910849Y-110022264D02*
X139117301Y-109997521D01*
X139060424Y-109290744D02*
X138600401Y-109290744D01*
X138805299Y-109736092D02*
X138598713Y-109716901D01*
X139414751Y-109745225D02*
X139447628Y-109554904D01*
X138255522Y-109275503D02*
X138268504Y-109397987D01*
X140411141Y-109989526D02*
X140197781Y-108836924D01*
X141039919Y-110025085D02*
X141234115Y-109999034D01*
X139356148Y-109173749D02*
X139203788Y-108966753D01*
X139838781Y-108836924D02*
X139863621Y-108979172D01*
X139435210Y-109418309D02*
X139356148Y-109173749D01*
X138983154Y-108837819D02*
X138730220Y-108801371D01*
X138884516Y-109103368D02*
X138963035Y-109143702D01*
X138665881Y-109999122D02*
X138910849Y-110022264D01*
X140197781Y-108836924D02*
X139838781Y-108836924D01*
X138458731Y-109942678D02*
X138665881Y-109999122D01*
X138268504Y-109397987D02*
X138297855Y-109553774D01*
X137281296Y-108834675D02*
X137148088Y-108930630D01*
X137469256Y-108801373D02*
X137281296Y-108834675D01*
X139107841Y-109553776D02*
X139086445Y-109633698D01*
X139028960Y-109690654D02*
X138805299Y-109736092D01*
X139489959Y-109142296D02*
X139745653Y-109188016D01*
X141406243Y-109905423D02*
X141406241Y-109905425D01*
X139841768Y-109242121D02*
X139914986Y-109324611D01*
X138268837Y-109150681D02*
X138255522Y-109275503D01*
X139023786Y-109207746D02*
X139060424Y-109290744D01*
X139086445Y-109633698D02*
X139028960Y-109690654D01*
X138599386Y-108815615D02*
X138476784Y-108863460D01*
X139203788Y-108966753D02*
X138983154Y-108837819D01*
X139914986Y-109324611D02*
X140039164Y-109989528D01*
X138297855Y-109553774D02*
X139107841Y-109553776D01*
X140039164Y-109989528D02*
X140411141Y-109989526D01*
X140527403Y-109585949D02*
X140588363Y-109912197D01*
X139447628Y-109554904D02*
X139435210Y-109418309D01*
X137622756Y-108820219D02*
X137469256Y-108801373D01*
X139745653Y-109188016D02*
X139841768Y-109242121D01*
X139302001Y-109902038D02*
X139414751Y-109745225D01*
X137766154Y-108878137D02*
X137622756Y-108820219D01*
X138311967Y-109032793D02*
X138268837Y-109150681D01*
X137894323Y-108972992D02*
X137766154Y-108878137D01*
X138644428Y-109132700D02*
X138794570Y-109091496D01*
X138138124Y-109562242D02*
X138122884Y-109415487D01*
X138111863Y-109743437D02*
X138138124Y-109562242D01*
X138018461Y-109900908D02*
X138111863Y-109743437D01*
X138600401Y-109290744D02*
X138600401Y-109252362D01*
X139428435Y-108818306D02*
X139489959Y-109142296D01*
X138476784Y-108863460D02*
X138382437Y-108936506D01*
X138794570Y-109091496D02*
X138884516Y-109103368D01*
X138382437Y-108936506D02*
X138311967Y-109032793D01*
X140806269Y-110000128D02*
X141039919Y-110025085D01*
X140707114Y-109669861D02*
X140527403Y-109585949D01*
X138730220Y-108801371D02*
X138599386Y-108815615D01*
X141234115Y-109999034D02*
X141406243Y-109905423D01*
X140588363Y-109912197D02*
X140806269Y-110000128D01*
X139674533Y-108860075D02*
X139428435Y-108818306D01*
X137996448Y-109095447D02*
X137894323Y-108972992D01*
X138076097Y-109248976D02*
X137996448Y-109095447D01*
X138600401Y-109252362D02*
X138644428Y-109132700D01*
X139302009Y-109902037D02*
X139302001Y-109902038D01*
X138122884Y-109415487D02*
X138076097Y-109248976D01*
X138408496Y-109664407D02*
X138458731Y-109942678D01*
X138963035Y-109143702D02*
X139023786Y-109207746D01*
X139863621Y-108979172D02*
X139674533Y-108860075D01*
X138598713Y-109716901D02*
X138408496Y-109664407D01*
X139117301Y-109997521D02*
X139302009Y-109902037D01*
X137354101Y-105869644D02*
X137354101Y-105869644D01*
X148361330Y-105139114D02*
X148558885Y-105331951D01*
X148245354Y-105086514D02*
X148361330Y-105139114D01*
X137858713Y-105852724D02*
X137858722Y-105900124D01*
X138650417Y-105106361D02*
X138544297Y-105058790D01*
X137911241Y-106208760D02*
X138036310Y-106461252D01*
X148121441Y-105068144D02*
X148245354Y-105086514D01*
X136783461Y-106694304D02*
X136896951Y-106677368D01*
X137488453Y-106869275D02*
X137606421Y-106724778D01*
X137603022Y-106718018D02*
X137490133Y-106869290D01*
X138891154Y-107071924D02*
X138670553Y-107166010D01*
X138212249Y-105106361D02*
X138031856Y-105280872D01*
X139002841Y-105852724D02*
X138955569Y-105538673D01*
X137308516Y-106188763D02*
X137354101Y-105869644D01*
X137184986Y-106451099D02*
X137308516Y-106188763D01*
X137490133Y-106869290D02*
X137343094Y-107007234D01*
X148121441Y-104520064D02*
X148121441Y-105068144D01*
X137354101Y-105836344D02*
X137354101Y-105836344D01*
X137172219Y-107110059D02*
X136983630Y-107174908D01*
X139495509Y-105644979D02*
X139510843Y-105869658D01*
X137601341Y-106718004D02*
X137488453Y-106869275D01*
X136783449Y-107198926D02*
X136783461Y-106694304D01*
X137606409Y-106724792D02*
X137603022Y-106718018D01*
X139495609Y-106096829D02*
X139447200Y-106318040D01*
X138036310Y-106461252D02*
X138215670Y-106631723D01*
X139261923Y-105018476D02*
X139370063Y-105216015D01*
X138831674Y-105280872D02*
X138650417Y-105106361D01*
X138431061Y-107198924D02*
X138191084Y-107165957D01*
X139370063Y-105216015D02*
X139448254Y-105425973D01*
X136983630Y-107174908D02*
X136783449Y-107198926D01*
X137343094Y-107007234D02*
X137172219Y-107110059D01*
X139366689Y-106529690D02*
X139255149Y-106728178D01*
X137601341Y-106718004D02*
X137601341Y-106718004D01*
X137606421Y-106724778D02*
X137601341Y-106718004D01*
X138320005Y-106678114D02*
X138431067Y-106694296D01*
X138215670Y-106631723D02*
X138320005Y-106678114D01*
X137858722Y-105900124D02*
X137911241Y-106208760D01*
X137772726Y-106922223D02*
X137606409Y-106724792D01*
X137357488Y-105745469D02*
X137354101Y-105836344D01*
X138955572Y-106197338D02*
X139002843Y-105883198D01*
X137360875Y-105735309D02*
X137357488Y-105745469D01*
X138431059Y-105042182D02*
X138317983Y-105058790D01*
X139510843Y-105869658D02*
X139495609Y-106096829D01*
X137354101Y-105836344D02*
X137360875Y-105735309D01*
X138650419Y-106630037D02*
X138831676Y-106455333D01*
X138191084Y-107165957D02*
X137969628Y-107071501D01*
X138544297Y-105058790D02*
X138431059Y-105042182D01*
X137969628Y-107071501D02*
X137772726Y-106922223D01*
X139087730Y-106923652D02*
X138891154Y-107071924D01*
X139447200Y-106318040D02*
X139366689Y-106529690D01*
X139002843Y-105883198D02*
X139002841Y-105852724D01*
X138317983Y-105058790D02*
X138212249Y-105106361D01*
X139255149Y-106728178D02*
X139087730Y-106923652D01*
X138670553Y-107166010D02*
X138431061Y-107198924D01*
X138431067Y-106694296D02*
X138431062Y-106694304D01*
X138831676Y-106455333D02*
X138955572Y-106197338D01*
X139448254Y-105425973D02*
X139495509Y-105644979D01*
X138544299Y-106677672D02*
X138650419Y-106630037D01*
X138031856Y-105280872D02*
X137907979Y-105538673D01*
X137003355Y-106628873D02*
X137184986Y-106451099D01*
X137907979Y-105538673D02*
X137858713Y-105852724D01*
X138955569Y-105538673D02*
X138831674Y-105280872D01*
X136896951Y-106677368D02*
X137003355Y-106628873D01*
X138431062Y-106694304D02*
X138544299Y-106677672D01*
X140903323Y-109698837D02*
X140707114Y-109669861D01*
X148949687Y-104942549D02*
X148776210Y-104766403D01*
X148357344Y-104549367D02*
X148121441Y-104520064D01*
X149790200Y-106842297D02*
X149674225Y-106789313D01*
X148577181Y-104633411D02*
X148357344Y-104549367D01*
X148121441Y-104520064D02*
X148121441Y-104520064D01*
X149674225Y-106789313D02*
X149476670Y-106595312D01*
X149342614Y-106309553D02*
X149293225Y-105962782D01*
X149293225Y-105962782D02*
X149269382Y-105671965D01*
X148776210Y-104766403D02*
X148577181Y-104633411D01*
X149476670Y-106595312D02*
X149342614Y-106309553D01*
X149201016Y-105401124D02*
X149092870Y-105156054D01*
X149092870Y-105156054D02*
X148949687Y-104942549D01*
X149269382Y-105671965D02*
X149201016Y-105401124D01*
X151703966Y-104520064D02*
X151467371Y-104549367D01*
X152156209Y-104633411D02*
X151937846Y-104549367D01*
X153490995Y-106860804D02*
X153367082Y-106842289D01*
X152836768Y-107158809D02*
X153034944Y-107292240D01*
X150741802Y-106982246D02*
X150884215Y-106768455D01*
X149085018Y-106982245D02*
X149258349Y-107158809D01*
X153034944Y-107292240D02*
X153254524Y-107376630D01*
X150351557Y-106595312D02*
X150154002Y-106789313D01*
X152664509Y-106982245D02*
X152836768Y-107158809D01*
X151132071Y-105616546D02*
X151265465Y-105331952D01*
X152348339Y-106252819D02*
X152415784Y-106523343D01*
X150626371Y-105401126D02*
X150558607Y-105671966D01*
X153367082Y-106842289D02*
X153251106Y-106789305D01*
X153254524Y-107376630D02*
X153490997Y-107406072D01*
X150733717Y-105156056D02*
X150626371Y-105401126D01*
X152527066Y-104942548D02*
X152354225Y-104766403D01*
X151579244Y-105086514D02*
X151703967Y-105068144D01*
X152777909Y-105401121D02*
X152669904Y-105156052D01*
X148942086Y-106768454D02*
X149085018Y-106982245D01*
X150991631Y-106523344D02*
X151059451Y-106252819D01*
X149258349Y-107158809D02*
X149457418Y-107292240D01*
X150485613Y-106309553D02*
X150351557Y-106595312D01*
X150884215Y-106768455D02*
X150991631Y-106523344D01*
X150535001Y-105962782D02*
X150485613Y-106309553D01*
X151937846Y-104549367D02*
X151703966Y-104520064D01*
X151059451Y-106252819D02*
X151083079Y-105962788D01*
X152669904Y-105156052D02*
X152527066Y-104942548D01*
X151265465Y-105331952D02*
X151462888Y-105139115D01*
X152846253Y-105671960D02*
X152777909Y-105401121D01*
X152275863Y-105616546D02*
X152324855Y-105962788D01*
X150568988Y-107158810D02*
X150741802Y-106982246D01*
X149677562Y-107376630D02*
X149914116Y-107406072D01*
X149914116Y-107406072D02*
X150150548Y-107376630D01*
X152870107Y-105962774D02*
X152846253Y-105671960D01*
X152919496Y-106309545D02*
X152870107Y-105962774D01*
X151828691Y-105086514D02*
X151945046Y-105139114D01*
X148692941Y-105616546D02*
X148742329Y-105962788D01*
X148834219Y-106523343D02*
X148942086Y-106768454D01*
X149457418Y-107292240D02*
X149677562Y-107376630D01*
X148558885Y-105331951D02*
X148692941Y-105616546D01*
X151247471Y-104633412D02*
X151048844Y-104766404D01*
X152415784Y-106523343D02*
X152522677Y-106768454D01*
X152522677Y-106768454D02*
X152664509Y-106982245D01*
X150150548Y-107376630D02*
X150370371Y-107292240D01*
X149914113Y-106860812D02*
X149790200Y-106842297D01*
X150558607Y-105671966D02*
X150535001Y-105962782D01*
X152354225Y-104766403D02*
X152156209Y-104633411D01*
X150370371Y-107292240D02*
X150568988Y-107158810D01*
X153251106Y-106789305D02*
X153053551Y-106595304D01*
X152324855Y-105962788D02*
X152348339Y-106252819D01*
X153053551Y-106595304D02*
X152919496Y-106309545D01*
X151083079Y-105962788D02*
X151132071Y-105616546D01*
X150038026Y-106842297D02*
X149914113Y-106860812D01*
X150154002Y-106789313D02*
X150038026Y-106842297D01*
X148742329Y-105962788D02*
X148766079Y-106252819D01*
X150876067Y-104942551D02*
X150733717Y-105156056D01*
X151467371Y-104549367D02*
X151247471Y-104633412D01*
X152142469Y-105331951D02*
X152275863Y-105616546D01*
X148766079Y-106252819D02*
X148834219Y-106523343D01*
X151048844Y-104766404D02*
X150876067Y-104942551D01*
X153490997Y-107406072D02*
X153490995Y-106860804D01*
X151945046Y-105139114D02*
X152142469Y-105331951D01*
X151462888Y-105139115D02*
X151579244Y-105086514D01*
X151703967Y-105068144D02*
X151828691Y-105086514D01*
X151858058Y-109206079D02*
X151878942Y-109331386D01*
X151579223Y-109234866D02*
X151605751Y-109154715D01*
X151605751Y-109154715D02*
X151688725Y-109129315D01*
X153631541Y-109989526D02*
X153318839Y-108311444D01*
X152465399Y-108836924D02*
X152490799Y-108962231D01*
X152322031Y-109129879D02*
X152429840Y-109164169D01*
X150614021Y-109986695D02*
X150748923Y-109890740D01*
X152429840Y-109164169D02*
X152535391Y-109267038D01*
X150427754Y-110020562D02*
X150614021Y-109986695D01*
X150922201Y-108836924D02*
X150563221Y-108836924D01*
X151217729Y-108975620D02*
X151204441Y-109092060D01*
X153318839Y-108311444D02*
X152945177Y-108311444D01*
X150194230Y-109982095D02*
X150427754Y-110020562D01*
X149994826Y-109854615D02*
X150194230Y-109982095D01*
X149849585Y-109647219D02*
X149994826Y-109854615D01*
X150406251Y-108837316D02*
X150197462Y-108798542D01*
X151382600Y-108812500D02*
X151274422Y-108873049D01*
X151358521Y-109989526D02*
X151712432Y-109989526D01*
X152535391Y-109267038D02*
X152668036Y-109989526D01*
X152002555Y-109989526D02*
X152357591Y-109989526D01*
X151274422Y-108873049D02*
X151217729Y-108975620D01*
X152490799Y-108962231D02*
X152321466Y-108843133D01*
X149773000Y-109405883D02*
X149849585Y-109647219D01*
X149760582Y-109264208D02*
X149773000Y-109405883D01*
X150586364Y-108949813D02*
X150406251Y-108837316D01*
X151688725Y-109129315D02*
X151781504Y-109149801D01*
X151221361Y-109252927D02*
X151358521Y-109989526D01*
X151204441Y-109092060D02*
X151221361Y-109252927D01*
X152137457Y-108801365D02*
X151961916Y-108839747D01*
X152321466Y-108843133D02*
X152137457Y-108801365D01*
X152809712Y-108836924D02*
X152465399Y-108836924D01*
X151781504Y-109149801D02*
X151858058Y-109206079D01*
X153025329Y-109989526D02*
X152809712Y-108836924D01*
X149787719Y-109082856D02*
X149760582Y-109264208D01*
X149881938Y-108925542D02*
X149787719Y-109082856D01*
X150026147Y-108828372D02*
X149881938Y-108925542D01*
X150197462Y-108798542D02*
X150026147Y-108828372D01*
X150563221Y-108836924D02*
X150586364Y-108949813D01*
X152668036Y-109989526D02*
X153025329Y-109989526D01*
X152220431Y-109225835D02*
X152244703Y-109153021D01*
X151697191Y-108839747D02*
X151505844Y-108799107D01*
X152357591Y-109989526D02*
X152228897Y-109295824D01*
X151505844Y-108799107D02*
X151382600Y-108812500D01*
X152228897Y-109295824D02*
X152220431Y-109225835D01*
X151873298Y-108952636D02*
X151697191Y-108839747D01*
X151878942Y-109331386D02*
X152002555Y-109989526D01*
X151587689Y-109312194D02*
X151579223Y-109234866D01*
X151712432Y-109989526D02*
X151587689Y-109312194D01*
X152945177Y-108311444D02*
X153257879Y-109989526D01*
X153257879Y-109989526D02*
X153631541Y-109989526D01*
X151961916Y-108839747D02*
X151873298Y-108952636D01*
X152244703Y-109153021D02*
X152322031Y-109129879D01*
X142944924Y-108798551D02*
X142739417Y-108826050D01*
X141059315Y-108837137D02*
X140806238Y-108801373D01*
X142919663Y-109142048D02*
X143007575Y-109129877D01*
X144008328Y-110012669D02*
X144164115Y-110026215D01*
X143697326Y-109550390D02*
X143684344Y-109413231D01*
X143380989Y-109999647D02*
X143559603Y-109896958D01*
X141283758Y-108959417D02*
X141059315Y-108837137D01*
X141543401Y-109562242D02*
X141528726Y-109415487D01*
X143302215Y-109413228D02*
X143312939Y-109506926D01*
X142433537Y-109410408D02*
X142518316Y-109656118D01*
X142452912Y-109088850D02*
X142421119Y-109278328D01*
X143208934Y-108837295D02*
X142944924Y-108798551D01*
X143602018Y-109169287D02*
X143441634Y-108967885D01*
X142739417Y-108826050D02*
X142559408Y-108928938D01*
X141001630Y-109690600D02*
X140903323Y-109698837D01*
X141092412Y-109651989D02*
X141001630Y-109690600D01*
X143262844Y-109649166D02*
X143200226Y-109684726D01*
X141154501Y-109502411D02*
X141141803Y-109584815D01*
X143176909Y-110027909D02*
X143380989Y-109999647D01*
X143111452Y-109148494D02*
X143200615Y-109204948D01*
X143559603Y-109896958D02*
X143559601Y-109896958D01*
X141141803Y-109584815D02*
X141092412Y-109651989D01*
X143007575Y-109129877D02*
X143111452Y-109148494D01*
X141146034Y-109415487D02*
X141154501Y-109502411D01*
X141105564Y-109296381D02*
X141146034Y-109415487D01*
X143200615Y-109204948D02*
X143268712Y-109300651D01*
X143312939Y-109506926D02*
X143300415Y-109589899D01*
X143666224Y-109738680D02*
X143697326Y-109550390D01*
X141023550Y-109200999D02*
X141105564Y-109296381D01*
X141406241Y-109905425D02*
X141513448Y-109749272D01*
X142856868Y-109178561D02*
X142919663Y-109142048D01*
X142851582Y-109525744D02*
X142815099Y-109413228D01*
X142815099Y-109413228D02*
X142806633Y-109324611D01*
X140914304Y-109146330D02*
X141023550Y-109200999D01*
X143684344Y-109413231D02*
X143602018Y-109169287D01*
X144164115Y-110026215D02*
X144290027Y-110009997D01*
X143441634Y-108967885D02*
X143208934Y-108837295D01*
X142913496Y-109988961D02*
X143176909Y-110027909D01*
X143112561Y-109696579D02*
X143009847Y-109677234D01*
X142921779Y-109620944D02*
X142851582Y-109525744D01*
X142421119Y-109278328D02*
X142433537Y-109410408D01*
X141528726Y-109415487D02*
X141446128Y-109166028D01*
X141446128Y-109166028D02*
X141283758Y-108959417D01*
X142806633Y-109324611D02*
X142819192Y-109239415D01*
X140793256Y-109129879D02*
X140914304Y-109146330D01*
X144398359Y-109943806D02*
X144398361Y-109943806D01*
X142559408Y-108928938D02*
X142452912Y-109088850D01*
X142819192Y-109239415D02*
X142856868Y-109178561D01*
X140612634Y-109156408D02*
X140793256Y-109129879D01*
X141513448Y-109749272D02*
X141543401Y-109562242D01*
X140474345Y-109235430D02*
X140612634Y-109156408D01*
X143268712Y-109300651D02*
X143302215Y-109413228D01*
X143883586Y-109970900D02*
X144008328Y-110012669D01*
X142518316Y-109656118D02*
X142681327Y-109858576D01*
X144290027Y-110009997D02*
X144398359Y-109943806D01*
X140412820Y-108906924D02*
X140474345Y-109235430D01*
X140577074Y-108829030D02*
X140412820Y-108906924D01*
X142921779Y-109620944D02*
X142921779Y-109620944D01*
X142681327Y-109858576D02*
X142913496Y-109988961D01*
X140806238Y-108801373D02*
X140577074Y-108829030D01*
X143009847Y-109677234D02*
X142921779Y-109620944D01*
X143300415Y-109589899D02*
X143262844Y-109649166D01*
X143559601Y-109896958D02*
X143666224Y-109738680D01*
X143200226Y-109684726D02*
X143112561Y-109696579D01*
X147354931Y-110029604D02*
X147607801Y-109997995D01*
X145965271Y-109091498D02*
X146055216Y-109103369D01*
X146277401Y-109553776D02*
X146256332Y-109633698D01*
X145770537Y-109252364D02*
X145815128Y-109132702D01*
X146795568Y-109669489D02*
X146853551Y-109818673D01*
X145767832Y-108815615D02*
X145645230Y-108863460D01*
X146799453Y-109477277D02*
X146784843Y-109568453D01*
X146526288Y-109173749D02*
X146373928Y-108966753D01*
X143827141Y-109656504D02*
X143883586Y-109970900D01*
X143982364Y-109699966D02*
X143827141Y-109656504D01*
X144067030Y-109676259D02*
X143982364Y-109699966D01*
X144010021Y-109129879D02*
X144083964Y-109524988D01*
X145815128Y-109132702D02*
X145965271Y-109091498D01*
X145975424Y-109736092D02*
X145768274Y-109716901D01*
X146472142Y-109902038D02*
X146584891Y-109745225D01*
X147607801Y-109997995D02*
X147607801Y-109997994D01*
X147068193Y-109286232D02*
X146848625Y-109399120D01*
X144092430Y-109601753D02*
X144067030Y-109676259D01*
X144083964Y-109524988D02*
X144092430Y-109601753D01*
X144465537Y-108836368D02*
X144321601Y-108836364D01*
X146472134Y-109902037D02*
X146472142Y-109902038D01*
X146287425Y-109997521D02*
X146472134Y-109902037D01*
X143777486Y-109129870D02*
X144010021Y-109129879D01*
X145645230Y-108863460D02*
X145550883Y-108936506D01*
X146605350Y-109418309D02*
X146526288Y-109173749D01*
X146784843Y-109568453D02*
X146795568Y-109669489D01*
X143721041Y-108836924D02*
X143777486Y-109129870D01*
X146231125Y-109290746D02*
X145770537Y-109290746D01*
X145480413Y-109032793D02*
X145437283Y-109150681D01*
X146199014Y-109690654D02*
X145975424Y-109736092D01*
X145437283Y-109150681D02*
X145423968Y-109275503D01*
X146256332Y-109633698D02*
X146199014Y-109690654D01*
X147152640Y-110011203D02*
X147354931Y-110029604D01*
X146617768Y-109554904D02*
X146605350Y-109418309D01*
X146055216Y-109103369D02*
X146133736Y-109143704D01*
X143953584Y-108836924D02*
X143721041Y-108836924D01*
X143889801Y-108491484D02*
X143953584Y-108836924D01*
X144261761Y-108491484D02*
X143889801Y-108491484D01*
X144321601Y-108836364D02*
X144261761Y-108491484D01*
X145628856Y-109942678D02*
X145836006Y-109999122D01*
X144521981Y-109129314D02*
X144465537Y-108836368D01*
X145898666Y-108801371D02*
X145767832Y-108815615D01*
X144378606Y-109129313D02*
X144521981Y-109129314D01*
X144462708Y-109580869D02*
X144378606Y-109129313D01*
X146080974Y-110022264D02*
X146287425Y-109997521D01*
X146964901Y-109933649D02*
X147152640Y-110011203D01*
X145550883Y-108936506D02*
X145480413Y-109032793D01*
X146848625Y-109399120D02*
X146799453Y-109477277D01*
X144398361Y-109943806D02*
X144459706Y-109835974D01*
X146584891Y-109745225D02*
X146617768Y-109554904D01*
X144475690Y-109712948D02*
X144462708Y-109580869D01*
X146194486Y-109207748D02*
X146231125Y-109290746D01*
X145770537Y-109290746D02*
X145770537Y-109252364D01*
X146853551Y-109818673D02*
X146964901Y-109933649D01*
X145836006Y-109999122D02*
X146080974Y-110022264D01*
X145768274Y-109716901D02*
X145578620Y-109664408D01*
X146133736Y-109143704D02*
X146194486Y-109207748D01*
X145578620Y-109664408D02*
X145628856Y-109942678D01*
X145466301Y-109553774D02*
X146277401Y-109553776D01*
X145436950Y-109397987D02*
X145466301Y-109553774D01*
X146152473Y-108837579D02*
X145898666Y-108801371D01*
X146373928Y-108966753D02*
X146152473Y-108837579D01*
X144459706Y-109835974D02*
X144475690Y-109712948D01*
X145423968Y-109275503D02*
X145436950Y-109397987D01*
X149670281Y-109543616D02*
X149537637Y-108835238D01*
X147500275Y-108895212D02*
X147335387Y-108825538D01*
X148058781Y-108215484D02*
X147686821Y-108215484D01*
X150352122Y-109127620D02*
X150513561Y-109176726D01*
X150356751Y-109677773D02*
X150264061Y-109619815D01*
X148405361Y-108836924D02*
X148622661Y-109989526D01*
X147613093Y-109011523D02*
X147500275Y-108895212D01*
X147667269Y-109357196D02*
X147682308Y-109265346D01*
X147803099Y-109920101D02*
X147746655Y-109610221D01*
X149265866Y-109662024D02*
X149169613Y-109694893D01*
X149290404Y-109495644D02*
X149296612Y-109565071D01*
X149680441Y-109667794D02*
X149670281Y-109543616D01*
X149595201Y-109928567D02*
X149662580Y-109806273D01*
X149537637Y-108835238D02*
X149165661Y-108835244D01*
X147096416Y-109276636D02*
X147068193Y-109286232D01*
X147120687Y-109269298D02*
X147096416Y-109276636D01*
X147340819Y-109742301D02*
X147227930Y-109730448D01*
X147255024Y-109221321D02*
X147120687Y-109269298D01*
X148777321Y-108836924D02*
X148405361Y-108836924D01*
X148018141Y-109989526D02*
X148390121Y-109989526D01*
X148622661Y-109989526D02*
X148981661Y-109989526D01*
X147686821Y-108215484D02*
X148018141Y-109989526D01*
X150193521Y-109176726D02*
X150268041Y-109136733D01*
X147285504Y-109164876D02*
X147255024Y-109221321D01*
X147234704Y-109108432D02*
X147285504Y-109164876D01*
X148390121Y-109989526D02*
X148058781Y-108215484D01*
X147746655Y-109610221D02*
X147556437Y-109705048D01*
X150464439Y-109696580D02*
X150356751Y-109677773D01*
X147121815Y-109092627D02*
X147234704Y-109108432D01*
X147397263Y-109552648D02*
X147615703Y-109434679D01*
X149595211Y-109928567D02*
X149595201Y-109928567D01*
X148958519Y-109864784D02*
X149141399Y-109984446D01*
X149141399Y-109984446D02*
X149342905Y-110025651D01*
X146932727Y-109124236D02*
X147121815Y-109092627D01*
X150264061Y-109619815D02*
X150264060Y-109619808D01*
X150513561Y-109176726D02*
X150639981Y-109309937D01*
X149662580Y-109806273D02*
X149680441Y-109667794D01*
X148912221Y-109543616D02*
X148777321Y-108836924D01*
X147183904Y-109682470D02*
X147198579Y-109635621D01*
X148981661Y-109989526D02*
X148958519Y-109864784D01*
X149296612Y-109565071D02*
X149265866Y-109662024D01*
X147682308Y-109265346D02*
X147673841Y-109174471D01*
X147673841Y-109174471D02*
X147613093Y-109011523D01*
X149342905Y-110025651D02*
X149479709Y-110004788D01*
X146779762Y-109203258D02*
X146932727Y-109124236D01*
X150677799Y-109514264D02*
X150607244Y-109647473D01*
X149165661Y-108835244D02*
X149290404Y-109495644D01*
X149479709Y-110004788D02*
X149595211Y-109928567D01*
X146723318Y-108898458D02*
X146779762Y-109203258D01*
X147615703Y-109434679D02*
X147667269Y-109357196D01*
X146892651Y-108828467D02*
X146723318Y-108898458D01*
X147607801Y-109997994D02*
X147803099Y-109920101D01*
X150268041Y-109136733D02*
X150352122Y-109127620D01*
X149169613Y-109694893D02*
X149031321Y-109656504D01*
X150639981Y-109309937D02*
X150677799Y-109514264D01*
X150152986Y-109244258D02*
X150193521Y-109176726D01*
X147118429Y-108802503D02*
X146892651Y-108828467D01*
X147271392Y-109597239D02*
X147397263Y-109552648D01*
X149031321Y-109656504D02*
X148912221Y-109543616D01*
X147335387Y-108825538D02*
X147118429Y-108802503D01*
X147198579Y-109635621D02*
X147271392Y-109597239D01*
X147556437Y-109705048D02*
X147340819Y-109742301D01*
X150607244Y-109647473D02*
X150464439Y-109696580D01*
X147227930Y-109730448D02*
X147183904Y-109682470D01*
X150264060Y-109619808D02*
X150190200Y-109524800D01*
X150865198Y-110511628D02*
X151233781Y-110511638D01*
X150142704Y-109322347D02*
X150152986Y-109244258D01*
X150151171Y-109410964D02*
X150142704Y-109322347D01*
X151233781Y-110511638D02*
X150922201Y-108836924D01*
X150748923Y-109890740D02*
X150865198Y-110511628D01*
X150190200Y-109524800D02*
X150151171Y-109410964D01*
D13*
X146557619Y-129960714D02*
X146319523Y-130627380D01*
X146081428Y-129960714D01*
X145700476Y-130532142D02*
X145652857Y-130579761D01*
X145700476Y-130627380D01*
X145748095Y-130579761D01*
X145700476Y-130532142D01*
X145700476Y-130627380D01*
X145319523Y-129627380D02*
X144700476Y-129627380D01*
X145033809Y-130008333D01*
X144890952Y-130008333D01*
X144795714Y-130055952D01*
X144748095Y-130103571D01*
X144700476Y-130198809D01*
X144700476Y-130436904D01*
X144748095Y-130532142D01*
X144795714Y-130579761D01*
X144890952Y-130627380D01*
X145176666Y-130627380D01*
X145271904Y-130579761D01*
X145319523Y-130532142D01*
X143843333Y-130579761D02*
X143938571Y-130627380D01*
X144129047Y-130627380D01*
X144224285Y-130579761D01*
X144271904Y-130532142D01*
X144319523Y-130436904D01*
X144319523Y-130151190D01*
X144271904Y-130055952D01*
X144224285Y-130008333D01*
X144129047Y-129960714D01*
X143938571Y-129960714D01*
X143843333Y-130008333D01*
X143414761Y-130246428D02*
X142652857Y-130246428D01*
X141748095Y-129960714D02*
X141748095Y-130627380D01*
X141986190Y-129579761D02*
X142224285Y-130294047D01*
X141605238Y-130294047D01*
X141224285Y-130627380D02*
X141224285Y-129627380D01*
X140890952Y-130341666D01*
X140557619Y-129627380D01*
X140557619Y-130627380D01*
D10*
G36*
X156210000Y-92075000D02*
G01*
X131445000Y-92075000D01*
X131445000Y-84455000D01*
X156210000Y-84455000D01*
X156210000Y-92075000D01*
G37*
X156210000Y-92075000D02*
X131445000Y-92075000D01*
X131445000Y-84455000D01*
X156210000Y-84455000D01*
X156210000Y-92075000D01*
D14*
X141652857Y-75950000D02*
X142367142Y-75950000D01*
X141510000Y-75521428D02*
X142010000Y-77021428D01*
X142510000Y-75521428D01*
X143010000Y-75521428D02*
X143010000Y-77021428D01*
X143367142Y-77021428D01*
X143581428Y-76950000D01*
X143724285Y-76807142D01*
X143795714Y-76664285D01*
X143867142Y-76378571D01*
X143867142Y-76164285D01*
X143795714Y-75878571D01*
X143724285Y-75735714D01*
X143581428Y-75592857D01*
X143367142Y-75521428D01*
X143010000Y-75521428D01*
X145367142Y-75664285D02*
X145295714Y-75592857D01*
X145081428Y-75521428D01*
X144938571Y-75521428D01*
X144724285Y-75592857D01*
X144581428Y-75735714D01*
X144510000Y-75878571D01*
X144438571Y-76164285D01*
X144438571Y-76378571D01*
X144510000Y-76664285D01*
X144581428Y-76807142D01*
X144724285Y-76950000D01*
X144938571Y-77021428D01*
X145081428Y-77021428D01*
X145295714Y-76950000D01*
X145367142Y-76878571D01*
X116161428Y-104020714D02*
X117661428Y-104020714D01*
X117661428Y-103663571D01*
X117590000Y-103449285D01*
X117447142Y-103306428D01*
X117304285Y-103235000D01*
X117018571Y-103163571D01*
X116804285Y-103163571D01*
X116518571Y-103235000D01*
X116375714Y-103306428D01*
X116232857Y-103449285D01*
X116161428Y-103663571D01*
X116161428Y-104020714D01*
X116590000Y-102592142D02*
X116590000Y-101877857D01*
X116161428Y-102735000D02*
X117661428Y-102235000D01*
X116161428Y-101735000D01*
X116304285Y-100377857D02*
X116232857Y-100449285D01*
X116161428Y-100663571D01*
X116161428Y-100806428D01*
X116232857Y-101020714D01*
X116375714Y-101163571D01*
X116518571Y-101235000D01*
X116804285Y-101306428D01*
X117018571Y-101306428D01*
X117304285Y-101235000D01*
X117447142Y-101163571D01*
X117590000Y-101020714D01*
X117661428Y-100806428D01*
X117661428Y-100663571D01*
X117590000Y-100449285D01*
X117518571Y-100377857D01*
X170858571Y-100762857D02*
X169358571Y-100762857D01*
X169358571Y-101334285D01*
X169430000Y-101477142D01*
X169501428Y-101548571D01*
X169644285Y-101620000D01*
X169858571Y-101620000D01*
X170001428Y-101548571D01*
X170072857Y-101477142D01*
X170144285Y-101334285D01*
X170144285Y-100762857D01*
X169358571Y-102120000D02*
X170858571Y-102477142D01*
X169787142Y-102762857D01*
X170858571Y-103048571D01*
X169358571Y-103405714D01*
X170858571Y-103977142D02*
X169358571Y-103977142D01*
X170430000Y-104477142D01*
X169358571Y-104977142D01*
X170858571Y-104977142D01*
D10*
G36*
X130175000Y-100330000D02*
G01*
X129540000Y-100330000D01*
X129540000Y-99695000D01*
X130175000Y-99695000D01*
X130175000Y-100330000D01*
G37*
X130175000Y-100330000D02*
X129540000Y-100330000D01*
X129540000Y-99695000D01*
X130175000Y-99695000D01*
X130175000Y-100330000D01*
G36*
X130810000Y-99695000D02*
G01*
X130175000Y-99695000D01*
X130175000Y-95885000D01*
X130810000Y-95885000D01*
X130810000Y-99695000D01*
G37*
X130810000Y-99695000D02*
X130175000Y-99695000D01*
X130175000Y-95885000D01*
X130810000Y-95885000D01*
X130810000Y-99695000D01*
G36*
X131445000Y-97790000D02*
G01*
X129540000Y-97790000D01*
X129540000Y-97155000D01*
X131445000Y-97155000D01*
X131445000Y-97790000D01*
G37*
X131445000Y-97790000D02*
X129540000Y-97790000D01*
X129540000Y-97155000D01*
X131445000Y-97155000D01*
X131445000Y-97790000D01*
G36*
X132715000Y-97155000D02*
G01*
X132080000Y-97155000D01*
X132080000Y-96520000D01*
X132715000Y-96520000D01*
X132715000Y-97155000D01*
G37*
X132715000Y-97155000D02*
X132080000Y-97155000D01*
X132080000Y-96520000D01*
X132715000Y-96520000D01*
X132715000Y-97155000D01*
G36*
X133350000Y-96520000D02*
G01*
X132715000Y-96520000D01*
X132715000Y-95885000D01*
X133350000Y-95885000D01*
X133350000Y-96520000D01*
G37*
X133350000Y-96520000D02*
X132715000Y-96520000D01*
X132715000Y-95885000D01*
X133350000Y-95885000D01*
X133350000Y-96520000D01*
G36*
X133985000Y-100330000D02*
G01*
X133350000Y-100330000D01*
X133350000Y-96520000D01*
X133985000Y-96520000D01*
X133985000Y-100330000D01*
G37*
X133985000Y-100330000D02*
X133350000Y-100330000D01*
X133350000Y-96520000D01*
X133985000Y-96520000D01*
X133985000Y-100330000D01*
G36*
X134620000Y-98425000D02*
G01*
X132715000Y-98425000D01*
X132715000Y-97790000D01*
X134620000Y-97790000D01*
X134620000Y-98425000D01*
G37*
X134620000Y-98425000D02*
X132715000Y-98425000D01*
X132715000Y-97790000D01*
X134620000Y-97790000D01*
X134620000Y-98425000D01*
G36*
X135890000Y-100330000D02*
G01*
X135255000Y-100330000D01*
X135255000Y-98425000D01*
X135890000Y-98425000D01*
X135890000Y-100330000D01*
G37*
X135890000Y-100330000D02*
X135255000Y-100330000D01*
X135255000Y-98425000D01*
X135890000Y-98425000D01*
X135890000Y-100330000D01*
G36*
X137160000Y-98425000D02*
G01*
X135890000Y-98425000D01*
X135890000Y-97790000D01*
X137160000Y-97790000D01*
X137160000Y-98425000D01*
G37*
X137160000Y-98425000D02*
X135890000Y-98425000D01*
X135890000Y-97790000D01*
X137160000Y-97790000D01*
X137160000Y-98425000D01*
G36*
X137160000Y-100330000D02*
G01*
X135890000Y-100330000D01*
X135890000Y-99695000D01*
X137160000Y-99695000D01*
X137160000Y-100330000D01*
G37*
X137160000Y-100330000D02*
X135890000Y-100330000D01*
X135890000Y-99695000D01*
X137160000Y-99695000D01*
X137160000Y-100330000D01*
G36*
X137795000Y-99695000D02*
G01*
X137160000Y-99695000D01*
X137160000Y-98425000D01*
X137795000Y-98425000D01*
X137795000Y-99695000D01*
G37*
X137795000Y-99695000D02*
X137160000Y-99695000D01*
X137160000Y-98425000D01*
X137795000Y-98425000D01*
X137795000Y-99695000D01*
G36*
X140335000Y-98425000D02*
G01*
X139065000Y-98425000D01*
X139065000Y-97790000D01*
X140335000Y-97790000D01*
X140335000Y-98425000D01*
G37*
X140335000Y-98425000D02*
X139065000Y-98425000D01*
X139065000Y-97790000D01*
X140335000Y-97790000D01*
X140335000Y-98425000D01*
G36*
X139065000Y-99060000D02*
G01*
X138430000Y-99060000D01*
X138430000Y-98425000D01*
X139065000Y-98425000D01*
X139065000Y-99060000D01*
G37*
X139065000Y-99060000D02*
X138430000Y-99060000D01*
X138430000Y-98425000D01*
X139065000Y-98425000D01*
X139065000Y-99060000D01*
G36*
X140970000Y-100330000D02*
G01*
X140335000Y-100330000D01*
X140335000Y-98425000D01*
X140970000Y-98425000D01*
X140970000Y-100330000D01*
G37*
X140970000Y-100330000D02*
X140335000Y-100330000D01*
X140335000Y-98425000D01*
X140970000Y-98425000D01*
X140970000Y-100330000D01*
G36*
X142240000Y-97155000D02*
G01*
X141605000Y-97155000D01*
X141605000Y-96520000D01*
X142240000Y-96520000D01*
X142240000Y-97155000D01*
G37*
X142240000Y-97155000D02*
X141605000Y-97155000D01*
X141605000Y-96520000D01*
X142240000Y-96520000D01*
X142240000Y-97155000D01*
G36*
X142240000Y-99695000D02*
G01*
X141605000Y-99695000D01*
X141605000Y-99060000D01*
X142240000Y-99060000D01*
X142240000Y-99695000D01*
G37*
X142240000Y-99695000D02*
X141605000Y-99695000D01*
X141605000Y-99060000D01*
X142240000Y-99060000D01*
X142240000Y-99695000D01*
G36*
X144145000Y-100330000D02*
G01*
X142240000Y-100330000D01*
X142240000Y-99695000D01*
X144145000Y-99695000D01*
X144145000Y-100330000D01*
G37*
X144145000Y-100330000D02*
X142240000Y-100330000D01*
X142240000Y-99695000D01*
X144145000Y-99695000D01*
X144145000Y-100330000D01*
G36*
X144145000Y-96520000D02*
G01*
X142240000Y-96520000D01*
X142240000Y-95885000D01*
X144145000Y-95885000D01*
X144145000Y-96520000D01*
G37*
X144145000Y-96520000D02*
X142240000Y-96520000D01*
X142240000Y-95885000D01*
X144145000Y-95885000D01*
X144145000Y-96520000D01*
G36*
X144780000Y-99695000D02*
G01*
X144145000Y-99695000D01*
X144145000Y-96520000D01*
X144780000Y-96520000D01*
X144780000Y-99695000D01*
G37*
X144780000Y-99695000D02*
X144145000Y-99695000D01*
X144145000Y-96520000D01*
X144780000Y-96520000D01*
X144780000Y-99695000D01*
G36*
X148590000Y-98425000D02*
G01*
X146685000Y-98425000D01*
X146685000Y-97790000D01*
X148590000Y-97790000D01*
X148590000Y-98425000D01*
G37*
X148590000Y-98425000D02*
X146685000Y-98425000D01*
X146685000Y-97790000D01*
X148590000Y-97790000D01*
X148590000Y-98425000D01*
G36*
X146685000Y-97790000D02*
G01*
X146050000Y-97790000D01*
X146050000Y-96520000D01*
X146685000Y-96520000D01*
X146685000Y-97790000D01*
G37*
X146685000Y-97790000D02*
X146050000Y-97790000D01*
X146050000Y-96520000D01*
X146685000Y-96520000D01*
X146685000Y-97790000D01*
G36*
X148590000Y-96520000D02*
G01*
X146685000Y-96520000D01*
X146685000Y-95885000D01*
X148590000Y-95885000D01*
X148590000Y-96520000D01*
G37*
X148590000Y-96520000D02*
X146685000Y-96520000D01*
X146685000Y-95885000D01*
X148590000Y-95885000D01*
X148590000Y-96520000D01*
G36*
X149225000Y-100330000D02*
G01*
X148590000Y-100330000D01*
X148590000Y-95885000D01*
X149225000Y-95885000D01*
X149225000Y-100330000D01*
G37*
X149225000Y-100330000D02*
X148590000Y-100330000D01*
X148590000Y-95885000D01*
X149225000Y-95885000D01*
X149225000Y-100330000D01*
G36*
X152400000Y-98425000D02*
G01*
X150495000Y-98425000D01*
X150495000Y-97790000D01*
X152400000Y-97790000D01*
X152400000Y-98425000D01*
G37*
X152400000Y-98425000D02*
X150495000Y-98425000D01*
X150495000Y-97790000D01*
X152400000Y-97790000D01*
X152400000Y-98425000D01*
G36*
X153035000Y-97790000D02*
G01*
X152400000Y-97790000D01*
X152400000Y-96520000D01*
X153035000Y-96520000D01*
X153035000Y-97790000D01*
G37*
X153035000Y-97790000D02*
X152400000Y-97790000D01*
X152400000Y-96520000D01*
X153035000Y-96520000D01*
X153035000Y-97790000D01*
G36*
X152400000Y-96520000D02*
G01*
X150495000Y-96520000D01*
X150495000Y-95885000D01*
X152400000Y-95885000D01*
X152400000Y-96520000D01*
G37*
X152400000Y-96520000D02*
X150495000Y-96520000D01*
X150495000Y-95885000D01*
X152400000Y-95885000D01*
X152400000Y-96520000D01*
G36*
X150495000Y-97155000D02*
G01*
X149860000Y-97155000D01*
X149860000Y-96520000D01*
X150495000Y-96520000D01*
X150495000Y-97155000D01*
G37*
X150495000Y-97155000D02*
X149860000Y-97155000D01*
X149860000Y-96520000D01*
X150495000Y-96520000D01*
X150495000Y-97155000D01*
G36*
X150495000Y-99695000D02*
G01*
X149860000Y-99695000D01*
X149860000Y-98425000D01*
X150495000Y-98425000D01*
X150495000Y-99695000D01*
G37*
X150495000Y-99695000D02*
X149860000Y-99695000D01*
X149860000Y-98425000D01*
X150495000Y-98425000D01*
X150495000Y-99695000D01*
G36*
X152400000Y-100330000D02*
G01*
X150495000Y-100330000D01*
X150495000Y-99695000D01*
X152400000Y-99695000D01*
X152400000Y-100330000D01*
G37*
X152400000Y-100330000D02*
X150495000Y-100330000D01*
X150495000Y-99695000D01*
X152400000Y-99695000D01*
X152400000Y-100330000D01*
G36*
X153035000Y-99695000D02*
G01*
X152400000Y-99695000D01*
X152400000Y-99060000D01*
X153035000Y-99060000D01*
X153035000Y-99695000D01*
G37*
X153035000Y-99695000D02*
X152400000Y-99695000D01*
X152400000Y-99060000D01*
X153035000Y-99060000D01*
X153035000Y-99695000D01*
G36*
X156210000Y-98425000D02*
G01*
X154305000Y-98425000D01*
X154305000Y-97790000D01*
X156210000Y-97790000D01*
X156210000Y-98425000D01*
G37*
X156210000Y-98425000D02*
X154305000Y-98425000D01*
X154305000Y-97790000D01*
X156210000Y-97790000D01*
X156210000Y-98425000D01*
G36*
X156210000Y-100330000D02*
G01*
X153670000Y-100330000D01*
X153670000Y-99695000D01*
X156210000Y-99695000D01*
X156210000Y-100330000D01*
G37*
X156210000Y-100330000D02*
X153670000Y-100330000D01*
X153670000Y-99695000D01*
X156210000Y-99695000D01*
X156210000Y-100330000D01*
G36*
X156210000Y-96520000D02*
G01*
X153670000Y-96520000D01*
X153670000Y-95885000D01*
X156210000Y-95885000D01*
X156210000Y-96520000D01*
G37*
X156210000Y-96520000D02*
X153670000Y-96520000D01*
X153670000Y-95885000D01*
X156210000Y-95885000D01*
X156210000Y-96520000D01*
G36*
X156845000Y-99695000D02*
G01*
X156210000Y-99695000D01*
X156210000Y-96520000D01*
X156845000Y-96520000D01*
X156845000Y-99695000D01*
G37*
X156845000Y-99695000D02*
X156210000Y-99695000D01*
X156210000Y-96520000D01*
X156845000Y-96520000D01*
X156845000Y-99695000D01*
D15*
X157789285Y-126532142D02*
X157836904Y-126579761D01*
X157979761Y-126627380D01*
X158075000Y-126627380D01*
X158217857Y-126579761D01*
X158313095Y-126484523D01*
X158360714Y-126389285D01*
X158408333Y-126198809D01*
X158408333Y-126055952D01*
X158360714Y-125865476D01*
X158313095Y-125770238D01*
X158217857Y-125675000D01*
X158075000Y-125627380D01*
X157979761Y-125627380D01*
X157836904Y-125675000D01*
X157789285Y-125722619D01*
X157360714Y-126627380D02*
X157360714Y-125960714D01*
X157360714Y-126151190D02*
X157313095Y-126055952D01*
X157265476Y-126008333D01*
X157170238Y-125960714D01*
X157075000Y-125960714D01*
X156360714Y-126579761D02*
X156455952Y-126627380D01*
X156646428Y-126627380D01*
X156741666Y-126579761D01*
X156789285Y-126484523D01*
X156789285Y-126103571D01*
X156741666Y-126008333D01*
X156646428Y-125960714D01*
X156455952Y-125960714D01*
X156360714Y-126008333D01*
X156313095Y-126103571D01*
X156313095Y-126198809D01*
X156789285Y-126294047D01*
X155455952Y-126627380D02*
X155455952Y-126103571D01*
X155503571Y-126008333D01*
X155598809Y-125960714D01*
X155789285Y-125960714D01*
X155884523Y-126008333D01*
X155455952Y-126579761D02*
X155551190Y-126627380D01*
X155789285Y-126627380D01*
X155884523Y-126579761D01*
X155932142Y-126484523D01*
X155932142Y-126389285D01*
X155884523Y-126294047D01*
X155789285Y-126246428D01*
X155551190Y-126246428D01*
X155455952Y-126198809D01*
X155122619Y-125960714D02*
X154741666Y-125960714D01*
X154979761Y-125627380D02*
X154979761Y-126484523D01*
X154932142Y-126579761D01*
X154836904Y-126627380D01*
X154741666Y-126627380D01*
X154408333Y-126627380D02*
X154408333Y-125960714D01*
X154408333Y-125627380D02*
X154455952Y-125675000D01*
X154408333Y-125722619D01*
X154360714Y-125675000D01*
X154408333Y-125627380D01*
X154408333Y-125722619D01*
X154027380Y-125960714D02*
X153789285Y-126627380D01*
X153551190Y-125960714D01*
X152789285Y-126579761D02*
X152884523Y-126627380D01*
X153075000Y-126627380D01*
X153170238Y-126579761D01*
X153217857Y-126484523D01*
X153217857Y-126103571D01*
X153170238Y-126008333D01*
X153075000Y-125960714D01*
X152884523Y-125960714D01*
X152789285Y-126008333D01*
X152741666Y-126103571D01*
X152741666Y-126198809D01*
X153217857Y-126294047D01*
X157979761Y-128182142D02*
X158027380Y-128229761D01*
X158170238Y-128277380D01*
X158265476Y-128277380D01*
X158408333Y-128229761D01*
X158503571Y-128134523D01*
X158551190Y-128039285D01*
X158598809Y-127848809D01*
X158598809Y-127705952D01*
X158551190Y-127515476D01*
X158503571Y-127420238D01*
X158408333Y-127325000D01*
X158265476Y-127277380D01*
X158170238Y-127277380D01*
X158027380Y-127325000D01*
X157979761Y-127372619D01*
X157408333Y-128277380D02*
X157503571Y-128229761D01*
X157551190Y-128182142D01*
X157598809Y-128086904D01*
X157598809Y-127801190D01*
X157551190Y-127705952D01*
X157503571Y-127658333D01*
X157408333Y-127610714D01*
X157265476Y-127610714D01*
X157170238Y-127658333D01*
X157122619Y-127705952D01*
X157075000Y-127801190D01*
X157075000Y-128086904D01*
X157122619Y-128182142D01*
X157170238Y-128229761D01*
X157265476Y-128277380D01*
X157408333Y-128277380D01*
X156646428Y-128277380D02*
X156646428Y-127610714D01*
X156646428Y-127705952D02*
X156598809Y-127658333D01*
X156503571Y-127610714D01*
X156360714Y-127610714D01*
X156265476Y-127658333D01*
X156217857Y-127753571D01*
X156217857Y-128277380D01*
X156217857Y-127753571D02*
X156170238Y-127658333D01*
X156075000Y-127610714D01*
X155932142Y-127610714D01*
X155836904Y-127658333D01*
X155789285Y-127753571D01*
X155789285Y-128277380D01*
X155313095Y-128277380D02*
X155313095Y-127610714D01*
X155313095Y-127705952D02*
X155265476Y-127658333D01*
X155170238Y-127610714D01*
X155027380Y-127610714D01*
X154932142Y-127658333D01*
X154884523Y-127753571D01*
X154884523Y-128277380D01*
X154884523Y-127753571D02*
X154836904Y-127658333D01*
X154741666Y-127610714D01*
X154598809Y-127610714D01*
X154503571Y-127658333D01*
X154455952Y-127753571D01*
X154455952Y-128277380D01*
X153836904Y-128277380D02*
X153932142Y-128229761D01*
X153979761Y-128182142D01*
X154027380Y-128086904D01*
X154027380Y-127801190D01*
X153979761Y-127705952D01*
X153932142Y-127658333D01*
X153836904Y-127610714D01*
X153694047Y-127610714D01*
X153598809Y-127658333D01*
X153551190Y-127705952D01*
X153503571Y-127801190D01*
X153503571Y-128086904D01*
X153551190Y-128182142D01*
X153598809Y-128229761D01*
X153694047Y-128277380D01*
X153836904Y-128277380D01*
X153075000Y-127610714D02*
X153075000Y-128277380D01*
X153075000Y-127705952D02*
X153027380Y-127658333D01*
X152932142Y-127610714D01*
X152789285Y-127610714D01*
X152694047Y-127658333D01*
X152646428Y-127753571D01*
X152646428Y-128277380D01*
X152217857Y-128229761D02*
X152122619Y-128277380D01*
X151932142Y-128277380D01*
X151836904Y-128229761D01*
X151789285Y-128134523D01*
X151789285Y-128086904D01*
X151836904Y-127991666D01*
X151932142Y-127944047D01*
X152075000Y-127944047D01*
X152170238Y-127896428D01*
X152217857Y-127801190D01*
X152217857Y-127753571D01*
X152170238Y-127658333D01*
X152075000Y-127610714D01*
X151932142Y-127610714D01*
X151836904Y-127658333D01*
D16*
X161575714Y-127535714D02*
X161647142Y-127607142D01*
X161861428Y-127678571D01*
X162004285Y-127678571D01*
X162218571Y-127607142D01*
X162361428Y-127464285D01*
X162432857Y-127321428D01*
X162504285Y-127035714D01*
X162504285Y-126821428D01*
X162432857Y-126535714D01*
X162361428Y-126392857D01*
X162218571Y-126250000D01*
X162004285Y-126178571D01*
X161861428Y-126178571D01*
X161647142Y-126250000D01*
X161575714Y-126321428D01*
X160075714Y-127535714D02*
X160147142Y-127607142D01*
X160361428Y-127678571D01*
X160504285Y-127678571D01*
X160718571Y-127607142D01*
X160861428Y-127464285D01*
X160932857Y-127321428D01*
X161004285Y-127035714D01*
X161004285Y-126821428D01*
X160932857Y-126535714D01*
X160861428Y-126392857D01*
X160718571Y-126250000D01*
X160504285Y-126178571D01*
X160361428Y-126178571D01*
X160147142Y-126250000D01*
X160075714Y-126321428D01*
D14*
X163195000Y-127000000D02*
G75*
G03*
X163195000Y-127000000I-1905000J0D01*
G01*
X133440714Y-130147142D02*
X133583571Y-130218571D01*
X133869285Y-130218571D01*
X134012142Y-130147142D01*
X134083571Y-130075714D01*
X134155000Y-129932857D01*
X134155000Y-129504285D01*
X134083571Y-129361428D01*
X134012142Y-129290000D01*
X133869285Y-129218571D01*
X133583571Y-129218571D01*
X133440714Y-129290000D01*
X132583571Y-130218571D02*
X132726428Y-130147142D01*
X132797857Y-130075714D01*
X132869285Y-129932857D01*
X132869285Y-129504285D01*
X132797857Y-129361428D01*
X132726428Y-129290000D01*
X132583571Y-129218571D01*
X132369285Y-129218571D01*
X132226428Y-129290000D01*
X132155000Y-129361428D01*
X132083571Y-129504285D01*
X132083571Y-129932857D01*
X132155000Y-130075714D01*
X132226428Y-130147142D01*
X132369285Y-130218571D01*
X132583571Y-130218571D01*
X131440714Y-130218571D02*
X131440714Y-129218571D01*
X131440714Y-129361428D02*
X131369285Y-129290000D01*
X131226428Y-129218571D01*
X131012142Y-129218571D01*
X130869285Y-129290000D01*
X130797857Y-129432857D01*
X130797857Y-130218571D01*
X130797857Y-129432857D02*
X130726428Y-129290000D01*
X130583571Y-129218571D01*
X130369285Y-129218571D01*
X130226428Y-129290000D01*
X130155000Y-129432857D01*
X130155000Y-130218571D01*
X129440714Y-129218571D02*
X129440714Y-130718571D01*
X129440714Y-129290000D02*
X129297857Y-129218571D01*
X129012142Y-129218571D01*
X128869285Y-129290000D01*
X128797857Y-129361428D01*
X128726428Y-129504285D01*
X128726428Y-129932857D01*
X128797857Y-130075714D01*
X128869285Y-130147142D01*
X129012142Y-130218571D01*
X129297857Y-130218571D01*
X129440714Y-130147142D01*
X127869285Y-130218571D02*
X128012142Y-130147142D01*
X128083571Y-130004285D01*
X128083571Y-128718571D01*
X127297857Y-130218571D02*
X127297857Y-129218571D01*
X127297857Y-128718571D02*
X127369285Y-128790000D01*
X127297857Y-128861428D01*
X127226428Y-128790000D01*
X127297857Y-128718571D01*
X127297857Y-128861428D01*
X125940714Y-130218571D02*
X125940714Y-129432857D01*
X126012142Y-129290000D01*
X126155000Y-129218571D01*
X126440714Y-129218571D01*
X126583571Y-129290000D01*
X125940714Y-130147142D02*
X126083571Y-130218571D01*
X126440714Y-130218571D01*
X126583571Y-130147142D01*
X126655000Y-130004285D01*
X126655000Y-129861428D01*
X126583571Y-129718571D01*
X126440714Y-129647142D01*
X126083571Y-129647142D01*
X125940714Y-129575714D01*
X125226428Y-129218571D02*
X125226428Y-130218571D01*
X125226428Y-129361428D02*
X125155000Y-129290000D01*
X125012142Y-129218571D01*
X124797857Y-129218571D01*
X124655000Y-129290000D01*
X124583571Y-129432857D01*
X124583571Y-130218571D01*
X124083571Y-129218571D02*
X123512142Y-129218571D01*
X123869285Y-128718571D02*
X123869285Y-130004285D01*
X123797857Y-130147142D01*
X123655000Y-130218571D01*
X123512142Y-130218571D01*
D17*
X132333571Y-127722142D02*
X133333571Y-126293571D01*
X134047857Y-127722142D02*
X134047857Y-124722142D01*
X132905000Y-124722142D01*
X132619285Y-124865000D01*
X132476428Y-125007857D01*
X132333571Y-125293571D01*
X132333571Y-125722142D01*
X132476428Y-126007857D01*
X132619285Y-126150714D01*
X132905000Y-126293571D01*
X134047857Y-126293571D01*
X130619285Y-127722142D02*
X130905000Y-127579285D01*
X131047857Y-127436428D01*
X131190714Y-127150714D01*
X131190714Y-126293571D01*
X131047857Y-126007857D01*
X130905000Y-125865000D01*
X130619285Y-125722142D01*
X130190714Y-125722142D01*
X129905000Y-125865000D01*
X129762142Y-126007857D01*
X129619285Y-126293571D01*
X129619285Y-127150714D01*
X129762142Y-127436428D01*
X129905000Y-127579285D01*
X130190714Y-127722142D01*
X130619285Y-127722142D01*
X128333571Y-127722142D02*
X128333571Y-124722142D01*
X128333571Y-126150714D02*
X126619285Y-126150714D01*
X126619285Y-127722142D02*
X126619285Y-124722142D01*
X125333571Y-127579285D02*
X124905000Y-127722142D01*
X124190714Y-127722142D01*
X123905000Y-127579285D01*
X123762142Y-127436428D01*
X123619285Y-127150714D01*
X123619285Y-126865000D01*
X123762142Y-126579285D01*
X123905000Y-126436428D01*
X124190714Y-126293571D01*
X124762142Y-126150714D01*
X125047857Y-126007857D01*
X125190714Y-125865000D01*
X125333571Y-125579285D01*
X125333571Y-125293571D01*
X125190714Y-125007857D01*
X125047857Y-124865000D01*
X124762142Y-124722142D01*
X124047857Y-124722142D01*
X123619285Y-124865000D01*
M02*
