M48
; DRILL file {KiCad (5.1.9)-1} date 02/01/22 15:00:48
; FORMAT={-:-/ absolute / inch / decimal}
; #@! TF.CreationDate,2022-02-01T15:00:48+01:00
; #@! TF.GenerationSoftware,Kicad,Pcbnew,(5.1.9)-1
FMAT,2
INCH
T1C0.0118
T2C0.0157
T3C0.0197
T4C0.0236
T5C0.0315
T6C0.0374
T7C0.0394
T8C0.1260
T9C0.0236
%
G90
G05
T1
X5.0264Y-4.5541
X5.0264Y-4.5974
X5.0264Y-4.6486
X5.0264Y-4.6959
X5.0736Y-4.5541
X5.0736Y-4.5974
X5.0736Y-4.6486
X5.0736Y-4.6959
T2
X4.725Y-3.525
X4.9Y-3.85
X4.9Y-4.465
X4.925Y-3.625
X4.925Y-3.95
X5.0Y-3.25
X5.025Y-3.625
X5.07Y-4.48
X5.15Y-3.9
X5.15Y-4.125
X5.15Y-4.25
X5.2Y-3.975
X5.2Y-4.1
X5.285Y-4.88
X5.31Y-5.085
X5.35Y-4.63
X5.35Y-4.68
X5.35Y-4.785
X5.4Y-4.225
X5.4364Y-4.3778
X5.45Y-4.15
X5.45Y-4.515
X5.525Y-3.85
X5.535Y-4.515
X5.575Y-3.85
X5.575Y-4.875
X5.625Y-3.825
X5.625Y-4.875
X5.65Y-4.25
X5.65Y-5.025
X5.675Y-4.875
X5.7Y-4.55
X5.725Y-4.875
X5.75Y-3.875
X5.755Y-4.665
X5.76Y-4.15
X5.8Y-3.975
X5.825Y-3.925
X5.85Y-4.615
X5.85Y-4.665
X5.85Y-4.725
X6.005Y-5.1
X6.07Y-4.865
X6.15Y-3.9
X6.175Y-4.925
X6.25Y-4.69
X6.3Y-3.25
X6.375Y-3.25
X6.41Y-4.865
X6.42Y-3.31
T3
X4.5805Y-3.075
X4.5805Y-5.025
X4.6082Y-3.0082
X4.6082Y-3.1418
X4.6082Y-4.9582
X4.6082Y-5.0918
X4.675Y-2.9805
X4.675Y-3.1695
X4.675Y-4.9305
X4.675Y-5.1195
X4.7418Y-3.0082
X4.7418Y-3.1418
X4.7418Y-4.9582
X4.7418Y-5.0918
X4.7695Y-3.075
X4.7695Y-5.025
X6.5305Y-3.075
X6.5305Y-5.025
X6.5582Y-3.0082
X6.5582Y-3.1418
X6.5582Y-4.9582
X6.5582Y-5.0918
X6.625Y-2.9805
X6.625Y-3.1695
X6.625Y-4.9305
X6.625Y-5.1195
X6.6918Y-3.0082
X6.6918Y-3.1418
X6.6918Y-4.9582
X6.6918Y-5.0918
X6.7195Y-3.075
X6.7195Y-5.025
T5
X5.975Y-3.0
X6.075Y-3.0
X6.175Y-3.0
X6.275Y-3.0
X6.3931Y-3.0
T6
X4.75Y-3.9047
X4.75Y-4.0031
X4.75Y-4.1016
X4.75Y-4.2
X5.5Y-3.15
X5.5984Y-3.15
X5.6969Y-3.15
X5.7953Y-3.15
X6.55Y-3.9
X6.55Y-3.9984
X6.55Y-4.0969
X6.55Y-4.1953
T7
X6.475Y-3.4
X6.475Y-3.5
X6.475Y-3.6
T8
X4.675Y-3.075
X4.675Y-5.025
X6.625Y-3.075
X6.625Y-5.025
T9
X5.5362Y-4.9929
X5.7638Y-4.9929
T4
G00X5.4799Y-4.9957
M15
G01X5.4799Y-4.9524
M16
G05
G00X5.4799Y-5.1539
M15
G01X5.4799Y-5.1224
M16
G05
G00X5.8201Y-4.9957
M15
G01X5.8201Y-4.9524
M16
G05
G00X5.8201Y-5.1539
M15
G01X5.8201Y-5.1224
M16
G05
T0
M30
